<?xml version="1.0" encoding="UTF-8" standalone="no"?>
<!-- Created with Inkscape (http://www.inkscape.org/) -->

<svg
   xmlns:dc="http://purl.org/dc/elements/1.1/"
   xmlns:cc="http://creativecommons.org/ns#"
   xmlns:rdf="http://www.w3.org/1999/02/22-rdf-syntax-ns#"
   xmlns:svg="http://www.w3.org/2000/svg"
   xmlns="http://www.w3.org/2000/svg"
   xmlns:sodipodi="http://sodipodi.sourceforge.net/DTD/sodipodi-0.dtd"
   xmlns:inkscape="http://www.inkscape.org/namespaces/inkscape"
   version="1.1"
   id="svg2"
   width="1900"
   height="210.51016"
   viewBox="0 0 1900 210.51016"
   sodipodi:docname="banner.svg"
   inkscape:version="0.92.2 (5c3e80d, 2017-08-06)">
  <metadata
     id="metadata8">
    <rdf:RDF>
      <cc:Work
         rdf:about="">
        <dc:format>image/svg+xml</dc:format>
        <dc:type
           rdf:resource="http://purl.org/dc/dcmitype/StillImage" />
        <dc:title></dc:title>
      </cc:Work>
    </rdf:RDF>
  </metadata>
  <defs
     id="defs6" />
  <sodipodi:namedview
     pagecolor="#ffffff"
     bordercolor="#666666"
     borderopacity="1"
     objecttolerance="10"
     gridtolerance="10"
     guidetolerance="10"
     inkscape:pageopacity="0"
     inkscape:pageshadow="2"
     inkscape:window-width="1920"
     inkscape:window-height="1017"
     id="namedview4"
     showgrid="false"
     inkscape:zoom="1"
     inkscape:cx="898.45425"
     inkscape:cy="30.479844"
     inkscape:window-x="-8"
     inkscape:window-y="-8"
     inkscape:window-maximized="1"
     inkscape:current-layer="svg2" />
  <g
     transform="translate(0,0.01016456)"
     id="g898">
    <path
       style="fill:#73e0d4"
       d="M 0,105 V 0 h 950 950 V 105 210 H 950 0 Z"
       id="path920"
       inkscape:connector-curvature="0" />
    <path
       style="fill:#6bd6c8"
       d="M 0,105 V 0 h 590.0222 590.0222 L 1188,4 c 4.3756,2.2 8.1906,4 8.4778,4 C 1196.765,8 1197,6.2 1197,4 V 0 h 351.5 351.5 v 105 105 h -394.6135 -394.6136 l 0.6705,-4.75 c 1.1306,-8.00934 1.0426,-7.91136 7.7378,-8.61115 5.2774,-0.5516 19.888,0.47812 26.3542,1.85738 1.5167,0.32351 2.6439,-0.5502 4.4225,-3.42804 1.3128,-2.12421 3.8562,-4.56283 5.6519,-5.41914 l 3.2649,-1.55694 -2.3114,-8.29606 -2.3114,-8.29605 6.4192,-6.57056 6.4191,-6.57055 -3.7951,-4.16153 -3.7951,-4.16153 -4.3785,1.22297 c -3.2817,0.91662 -5.5039,2.54034 -8.8714,6.48208 -6.4181,7.51242 -8.839,7.35632 -16.7501,-1.08002 l -6,-6.39838 -8.5,0.78924 c -14.6241,1.35788 -24.9839,1.15388 -25.6203,-0.5045 -0.3066,-0.79903 -2.7178,-2.8391 -5.3583,-4.53348 -4.0781,-2.61689 -4.9793,-3.79077 -5.9865,-7.79722 -0.6522,-2.59408 -2.0594,-6.13184 -3.1271,-7.86169 -1.8781,-3.04269 -2.2358,-3.16846 -10.9791,-3.86048 -7.5448,-0.59714 -9.5245,-1.12484 -11.9839,-3.19427 l -2.9461,-2.47896 -9.0713,2.08863 -9.0714,2.08862 -10.0736,-2.55354 c -5.5405,-1.40445 -10.4136,-2.19158 -10.8289,-1.74918 -0.9631,1.02569 -8.9535,19.89031 -8.9535,21.13835 0,1.81904 4.6068,3.87293 13.6897,6.10336 l 9.1897,2.25666 0.9915,4.6488 c 0.8839,4.1442 0.747,4.97489 -1.2606,7.65299 -1.2386,1.65231 -2.5607,3.52868 -2.938,4.16972 -0.4162,0.70722 3.2463,4.62801 9.3142,9.97101 8.383,7.38161 9.7823,9.02325 8.6533,10.15219 -1.1289,1.12893 -3.2539,0.94413 -13.1411,-1.14285 -11.5621,-2.44048 -11.8837,-2.58262 -16.3202,-7.21253 -3.0644,-3.19792 -7.1711,-5.94516 -12.71817,-8.50791 -4.50583,-2.0817 -8.4777,-4.52833 -8.82638,-5.43696 -0.34867,-0.90863 -0.64009,-3.97775 -0.6476,-6.82027 -0.0254,-9.59289 0.28842,-9.32828 -12.00644,-10.12514 l -10.85125,-0.7033 -6.81433,5.76208 c -3.74788,3.16915 -7.27432,6.37711 -7.83652,7.12881 -0.56221,0.7517 -5.51221,2.48292 -11,3.84716 -5.4878,1.36423 -10.88767,2.93843 -11.99972,3.49821 -1.11204,0.55978 -6.06204,1.61562 -11,2.34631 L 906.5,170.75087 896.30589,163.7238 C 884.83012,155.81325 886.15494,155.83894 877.5,163.35913 l -4,3.47556 3.40428,6.24015 3.40427,6.24015 -4.90427,4.50924 c -2.69736,2.48008 -7.25938,6.68529 -10.13784,9.34491 -3.39842,3.14006 -7.49137,5.68551 -11.67255,7.2593 l -6.439,2.42363 -6.82744,-2.01194 c -4.24503,-1.25095 -7.94277,-3.10205 -9.77617,-4.89399 -1.62179,-1.58512 -2.74679,-3.05019 -2.5,-3.2557 0.2468,-0.20551 5.17372,-2.54121 10.94872,-5.19044 5.775,-2.64923 10.67683,-4.95983 10.89295,-5.13467 0.83226,-0.67329 -11.27533,-13.51171 -14.13923,-14.99269 -3.39107,-1.75359 -2.95382,-2.09489 -7.52836,5.87634 -1.49895,2.61194 -3.34554,4.74944 -4.10353,4.75 -0.75799,5.6e-4 -6.83299,-1.422 -13.5,-3.16125 -8.16718,-2.1306 -12.65298,-3.81534 -13.7499,-5.16408 -1.6295,-2.00358 -15.5207,-7.72473 -19.46791,-8.01795 -1.54542,-0.1148 -4.7448,3.0368 -12.17978,11.99786 -5.54609,6.68445 -9.78999,12.44736 -9.43089,12.80645 0.35909,0.3591 4.43105,2.4234 9.04878,4.58735 7.52037,3.52416 8.33363,4.17002 7.79883,6.19354 -0.32838,1.24251 -1.12854,4.6216 -1.77814,7.5091 L 769.68174,210 H 384.84087 0 Z m 1220.8259,58.25 c 3.2805,-7.96922 4.1994,-15.25 1.9247,-15.25 -1.8867,0 -25.1918,4.1729 -25.6457,4.592 -0.2172,0.20063 2.0328,4.41699 5,9.36967 l 5.3951,9.00489 5.0678,0.0167 5.0678,0.0167 3.1903,-7.75 z M 923.94237,139.30902 c 0.0317,-2.85504 -0.27987,-5.39667 -0.69237,-5.64805 -1.10282,-0.67208 -15.21614,1.90517 -16.28475,2.97378 -0.50905,0.50905 -0.56139,2.22858 -0.11828,3.88544 0.62526,2.33793 2.38041,3.8654 8.22397,7.15716 l 7.42906,4.1849 0.69237,-3.68112 c 0.3808,-2.02462 0.7183,-6.01707 0.75,-8.87211 z m -107.51962,2.19145 C 820.04024,136.27573 823,131.72799 823,131.39438 c 0,-0.33362 -1.33646,-2.29398 -2.9699,-4.35638 -2.45484,-3.09949 -3.94416,-3.94547 -8.58758,-4.878 -5.33372,-1.07116 -5.78525,-1.00037 -8.93295,1.4005 -2.73234,2.08405 -3.39715,3.35605 -3.78092,7.23409 -0.42869,4.33197 -0.0609,5.32049 4.63442,12.45541 2.80503,4.2625 5.41109,7.75 5.79124,7.75 0.38015,0 3.65095,-4.27479 7.26844,-9.49953 z m -290.39239,-5.09673 c 4.6583,-1.97795 9.48064,-3.99124 10.7163,-4.47398 2.22885,-0.87076 2.21232,-0.93143 -2.08533,-7.65374 -2.38259,-3.72681 -5.02618,-8.57602 -5.87463,-10.77602 -1.45899,-3.78311 -1.83814,-4.04803 -6.9925,-4.88586 -8.64711,-1.40557 -9.97045,-0.0289 -12.71712,13.2296 -2.8318,13.66941 -2.60462,16.42878 1.42292,17.2832 5.4863,1.16388 7.00153,0.89819 15.53036,-2.7232 z m 358.06223,-24.05355 c 1.69528,-2.74303 3.28964,-3.66182 9.71771,-5.60012 l 7.6897,-2.31873 2.19056,-5.965671 c 1.2048,-3.281118 2.2173,-6.521784 2.25,-7.201481 0.0327,-0.679696 -1.7203,-2.413585 -3.89553,-3.853085 -2.84767,-1.884498 -5.01749,-4.68704 -7.75,-10.0099 C 892.20776,73.335259 890.275,70.030705 890,70.057748 c -0.275,0.02704 -4.1,4.079037 -8.5,9.004428 -7.69079,8.609131 -8.13528,8.934274 -11.5,8.412342 -8.00169,-1.241213 -9.0611,-1.691984 -10.49546,-4.465739 -1.36439,-2.638446 -1.20727,-3.506524 2.38322,-13.166727 L 865.73168,59.5 863.79774,56.75 c -1.06366,-1.5125 -2.46579,-2.719696 -3.11583,-2.682658 -0.65005,0.03704 -5.23191,1.306691 -10.18191,2.821449 l -9,2.754107 0.34236,7.690987 0.34236,7.690987 -3.52914,1.474568 c -4.06284,1.697562 -4.5535,3.576355 -4.93442,18.894215 l -0.22116,8.893655 5,1.77884 c 2.75,0.97836 5.75651,1.81372 6.68112,1.85635 1.01135,0.0466 3.92725,-3.10977 7.31888,-7.9225 3.10076,-4.4 5.94426,-7.978608 6.31888,-7.952462 0.37461,0.02615 4.95612,6.049242 10.18112,13.384652 10.50714,14.75106 10.30793,14.65974 15.09259,6.918 z M 1107.7032,86.15032 c 2.1609,-0.637851 13.5886,-14.861013 13.0639,-16.259659 -0.558,-1.487473 -12.8988,-9.92731 -13.7482,-9.402351 -0.49,0.302824 -3.2155,4.612897 -6.0568,9.577941 -4.8175,8.418444 -5.0828,9.228148 -3.9329,12.004248 1.885,4.550895 5.0194,5.748914 10.674,4.079821 z M 780.05118,70.836676 c 7.39685,-3.939828 13.63649,-7.315002 13.86587,-7.500387 0.22938,-0.185385 -1.01859,-2.123529 -2.77326,-4.306988 l -3.19032,-3.969924 2.99442,-11.779689 c 4.00228,-15.744431 3.6208,-16.081353 -10.31863,-9.113368 -5.57109,2.784857 -10.29006,5.209995 -10.4866,5.389197 -0.19653,0.179202 1.08347,2.844081 2.84445,5.921954 l 3.20178,5.596131 -7.59444,8.879769 C 761.93924,67.734941 761,69.317542 761,72.749903 c 0,2.15422 0.3,4.216764 0.66667,4.58343 1.65841,1.658418 5.86374,0.172355 18.38451,-6.496657 z m -73.45522,-10.874417 5.09597,-1.040099 -0.47087,-10.21108 c -0.25898,-5.616094 -0.63519,-10.394115 -0.83604,-10.617825 -0.52333,-0.582899 -26.15399,1.645927 -27.33726,2.37723 -0.95284,0.588886 -0.0646,2.916761 6.35265,16.647966 l 2.62575,5.61845 4.73692,-0.867272 c 2.60531,-0.477 7.0301,-1.335317 9.83288,-1.90737 z m 353.84874,147.279811 2.9447,-3.25794 -1.7261,-4.80015 c -0.9494,-2.64009 -1.9605,-6.09249 -2.2469,-7.672 -0.7113,-3.92258 -0.99,-4.25378 -5.5257,-6.56776 -6.2034,-3.1647 -7.8907,-5.35295 -7.8907,-10.23312 v -4.28891 l 9.8942,-4.08615 9.8942,-4.08614 3.0195,3.01949 3.0195,3.0195 8.8363,-1.14645 C 1091.3266,165.75902 1092,166.2556 1092,175.50162 v 6.11936 l 10,6.82952 c 5.5,3.75624 10,7.14613 10,7.5331 0,0.38696 -5.0059,3.08066 -11.1242,5.98598 -11.0953,5.2687 -11.133,5.27819 -14.5339,3.65642 -4.3346,-2.06704 -5.0934,-2.00351 -9.3221,0.78055 l -3.4803,2.29125 -4.8089,-1.99849 -4.8089,-1.99849 -3.2108,2.89959 L 1057.5,210.5 Z M 778.26903,195.30701 c 0.97297,-0.25354 2.32297,-0.23687 3,0.0371 0.67703,0.27393 -0.11903,0.48137 -1.76903,0.46099 -1.65,-0.0204 -2.20394,-0.2445 -1.23097,-0.49804 z"
       id="path918"
       inkscape:connector-curvature="0" />
    <path
       style="fill:#62c9b8"
       d="M 0,105 V 0 H 448.46298 C 894.56795,0 896.95264,0.01051598 902,2 c 6.77491,2.6704201 12.01192,2.6704201 12.71025,0 0.50461,-1.92962763 1.36402,-2 24.42455,-2 h 23.90154 L 973,5 c 12.86823,6.457578 14.50716,6.482678 16.32447,0.25 l 1.38499,-4.75 94.03464,-0.25508228 94.0347,-0.25508228 8.7101,4.00508226 C 1192.2796,6.197713 1196.3793,8 1196.5996,8 1196.8198,8 1197,6.9118044 1197,5.5817875 c 0,-1.3300169 0.2731,-3.1300169 0.607,-4 C 1198.1589,0.14356266 1230.0609,0 1549.107,0 H 1900 V 105 210 H 1588.7215 1277.443 l -1.8126,-7.25 c -0.9969,-3.9875 -2.2857,-8.91392 -2.864,-10.9476 l -1.0516,-3.69759 -7.3752,4.04775 c -4.8143,2.64223 -7.9767,3.80359 -9.1074,3.34457 -0.9527,-0.38675 -5.3853,-0.63042 -9.8502,-0.54149 -7.5585,0.15053 -8.1572,0.0119 -8.6862,-2.01077 -0.8928,-3.41434 8.8451,-18.35696 13.3042,-20.41491 3.3474,-1.54488 3.5,-1.84313 3.5,-6.84095 v -5.22564 l -8.3794,-7.48169 c -5.3467,-4.77381 -9.147,-7.42833 -10.5,-7.33427 -1.1663,0.0811 -3.8461,0.30607 -5.955,0.5 -3.8281,0.35202 -3.8382,0.3431 -6.2397,-5.54207 -2.3336,-5.71864 -2.3567,-6.0322 -0.774,-10.5 l 1.6314,-4.60534 -4.2,-8.34377 c -3.7624,-7.47466 -4.4411,-8.28325 -6.515,-7.76273 -1.6355,0.41049 -5.055,-0.90773 -11.65,-4.49113 -11.1513,-6.059043 -13.403,-5.923749 -18.7545,1.12686 -1.8663,2.45892 -3.9319,4.59994 -4.5901,4.7578 -0.6583,0.15787 -4.062,3.69384 -7.5639,7.85771 -6.2544,7.43663 -6.4363,7.5614 -10.2711,7.04704 -2.1471,-0.28799 -4.0772,-0.69695 -4.289,-0.90878 -0.2119,-0.21184 -1.9302,-6.19437 -3.8185,-13.2945 l -3.4333,-12.90933 4.4011,-5.60182 c 2.4205,-3.081001 4.401,-6.167735 4.401,-6.85941 0,-0.691674 -1.3473,-3.215756 -2.9939,-5.609071 -2.8504,-4.142912 -2.9647,-4.702753 -2.3845,-11.680176 L 1152.231,61.5 l -9,-5.764063 c -10.2153,-6.542407 -11.8648,-9.023465 -10.7853,-16.222153 0.8249,-5.500986 1.7251,-5.419019 -18.3727,-1.672863 -13.3309,2.484843 -14.5464,2.894942 -16,5.398171 -0.8651,1.489969 -5.4151,5.58562 -10.1109,9.101446 -6.1019,4.568561 -9.0438,7.514291 -10.311,10.324487 l -1.7732,3.932075 -6.983,-0.94526 -6.9831,-0.94526 -5.0422,-9.35329 C 1054.0964,50.20898 1051.4561,46 1051.0023,46 c -0.4538,0 -4.359,1.512606 -8.6784,3.361346 -9.782,4.186898 -13.7065,3.987982 -15.4314,-0.782157 -0.7958,-2.200551 -3.0295,-4.413182 -7.1462,-7.078703 l -5.9886,-3.877548 -6.4582,3.438531 -6.4583,3.438531 -3.79262,-4.234403 -3.79264,-4.234404 -8.87797,1.962762 c -4.88288,1.079518 -9.58329,1.9725 -10.44535,1.984403 -1.02234,0.01412 -2.14567,-1.812928 -3.2304,-5.254094 -1.538,-4.87909 -2.14987,-5.555738 -8.13833,-9 C 959.00248,23.675919 955.90419,22 955.67882,22 c -0.45724,0 -11.91199,13.807799 -13.03692,15.714974 -0.45983,0.779592 1.26157,2.528432 4.80376,4.880311 l 5.5204,3.665339 8.95732,-0.700719 8.95732,-0.700718 1.55965,5.251908 C 973.29816,52.999644 974,55.892616 974,56.539921 c 0,0.647306 -2.434,2.793003 -5.40889,4.768217 l -5.40888,3.591298 0.52071,7.800282 0.52071,7.800282 -3.01612,1.75 c -3.37324,1.957211 -12.687,2.401249 -13.76546,0.656274 -0.37177,-0.601549 0.34751,-4.902141 1.5984,-9.556872 1.94938,-7.253867 2.07326,-8.651083 0.86694,-9.778425 -0.77407,-0.723404 -6.48043,-2.110203 -12.68079,-3.081777 -9.4158,-1.47542 -11.19677,-2.03201 -10.8084,-3.377848 0.25574,-0.886244 1.24158,-5.317698 2.19075,-9.847677 1.67037,-7.971969 1.66527,-8.303157 -0.15864,-10.318557 -1.73043,-1.912102 -2.83795,-2.063114 -13.55499,-1.848245 l -11.6706,0.233987 -3.86237,-3.199266 C 897.23807,30.371997 894.375,28.684968 893,28.382641 c -1.375,-0.302328 -3.0244,-0.708359 -3.66534,-0.902292 -0.64094,-0.193932 -2.85466,-3.418847 -4.91939,-7.166477 -2.06473,-3.74763 -3.85793,-6.956483 -3.98491,-7.130784 -0.56784,-0.779515 -16.79985,2.329259 -17.89854,3.427949 -0.67555,0.675551 -1.49192,4.373057 -1.81416,8.216681 C 859.92317,34.304383 858.73444,36 852.88518,36 c -2.54855,0 -6.43878,-0.636859 -8.64495,-1.415242 l -4.01123,-1.415243 -8.30765,5.562018 c -7.79552,5.21914 -8.458,5.475912 -10.74649,4.165243 -1.60764,-0.920734 -3.2682,-3.652973 -4.87232,-8.01679 l -2.43349,-6.620014 -5.28301,-0.620914 c -3.6199,-0.425448 -6.73183,-0.127251 -9.88531,0.947247 -3.06537,1.044477 -5.15814,1.257095 -6.26676,0.636681 -0.91545,-0.512313 -4.2443,-5.609568 -7.39743,-11.327232 C 781.88341,12.178089 778.71255,7.5 777.9902,7.5 c -0.74261,0 -4.0355,6.421186 -7.57727,14.775768 l -6.26391,14.775767 2.40034,1.572766 C 768.79997,40.098952 775,49.060392 775,50.838727 c 0,0.444775 -3.41453,4.794156 -7.58784,9.665291 -7.20013,8.404074 -7.56519,9.064552 -7.14454,12.926295 0.39701,3.64462 0.0361,4.495993 -3.45504,8.151236 -3.80709,3.985997 -3.87496,4.18499 -2.89928,8.5 0.7587,3.355388 0.63531,5.828206 -0.51285,10.277871 -1.2822,4.96918 -1.32717,7.32414 -0.29593,15.5 0.6688,5.30232 1.57141,10.10962 2.00581,10.68289 0.72925,0.96237 -1.26905,18.05023 -2.19841,18.7991 C 750.97218,146.90443 740.94613,152 739.81047,152 c -0.87167,0 -2.7876,-3.27706 -4.82337,-8.25 -1.85751,-4.5375 -4.40114,-10.59512 -5.65251,-13.46138 l -2.27521,-5.21138 -3.27969,1.31374 c -1.80383,0.72256 -4.04706,1.58333 -4.98495,1.91283 -1.53913,0.54072 -1.37287,1.54137 1.70655,10.27086 1.8765,5.31947 3.63141,9.89137 3.89981,10.15977 0.2684,0.2684 -0.78783,1.56154 -2.34719,2.87365 -1.99984,1.68276 -3.67766,2.25283 -5.69455,1.93485 -1.57265,-0.24794 -5.89686,-0.70906 -9.60936,-1.02472 l -6.75,-0.57392 -0.0119,6.27785 c -0.007,3.45282 -0.62335,8.57423 -1.37073,11.38092 l -1.35885,5.10306 3.37072,2.68957 c 1.8539,1.47926 3.37073,3.04587 3.37073,3.48135 0,0.43548 -4.54576,6.60379 -10.10169,13.70736 -5.55593,7.10358 -10.32908,13.47809 -10.60699,14.16559 -0.4004,0.9905 -26.07584,1.25 -123.6772,1.25 h -123.1719 l -6.22111,-6.27691 C 426.7995,200.2708 424,196.95106 424,196.3459 c 0,-0.60517 3.15,-1.9173 7,-2.91586 l 7,-1.81557 v -12.95698 -12.95698 l -9.04098,0.64175 -9.04097,0.64175 0.76784,-7.74201 c 0.42232,-4.2581 0.77826,-9.51452 0.79098,-11.68094 l 0.0231,-3.93893 -8.5,-2.16772 -8.5,-2.16773 -3.70368,2.01477 c -2.03703,1.10812 -3.94017,2.63104 -4.22921,3.38426 -0.44522,1.16022 1.30962,10.71902 3.03272,16.51959 0.32677,1.10003 3.47382,2.67163 8.86649,4.42783 l 8.35993,2.72252 0.55924,4.07218 c 0.30759,2.23969 0.65218,7.22217 0.76576,11.07217 l 0.20651,7 -8.9924,1.57145 c -13.43829,2.34839 -12.70046,1.59301 -9.82211,10.05572 C 400.89446,206.09989 402,209.49649 402,209.67515 402,209.85382 311.55,210 201,210 H 0 Z m 621.46026,50.29219 c 6.82652,-3.37785 7.62369,-4.09033 8.95798,-8.00626 l 1.46463,-4.29845 -5.61028,-6.05977 c -3.08565,-3.33287 -6.9968,-6.64944 -8.69143,-7.37015 -2.98755,-1.27057 -3.22547,-1.17097 -7.83116,3.27844 -2.6125,2.52385 -4.75304,5.28073 -4.75675,6.12641 -0.006,1.46037 8.03207,20.03759 8.67039,20.03759 0.1668,0 3.67528,-1.66851 7.79662,-3.70781 z M 531.27373,156.75 c 0.9108,-0.6875 3.97495,-6.12609 6.80923,-12.08575 4.39576,-9.243 5.44557,-10.7593 7.14206,-10.31566 3.21903,0.8418 21.54897,-11.87191 23.3578,-16.20104 0.79389,-1.90005 1.32503,-3.5605 1.18031,-3.6899 -1.93976,-1.73444 -15.93752,-9.46633 -16.50017,-9.11414 -0.41963,0.26265 -3.44799,5.91781 -6.72969,12.56702 -3.2817,6.64921 -6.26635,12.08947 -6.63254,12.08947 -0.96482,0 -8.46779,-11.85761 -10.23014,-16.16759 -1.24466,-3.04393 -1.33418,-5.59344 -0.52646,-14.993276 0.94511,-10.99859 0.91056,-11.376431 -1.19624,-13.082414 C 526.75469,84.790524 525.45195,84 525.05292,84 c -0.39903,0 -3.82649,1.995195 -7.61656,4.433768 -3.82624,2.461839 -7.34587,4.086757 -7.9137,3.653534 C 501.85057,86.233907 496.72043,83 495.10694,83 c -1.251,0 -4.23608,2.762856 -8.11841,7.514036 l -6.13994,7.514036 1.64292,4.946358 c 1.09358,3.29248 1.42836,6.38065 1.00124,9.23597 l -0.64168,4.2896 12.07447,8.28765 C 505.58792,132.10608 507,133.40811 507,135.92102 c 0,2.94636 1.80081,4.0351 6.72421,4.06533 1.6796,0.0103 3.70596,2.21734 8.27579,9.01365 3.32837,4.95 6.40397,9 6.83466,9 0.4307,0 1.52828,-0.5625 2.43907,-1.25 z m 154.57011,-23.74401 3.34384,-0.006 -0.66618,-5.25 c -0.36639,-2.8875 -0.88427,-6.02279 -1.15085,-6.96732 -0.52375,-1.85576 -17.12687,-12.3598 -18.06057,-11.42609 -0.31119,0.31119 -1.59446,5.64318 -2.85171,11.84888 -1.70421,8.41186 -1.98976,11.49047 -1.12214,12.09806 0.64007,0.44824 4.76377,0.56601 9.16377,0.26172 4.4,-0.30429 9.50473,-0.55596 11.34384,-0.55926 z M 706.00627,109 c 2.67363,0 2.74907,-0.16998 3.8457,-8.66528 0.77098,-5.972524 0.79749,-9.052166 0.0853,-9.910273 -1.00023,-1.2052 -19.5068,-3.188279 -20.49855,-2.19653 -0.25983,0.259829 0.46004,4.477341 1.59971,9.37225 3.21602,13.812953 2.52288,12.731803 7.70703,12.021243 C 701.239,109.27963 704.50635,109 706.00627,109 Z m -2.701,-47.721024 8.9778,-1.721023 -0.58012,-12.277644 -0.58012,-12.277643 -6.87567,-9.925146 c -3.97439,-5.737097 -7.32373,-9.640821 -7.93751,-9.251333 C 695.72564,16.196784 692.6613,21.675 689.5,28 c -3.1613,6.325 -6.21386,11.795938 -6.78348,12.157641 -1.21952,0.774378 -0.11083,3.835485 5.46619,15.092359 2.11179,4.2625 4.35827,7.75 4.99219,7.75 0.63391,0 5.19258,-0.774461 10.13037,-1.721024 z M 1225.8946,34.244395 c 3.358,-4.540582 6.093,-8.815582 6.0779,-9.5 -0.015,-0.684417 -1.5505,-2.369395 -3.412,-3.744395 -2.2018,-1.626422 -4.4239,-4.834613 -6.3594,-9.181179 l -2.9751,-6.6811787 -9.363,2.5317724 c -5.1496,1.3924747 -9.6968,2.8427593 -10.1047,3.2228553 -0.4079,0.380096 -0.056,4.272329 0.7817,8.649407 0.8379,4.377078 1.6323,9.297483 1.7655,10.934235 0.2048,2.518353 1.3915,3.702511 7.7182,7.701632 4.112,2.599146 7.9914,4.634985 8.6209,4.524088 0.6295,-0.110898 3.892,-3.916654 7.25,-8.457237 z M 1206.8298,196.75 C 1202.1173,192.28016 1195,183.20615 1195,181.66801 c 0,-0.2594 2.8103,-2.55999 6.2451,-5.11242 5.8783,-4.36829 6.5682,-4.62359 11.75,-4.34818 l 5.5049,0.29259 1.7483,5.26997 1.7483,5.26997 -4.43,9.48003 c -2.4366,5.21402 -4.6037,9.48003 -4.816,9.48003 -0.2122,0 -2.8766,-2.3625 -5.9208,-5.25 z M 1069.5633,99.572647 c -6.3558,-1.965837 -6.4477,-3.142367 -1.0232,-13.093715 l 4.8233,-8.848507 1.7381,4.092584 c 0.956,2.250921 2.5282,6.598884 3.4938,9.66214 1.6881,5.35507 1.6852,5.647449 -0.075,7.592204 -2.0499,2.265147 -3.2917,2.347677 -8.9572,0.595294 z"
       id="path916"
       inkscape:connector-curvature="0" />
    <path
       style="fill:#5dc1ae"
       d="M 0,105 V 0 h 388.75945 c 387.33759,0 388.76401,0.00729583 390.00522,1.9947837 1.05271,1.6856598 0.93502,2.3055245 -0.75945,4 C 776.31889,7.6811061 774.6739,8 767.66142,8 h -8.33858 l -6.84799,8.641176 -6.84798,8.641176 -4.06344,-4.874019 c -2.23488,-2.68071 -5.46351,-6.426356 -7.17472,-8.323659 l -3.11128,-3.4496403 -5.03553,3.9324833 c -4.95771,3.871709 -5.05457,4.052884 -6.26732,11.723304 -1.10118,6.964799 -1.53095,7.945531 -4.05352,9.25 C 714.3691,34.34337 712.6956,35 712.20217,35 c -0.49343,0 -3.9095,-4.524382 -7.59126,-10.054183 -5.06147,-7.602032 -7.11079,-9.925541 -8.40251,-9.526732 -0.93962,0.290097 -5.46087,-0.07958 -10.04722,-0.821507 l -8.33883,-1.348956 -2.02063,4.625689 C 674.69037,20.41844 672.98877,24.3 672.02039,26.5 l -1.76069,4 3.28641,4.519892 3.2864,4.519893 -6.91019,7.978087 c -3.80061,4.387948 -7.35498,8.126348 -7.8986,8.307556 -0.54363,0.181207 -4.48385,-2.359597 -8.75606,-5.646233 -7.60133,-5.847739 -7.87689,-5.964754 -12.86876,-5.464526 -4.24954,0.425841 -5.37636,0.977155 -6.75,3.302545 -0.90689,1.535253 -1.66313,3.621939 -1.68051,4.637078 -0.0174,1.015139 -1.70489,4.995708 -3.75,8.845708 l -3.71839,7 -8,0.898591 c -4.4,0.494225 -8.11423,0.98346 -8.25385,1.087187 -0.13962,0.103728 -0.72306,2.726761 -1.29654,5.828963 -0.9211,4.982691 -0.81754,5.963639 0.88812,8.412813 2.51406,3.60997 5.63626,22.518276 4.17052,25.257036 -0.72794,1.36016 -0.54479,4.06774 0.6398,9.45881 l 1.65968,7.55315 -5.4839,5.75172 -5.4839,5.75173 -6.51422,-2.5 c -5.82423,-2.2352 -7.4434,-3.53719 -15.28674,-12.29223 -8.2809,-9.24346 -8.68025,-9.89417 -7.12611,-11.61149 0.90553,-1.00059 3.39384,-2.60724 5.52958,-3.57032 4.162,-1.87681 5.02206,-3.59526 5.04391,-10.078117 0.0135,-4.005647 0.11772,-4.119068 9.08109,-9.881673 l 9.06744,-5.829516 -4.31744,-2.468531 c -2.37459,-1.357691 -8.35955,-4.505493 -13.29991,-6.995114 -9.98155,-5.030057 -11.07135,-6.081262 -11.94069,-11.517816 -0.94755,-5.925675 -6.58663,-16.540835 -9.12548,-17.178044 -1.19942,-0.301035 -4.5873,0.270673 -7.52863,1.270461 l -5.34787,1.817798 -3.76613,9.292843 -3.76612,9.292843 2.06836,2.904754 c 1.69178,2.37588 1.94925,3.770841 1.41414,7.661594 l -0.65423,4.75684 -8.18544,2.234871 c -4.50199,1.229179 -8.6695,2.224965 -9.26113,2.212859 -2.07229,-0.04241 -5.13075,-4.579359 -7.43018,-11.022012 -1.27594,-3.575 -2.75169,-7.0625 -3.27945,-7.75 -2.10405,-2.740889 -5.25767,-1.08059 -13.77084,7.25 -4.77747,4.675 -9.53759,8.5 -10.57805,8.5 -1.15465,0 -4.22449,2.919475 -7.87876,7.492851 -3.82309,4.784651 -6.70991,7.49972 -7.98703,7.511855 -1.1,0.01045 -7.79593,1.357578 -14.87984,2.993614 -7.08391,1.63604 -13.83391,2.73563 -15,2.44354 -2.9557,-0.74036 -10.11811,6.74039 -12.56434,13.12277 l -1.89162,4.93537 -7.17397,-0.14187 c -3.94568,-0.078 -7.68085,-0.64875 -8.30037,-1.26827 -0.61953,-0.61953 -2.55377,-4.56932 -4.29833,-8.77731 l -3.17191,-7.65091 10.66384,-8.204678 c 7.91427,-6.089183 11.74281,-8.386973 14.84846,-8.911671 4.41698,-0.746244 4.68838,-1.128201 5.71654,-8.045291 l 0.59456,-4 -11.1177,-6.873431 -11.11771,-6.873431 -2.65381,1.979129 c -1.45959,1.08852 -2.93806,3.281564 -3.28549,4.873431 L 414.23663,70.5 414.11831,67.830154 c -0.10914,-2.462893 -0.65684,-2.792332 -7.06572,-4.25 -8.75346,-1.990934 -8.42801,-2.007965 -12.48811,0.653497 -2.66079,1.744194 -3.53688,3.113748 -3.99802,6.25 -0.64964,4.418173 1.95832,12.635855 5.65985,17.834178 1.14839,1.612757 2.43188,4.788509 2.8522,7.057228 0.92169,4.974863 -0.30043,6.580033 -9.64525,12.668423 -9.53148,6.21001 -12.04123,6.60761 -19.72289,3.12458 l -6.39119,-2.89791 -9.52626,10.14456 -9.52626,10.14455 3.90327,5.42536 c 3.38457,4.70439 4.96154,5.8858 11.86667,8.89008 7.35924,3.20185 7.9634,3.6877 7.9634,6.40408 0,1.61666 0.99513,6.73359 2.2114,11.37096 l 2.2114,8.43158 -4.13023,3.70934 c -3.24332,2.91281 -4.60371,5.21249 -6.33516,10.70934 -1.21271,3.85 -2.53267,7.36093 -2.93325,7.80208 -0.40057,0.44114 -3.7112,0.25245 -7.35696,-0.4193 -8.19942,-1.51081 -10.77396,-0.554 -13.64332,5.07041 l -2.05757,4.03318 2.33724,3.75681 c 1.28549,2.06625 2.66962,4.31932 3.07586,5.00682 0.58972,0.99801 -33.74592,1.25 -170.32039,1.25 H 0 Z m 349.08333,104.62718 c 0.22917,-0.20506 1.86193,-1.10769 3.62835,-2.00587 3.06527,-1.55859 3.26061,-1.5416 4.28518,0.37283 1.0038,1.87562 0.76821,2.00586 -3.62834,2.00586 -2.58602,0 -4.51435,-0.16777 -4.28519,-0.37282 z m 109.87941,-5.57231 c 2.22049,-3.26982 4.03169,-6.30732 4.02488,-6.75 -0.007,-0.44268 -1.59315,-1.82894 -3.52521,-3.08059 l -3.51284,-2.27572 0.57625,-6.72428 c 1.16816,-13.63131 0.58981,-12.64298 9.50039,-16.23484 4.38558,-1.76784 7.97379,-3.44938 7.97379,-3.73676 0,-0.28739 -2.925,-4.34327 -6.5,-9.01306 -3.575,-4.6698 -6.5,-8.92753 -6.5,-9.46163 0,-0.5341 1.74986,-2.95904 3.88859,-5.38876 2.69915,-3.0664 4.08465,-5.72509 4.52956,-8.69196 0.52123,-3.47583 1.24257,-4.59858 3.86141,-6.01019 1.77124,-0.95474 4.29095,-3.29991 5.59934,-5.21149 1.3084,-1.91157 2.77414,-3.47559 3.2572,-3.47559 0.48306,0 6.02604,3.42844 12.31773,7.61876 9.05229,6.02891 11.56941,8.21055 12.0623,10.45467 0.61977,2.82182 1.26325,3.22587 6.98387,4.38526 2.40929,0.48829 4.08297,2.27972 8.5,9.09804 4.91466,7.58647 5.79525,8.4618 8.27426,8.22479 2.93342,-0.28045 18.61849,7.85061 18.74723,9.71848 0.0379,0.55 2.63609,2.59708 5.77372,4.54907 l 5.70479,3.54908 10.35638,-3.23388 C 584.19248,168.19994 586,168.65384 586,176.16708 c 0,4.30678 0.70541,6.40397 4.04466,12.02475 3.8325,6.45106 4.23901,6.8088 7.75,6.82013 3.10746,0.01 4.95585,1.07595 11.45534,6.60594 4.2625,3.62668 7.75,6.9963 7.75,7.48804 C 617,209.59878 608.78762,210 598.69962,210 h -18.30039 l -5.60987,-5 c -3.08543,-2.75 -6.35484,-5 -7.26536,-5 -0.91051,0 -2.54709,-0.47717 -3.63683,-1.06039 -1.62957,-0.87211 -3.21583,-0.29862 -8.93426,3.23006 C 550.58396,204.86563 548,207.1179 548,208.23006 548,209.89796 545.31699,210 501.46274,210 H 454.92548 Z M 1363.6274,207.25 c 0.366,-1.5125 1.0245,-3.72595 1.4634,-4.91879 0.6951,-1.8893 -0.033,-2.71036 -5.6526,-6.3715 l -6.4506,-4.20272 -5.9443,1.49738 c -5.8248,1.46726 -6.0156,1.44897 -9.4852,-0.90871 -3.5012,-2.37907 -3.6321,-2.39035 -11.6617,-1.00368 -7.1804,1.24003 -8.6867,1.22143 -13.0086,-0.16066 l -4.8878,-1.56307 -0.15,-8.80912 c -0.082,-4.84502 -0.195,-9.35132 -0.25,-10.014 -0.055,-0.66268 3.1446,-3.11763 7.1102,-5.45544 l 7.2102,-4.25058 3.5115,4.1024 3.5115,4.10241 9.2783,-3.27494 c 5.1031,-1.80122 9.588,-3.55485 9.9666,-3.89696 0.3786,-0.34211 0.9807,-2.87202 1.3379,-5.62202 0.6165,-4.74587 0.5036,-5.0853 -2.2213,-6.67835 -1.579,-0.92309 -6.906,-2.38126 -11.8379,-3.24038 -5.9339,-1.03367 -9.3932,-2.14191 -10.2269,-3.27636 -1.1716,-1.59413 -2.2934,-1.4172 -16,2.52347 -8.1071,2.33079 -15.4151,4.24474 -16.2401,4.25323 -0.825,0.008 -4.4179,1.51577 -7.9842,3.34953 l -6.4842,3.33409 -7.7459,-5.99216 c -7.3807,-5.70963 -7.7762,-6.22068 -8.3888,-10.83898 -0.3719,-2.80326 -1.4344,-5.563 -2.5199,-6.54544 -1.0324,-0.93424 -1.8764,-2.41638 -1.8757,-3.29364 0,-4.1018 5.2138,-22.46699 7.0969,-25.01392 2.9291,-3.9619 1.9131,-9.032777 -3.6023,-17.978495 l -4.3569,-7.066693 5.3478,-4.568748 5.3477,-4.568749 -1.9841,-5.875437 -1.9842,-5.875437 -5.1831,1.496639 c -2.8507,0.823152 -7.9608,2.310784 -11.3558,3.305851 l -6.1727,1.809211 -0.6683,-4.859114 -0.6683,-4.859113 -9.5429,-4.520503 C 1225.0265,49.034226 1220.3869,47 1219.9649,47 c -0.422,0 -1.6498,1.495652 -2.7284,3.323671 -1.2245,2.075472 -5.3394,5.455405 -10.957,9 -8.9283,5.633567 -11.2795,6.606613 -11.2795,4.668101 0,-1.038994 4.3002,-19.630574 6.0552,-26.179192 l 0.9882,-3.68742 7.9607,4.93742 C 1214.3826,41.778161 1218.3393,44 1218.7969,44 1220.2444,44 1232,27.125161 1232,25.04725 c 0,-1.093056 -1.2784,-2.932531 -2.8409,-4.087721 -3.8995,-2.883037 -9.6445,-14.8895601 -8.7774,-18.3441386 L 1221.0381,0 H 1560.5191 1900 V 105.00227 210.00453 L 1683.25,209.75227 1466.5,209.5 l -0.3066,-2.64817 c -0.5862,-5.06349 -8.52,-5.23141 -16.6234,-0.35183 l -5.8123,3.5 -23.6289,-0.0789 c -12.9958,-0.0434 -23.0663,-0.30592 -22.3788,-0.58333 0.6875,-0.27741 1.25,-0.94483 1.25,-1.48315 0,-0.99273 -13.0807,-16.63768 -14,-16.74447 -0.275,-0.0319 -3.5264,1.86522 -7.2253,4.21592 l -6.7253,4.27399 3.5019,5.19999 3.5018,5.2 h -7.5456 -7.5456 l 0.6655,-2.75 z m 25.0975,-34.16765 c 2.3978,-1.89042 4.4318,-5.45684 7.9305,-13.90577 3.6531,-8.82198 5.2484,-11.56972 7.1333,-12.28633 2.0709,-0.78739 2.3458,-1.39824 1.87,-4.15664 -0.3068,-1.77849 -0.8568,-5.25861 -1.2223,-7.73361 -0.6502,-4.40245 -0.8774,-4.63683 -10.483,-10.81149 l -9.8183,-6.31148 -7.5676,3.49641 -7.5675,3.49642 v 7.10723 c 0,3.90897 0.6523,10.35076 1.4496,14.31507 0.7972,3.96431 1.9325,10.13284 2.5228,13.70784 1.7359,10.51365 1.8513,10.76797 6.284,13.84688 4.5166,3.13716 4.5199,3.13689 9.4685,-0.76453 z M 1311.857,60.847239 c 2.8287,-2.559018 5.143,-5.081658 5.143,-5.605865 0,-1.395573 -16.3886,-7.06803 -19.1482,-6.62764 -1.9209,0.306536 -3.442,-1.005446 -8.3018,-7.160626 l -5.9499,-7.535924 -6.9793,6.979306 -6.9794,6.979306 7.7784,8.56768 7.7783,8.567679 3.6545,-2.894394 3.6544,-2.894393 6.4965,3.337436 c 3.5731,1.83559 6.7697,3.248057 7.1035,3.138816 0.3339,-0.109241 2.9214,-2.292362 5.75,-4.851381 z M 621.45344,130.07534 c 0.6956,-1.12551 9.5907,-6.36595 10.03755,-5.9135 0.18368,0.18599 -2.1228,1.79192 -5.12553,3.56875 -3.00272,1.77682 -5.21314,2.83196 -4.91202,2.34475 z M 633.75,123.33772 c 0.6875,-0.27741 1.8125,-0.27741 2.5,0 0.6875,0.27741 0.125,0.50439 -1.25,0.50439 -1.375,0 -1.9375,-0.22698 -1.25,-0.50439 z m 5.0625,-1.02083 c 0.72187,-0.28887 1.58438,-0.25335 1.91667,0.0789 0.33229,0.3323 -0.25834,0.56864 -1.3125,0.52522 -1.16495,-0.048 -1.4019,-0.28494 -0.60417,-0.60416 z m 5,-1 c 0.72187,-0.28887 1.58438,-0.25335 1.91667,0.0789 0.33229,0.3323 -0.25834,0.56864 -1.3125,0.52522 -1.16495,-0.048 -1.4019,-0.28494 -0.60417,-0.60416 z M 642.21831,110.461 c -3.07568,-4.18096 -3.57789,-4.46196 -8,-4.47631 -7.48309,-0.0243 -7.54319,-0.14186 -6.18027,-12.089384 C 629.56589,80.501964 630.00234,80 640.1198,80 c 6.66787,0 7.95953,-0.279709 8.8336,-1.912921 0.56307,-1.052106 3.49881,-4.02742 6.52387,-6.611807 l 5.5001,-4.698887 11.51132,10.213576 C 678.81991,82.607428 684,87.3042 684,87.427232 c 0,0.123032 -3.36307,2.354114 -7.47348,4.95796 -7.29631,4.622032 -7.48863,4.848498 -8.11268,9.552798 l -0.6392,4.81853 -10.43733,4.12174 c -5.74053,2.26696 -10.75232,4.10419 -11.13732,4.08274 -0.38499,-0.0215 -2.17675,-2.04645 -3.98168,-4.5 z M 1158.3688,40.968845 c -1.5105,-1.510528 0.7035,-15.0291 2.6312,-16.065846 0.825,-0.443697 4.0875,-1.085764 7.25,-1.426817 3.5284,-0.38051 5.75,-1.092727 5.75,-1.843368 0,-0.6728 -1.2891,-5.027919 -2.8647,-9.678043 L 1168.2706,3.5 l -5.3853,0.2226682 c -5.3188,0.219919 -5.4717,0.3150841 -12.3853,7.7077598 -3.85,4.116801 -8.575,8.170053 -10.5,9.007228 -1.925,0.837175 -4.2118,2.043652 -5.0819,2.681061 -1.2529,0.917972 -3.407,0.470044 -10.3606,-2.154424 l -8.7789,-3.31335 -7.7621,2.043917 -7.7621,2.043916 -4.7211,-3.619388 c -3.4916,-2.676762 -5.3143,-5.078875 -6.9987,-9.2233561 C 1084.6606,-0.63601662 1081.4831,0 1132.9791,0 h 44.8798 l 9.4375,4.3802665 c 5.1907,2.4091466 9.798,4.9635227 10.2386,5.6763915 1.1259,1.821702 4.3568,20.06165 3.8073,21.493683 -0.6718,1.750612 -18.8443,3.633674 -21.8501,2.264137 -2.036,-0.927658 -3.4699,-0.431372 -10.2672,3.55364 -8.4188,4.935569 -9.2467,5.210172 -10.8562,3.600727 z"
       id="path914"
       inkscape:connector-curvature="0" />
    <path
       style="fill:#58b9a5"
       d="M 0,105 V 0 h 250 c 199.3307,0 250.001,0.25334652 250.00495,1.25 0.003,0.6875 -0.73417,3.3123832 -1.63752,5.8330738 -1.53135,4.2730132 -1.5256,5.1083722 0.085,12.3476232 l 1.72745,7.764549 8.62983,-0.347623 8.62983,-0.347623 1.03024,5.892177 1.03024,5.892177 6.82205,2.028289 c 6.0162,1.788698 6.75622,2.273935 6.26473,4.107823 -0.30652,1.143744 -1.30795,5.829407 -2.22539,10.412585 -1.88421,9.412812 -2.91843,10.371193 -11.49392,10.651081 -4.3094,0.14065 -5.2398,0.704495 -13.3387,8.083532 -9.73745,8.871949 -12.49286,10.431045 -14.02877,7.937933 -0.55,-0.892766 -2.64095,-4.241221 -4.64657,-7.441011 l -3.64656,-5.8178 -7.85344,-1.69586 c -4.31938,-0.932723 -9.03776,-2.537412 -10.48528,-3.565975 l -2.63184,-1.870115 -7.7021,4.863559 c -4.23615,2.674958 -8.52199,5.605557 -9.52408,6.512442 -1.71421,1.551334 -2.46353,1.249904 -12.66606,-5.09516 -5.96424,-3.709223 -11.00766,-6.866753 -11.20761,-7.016732 -0.19994,-0.149979 0.59264,-3.420677 1.76129,-7.268218 2.01749,-6.642146 2.041,-7.171308 0.46548,-10.475215 -0.91264,-1.913827 -2.60522,-3.733602 -3.76129,-4.043944 -4.02884,-1.081527 -18.45563,-0.637323 -19.21517,0.591638 -0.40219,0.650763 -0.93819,5.83594 -1.1911,11.522614 l -0.45984,10.339407 -4.11792,2.759636 C 391.20945,66.089061 390.41386,67.248075 390,70.53225 l -0.5,3.96775 -11.99407,3.257217 -11.99407,3.257216 -3.00593,-3.435075 c -2.83611,-3.241006 -11.17966,-8.238962 -12.14407,-7.274547 -0.99064,0.990637 -7.12251,25.725079 -6.47645,26.124368 0.38348,0.237002 3.60364,1.541573 7.15591,2.899045 3.55227,1.357476 7.19992,2.769346 8.10588,3.137496 1.30187,0.52903 2.00458,-0.40661 3.35188,-4.462962 0.93758,-2.822778 1.90316,-4.933849 2.14574,-4.69127 0.24258,0.24258 -0.41426,2.692051 -1.45964,5.443269 -1.32243,3.480373 -1.61082,5.520173 -0.94792,6.704723 1.00274,1.7918 0.77322,2.10137 -12.58182,16.97054 l -5.84455,6.50719 4.34455,5.63218 c 3.67706,4.76685 5.49636,6.12433 11.84126,8.83539 4.34356,1.85593 7.62827,3.88636 7.8095,4.8274 0.19837,1.03007 -3.01878,4.39706 -8.79494,9.20456 -13.12516,10.92407 -13.386,11.06688 -17.80698,9.74881 -2.03736,-0.60741 -7.19178,-1.28006 -11.45428,-1.49478 l -7.75,-0.3904 0.0157,7.09982 0.0157,7.09981 8.97822,5.87467 8.97823,5.87467 -2.21006,3.93227 c -2.73608,4.8682 -2.89779,4.9884 -10.39809,7.72894 -4.03422,1.47406 -6.56296,3.0634 -7.41898,4.66288 L 318.66204,210 H 159.33102 0 Z m 456.61116,103.75 c 2.91399,-4.99521 6.65299,-9.70478 7.35858,-9.2687 0.46494,0.28735 2.4612,2.77161 4.43614,5.52057 L 471.99667,210 h -8.05735 c -6.16812,0 -7.88638,-0.29309 -7.32816,-1.25 z m 41.51704,-0.0955 c -0.61418,-0.74004 -2.92896,-2.16275 -5.14395,-3.16157 -4.30951,-1.94332 -4.23457,-1.77873 -6.0297,-13.2429 -0.62439,-3.9875 -1.32709,-7.25 -1.56156,-7.25 -0.23447,0 -5.30347,2.44599 -11.26446,5.43554 l -10.83816,5.43554 -3.1279,-2.18554 c -2.71348,-1.89597 -3.12905,-2.78176 -3.1365,-6.68554 -0.005,-2.475 0.26269,-6.757 0.59425,-9.51555 l 0.60283,-5.01555 9.95413,-3.98445 c 9.02481,-3.61246 10.31984,-4.46846 13.8713,-9.16879 l 3.91716,-5.18434 -8.60686,-7.97885 -8.60686,-7.97885 0.87404,-4.65551 c 0.66748,-3.5553 1.5459,-5.05284 3.717,-6.33681 l 2.84297,-1.6813 11.84786,12.5 c 9.17792,9.6831 12.997,14.59139 16.94718,21.78053 2.80463,5.1043 4.84492,9.69218 4.53397,10.19529 -0.31094,0.50311 -4.379,3.93701 -9.04014,7.63088 -4.66114,3.69388 -8.4748,6.87311 -8.4748,7.06497 0,0.19186 3.6797,3.04422 8.17711,6.33858 7.32311,5.36419 8.6547,5.97739 12.75,5.87144 7.38381,-0.19105 10.02868,-1.16451 12.10611,-4.45572 l 1.94035,-3.07403 -5.49002,-8.74404 -5.49003,-8.74404 5.70269,-6.93193 C 526.31753,159.31445 527.93877,158 530.24604,158 c 3.06138,0 19.03952,8.67301 18.54939,10.0687 -0.16249,0.46268 -4.97901,5.59043 -10.70338,11.39499 -5.72437,5.80456 -10.22437,10.70041 -10,10.87967 0.22437,0.17925 4.75003,3.78792 10.05701,8.01925 7.60673,6.06496 9.53992,8.11075 9.13337,9.66537 -0.495,1.8929 -1.46906,1.97202 -24.27662,1.97202 -18.68852,0 -23.99931,-0.28724 -24.87761,-1.34553 z m 915.8337,0.0504 -2.5381,-1.2049 1.1417,-13.5 c 0.9002,-10.64508 0.8776,-14.02869 -0.1069,-16 -0.6867,-1.375 -2.0099,-8.8 -2.9405,-16.5 -0.9306,-7.7 -2.0595,-14.45 -2.5087,-15 -0.4491,-0.55 -1.1463,-3.7 -1.5492,-7 -0.4029,-3.3 -1.0207,-6.79269 -1.3727,-7.76153 -0.3521,-0.96884 -4.8897,-4.60454 -10.0835,-8.07932 l -9.4433,-6.31778 -7.7804,3.49903 -7.7803,3.49904 v 11.28328 11.28327 l -3.75,1.04762 c -2.0625,0.5762 -6.2728,1.57402 -9.3563,2.2174 -5.0848,1.06097 -5.9219,0.97941 -9,-0.87702 -1.8665,-1.12573 -7.083,-2.60381 -11.5921,-3.28461 -5.5963,-0.84495 -8.74,-1.83634 -9.905,-3.1236 C 1324.458,141.8486 1323.3272,141 1322.8837,141 c -0.4436,0 -5.149,-2.67473 -10.4565,-5.94385 -8.747,-5.38762 -9.8791,-6.43804 -12.0968,-11.22482 -1.3457,-2.90454 -2.6164,-5.45066 -2.8238,-5.65804 -0.2074,-0.20738 -2.5437,0.34402 -5.1918,1.22535 -4.2321,1.40847 -5.287,2.37587 -8.7167,7.99321 -3.812,6.24345 -4.0195,6.40594 -9,7.04744 -2.804,0.36114 -6.7213,0.90728 -8.7053,1.21364 -3.179,0.4909 -3.8642,0.19594 -5.7733,-2.48515 l -2.1662,-3.04215 2.6641,-10.81282 c 1.4653,-5.94704 3.5008,-11.74181 4.5234,-12.87726 1.2802,-1.42149 1.8592,-3.59544 1.8592,-6.980219 0,-4.843383 0.1288,-5.045205 8.75,-13.706495 8.7041,-8.744644 8.75,-8.817431 8.75,-13.884141 0,-4.669587 0.3216,-5.371381 3.8645,-8.43398 l 3.8644,-3.340568 6.8856,3.467498 6.8855,3.467498 v 8.904095 c 0,8.773366 -0.039,8.917241 -2.6862,9.799481 -2.2412,0.747066 -3.1265,2.210292 -5.3444,8.833333 -2.5689,7.670698 -2.6079,8.123118 -1.1597,13.437948 0.8242,3.025 1.7901,5.83838 2.1464,6.25196 0.3563,0.41358 4.2785,0.0237 8.7161,-0.8663 7.5797,-1.52025 8.167,-1.82524 9.698,-5.03589 2.2582,-4.73535 2.1549,-5.34982 -2.4334,-14.475446 -2.2347,-4.444704 -3.9222,-8.155841 -3.75,-8.246971 0.1723,-0.09113 4.0257,-1.934664 8.5632,-4.096744 9.1164,-4.343899 9.0246,-4.173155 7.2569,-13.494383 -0.8414,-4.436684 -1.7963,-5.997611 -6.25,-10.216859 -3.5756,-3.387305 -7.2772,-5.722042 -11.5737,-7.299868 -3.4742,-1.275868 -6.5703,-2.57322 -6.88,-2.883004 -0.3098,-0.309783 1.9493,-4.967224 5.0202,-10.349869 l 5.5834,-9.786626 -4.2034,-1.902809 c -4.0284,-1.823606 -4.6196,-1.835945 -14.2034,-0.296419 -12.6341,2.029531 -12.9293,1.826915 -11.9416,-8.196952 0.6242,-6.334183 1.1708,-7.7584213 4.6594,-12.1399436 C 1291.0625,0.13516428 1291.3142,0 1296.4626,0 c 3.2222,0 5.7306,0.52790043 6.4125,1.3495086 1.4924,1.7982327 22.779,3.1824473 24.6799,1.6048701 0.9644,-0.8004157 4.4676,-0.6222185 13.0088,0.6617192 l 11.6889,1.7571199 1.9571,-2.6866089 L 1356.1668,0 H 1628.0834 1900 v 105 105 h -216.3887 -216.3887 l -0.6327,-3.37236 c -0.5925,-3.15826 -0.9328,-3.40732 -5.3613,-3.92316 -4.0663,-0.47366 -5.5689,-0.0856 -10.7286,2.77067 -5.8654,3.24696 -6.085,3.28733 -9.7907,1.79996 -3.5309,-1.41721 -4.1711,-1.37596 -9.339,0.60169 -6.1136,2.33955 -13.4858,2.69024 -17.4084,0.8281 z M 365,91.059017 c 0,-0.517541 0.44485,-1.215913 0.98855,-1.551938 0.56686,-0.350339 0.7345,0.05106 0.39301,0.940983 C 365.71677,92.180479 365,92.497449 365,91.059017 Z M 607.75679,69.320559 C 607.51014,68.869252 606.73048,66.3625 606.02421,63.75 c -0.70627,-2.6125 -1.56315,-4.743651 -1.90417,-4.735891 -0.34102,0.0078 -6.64424,1.796186 -14.00715,3.974281 -7.3629,2.178095 -13.77421,3.720923 -14.24735,3.428507 -0.47314,-0.292416 -1.12916,-2.213282 -1.45782,-4.268589 -0.86655,-5.419123 -7.50078,-17.570569 -9.82932,-18.003653 -1.05688,-0.196568 -4.59544,0.452176 -7.86346,1.441655 l -5.94187,1.799052 -6.3734,-3.439504 -6.37339,-3.439505 0.62517,-8.133266 c 0.60553,-7.877815 0.53534,-8.245844 -2.23482,-11.71758 -2.04537,-2.563386 -4.18282,-3.923345 -7.50424,-4.774598 C 523.29721,14.441781 523.34296,13.15959 529.29177,5.25 L 533.24029,0 h 14.34847 c 11.05258,0 14.2449,0.28712946 13.8976,1.25 -0.24798,0.6875 0.37506,2.3214766 1.38454,3.6310591 l 1.83542,2.3810591 6.49294,-3.6310591 L 577.6922,0 h 46.93927 46.93927 l 3.15333,6.3946302 c 1.73434,3.5170466 2.84342,6.6968088 2.46463,7.0661388 -0.37878,0.36933 -2.32275,4.354247 -4.31993,8.85537 L 669.23754,30.5 l 3.29157,4.511827 3.29156,4.511826 -7.04191,8.175534 -7.04191,8.175534 -7.65972,-5.937361 C 646.99911,44.450902 646.02701,44 641.2768,44 c -4.5328,0 -5.38514,0.343404 -7.20871,2.90437 -1.13745,1.597404 -2.06646,3.284904 -2.06446,3.75 0.002,0.465097 -1.65988,4.543585 -3.69306,9.063309 l -3.6967,8.217679 -4.55693,0.585298 c -2.50632,0.321914 -6.19826,0.81821 -8.20431,1.10288 -2.00606,0.284671 -3.84919,0.148331 -4.09584,-0.302977 z m 51.91668,-35.954696 6.49845,-3.634137 -5.80466,-5.865863 C 655.08575,18.528663 654.17675,18 650.2813,18 647.92659,18 646,18.40424 646,18.898311 646,20.282912 652.20692,37 652.72101,37 c 0.24971,0 3.37832,-1.635362 6.95246,-3.634137 z M 1125.5,20.858516 c -4.4,-1.637371 -8.2798,-3.287871 -8.6218,-3.667777 -0.342,-0.379907 -0.8904,-4.403239 -1.2187,-8.940739 L 1115.0626,0 h 7.5344 c 4.144,0 8.3776,0.45121695 9.4081,1.0027043 1.2524,0.6702725 2.079,0.6702725 2.4932,0 C 1134.845,0.44178124 1139.476,0 1145.0093,0 c 13.6413,0 14.0669,0.93193287 5.0131,10.9752 -4.5424,5.038693 -8.0812,8.005491 -10.6609,8.937489 -2.1238,0.767307 -4.3115,1.963849 -4.8615,2.658984 -0.7876,0.995481 -2.6989,0.631672 -9,-1.713157 z M 712.3024,12.297721 704.10479,8.7555471 707.76416,4.3777736 711.42352,0 H 721.21176 731 l -0.039,4.25 c -0.0356,3.8801005 -0.44702,4.5546231 -4.72696,7.75 -2.57838,1.925 -4.92333,3.576476 -5.211,3.669948 -0.28767,0.09347 -4.21196,-1.424031 -8.72064,-3.372227 z"
       id="path912"
       inkscape:connector-curvature="0" />
    <path
       style="fill:#4eaa93"
       d="M 0,105 V 0 h 158.93261 158.93261 l 0.67608,2.25 c 0.37184,1.2375 2.15326,3.825 3.9587,5.75 1.80544,1.925 3.59265,4.530759 3.97158,5.790575 0.6503,2.162071 1.02548,2.252503 6.68743,1.611925 l 5.99848,-0.67865 5.42125,5.353915 c 3.8402,3.792492 5.42126,6.123712 5.42126,7.99345 0,1.839058 1.86522,4.675091 6.15046,9.351675 5.9998,6.547727 6.25865,6.704362 10.56777,6.394625 L 371.13555,43.5 l 4.18222,7.799876 4.18223,7.799875 -4,3.467489 c -2.2,1.907119 -6.3247,5.285235 -9.166,7.506925 l -5.16599,4.039436 -5.83401,-2.970168 c -3.2087,-1.633593 -6.37315,-3.865654 -7.03211,-4.960135 -0.75202,-1.24906 -2.79979,-2.247898 -5.5,-2.68273 -2.36604,-0.381019 -5.20189,-1.257003 -6.30189,-1.94663 -1.1,-0.689627 -5.825,-1.49647 -10.5,-1.792983 -4.675,-0.296514 -9.71285,-1.10003 -11.19522,-1.785591 -2.58772,-1.19676 -3.04996,-0.922255 -11.58939,6.882461 -8.28753,7.574496 -8.97971,8.511179 -10.14834,13.733178 -1.23946,5.538483 -1.22081,5.639521 1.58939,8.610924 2.79982,2.960431 2.95983,2.997272 10.40172,2.394978 l 7.55816,-0.611705 4.35548,10.447148 c 4.28652,10.281782 4.41528,10.457252 8.13427,11.085572 4.45431,0.75255 4.73161,1.0672 8.24168,9.3516 2.99577,7.07055 2.8541,7.60654 -2.96017,11.19996 -3.27646,2.02496 -3.38758,2.30259 -3.38758,8.46364 0,5.12845 -0.70639,7.98743 -3.62422,14.66844 -1.99332,4.56414 -3.75112,8.44374 -3.90622,8.62134 -0.15511,0.17759 -1.82516,-0.10319 -3.71123,-0.62396 -3.11451,-0.85996 -4.08688,-0.53528 -10.59539,3.5378 l -7.16618,4.48466 -2.50868,8.22466 c -2.26012,7.40977 -6.16542,13.54326 -7.6671,12.04159 -0.81589,-0.81589 -12.16233,3.64353 -13.53808,5.32079 -0.66941,0.81611 -2.1686,4.34307 -3.33153,7.8377 L 268.83694,210 H 134.41847 0 Z m 1492.75,103.83772 c -3.0747,-1.12296 -3.1033,-1.32823 -1.6538,-11.83772 1.5454,-11.20476 1.1893,-16.81043 -1.5868,-24.97232 -1.3802,-4.05789 -2.5094,-7.48772 -2.5094,-7.62185 0,-0.97408 17.3349,-9.40583 19.3376,-9.40583 1.896,0 3.6882,1.47458 7.1546,5.8867 4.9686,6.32431 6.7026,7.1133 15.6328,7.1133 4.8323,0 4.875,-0.0285 4.8802,-3.25 0,-1.7875 0.2957,-7.6375 0.6508,-13 l 0.6456,-9.75 h -9.9832 -9.9832 l -0.9349,-4.75 c -0.6812,-3.46102 -0.5614,-6.07056 0.4417,-9.61641 l 1.3767,-4.8664 -7.3343,-7.3836 c -4.0339,-4.06097 -8.178,-7.38359 -9.2091,-7.38359 -1.0311,0 -4.2921,-1.4625 -7.2466,-3.25 l -5.372,-3.25 -0.028,-7.095012 c -0.024,-5.972756 0.3055,-7.396335 2.0827,-9 1.1611,-1.047744 3.7794,-5.279988 5.8184,-9.404988 l 3.7074,-7.5 -0.5684,-9.968688 -0.5685,-9.968689 -17.7109,-11.764022 -17.711,-11.764023 -6.5303,1.712758 -6.5302,1.712758 -9.2588,-4.541671 c -5.0923,-2.49792 -10.0591,-4.365978 -11.0373,-4.151242 -1.3966,0.306607 -9.7215,14.534505 -9.7215,16.614856 0,0.234538 5.175,3.270732 11.5,6.747098 10.0515,5.52453 11.5,6.644907 11.5,8.894877 0,2.029144 -0.7335,2.839449 -3.4641,3.826862 -2.7779,1.004483 -4.4825,2.938439 -8.604,9.761823 -5.8875,9.747109 -3.871,9.85711 -15.8147,-0.862697 -3.5235,-3.1625 -6.7556,-5.75 -7.1824,-5.75 -0.9802,0 -1.5635,2.999805 -3.0138,15.5 -0.6381,5.5 -1.4813,10.352468 -1.8739,10.783262 -0.521,0.571882 -14.9959,-10.007128 -18.9047,-13.816575 -0.6992,-0.681512 2.2791,-10.571571 3.4849,-11.572374 0.761,-0.631522 1.0144,-2.327261 0.6674,-4.465456 -0.9435,-5.814538 2.0214,-11.672239 8.3122,-16.421783 l 5.5033,-4.155084 -2.0957,-3.552026 c -1.1527,-1.953615 -1.965,-3.659076 -1.8051,-3.789915 0.1598,-0.130838 3.8906,-1.424251 8.2906,-2.874252 4.4,-1.450001 10.1584,-3.456351 12.7965,-4.458555 l 4.7965,-1.822189 -6.2344,-4.427527 c -3.4289,-2.435139 -6.6172,-4.6898043 -7.085,-5.0103666 -0.4679,-0.3205624 -0.5508,-2.4580624 -0.1843,-4.75 L 1410.2556,0 h 11.2652 C 1433.4811,0 1434,0.21575511 1434,5.1887763 c 0,1.2063771 0.5054,1.8334921 1.25,1.5510463 0.6875,-0.2607853 5.075,-1.2879131 9.75,-2.2825061 4.675,-0.994593 8.7513,-2.1788827 9.0584,-2.6317548 0.307,-0.4528721 4.5274,0.77706 9.3785,2.7331824 11.3786,4.5882135 12.6284,4.1670611 9.8189,-3.3087441 C 1472.8809,0.25243512 1515.9235,0 1686.393,0 H 1900 v 105 105 h -124.0162 -124.0162 l -1.7187,-3.60434 c -1.695,-3.55442 -1.7901,-3.59844 -6.8658,-3.17752 -3.8717,0.32107 -6.1411,1.21416 -9.159,3.60434 L 1630.2122,210 h -49.1061 C 1549.0354,210 1532,209.65309 1532,209 c 0,-0.60573 -4.3137,-1 -10.941,-1 -6.2153,0 -11.2079,0.43192 -11.559,1 -0.7902,1.27857 -13.1324,1.159 -16.75,-0.16228 z m 104.1464,-60.37252 c 1.707,-1.94413 3.1036,-3.80678 3.1036,-4.13921 0,-0.33243 -2.2928,-4.93408 -5.095,-10.22591 l -5.095,-9.62149 -12.5485,-5.98929 c -6.9016,-3.29412 -12.9816,-6.15521 -13.511,-6.35799 -1.6634,-0.63711 0.2401,22.94578 2.1161,26.2164 1.5418,2.688 3.4379,3.75674 21.1334,11.91145 5.1271,2.36276 6.4587,2.12137 9.8964,-1.79396 z M 1574.0685,37.409211 c 2.9873,-0.874934 5.8352,-1.97618 6.3287,-2.447213 0.9072,-0.865966 -2.0441,-20.772609 -3.4065,-22.97705 -0.4876,-0.788993 -3.5599,0.285335 -9.8497,3.444232 l -9.141,4.590891 0.077,4.739965 c 0.042,2.60698 0.6172,6.539964 1.2776,8.739964 1.0845,3.61271 1.5854,4.058877 5.1731,4.608095 2.1848,0.334452 4.0032,0.671952 4.0409,0.75 0.038,0.07805 2.5127,-0.57395 5.5,-1.448884 z M 472.87242,65.159426 C 464.04338,62.948795 463,61.935925 463,55.575645 V 50.39618 l 10.22293,-1.641832 c 5.6226,-0.903007 10.3297,-1.535053 10.46021,-1.404545 0.1305,0.130507 0.36769,4.492691 0.52707,9.693741 L 484.5,66.5 482,66.659426 c -1.375,0.08768 -5.48241,-0.587316 -9.12758,-1.5 z M 373.38788,38.264666 C 373.69216,36.7441 374.43951,31.675 375.04864,27 c 1.73655,-13.327607 4.38313,-14.955944 14.66938,-9.02548 3.84016,2.214014 7.29862,4.02548 7.68547,4.02548 0.38685,0 2.25431,-1.2375 4.14991,-2.75 3.42799,-2.735194 3.44654,-2.794417 3.44657,-11 L 405,0 h 29.07946 29.07945 l -0.67366,3.0671622 c -0.4536,2.0652018 -0.19982,3.6169007 0.77685,4.75 C 464.05988,8.742723 465.43591,12.425 466.31995,16 l 1.60734,6.5 -4.38457,4.407764 -4.38456,4.407763 -9.10831,-8.324655 -9.10832,-8.324654 -7.47076,2.34295 L 426,19.352118 v 3.703098 c 0,2.036704 -1.15799,6.232477 -2.57331,9.323941 L 420.85339,38 h -8.70293 c -4.78661,0 -12.29112,0.412292 -16.67669,0.916204 -4.38558,0.503912 -11.27347,1.185512 -15.30645,1.514666 l -7.33267,0.598462 z m 211.35436,-7.933639 c -0.26177,-0.457065 -1.26267,-3.240624 -2.22422,-6.185687 l -1.74828,-5.354659 5.86513,-5.964255 c 5.63627,-5.7315234 6.01928,-5.9403445 9.81552,-5.3514803 5.05909,0.784756 5.75746,1.4163531 10.04661,9.0860703 4.83742,8.650123 4.13308,9.707202 -7.92899,11.899849 -4.98741,0.906612 -10.03142,1.885266 -11.20892,2.174787 -1.17749,0.289521 -2.35508,0.15244 -2.61685,-0.304625 z"
       id="path910"
       inkscape:connector-curvature="0" />
    <path
       style="fill:#459c83"
       d="M 0,105 V 0 H 151.5 303 v 2.2999172 c 0,1.2649545 -2.06589,5.1390611 -4.59087,8.6091258 -2.52499,3.470065 -4.21249,6.636119 -3.75,7.035675 0.46248,0.399557 5.67837,2.469223 11.59087,4.599257 5.9125,2.130035 10.75,4.402444 10.75,5.049799 0,0.647354 -1.64001,5.51449 -3.64447,10.815857 -3.23973,8.568373 -3.82279,9.490751 -5.25,8.305329 -0.88304,-0.733436 -3.89096,-3.196717 -6.68425,-5.473958 l -5.07873,-4.140437 -6.10155,6.199717 c -8.65649,8.795771 -8.82999,10.781414 -1.88518,21.575074 l 5.38885,8.375355 -1.43854,5.508738 -1.43853,5.508738 3.0662,3.163514 c 1.68641,1.739932 3.0662,3.933866 3.0662,4.875407 0,0.941541 -2.02776,5.462217 -4.50614,10.045942 -3.93834,7.28392 -4.97789,8.4849 -8.25,9.53121 -2.38024,0.76112 -5.01866,2.79837 -7.24386,5.59333 -2.66185,3.34342 -4.69735,4.75413 -8.5,5.89096 -2.75,0.82213 -6.20381,1.25451 -7.67512,0.96085 -1.47132,-0.29366 -4.39632,0.0358 -6.5,0.73224 -2.10369,0.6964 -4.94988,1.35683 -6.32488,1.46762 -14.72077,1.18614 -26.997,2.94642 -26.98156,3.86886 0.0102,0.60603 1.54553,4.43016 3.41196,8.49806 2.76015,6.01575 3.19957,7.82185 2.35436,9.67688 -1.19143,2.61489 -1.74925,2.49285 -11.80284,-2.58219 -3.40137,-1.717 -6.35908,-2.94705 -6.57269,-2.73343 -0.21362,0.21362 -0.60689,1.70558 -0.87393,3.31548 -0.43792,2.64003 0.29698,3.59815 7.49386,9.77002 8.01783,6.87592 10.20047,10.45562 8.26667,13.55799 -0.71581,1.14835 -0.12176,4.67117 2.10758,12.49833 2.86704,10.06615 3.3883,11.08772 6.81939,13.36468 l 3.71506,2.46542 -5.1189,5.88532 L 225.70007,210 H 112.85003 0 Z m 1557.0751,102.75 c 0.041,-1.2375 0.6065,-5.85 1.2559,-10.25 l 1.1807,-8 8.089,-0.28794 8.089,-0.28793 5.8073,-8.46207 c 3.194,-4.65413 6.2118,-8.46206 6.7062,-8.46206 1.4398,0 3.4956,-6.00526 4.2792,-12.5 0.6131,-5.08163 1.3224,-6.64928 4.6339,-10.24194 l 3.91,-4.24193 -5.0834,-10.12998 -5.0835,-10.12997 2.7057,-2.82408 c 2.5034,-2.61299 2.6278,-3.13053 1.665,-6.92382 -0.8713,-3.43267 -0.6307,-5.61882 1.4789,-13.43581 l 2.5196,-9.336063 -3.7779,-3.462214 -3.778,-3.462213 6.6637,-9.759044 c 3.665,-5.367473 6.6636,-10.303478 6.6636,-10.968898 0,-2.074421 -5.3437,-6.291023 -8.7885,-6.934842 -2.7728,-0.518215 -4.5201,0.157229 -11.141,4.306647 l -7.8525,4.921256 -3.468,-13.849703 -3.468,-13.849703 5.109,-1.415144 c 4.7412,-1.313277 5.1327,-1.659071 5.4384,-4.803761 C 1581.3612,27.48781 1578.0521,11 1576.4223,11 c -0.7661,0 -5.1998,1.888046 -9.8528,4.195659 -8.0912,4.01283 -8.4888,4.367286 -9.1252,8.134278 l -0.6655,3.93862 -6.6394,-0.62717 c -3.6517,-0.344943 -9.2058,-0.630368 -12.3426,-0.634278 L 1532.0936,26 l -2.0468,-4.627118 c -2.5547,-5.775371 -2.547,-6.48349 0.1265,-11.6627201 1.1954,-2.315589 2.0882,-5.4476619 1.9841,-6.9601619 L 1531.9682,0 H 1715.9841 1900 v 105 105 h -112.2844 -112.2844 l -1.9656,-3.25 c -1.0811,-1.7875 -2.4831,-4.94577 -3.1155,-7.01838 -1.0077,-3.30216 -0.9296,-3.88629 0.631,-4.72152 1.1783,-0.63059 2.5181,-3.9364 3.9592,-9.76846 2.5223,-10.20795 2.3975,-9.97467 7.3097,-13.66319 2.0625,-1.54871 3.75,-3.35983 3.75,-4.02473 0,-1.09908 -4.7933,-13.62449 -5.499,-14.36942 -0.3372,-0.35599 -17.8936,-3.0535 -18.195,-2.79563 -0.1067,0.0913 -1.593,5.31126 -3.3029,11.59995 -1.7099,6.28869 -3.5902,12.01389 -4.1785,12.72268 -0.5882,0.70878 -2.3558,1.2887 -3.928,1.2887 -3.2384,0 -2.9637,-0.69095 -5.8769,14.7775 -2.2101,11.73487 -2.4152,12.2225 -5.1387,12.2225 -1.1005,0 -4.0637,1.575 -6.5848,3.5 -3.8589,2.94653 -5.3928,3.5 -9.6995,3.5 -6.2106,0 -6.7335,-0.6642 -9.1007,-11.55926 -1.9282,-8.8749 -2.6324,-9.93383 -7.1638,-10.77195 -4.974,-0.91998 -7.7759,2.00182 -10.4017,10.8468 -2.1763,7.33087 -2.3124,7.51717 -6.3273,8.65683 -2.2568,0.64061 -4.5307,1.53888 -5.0532,1.99616 -0.5225,0.45728 -7.16,0.83142 -14.75,0.83142 -13.6667,0 -13.7993,-0.0217 -13.7249,-2.25 z"
       id="path908"
       inkscape:connector-curvature="0" />
    <path
       style="fill:#42977c"
       d="M 0,105 V 0 h 140.43188 140.43188 l 6.06812,8.4056398 C 290.26935,13.028742 293,17.309331 293,17.918061 c 0,0.60873 -2.50921,2.711903 -5.57602,4.673719 l -5.57602,3.566938 -10.67398,-0.627914 c -14.81184,-0.871331 -16.21429,-0.343714 -18.55689,6.981299 l -1.88291,5.887621 3.51433,3.050138 c 2.78886,2.420493 4.15046,4.980484 6.59589,12.401158 1.85758,5.636837 4.03294,10.232726 5.47679,11.570849 2.41731,2.240284 8.42476,18.165516 7.28318,19.30709 -0.33116,0.331162 -5.61484,0.115623 -11.74152,-0.478977 -6.12667,-0.594599 -11.72448,-0.856572 -12.43959,-0.582162 -0.71709,0.275173 -1.60876,2.968691 -1.98824,6.005994 l -0.68807,5.507066 5.12653,5.19101 5.12652,5.191 v 8.69288 8.69287 l -3.12909,1.61812 -3.1291,1.61812 -7.1209,-7.71881 -7.12091,-7.7188 -8.49542,0.87637 -8.49542,0.87636 -2.90567,7.14867 c -3.44356,8.47202 -6.10064,9.99076 -13.29321,7.59813 -3.78849,-1.26025 -4.60317,-1.21083 -8.50726,0.51613 -4.28776,1.89668 -4.32906,1.96446 -5.9868,9.82347 l -1.66926,7.9136 3.42652,6.16248 c 1.88459,3.38937 3.44601,7.21437 3.46982,8.5 0.0238,1.28564 1.99248,5.00186 4.3748,8.25828 l 4.33149,5.92076 -4.3748,7.20588 C 195.96866,185.51064 194,189.16869 194,189.67642 c 0,0.50772 3.56685,2.66217 7.92634,4.78766 8.36259,4.07724 9.03512,4.95211 9.06001,11.78592 L 211,210 H 105.5 0 Z m 1714.6403,102.25 c -0.2852,-1.5125 -0.7973,-5.69877 -1.1379,-9.30283 -0.6159,-6.51664 -0.6439,-6.56625 -5.0673,-8.98264 -4.5715,-2.49727 -4.8893,-2.97729 -5.9504,-8.98728 -0.5782,-3.27439 -0.1279,-4.09364 6.3866,-11.61997 3.8547,-4.45347 7.7106,-8.36661 8.5687,-8.69586 1.2522,-0.48052 1.56,-2.36042 1.56,-9.52675 v -8.92809 l -8.75,-1.15175 c -4.8125,-0.63345 -9.7391,-1.35764 -10.948,-1.6093 -1.6604,-0.34563 -3.0058,0.55076 -5.5,3.66468 -1.8161,2.26723 -5.2698,5.47958 -7.6748,7.13856 l -4.3729,3.01634 -10.1521,-1.2525 -10.152,-1.25249 -2.3918,-10.41766 c -1.3154,-5.72972 -2.3267,-10.96325 -2.2472,-11.63007 1.519,-12.73689 3.2797,-19.21667 6.0062,-22.10305 1.6154,-1.71014 2.7983,-3.55934 2.6287,-4.10934 -0.1697,-0.55 -0.8157,-4.177189 -1.4357,-8.060421 l -1.1271,-7.060421 -10.4298,-1.67768 c -7.6597,-1.232114 -10.9782,-2.22616 -12.4949,-3.742861 -1.6498,-1.649769 -2.9093,-1.960769 -6.2619,-1.546102 -2.3082,0.285495 -7.1217,0.781707 -10.6967,1.102693 l -6.5,0.583613 -3.4256,-6.299411 c -1.884,-3.464675 -5.3715,-8.597926 -7.75,-11.407223 C 1602.946,60.582889 1601,57.947726 1601,57.536269 c 0,-0.411457 2.9679,-5.673951 6.5953,-11.694432 4.8919,-8.11919 6.4295,-11.513949 5.9535,-13.144083 -0.4384,-1.501169 -3.242,-3.47315 -8.8453,-6.22168 -7.7387,-3.795925 -8.3679,-4.351404 -11.1042,-9.803484 l -2.9007,-5.779557 3.9007,-4.0313903 3.9007,-4.0313904 9.5,0.3348739 c 8.5964,0.303021 9.4721,0.1684157 9.2062,-1.4151262 -0.2787,-1.65980819 7.001,-1.75 141.25,-1.75 L 1900,0 v 105 105 h -92.4205 -92.4206 z"
       id="path906"
       inkscape:connector-curvature="0" />
    <path
       style="fill:#388a6b"
       d="M 0,105 V 0 h 129.31285 129.31286 l -2.14322,12.75 c -1.17877,7.0125 -2.42312,13.425 -2.76521,14.25 -0.3421,0.825 -1.2452,3.722969 -2.0069,6.439931 -1.32418,4.723352 -1.73806,5.139858 -9.44014,9.5 L 234.21499,47.5 232.99289,53 c -0.67216,3.025 -1.63888,6.292199 -2.14827,7.260441 -0.50939,0.968243 -4.89358,3.752998 -9.74265,6.188346 l -8.81648,4.427904 -3.88007,-3.973547 -3.88006,-3.973546 -12.30137,0.683474 c -8.86932,0.492787 -12.93205,0.345947 -14.56188,-0.526315 -1.88383,-1.008196 -3.30705,-0.818412 -8.5409,1.138917 -3.45421,1.291789 -6.32873,2.556971 -6.38783,2.811516 C 162.454,68.24051 167.52602,90 168.08588,90 c 0.35147,0 3.91283,-1.35 7.91412,-3 4.00129,-1.65 8.13111,-3 9.17738,-3 1.45018,0 9.0453,3.19156 10.54932,4.432957 0.12469,0.102915 -0.72,3.532462 -1.87708,7.621217 -1.77069,6.257026 -1.91133,7.910026 -0.88824,10.439966 1.40244,3.46801 4.99608,16.45515 5.02148,18.14728 0.009,0.62778 -1.77231,1.85742 -3.95942,2.73253 -2.60003,1.04032 -4.15549,2.37601 -4.49345,3.85857 -0.28428,1.24712 -1.09228,4.96567 -1.79554,8.26345 l -1.27866,5.99597 -5.47789,1.9407 c -3.01285,1.06739 -5.80851,2.41921 -6.21259,3.00404 -0.40408,0.58482 -0.74158,4.53516 -0.75,8.77852 -0.0142,7.13597 -0.24054,7.97173 -3.01531,11.13202 -1.65,1.87924 -2.99318,3.8074 -2.98485,4.2848 0.008,0.47739 5.62684,4.15159 12.48557,8.1649 l 12.47042,7.29692 -4.99469,9.95308 c -2.74707,5.47419 -5.17078,9.95308 -5.386,9.95308 -0.21522,0 -4.34042,-1.81586 -9.16711,-4.03525 l -8.7758,-4.03525 -4.11162,4.03525 L 156.4243,210 H 78.212148 0 Z m 1714.4772,95.53665 -0.7095,-9.46335 11.2804,-12.03665 C 1732.9678,170.58598 1736.9966,167 1738.5711,167 c 2.1815,0 2.2621,-0.37852 2.9583,-13.89048 l 0.7157,-13.89049 3.0212,-0.86648 c 2.178,-0.62464 4.0934,-2.56215 6.8626,-6.94174 3.7747,-5.96991 3.8189,-6.15184 2.5523,-10.49303 -1.4426,-4.94454 0.098,-4.55616 -15.5287,-3.91584 -6.0963,0.24981 -6.6044,0.47797 -12.8362,5.7648 l -6.4886,5.5047 -6.3328,-6.27653 -6.3329,-6.27653 -6.686,4.22259 -6.686,4.22259 -4.645,-1.90569 c -5.0232,-2.06082 -5.7905,-3.58217 -6.0267,-11.94885 -0.065,-2.30504 -0.6808,-4.54401 -1.3683,-4.97549 -0.6875,-0.43147 -4.2972,-1.06773 -8.0216,-1.41391 -3.7243,-0.34618 -6.9991,-0.857 -7.2773,-1.13517 -0.2782,-0.27817 -1.1177,-4.024924 -1.8657,-8.326118 -1.3214,-7.599153 -1.2994,-7.870862 0.7774,-9.606073 1.1754,-0.982146 2.4019,-1.800692 2.7255,-1.81899 0.8721,-0.04932 3.2281,-19.766419 2.5675,-21.487768 -0.4197,-1.09368 3.1823,-3.366494 13.8847,-8.761145 7.9483,-4.006396 14.4533,-7.765208 14.4555,-8.352916 0,-0.587709 -3.0335,-3.246063 -6.746,-5.907454 -3.7125,-2.661391 -8.1363,-5.88834 -9.8307,-7.170998 l -3.0807,-2.332105 -6.3079,13.989558 c -4.3344,9.612792 -6.8121,13.98698 -7.9193,13.981317 -0.8863,-0.0045 -4.5847,-2.56855 -8.2187,-5.697816 l -6.6073,-5.689572 1.3454,-5.052185 c 0.74,-2.778702 1.3508,-5.648092 1.3573,-6.376422 0.01,-0.728331 -2.4589,-3.914578 -5.4787,-7.080549 l -5.4906,-5.756312 2.7267,-6.169451 C 1647.1845,9.6510246 1647.7789,9 1650.3783,9 c 1.9972,0 4.5534,-1.4073503 8.1734,-4.5 L 1663.819,0 H 1781.9095 1900 v 105 105 h -92.4067 -92.4067 z"
       id="path904"
       inkscape:connector-curvature="0" />
    <path
       style="fill:#2a734f"
       d="M 0,105 V 0 L 72.25,-0.00209779 144.5,-0.00419558 144.16467,6.4979022 143.82935,13 h 6.15039 6.1504 l 3.52283,7.624701 c 4.94726,10.707716 4.37154,13.3546 -3.69186,16.973237 -7.73592,3.471678 -8.925,6.582739 -7.1557,18.721904 l 1.18296,8.116305 -3.87217,4.031927 c -3.23846,3.37207 -3.97318,4.932044 -4.4894,9.531926 -0.33948,3.025 -0.87967,6.647655 -1.20043,8.050344 -0.47504,2.077385 0.72949,4.248841 6.49522,11.709175 3.89313,5.037361 7.07841,9.490511 7.07841,9.895901 0,0.4054 -1.20037,2.46921 -2.66748,4.58626 l -2.66749,3.84918 2.13749,6.70457 c 1.17561,3.68751 2.42306,9.85472 2.77209,13.70491 0.85609,9.44353 -0.0806,10.26531 -13.20461,11.58471 -15.41503,1.54972 -14.0927,0.58614 -13.2206,9.63388 l 0.75,7.78107 -3.8235,4 c -2.10292,2.2 -4.64371,6.20896 -5.6462,8.9088 -1.00249,2.69984 -3.53428,7.0741 -5.6262,9.72058 -2.71657,3.43671 -3.8035,5.78408 -3.8035,8.21415 v 3.40236 l -8.89333,1.62705 C 95.215334,202.26782 90.49163,203 89.609548,203 c -0.882083,0 -3.347123,1.575 -5.477868,3.5 L 80.257598,210 H 40.128799 0 Z M 118.56465,34.518982 c 5.4021,-1.033593 9.19721,-2.468598 12.56218,-4.75 4.42822,-3.002275 4.8237,-3.602073 4.84738,-7.351617 0.0225,-3.55716 -0.47615,-4.486008 -3.87401,-7.2166 -2.14489,-1.723681 -4.33009,-3.261495 -4.856,-3.417365 -0.5259,-0.15587 -5.51478,3.913458 -11.08639,9.042951 l -10.1302,9.326352 1.51187,2.923648 c 1.76585,3.414772 1.1434,3.333325 11.02517,1.442631 z M 1805.25,204.39258 c -5.0875,-3.03253 -9.25,-5.83861 -9.25,-6.23572 0,-0.39711 2.475,-3.70379 5.5,-7.34819 3.025,-3.6444 5.5,-7.01883 5.5,-7.49873 0,-0.4799 -2.5904,-3.43594 -5.7565,-6.56897 -3.8169,-3.77709 -7.3547,-6.241 -10.5,-7.3127 L 1786,167.812 v -6.38476 c 0,-6.09179 0.2323,-6.70311 5.0622,-13.32289 2.7843,-3.81597 5.7093,-7.18641 6.5,-7.48986 2.9106,-1.1169 1.68,-8.17223 -3.0779,-17.64572 -4.2917,-8.54526 -4.4377,-9.1102 -2.9446,-11.38906 1.0611,-1.61939 1.472,-4.13166 1.2657,-7.73876 L 1792.5,98.5 l -12,-6.16364 c -9.4584,-4.858191 -12.3941,-6.870277 -13.8605,-9.5 -1.0233,-1.834998 -6.1202,-9.356388 -11.3264,-16.714199 -10.3537,-14.632778 -10.491,-15.155119 -5.5033,-20.935651 l 2.859,-3.313491 -2.2872,-10.186509 c -1.2579,-5.602581 -2.3084,-10.672425 -2.3344,-11.26632 -0.026,-0.593896 -3.1568,-1.747459 -6.9573,-2.563474 -6.7366,-1.446408 -7.0258,-1.424863 -11.5179,0.858055 l -4.6077,2.341719 -9.0471,-4.203442 c -6.5119,-3.025551 -9.4463,-4.975604 -10.472,-6.9589935 -1.3801,-2.6689356 -1.2939,-2.8677452 2.7449,-6.3248031 L 1712.36,0 h 93.82 93.82 v 102.83948 102.83949 l -2.5,1.13908 c -1.375,0.62649 -2.5,1.59872 -2.5,2.16051 0,0.67495 -11.3758,1.02144 -33.5352,1.02144 -28.7447,0 -33.8764,-0.22357 -35.9238,-1.56508 -2.1673,-1.42011 -2.669,-1.42011 -5.4151,0 -1.6646,0.86079 -3.6114,1.544 -4.3262,1.51823 -0.7149,-0.0258 -5.4622,-2.52803 -10.5497,-5.56057 z"
       id="path902"
       inkscape:connector-curvature="0" />
    <path
       style="fill:#1f643c"
       d="M 7.75,200.44789 0,195.9319 v -9.31096 c 0,-7.61596 0.31857774,-9.5905 1.75,-10.84649 2.3032095,-2.02094 3.7631564,-1.32827 11.013944,5.22555 l 6.084899,5.5 -1.059172,9.25 c -0.582545,5.0875 -1.336035,9.24187 -1.674422,9.23194 C 15.776862,204.972 12.0125,202.93168 7.75,200.44789 Z M 1885.1357,178.75 c -0.4481,-1.2375 -2.7226,-7.50065 -5.0543,-13.9181 -3.3937,-9.34034 -4.0248,-12.06908 -3.1638,-13.67803 0.8639,-1.61411 0.1593,-4.53493 -3.5777,-14.83189 -2.5595,-7.05209 -4.7866,-12.98813 -4.9493,-13.1912 -0.1626,-0.20307 -3.5384,0.36308 -7.5017,1.25811 -3.9633,0.89503 -7.2993,1.51117 -7.4132,1.36922 -0.114,-0.14196 -2.0191,-4.1542 -4.2335,-8.9161 -2.5355,-5.45232 -3.6754,-9.00881 -3.0787,-9.60551 0.5211,-0.52114 2.2621,-5.32597 3.8688,-10.677408 l 2.9212,-9.729888 -1.9767,-3.874764 C 1849.8895,80.82332 1849,77.729094 1849,76.078382 c 0,-2.689208 0.4419,-3.11734 4.25,-4.117299 3.0977,-0.81343 6.0745,-2.912275 10.9794,-7.741281 7.2482,-7.136025 7.2166,-7.031774 5.1672,-17.055118 l -0.4775,-2.335317 -11.7413,0.700778 c -15.5907,0.930534 -15.6682,0.84686 -11.2034,-12.105878 1.8022,-5.228515 3.1078,-9.600413 2.9012,-9.715329 -0.2066,-0.114916 -1.5352,-1.226695 -2.9525,-2.470621 l -2.5769,-2.261684 -6.2619,4.0473 -6.262,4.047299 -4.4105,-2.785616 c -4.6189,-2.917192 -4.84,-3.434652 -5.7258,-13.402776 l -0.4104,-4.617161 7.2441,-2.2718482 c 5.9306,-1.8599509 7.8094,-2.0747716 10.3622,-1.184859 3.261,1.1367914 9.1181,-0.088061 9.1181,-1.90679694 0,-1.22820767 47.1921,-1.1598318 50.4349,0.0730743 C 1899.9384,1.9270937 1900,2.1771353 1900,11.394246 v 9.443747 l -6.8811,6.331004 c -3.7846,3.482051 -7.1809,7.315191 -7.5474,8.518087 -0.5082,1.66797 0.9239,4.575566 6.0336,12.25 C 1895.2901,53.471688 1898.6864,58 1899.1525,58 1899.6186,58 1900,74.875 1900,95.5 V 133 h -4.8533 -4.8533 l -4.7313,7.11534 c -2.6023,3.91343 -4.3558,7.45907 -3.8968,7.87919 0.4591,0.42013 2.5159,1.30106 4.5708,1.95762 4.3493,1.38972 4.1687,1.15542 8.9009,11.54473 l 3.6425,7.99688 -2.9041,5.75312 c -2.7058,5.36002 -3.144,5.75312 -6.4145,5.75312 -2.7323,0 -3.691,-0.49872 -4.3252,-2.25 z m -10.1469,-74.7278 c 4.5353,-9.020223 4.7025,-9.973389 2.2612,-12.894893 -1.7353,-2.076709 -1.7844,-2.078608 -5.8506,-0.226558 -3.0159,1.373636 -4.9311,3.287124 -7.2402,7.233478 l -3.1395,5.365773 4.4319,4.25 c 2.4376,2.3375 4.6782,4.25 4.979,4.25 0.3009,0 2.3521,-3.59001 4.5582,-7.9778 z M 0.93340399,144.32484 C 0.38875319,142.8923 0,113.54949 0,73.872185 V 5.8745696 L 6.4780428,2.9372848 C 10.040966,1.3217782 14.309488,0 15.963648,0 18.636358,0 19.308425,0.66801975 22,6 c 1.665835,3.3 3.372206,6 3.791937,6 0.41973,0 3.126125,-2.6844828 6.014211,-5.9655172 L 37.057214,0.06896552 H 64.500423 91.943632 L 89.865492,5.2844828 C 88.722516,8.1530172 86.631985,13.453851 85.219869,17.064114 l -2.567484,6.564113 -7.076193,-1.697326 c -7.064049,-1.694414 -7.08134,-1.69342 -10.076192,0.5793 -2.877652,2.183781 -2.98578,2.544076 -2.651314,8.83452 0.283704,5.335742 -0.251997,8.360931 -2.8745,16.232762 -2.363278,7.093733 -3.737627,9.809401 -5.151466,10.179128 -1.060554,0.277341 -3.809511,1.458061 -6.108793,2.623823 L 44.533415,62.5 44.846483,71.645391 C 45.284833,84.450523 44.226977,86.269925 34.745529,89.017981 30.760488,90.172985 26.375,91.463118 25,91.884943 c -1.765489,0.541619 -2.764094,1.813345 -3.398877,4.32848 -0.874116,3.463421 -0.657359,3.855177 7.868944,14.221777 4.822301,5.86313 8.601795,10.79955 8.398876,10.96981 -0.202918,0.17026 -4.388485,1.85415 -9.301259,3.74198 l -8.932317,3.43241 -2.223961,7.28325 c -1.223178,4.00578 -2.466849,7.52613 -2.763713,7.82299 -0.296863,0.29686 -3.294006,1.11451 -6.6603181,1.81699 -6.089732,1.27081 -6.1252693,1.26488 -7.05397091,-1.17779 z"
       id="path900"
       inkscape:connector-curvature="0" />
  </g>
</svg>
