<svg
    xmlns="http://www.w3.org/2000/svg"
    viewBox="0 0 229.8 85.45"
    preserveAspectRatio="none">
        <path
            d="M228.67,13c-1.84-3.41.87-7-1.71-9.27l-1.22-.09c-3.31-.19-6.89-.2-10.51-.45a49.19,49.19,0,0,1-10.69-1.71c-.45,0-.91-1.26-1.37-1.3L201.79,0c-2.07-.13-4.16.86-6.24.68-2.84-.17-5.65.18-8.48.22s-5.79.61-8.62.88c-2.12.21-4.2.57-6.23.8-1.48.16-2.92.4-4.36.55-2.15.2-4.28.36-6.36.56-3.15.29-6.25.58-9.31.74H147.1c-2.47,0-5-.08-7.55-.22-2.07-.1-4.21-.17-6.4-.29-1.9,0-3.86-.12-5.78-.31a86.45,86.45,0,0,0-10.16-.54c-1.55.06-3.08.07-4.57,0a71.68,71.68,0,0,0-9.65,0,34.19,34.19,0,0,1-3.48,0C98.68,3,97.82,3,96.94,3l-9.12.4c-2.56.06-5.08.14-7.51.18-1.67,0-3.33.08-5,.16-1.85.09-3.67.25-5.5.36a9,9,0,0,0-1.1.06,26.61,26.61,0,0,1-4.7.15q-2,.09-4,.25H55.36l-10.11,0c-1.87,0-3.7.06-5.54.19s-3.77.32-5.62.53a45.92,45.92,0,0,1-4.68.35c-3.42,0-6.83.16-10.17.46a68.32,68.32,0,0,1-9.37.11,4.91,4.91,0,0,0-1.18.14,7.82,7.82,0,0,1-2.84.36A2.86,2.86,0,0,0,3.72,7a.45.45,0,0,0-.09.12,7.72,7.72,0,0,0-.89,2.4c-.21,2.11.07,4.25-.75,6.35A44.44,44.44,0,0,0,.53,20.53l-.07.27,2.67,1.81L0,23a3.59,3.59,0,0,1,0,.44V25l5.93,2.67-5.35-.3a7.61,7.61,0,0,0,.09.82c.1.91,1,1.83,1,2.69A23.65,23.65,0,0,1,.94,36a6.3,6.3,0,0,0,1,5.4A7.07,7.07,0,0,1,3.13,43a33.06,33.06,0,0,1,1.39,5.65,74.14,74.14,0,0,1,.2,7.83c0,.64-.09,1.27-.08,1.91a28.74,28.74,0,0,0,.08,3.2c.06.8.6,1.61.6,2.41A13.25,13.25,0,0,1,4,70.18a10.07,10.07,0,0,0-1.1,3.15q-.51,3.62-1.07,7.36C1.65,82,2.94,82.59,5.76,82.8c.43,0,.83.13,1.25.16a16.51,16.51,0,0,0,4.76.08,29.92,29.92,0,0,1,3.82-.65c2.32-.14,4.66-.12,6.94-.12a16.08,16.08,0,0,1,3.29.58q4.9,1,10,1.78,4.23.46,8.72.63c2.5.08,5,.18,7.59.19,1.4,0,2.8-.08,4.17-.19,1.15-.11,2.33-.19,3.51-.24,2,0,4,0,6,.13s4.3.22,6.47.23,4.36,0,6.53-.16c4-.21,8.13-.15,12.13-.21a69.09,69.09,0,0,0,9.35-.54,32.76,32.76,0,0,1,4.93-.43c4.51.07,9,.22,13.54.44,3.27.16,6.54.47,9.79.76A54.69,54.69,0,0,0,138.72,85q1.83-.21,3.72-.34c3-.15,6.09-.24,9.13-.38,1.14-.08,2.27-.19,3.37-.34,2.21-.27,4.41-.57,6.62-.83a4.59,4.59,0,0,1,1.08.07c3.59.5,7.14,1.1,10.77,1.5,3,.3,6.09.51,9.19.6,1.9,0,3.81,0,5.72-.1q4.3-.19,8.64-.52c.8-.14,1.59-.29,2.35-.47,2.22-.31,4.43-.62,6.68-.87,3.19-.35,6.42-.6,9.62-.93,2.68-.27,5.21-.66,6.54-1.9a2.27,2.27,0,0,1,1-.21.75.75,0,0,1,.51.33,8.19,8.19,0,0,1,.3,1.09,2.13,2.13,0,0,0,2.11-.34,3.11,3.11,0,0,0,1-1.18c.14-.51.27-2.27.37-2.78-.51-1.54-.5-3-.48-6.89h-4.4c1.47,0,2.92-2.88,4.4-.85,2.9-2,0-7.46,2.84-9.43a24.49,24.49,0,0,1-3.45-6.5,32.38,32.38,0,0,1-1.63-7.54,55.15,55.15,0,0,1-.17-8.34c.14-2.86.45-5.75.84-8.58s.89-5.59,1.41-8.21,1.06-5.09,1.56-7.39a2.59,2.59,0,0,0,.31-.73Z"
            style="fill:#072d39;"
        />
        <path
            d="M213.66,64.7a1,1,0,0,1-.84-.26c-.32-.46.32-1,.85-1.18a44.63,44.63,0,0,1,10.42-2.42l1.65-.17c.73-3.27-.13-7.3-.91-10.75-3.18-14.21-1.35-29,.51-43.44-9.89-.27-19.78-.53-29.68-.66-3.6,1.1-7.6,1.59-10.36,4.09a7.12,7.12,0,0,1-1.79,1.42,5.08,5.08,0,0,1-2.59.17L176.74,11c-11.53,13.47-26.4,24-41,34.28-2.39,1.68-4.87,3.4-7.72,4-3.17.7-6.45,0-9.62-.74Q72.28,38,26.54,26C19.16,24,11.73,22,4.24,20.53c.08,1.33.16,2.67.23,4q4-.16,8-.08a8.59,8.59,0,0,1-3.06,5.32c-1.23,1-2.74,1.65-3.77,2.85-.31.36-.57.77-.88,1.14Q5.38,54.56,4,75.35c-.12,1.78-.17,3.78,1,5.08a6.17,6.17,0,0,0,3.34,1.51,78.59,78.59,0,0,0,16.71,1.42q2.51-3.12,5.07-6.18a1.8,1.8,0,0,1,.83-.66c.69-.19,1.31.47,1.68,1.07,1.16,1.87,2.17,4.28,4.34,4.71.55.11,1.29.26,1.48.7,14-.43,27.95-.42,41.92-.4l51,.08h10a17.2,17.2,0,0,0-1.9-3c-.95-1.2-2.12-2.46-2-4l5.53,3a21.75,21.75,0,0,0,3.21,1.5c.79.27,1.61.45,2.37.78a8.26,8.26,0,0,1,2.49,1.76H155c23.67,0,47.34.08,71,1.16a68.37,68.37,0,0,0,.85-18l-3.78-1,.06-.06C220,64.7,216.84,64.63,213.66,64.7Z"
            style="fill:#2b898c;"
        />
        <path
            d="M9.46,29.77a8.59,8.59,0,0,0,3.06-5.32q-4-.08-8.05.08c.15,3.08,1.14,5,1.23,8.09.3-.37-.31.36,0,0C6.72,31.42,8.23,30.76,9.46,29.77ZM37.05,82.31c-2.16-.43-3.17-2.84-4.34-4.71-.38-.61-1-1.26-1.68-1.07a1.8,1.8,0,0,0-.83.66c-1.72,2-2.5,3-4.17,5.07,3.87,0,6.84.93,10.69.8h1.81C38.34,82.56,37.6,82.42,37.05,82.31ZM146.3,80.17a21.75,21.75,0,0,1-3.21-1.5l-5.53-3c-.12,1.52,1.05,2.79,2,4a7.72,7.72,0,0,1,1.38,2c3.23,0,7,1.07,10.23,1.08A8.26,8.26,0,0,0,148.68,81c-.74-.34-1.59-.52-2.38-.79Zm79.44-19.51-1.65.17a44.63,44.63,0,0,0-10.42,2.42c-.53.19-1.17.72-.85,1.18a1,1,0,0,0,.84.26c3.18-.07,6.36,0,9.53.17A7,7,0,0,0,225.74,60.66ZM181,5.74c-1.35,1.82-2.78,3.57-4.25,5.29l4.18.46a5.08,5.08,0,0,0,2.59-.17A7.12,7.12,0,0,0,185.3,9.9c2.76-2.5,6.76-3,10.36-4.09q-7.33-.09-14.67-.07Z"
            style="fill:#2c4851;"
        />
        <path
            d="M118.4,48.6c3.16.72,6.45,1.44,9.62.74,2.85-.63,5.33-2.34,7.72-4,14.6-10.33,29.48-20.83,41-34.33l-4.05-.45c-6.25-.66-12.51-1.34-18.75-2.28-2.67-.4-5.32-.86-8-1.34a95.29,95.29,0,0,1-14,.32c-4.89-.38-9.7-1.54-14.6-1.88-6.29-.44-12.58.49-18.86,1q-2.07.16-4.14.25c-.92,1.38-.4,3.38-1.45,4.61a3,3,0,0,1-3.95.07,8.73,8.73,0,0,1-2.39-3.52l-.47-1c-4.59,0-9.18-.12-13.78-.28l-.54.4-5.13,3.75a15.63,15.63,0,0,1,1.81-4.29c-12.52-.45-25-.87-37.39,1-6.46,1-13.23,2.5-19.38.29-2.75-1-6.31-2.5-8.15-.23l-.16.83c.35,4.1.62,8.2.86,12.31C11.73,22,19.16,24,26.54,26Q72.27,38,118.4,48.6Z"
            style="fill:#349da1;"
        />
        <path
            d="M86.53,7.68l.05.11a8.73,8.73,0,0,0,2.36,3.52,3,3,0,0,0,3.91-.06c.83-.94.7-2.35,1-3.57Zm-18-1.31h-.05a15.63,15.63,0,0,0-1.81,4.29l4.28-3.15A6.9,6.9,0,0,1,68.52,6.37Z"
            style="fill:#25797f;"
        />
        <path
            d="M147,6.86l-1.1.08c2.65.48,5.31.94,8,1.34,6.22.94,12.48,1.62,18.74,2.31l4.05.45c1.47-1.72,2.89-3.47,4.25-5.29C169.67,5.78,158.35,6.09,147,6.86Z"
            style="fill:#2c4851;"
        />
</svg>