<?xml version="1.0" encoding="UTF-8" standalone="no"?>
<svg
   xmlns:dc="http://purl.org/dc/elements/1.1/"
   xmlns:cc="http://creativecommons.org/ns#"
   xmlns:rdf="http://www.w3.org/1999/02/22-rdf-syntax-ns#"
   xmlns:svg="http://www.w3.org/2000/svg"
   xmlns="http://www.w3.org/2000/svg"
   xmlns:sodipodi="http://sodipodi.sourceforge.net/DTD/sodipodi-0.dtd"
   xmlns:inkscape="http://www.inkscape.org/namespaces/inkscape"
   viewBox="0 0 1920 150"
   version="1.1"
   id="svg4"
   sodipodi:docname="footer.svg"
   width="1920"
   height="150"
   inkscape:version="0.92.2 (5c3e80d, 2017-08-06)">
  <metadata
     id="metadata10">
    <rdf:RDF>
      <cc:Work
         rdf:about="">
        <dc:format>image/svg+xml</dc:format>
        <dc:type
           rdf:resource="http://purl.org/dc/dcmitype/StillImage" />
        <dc:title />
      </cc:Work>
    </rdf:RDF>
  </metadata>
  <defs
     id="defs8" />
  <sodipodi:namedview
     pagecolor="#ffffff"
     bordercolor="#666666"
     borderopacity="1"
     objecttolerance="10"
     gridtolerance="10"
     guidetolerance="10"
     inkscape:pageopacity="0"
     inkscape:pageshadow="2"
     inkscape:window-width="1920"
     inkscape:window-height="1017"
     id="namedview6"
     showgrid="false"
     inkscape:zoom="0.41989994"
     inkscape:cx="1058.0391"
     inkscape:cy="192.84408"
     inkscape:window-x="-8"
     inkscape:window-y="-8"
     inkscape:window-maximized="1"
     inkscape:current-layer="svg4" />
  <path
     style="fill:#f1eee5;stroke-width:0.80393571"
     d="M 1920,150 V 7.345044 c -1.8773,0 -3.6349,-1.856234 -5.4882,-2.582833 -2.1928,-0.624909 -4.3951,-0.452868 -6.5803,0.514045 -16.7887,8.322774 -21.864,2.129772 -24.5568,2.74682 -0.9327,0.193763 -2.4297,-0.824235 -3.3023,0.435203 -0.8006,1.162559 -0.7289,6.458026 -0.885,9.848821 -0.1948,4.144306 -0.3855,8.295506 -0.5723,12.450576 -0.108,0 -0.512,-11.834607 -0.58,-13.223217 -0.1001,-2.03448 -0.164,-5.798033 -0.4762,-7.477284 -0.3122,-1.679251 -0.8451,-1.356444 -1.4135,-1.340298 -12.0891,12.181421 -18.3479,-4.1670232 -23.7844,-2.551295 -0.7645,-0.161466 -1.4129,-0.469514 -2.1374,-0.48566 -1.7812,0 -3.5702,0.2919 -5.3474,0.889326 -1.6011,0.548986 -3.2503,1.436546 -4.8354,0.290134 -0.167,-0.179087 -0.3393,-0.266079 -0.5121,-0.258598 V 6.42418 h -0.4003 c -2.0014,0.09688 -4.5512,1.613403 -6.8688,1.936336 -2.8379,0.33908 -5.6484,-0.774661 -8.4824,-1.226767 -9.989,13.765145 -33.8662,-1.7166405 -35.3283,5.21612 -0.7726,3.778314 -1.3127,9.68786 -1.9772,13.999013 -0.5844,3.746022 -0.8003,5.683745 -1.2767,0.936632 -0.3551,-4.138793 -0.5812,-8.439758 -0.6731,-12.803785 -0.1441,-4.198123 10e-5,-4.474132 -0.9045,-5.588251 -1.2569,-1.614664 -3.1501,-0.226431 -4.475,-0.387897 -68.312,1.2142976 -88.8849,8.512327 -117.8612,-1.630433 -0.4309,-0.1500249 -1.5369,-0.758892 -1.9412,0 -0.7285,1.356318 -0.6444,2.987632 -0.8005,6.168523 -0.1201,2.680339 -0.2246,12.820812 -0.885,14.112544 -0.8606,-2.341264 -0.7323,-9.930186 -1.4088,-12.917315 -0.6765,-2.987129 -1.0285,-2.213225 -2.0772,-0.760027 -1.2008,1.614664 -1.2008,4.004745 -2.4017,1.195229 -0.531,-1.439071 -1.0939,-2.67639 -1.6816,-3.696066 -0.6444,-0.952652 -1.6209,-0.29064 -2.1773,-1.614665 -1.0767,-2.454289 -0.5886,-4.181728 -1.9576,-4.181728 -1.3049,0 -2.5814,-1.615422 -3.8863,-1.986795 -2.7179,-0.678159 -5.3763,0.840635 -8.0821,1.438061 -2.3296,0.516692 -4.6629,0.902951 -6.9845,1.936336 -2.5858,1.146411 -5.1314,0.324573 -7.7132,0.873559 -1.3089,0.274493 -1.8216,1.611637 -2.8222,4.566471 -0.8967,2.680342 -1.8735,3.439992 -2.9623,4.005124 -1.3035,0.73046 -2.6269,0.670936 -3.9261,-0.176603 -35.1644,-32.660543 -27.2839,13.524719 -77.0455,-8.461219 -1.3055,-0.374368 -2.603,-1.113037 -3.8831,-2.210703 -1.0768,-1.130265 -1.645,-3.955927 -2.0773,1.210998 -0.3162,3.810608 -0.3202,8.912443 -1.1007,11.592786 -0.5044,1.743838 -2.0897,4.97304 -2.594,2.292697 -0.5044,-2.680342 -0.1598,-11.804079 -1.1445,-13.418743 -0.4003,-0.678159 -1.2966,1.14578 -1.7489,1.371833 -0.7866,0.282583 -1.5774,0.325805 -2.3657,0.129302 -1.485,-0.193759 -2.3657,-2.081276 -2.8661,4.506554 -0.3642,4.843993 -0.5968,10.202912 -1.4173,13.932787 -0.3843,-4.467239 -0.7512,-8.955752 -1.1008,-13.466049 -0.4003,-4.843992 -0.4,-5.310856 -1.6449,-5.44003 -2.3776,-0.242199 -4.8874,-0.631987 -7.237,0.901941 -5.2677,3.423091 -10.3312,0.600201 -15.6108,-0.78841 -2.3056,-0.597426 -4.6108,-1.421914 -6.9204,-1.841727 -22.4505,8.966524 -8.2514,0.7922453 -32.8353,-5.039519 -14.9266,-3.5470241 -41.1076,10.388158 -43.7442,1.583136 -0.8006,-3.019423 0.1824,5.1036 -0.8624,5.329653 -0.9326,0.193763 -2.4296,-7.071598 -3.3022,-5.81216 -0.8006,1.162558 -0.4311,6.21835 -0.5872,9.609144 -1.7244,1.016134 0.2719,9.678951 -1.9271,4.752537 -0.1001,-2.034477 0.075,-11.805718 -0.2376,-13.484969 -2.7028,-4.2368834 -16.362,4.1700177 -19.7997,2.440921 -1.023,3.53484 1.5072,-2.860784 0.4511,11.356262 -0.9326,-3.778314 -1.9279,-10.152453 -3.3289,-11.056665 -0.7525,-0.4844 -1.5175,0.498905 -2.282,0.337439 -0.7645,-0.161467 -1.4129,-0.469514 -2.1374,-0.485661 -1.7812,0 -3.5702,0.291901 -5.3475,0.889327 -1.6011,0.548985 -3.2503,1.436545 -4.8354,0.290134 -0.1671,-0.179105 -0.3399,-0.266265 -0.5128,-0.258598 V 6.42419 h -0.4003 c -2.0013,0.09688 -6.3978,-3.911776 -8.7154,-3.588843 -59.6128,3.6012859 -17.4593,18.282472 -66.0801,3.765443 -1.2488,-0.403666 -2.5138,-0.242831 -3.7666,-0.242831 -1.6011,0 -2.2053,-7.450161 -2.8778,-1.475903 -0.2402,2.099064 -0.6812,26.644105 -1.4377,26.821718 -0.6444,0.161467 -0.1301,-23.189481 -0.7505,-24.771851 -1.445,-3.697582 -3.3896,-2.871075 -5.0668,-3.355475 -2.858,-0.823478 -7.0471,5.529216 -9.9131,4.818764 -2.3296,-0.581279 -1.4957,-5.701783 -3.8253,-5.701783 -18.3995,12.337355 -16.2019,-3.9861746 -30.2929,5.616635 -1.1127,0.548986 -0.085,10.190173 -1.1578,11.772542 -1.2689,1.873011 -1.7498,-1.38861 -2.5783,-4.843993 -0.9887,-4.181981 -1.2406,-5.697115 -2.6136,-5.358036 -1.3729,0.33908 -8.1597,-5.292566 -9.5206,-5.663938 -2.838,-0.775039 -0.2741,4.273183 -3.1201,4.273183 -5.9041,0 -8.1081,-10.929661 -17.6724,-1.614665 h -8.4574 c -0.4563,0 -1.5369,-0.758892 -1.9412,0 -0.7285,1.356318 -0.6444,2.987635 -0.8005,6.168523 -0.1201,2.68034 -0.2246,12.820813 -0.885,14.112544 -0.8606,-2.341263 -0.7324,-9.930185 -1.4088,-12.917314 -0.6765,-2.987129 -1.0285,-2.213226 -2.0773,-0.760028 -1.2008,1.614665 -1.2008,4.004746 -2.4016,1.19523 -4.8895,-8.5153147 -64.8493,-19.2194887 -72.2867,-12.980386 -1.465,1.404758 -3.1756,12.103043 -4.0442,16.704837 -0.4604,-3.326209 1.2857,-8.692066 0.7653,-11.759928 -0.7044,-4.052807 -2.3155,-3.170167 -3.3882,-3.137874 -2.83,0.113026 -5.465,4.278608 -8.287,4.585395 -16.1993,-2.7289463 -37.3732,-8.35442942 -37.9583,-1.709274 v 0.09145 c -0.4842,0.56471 -0.9532,0.618003 -1.1875,-0.627575 -0.5044,-2.680342 -2.6624,2.617523 -3.6471,1.002859 -0.4003,-0.678159 -1.2966,1.14578 -1.7489,1.371833 -0.7866,0.282531 -1.5775,0.325838 -2.3657,0.129302 -1.485,-0.193759 -2.3657,-2.081276 -2.866,4.506554 -0.3643,4.843993 -4.5887,15.009062 -5.4092,18.738937 -0.3843,-4.467239 3.2406,-13.761903 2.8911,-18.272199 -0.4003,-4.843993 -0.4001,-5.310857 -1.6449,-5.44003 -10.2059,-2.2463342 -11.3582,-5.7678012 -23.0269,-5.654478 -2.3056,-0.597426 -4.4318,4.346095 -6.7414,3.926282 -21.13003,-4.6622253 -2.35493,1.5280884 -18.17113,10.848526 -0.37862,-10.850006 2.33655,-13.0047331 -6.80627,-14.273381 -2.61781,-0.597425 -5.23998,-0.984943 -7.85779,-1.614664 -24.86067,6.8245658 -62.72883,-8.6188259 -70.97172,5.749088 -2.34963,-1.533931 -5.21669,0.776428 -7.59434,1.018627 -1.24486,0.129173 -1.24462,0.596037 -1.64489,5.44003 -0.34957,4.510307 0.17724,2.74956 -0.20703,7.216804 -0.82057,-3.729875 -1.94686,-2.839549 -2.31112,-7.683542 -0.50034,-6.58783 -1.38099,-4.700313 -2.86602,-4.506554 -0.78822,0.196505 -1.57909,0.153232 -2.36571,-0.129302 -0.45232,-0.226053 -1.34858,-2.049992 -1.74885,-1.371833 -0.98468,1.614664 -3.14274,-3.683201 -3.64709,-1.002859 -0.23436,1.245585 -0.70328,1.192288 -1.18754,0.627575 0,-0.03601 0,-0.05286 -0.005,-0.09145 -0.30541,-3.650223 -0.68303,-3.299236 -1.25555,-2.387306 -0.0512,-0.14997 -0.10695,-0.30604 -0.14618,-0.44151 -0.25698,-0.882333 -0.11432,-0.342349 0.12196,0.479353 -0.23192,0.372116 -0.49234,0.81818 -0.79743,1.138465 -1.28,1.098052 -2.57782,1.835794 -3.88316,2.210703 -15.06983,-8.263723 -13.57539,-7.354431 -15.1558,-2.819356 -17.78823,1.974847 0.88588,-9.0871187 -14.01387,13.241904 -24.86852,-22.375443 -43.9633,-6.933661 -72.2841,-13.166217 -2.70587,-0.597425 -5.36427,-2.116219 -8.08215,-1.43806 -2.25584,5.52997 -10.3867,1.599423 -10.89437,2.346537 -1.20083,2.809515 -0.009,9.552152 -1.21008,7.937487 -1.04873,-1.453198 -1.40077,-2.227101 -2.07724,0.760028 -0.67646,2.987129 -0.54818,10.576051 -1.40877,12.917314 -0.66046,-1.291731 -0.76489,-11.432203 -0.88497,-14.112544 -0.15611,-3.18089 -0.072,-4.812205 -0.80056,-6.168523 -0.40428,-0.758892 -1.4849,0 -1.94122,0 -30.41653,-18.05728 -66.91605,24.689541 -94.21828,-2.827251 -4.19518,17.92513 13.83545,16.76194 0.0836,21.407166 -0.75653,-0.177613 -2.03165,-18.473952 -2.27181,-20.573016 -0.67247,-5.974258 -1.27665,1.475903 -2.87775,1.475903 -1.25287,2e-6 -2.51783,-0.160836 -3.76669,0.242831 -29.03466,1.0166589 -20.17891,-3.6604284 -32.60299,7.959795 -0.4323,0.403666 -3.63111,-11.458062 -4.07942,-11.554941 -1.04472,-0.274493 0.17072,7.177686 -0.874,7.177686 -0.87537,6.888965 -0.8064,-1.501409 -2.85198,1.182616 -1.22188,1.60328 2.27266,-7.534176 0.97176,-7.663349 -5.22362,-0.500546 -5.92754,-2.214612 -11.13114,-1.374986 -2.83396,0.452041 -12.67433,0.846815 -15.51229,0.507736 -2.3176,-0.322933 -6.71404,3.685723 -8.71543,3.588843 h -0.40028 v 0.176604 c -0.17287,-0.0078 -0.34571,0.07951 -0.51283,0.258598 C 547.51309,9.1961917 546.10532,0.04865423 542.03262,16.884818 527.85588,8.4092557 466.22429,2.2992196 464.16549,2.724966 c -2.00139,0.452106 -5.26356,-1.306869 -6.84066,4.66739 -0.56038,2.131355 -1.54134,9.366314 -2.28986,9.366314 -0.83257,0 -1.50904,-7.800091 -2.40166,-8.558982 -0.34024,-0.242199 -0.94057,1.19422 -1.30482,1.371834 -0.5696,0.138215 -1.14119,0.03037 -1.7051,-0.321672 -0.99365,-0.170486 -1.97805,-0.843264 -2.93015,-2.002562 -2.32961,-3.471528 -5.03548,-1.533427 -7.50519,-1.097468 -2.3096,0.419813 -4.61479,1.244301 -6.92039,1.841727 -5.27965,1.388611 -11.29641,-4.440548 -15.61079,0.78841 -9.362,-8.877084 -5.9849,-5.41043 -11.40009,4.071351 -0.50034,-6.58783 -1.38103,-4.700313 -2.86606,-4.506553 -6.20269,10.12507 -9.48712,-4.663584 -11.03107,-3.178871 -1.28016,1.097662 -2.57766,1.83633 -3.88312,2.210703 -57.86753,-13.1418817 -46.54272,19.138375 -94.46926,-0.807332 -2.3216,-1.033385 -4.6549,-1.419643 -6.98451,-1.936336 -2.70587,-0.597426 -5.36427,-2.116219 -8.08215,-1.43806 -1.3049,0.371373 -2.58138,1.986794 -3.88629,1.986794 -1.36894,0 -0.88085,1.727439 -1.95759,4.181729 -0.55638,1.324024 -1.53286,0.662012 -2.17731,1.614664 -0.58764,1.019681 -1.15059,2.257002 -1.6816,3.696066 -1.20083,2.809517 -1.20083,0.419435 -2.40166,-1.195229 -1.04873,-1.453198 -1.40077,-2.227101 -2.07724,0.760027 -0.67646,2.98713 -0.54818,10.576052 -1.40877,12.917315 -0.66046,-1.291732 -0.76493,-11.432203 -0.88501,-14.112544 -0.15611,-3.180889 -0.072,-4.812205 -0.80056,-6.168523 -8.97224,-1.1385855 -19.95052,1.5256127 -28.07097,1.614664 -2.84597,0 -5.70387,-0.484904 -8.54183,0.290135 -1.36094,0.371374 -2.726,1.4397 -4.09895,1.100621 -1.37295,-0.33908 -1.62481,1.176055 -2.61353,5.358036 -0.82853,3.455383 -1.78612,-9.625755 -3.05499,-11.498766 -1.07275,-1.582369 -1.29614,8.966644 -2.40891,8.417658 -0.92064,-0.468252 -2.17739,0.83887 -3.14205,0.83887 -1.47298,0.01615 -2.97058,-0.09877 -4.4476,-0.324825 C 126.35223,7.7736538 167.45392,16.405037 87.744992,8.360527 80.376237,5.7904593 72.278548,6.3907823 65.361551,5.828153 45.389772,19.256353 31.764947,7.7119705 24.481718,7.666725 20.358827,7.392232 16.167969,6.648731 12.073137,5.276266 9.8833153,4.309351 7.6809922,4.137309 5.4881556,4.762222 3.6348739,5.488821 1.8772983,7.345056 0,7.345056 V 150 h 335.03171 144.96822 335.03171 144.96826 144.9682 335.0317 144.9685 z"
     id="path2"
     inkscape:connector-curvature="0"
     sodipodi:nodetypes="cccccccccsccccccccccccccccccccsccccscccccccccccsccccccccccccccccccccsccccccccscccccccccscscscccsccccccccccccccccccccccccccccccccccccccccccccscccccccscccccccccccccccsccccccccccccccsccccscccccscccccccccccccccccccc" />
</svg>
