<?xml version="1.0" encoding="UTF-8" standalone="no"?>
<svg
   xmlns:dc="http://purl.org/dc/elements/1.1/"
   xmlns:cc="http://creativecommons.org/ns#"
   xmlns:rdf="http://www.w3.org/1999/02/22-rdf-syntax-ns#"
   xmlns:svg="http://www.w3.org/2000/svg"
   xmlns="http://www.w3.org/2000/svg"
   viewBox="0 0 475 475"
   height="475"
   width="475"
   id="svg119"
   version="1.1">
  <metadata
     id="metadata125">
    <rdf:RDF>
      <cc:Work
         rdf:about="">
        <dc:format>image/svg+xml</dc:format>
        <dc:type
           rdf:resource="http://purl.org/dc/dcmitype/StillImage" />
        <dc:title></dc:title>
      </cc:Work>
    </rdf:RDF>
  </metadata>
  <defs
     id="defs123" />
  <g
     id="g129"
     transform="translate(0.28911379)">
    <path
       id="path139"
       d="m 207.3829,461.25 c -5.10453,-8.7141 -9.08646,-13.99544 -15.41146,-20.44062 -9.5478,-9.72922 -13.96399,-12.16155 -25.31822,-13.94461 -6.83352,-1.07314 -33.35268,-0.56898 -38.23186,0.72683 -1.89978,0.50454 -2.2351,-0.20702 -3.89712,-8.26978 -2.49845,-12.12048 -7.06185,-27.34596 -10.40812,-34.726 -7.42789,-16.38187 -16.014213,-20.16013 -48.328132,-21.266 l -18.712012,-0.64037 -0.787988,-4.59472 C 44.609203,348.3058 45.498109,314.27596 47.857745,298 54.125514,254.76709 62.403227,221.13969 78.012318,175.5 l 5.814118,-17 -0.538321,-9.53675 c -0.435673,-7.71825 -0.130879,-11.15054 1.598429,-18 2.215212,-8.77402 7.096694,-19.89974 11.390828,-25.96161 l 2.478183,-3.49836 -5.559131,-6.001639 C 82.299159,83.736946 77.386302,73.709616 74.44954,57.238529 71.843215,42.620725 72.854588,30.966604 77.681189,20 80.344488,13.948672 87.821589,2 88.945018,2 c 0.390556,0 9.80762,6.5167847 20.926812,14.481744 27.66869,19.819792 35.28354,24.058798 58.56805,32.603464 l 7.93988,2.91368 10.06012,-1.939448 c 24.08284,-4.642829 53.96323,-4.848789 74.83868,-0.515849 7.6891,1.59596 7.89403,1.584785 17.81774,-0.971661 22.73821,-5.857585 45.93262,-17.98884 67.9037,-35.515323 4.125,-3.2905415 7.82578,-5.9994088 8.22395,-6.0197049 0.39818,-0.020296 2.99231,3.1931189 5.76475,7.1409219 5.71874,8.143189 9.0113,17.410043 9.0113,25.362135 0,17.100357 -12.35393,46.774642 -24.24182,58.229131 l -3.39279,3.26909 2.22928,6.73091 c 1.2261,3.702 4.09874,15.73091 6.38363,26.73091 8.52722,41.05191 15.93757,67.254 23.04945,81.5 5.63511,11.28784 11.88849,18.88712 23.74665,28.85759 10.333,8.68811 15.22824,14.12383 20.39104,22.64241 2.55735,4.2196 10.83456,22.05194 10.83456,23.34185 0,0.416 -1.5515,1.3174 -3.44779,2.00311 -4.06593,1.47026 -17.499,13.71485 -20.66379,18.83557 -3.37713,5.46431 -2.85521,12.3463 2.1098,27.81947 8.47218,26.40313 8.93807,36.01058 2.90759,59.95977 L 408.76257,404 h -9.38864 c -6.69394,0 -13.1895,-0.83961 -22.63128,-2.92531 -14.28397,-3.15534 -20.58227,-3.90988 -22.53953,-2.70022 -0.68264,0.42189 -2.39204,3.03824 -3.79869,5.81412 -2.74177,5.41063 -13.40986,36.98275 -17.9594,53.15069 l -2.7687,9.83927 -4.58816,-0.66039 c -19.13602,-2.75434 -24.7827,-4.99725 -42.26115,-16.78652 -6.97014,-4.70139 -13.62569,-8.85035 -14.79012,-9.21993 -1.58272,-0.50233 -3.1097,0.22477 -6.04928,2.88051 -6.20221,5.60332 -17.77141,13.80527 -26.48762,18.7783 C 225.02553,468.14673 215.81836,473 214.95532,473 c -0.37923,0 -3.78682,-5.2875 -7.57242,-11.75 z"
       style="fill:#f0ede4" />
    <path
       id="path137"
       d="m 207.3829,461.25 c -5.10453,-8.7141 -9.08646,-13.99544 -15.41146,-20.44062 -9.5478,-9.72922 -13.96399,-12.16155 -25.31822,-13.94461 -6.83352,-1.07314 -33.35268,-0.56898 -38.23186,0.72683 -1.89978,0.50454 -2.2351,-0.20702 -3.89712,-8.26978 -2.49845,-12.12048 -7.06185,-27.34596 -10.40812,-34.726 -7.42789,-16.38187 -16.014213,-20.16013 -48.328132,-21.266 l -18.712012,-0.64037 -0.787988,-4.59472 C 44.609203,348.3058 45.498109,314.27596 47.857745,298 54.125514,254.76709 62.403227,221.13969 78.012318,175.5 l 5.814118,-17 -0.538321,-9.53675 c -0.435673,-7.71825 -0.130879,-11.15054 1.598429,-18 2.215212,-8.77402 7.096694,-19.89974 11.390828,-25.96161 l 2.478183,-3.49836 -5.559131,-6.001639 C 82.299159,83.736946 77.386302,73.709616 74.44954,57.238529 71.843215,42.620725 72.854588,30.966604 77.681189,20 80.344488,13.948672 87.821589,2 88.945018,2 c 0.390556,0 9.80762,6.5167847 20.926812,14.481744 27.66869,19.819792 35.28354,24.058798 58.56805,32.603464 l 7.93988,2.91368 10.06012,-1.939448 c 24.08284,-4.642829 53.96323,-4.848789 74.83868,-0.515849 7.6891,1.59596 7.89403,1.584785 17.81774,-0.971661 22.73821,-5.857585 45.93262,-17.98884 67.9037,-35.515323 4.125,-3.2905415 7.82578,-5.9994088 8.22395,-6.0197049 0.39818,-0.020296 2.99231,3.1931189 5.76475,7.1409219 5.71874,8.143189 9.0113,17.410043 9.0113,25.362135 0,17.100357 -12.35393,46.774642 -24.24182,58.229131 l -3.39279,3.26909 2.22928,6.73091 c 1.2261,3.702 4.09874,15.73091 6.38363,26.73091 8.52722,41.05191 15.93757,67.254 23.04945,81.5 5.63511,11.28784 11.88849,18.88712 23.74665,28.85759 10.333,8.68811 15.22824,14.12383 20.39104,22.64241 2.55735,4.2196 10.83456,22.05194 10.83456,23.34185 0,0.416 -1.5515,1.3174 -3.44779,2.00311 -4.06593,1.47026 -17.499,13.71485 -20.66379,18.83557 -3.37713,5.46431 -2.85521,12.3463 2.1098,27.81947 8.47218,26.40313 8.93807,36.01058 2.90759,59.95977 L 408.76257,404 h -9.38864 c -6.69394,0 -13.1895,-0.83961 -22.63128,-2.92531 -14.28397,-3.15534 -20.58227,-3.90988 -22.53953,-2.70022 -0.68264,0.42189 -2.39204,3.03824 -3.79869,5.81412 -2.74177,5.41063 -13.40986,36.98275 -17.9594,53.15069 l -2.7687,9.83927 -4.58816,-0.66039 c -19.13602,-2.75434 -24.7827,-4.99725 -42.26115,-16.78652 -6.97014,-4.70139 -13.62569,-8.85035 -14.79012,-9.21993 -1.58272,-0.50233 -3.1097,0.22477 -6.04928,2.88051 -6.20221,5.60332 -17.77141,13.80527 -26.48762,18.7783 C 225.02553,468.14673 215.81836,473 214.95532,473 c -0.37923,0 -3.78682,-5.2875 -7.57242,-11.75 z M 116.86122,81.129055 c 6.07677,-5.070915 16.06489,-11.475058 23.95482,-15.359253 l 6.32857,-3.115547 -10.46135,-5.221781 C 126.48118,52.340106 118.19287,47.125059 103.07123,36.283603 98.381439,32.921262 95.292327,31.307673 94.692829,31.907171 92.918197,33.681803 92.726739,46.258217 94.344043,54.818017 96.4168,65.788363 99.755144,72.803469 106.09094,79.502644 108.95049,82.52619 111.49989,85 111.75628,85 c 0.25639,0 2.55361,-1.741925 5.10494,-3.870945 z M 336.12765,78 c 4.51463,-6.496811 10.43004,-20.066291 12.42413,-28.5 1.4079,-5.954507 1.90564,-12.5 0.95053,-12.5 -0.27372,0 -2.63622,1.515967 -5.25,3.368816 -8.03192,5.693664 -21.02555,12.754843 -33.44722,18.17635 l -11.85583,5.17455 10.84472,6.207287 c 5.9646,3.414008 12.83851,7.964541 15.27537,10.112295 2.43686,2.147755 5.06193,3.805039 5.8335,3.682855 C 331.67442,83.599969 334.02558,81.025 336.12765,78 Z"
       style="fill:#eeccc3" />
    <path
       id="path135"
       d="m 207.3829,461.25 c -5.10453,-8.7141 -9.08646,-13.99544 -15.41146,-20.44062 -9.5478,-9.72922 -13.96399,-12.16155 -25.31822,-13.94461 -6.83352,-1.07314 -33.35268,-0.56898 -38.23186,0.72683 -1.89978,0.50454 -2.2351,-0.20702 -3.89712,-8.26978 -2.49845,-12.12048 -7.06185,-27.34596 -10.40812,-34.726 -7.42789,-16.38187 -16.014213,-20.16013 -48.328132,-21.266 l -18.712012,-0.64037 -0.787988,-4.59472 C 44.609203,348.3058 45.498109,314.27596 47.857745,298 54.125514,254.76709 62.403227,221.13969 78.012318,175.5 l 5.814118,-17 -0.538321,-9.53675 c -0.435673,-7.71825 -0.130879,-11.15054 1.598429,-18 2.215212,-8.77402 7.096694,-19.89974 11.390828,-25.96161 l 2.478183,-3.49836 -5.559131,-6.001639 C 82.299159,83.736946 77.386302,73.709616 74.44954,57.238529 71.843215,42.620725 72.854588,30.966604 77.681189,20 80.344488,13.948672 87.821589,2 88.945018,2 c 0.390556,0 9.80762,6.5167847 20.926812,14.481744 27.66869,19.819792 35.28354,24.058798 58.56805,32.603464 l 7.93988,2.91368 10.06012,-1.939448 c 24.08284,-4.642829 53.96323,-4.848789 74.83868,-0.515849 7.6891,1.59596 7.89403,1.584785 17.81774,-0.971661 22.73821,-5.857585 45.93262,-17.98884 67.9037,-35.515323 4.125,-3.2905415 7.82578,-5.9994088 8.22395,-6.0197049 0.39818,-0.020296 2.99231,3.1931189 5.76475,7.1409219 5.71874,8.143189 9.0113,17.410043 9.0113,25.362135 0,17.100357 -12.35393,46.774642 -24.24182,58.229131 l -3.39279,3.26909 2.22928,6.73091 c 1.2261,3.702 4.09874,15.73091 6.38363,26.73091 8.52722,41.05191 15.93757,67.254 23.04945,81.5 5.63511,11.28784 11.88849,18.88712 23.74665,28.85759 10.333,8.68811 15.22824,14.12383 20.39104,22.64241 2.55735,4.2196 10.83456,22.05194 10.83456,23.34185 0,0.416 -1.5515,1.3174 -3.44779,2.00311 -4.06593,1.47026 -17.499,13.71485 -20.66379,18.83557 -3.37713,5.46431 -2.85521,12.3463 2.1098,27.81947 8.47218,26.40313 8.93807,36.01058 2.90759,59.95977 L 408.76257,404 h -9.38864 c -6.69394,0 -13.1895,-0.83961 -22.63128,-2.92531 -14.28397,-3.15534 -20.58227,-3.90988 -22.53953,-2.70022 -0.68264,0.42189 -2.39204,3.03824 -3.79869,5.81412 -2.74177,5.41063 -13.40986,36.98275 -17.9594,53.15069 l -2.7687,9.83927 -4.58816,-0.66039 c -19.13602,-2.75434 -24.7827,-4.99725 -42.26115,-16.78652 -6.97014,-4.70139 -13.62569,-8.85035 -14.79012,-9.21993 -1.58272,-0.50233 -3.1097,0.22477 -6.04928,2.88051 -6.20221,5.60332 -17.77141,13.80527 -26.48762,18.7783 C 225.02553,468.14673 215.81836,473 214.95532,473 c -0.37923,0 -3.78682,-5.2875 -7.57242,-11.75 z M 187.69416,273.85638 c 7.25725,-6.6589 13.84272,-11.33901 19.06689,-13.55029 2.75181,-1.16478 9.28325,-1.79247 24.73895,-2.37746 15.26771,-0.57788 25.23097,-1.52633 36.5,-3.4746 24.78143,-4.28439 32.5137,-2.84745 49.80036,9.25472 l 7.69964,5.39041 3.72477,-4.14976 c 9.75383,-10.86672 13.74498,-29.05176 13.76668,-62.72565 0.007,-11.53783 -0.3977,-14.89846 -3.09399,-25.66512 l -3.10255,-12.38887 -4.64745,3.57229 c -7.85329,6.03647 -18.88304,10.33313 -41.95665,16.34428 -11.66155,3.03807 -11.46099,2.58924 -11.72206,26.2319 -0.25089,22.72115 -1.05761,26.53379 -6.83717,32.31335 -5.78522,5.78522 -9.48324,6.56087 -29.47854,6.18307 -15.73336,-0.29727 -16.83949,-0.44763 -20.0291,-2.7225 -5.96879,-4.25704 -7.08405,-8.54406 -7.80131,-29.98811 l -0.63599,-19.01395 -2.69532,-0.592 c -1.48244,-0.32559 -20.64943,-0.46772 -42.59333,-0.31582 -27.36774,0.18943 -41.46803,-0.084 -44.8972,-0.87051 -2.74957,-0.63066 -5.1239,-1.02199 -5.27628,-0.8696 -0.53392,0.53392 4.80816,24.32703 6.87665,30.62799 2.85163,8.68649 6.81036,16.28369 12.26877,23.54497 8.29493,11.0347 23.85186,24.32813 36.02815,30.78615 5.57316,2.95586 4.63486,3.31979 14.29608,-5.54489 z M 116.86122,81.129055 c 6.07677,-5.070915 16.06489,-11.475058 23.95482,-15.359253 l 6.32857,-3.115547 -10.46135,-5.221781 C 126.48118,52.340106 118.19287,47.125059 103.07123,36.283603 98.381439,32.921262 95.292327,31.307673 94.692829,31.907171 92.918197,33.681803 92.726739,46.258217 94.344043,54.818017 96.4168,65.788363 99.755144,72.803469 106.09094,79.502644 108.95049,82.52619 111.49989,85 111.75628,85 c 0.25639,0 2.55361,-1.741925 5.10494,-3.870945 z M 336.12765,78 c 4.51463,-6.496811 10.43004,-20.066291 12.42413,-28.5 1.4079,-5.954507 1.90564,-12.5 0.95053,-12.5 -0.27372,0 -2.63622,1.515967 -5.25,3.368816 -8.03192,5.693664 -21.02555,12.754843 -33.44722,18.17635 l -11.85583,5.17455 10.84472,6.207287 c 5.9646,3.414008 12.83851,7.964541 15.27537,10.112295 2.43686,2.147755 5.06193,3.805039 5.8335,3.682855 C 331.67442,83.599969 334.02558,81.025 336.12765,78 Z"
       style="fill:#329b9f" />
    <path
       id="path133"
       d="m 207.3829,461.25 c -5.10453,-8.7141 -9.08646,-13.99544 -15.41146,-20.44062 -9.5478,-9.72922 -13.96399,-12.16155 -25.31822,-13.94461 -6.83352,-1.07314 -33.35268,-0.56898 -38.23186,0.72683 -1.89978,0.50454 -2.2351,-0.20702 -3.89712,-8.26978 -2.49845,-12.12048 -7.06185,-27.34596 -10.40812,-34.726 -7.42789,-16.38187 -16.014213,-20.16013 -48.328132,-21.266 l -18.712012,-0.64037 -0.787988,-4.59472 C 44.609203,348.3058 45.498109,314.27596 47.857745,298 54.125514,254.76709 62.403227,221.13969 78.012318,175.5 l 5.814118,-17 -0.538321,-9.53675 c -0.435673,-7.71825 -0.130879,-11.15054 1.598429,-18 2.215212,-8.77402 7.096694,-19.89974 11.390828,-25.96161 l 2.478183,-3.49836 -5.559131,-6.001639 C 82.299159,83.736946 77.386302,73.709616 74.44954,57.238529 71.843215,42.620725 72.854588,30.966604 77.681189,20 80.344488,13.948672 87.821589,2 88.945018,2 c 0.390556,0 9.80762,6.5167847 20.926812,14.481744 27.66869,19.819792 35.28354,24.058798 58.56805,32.603464 l 7.93988,2.91368 10.06012,-1.939448 c 24.08284,-4.642829 53.96323,-4.848789 74.83868,-0.515849 7.6891,1.59596 7.89403,1.584785 17.81774,-0.971661 22.73821,-5.857585 45.93262,-17.98884 67.9037,-35.515323 4.125,-3.2905415 7.82578,-5.9994088 8.22395,-6.0197049 0.39818,-0.020296 2.99231,3.1931189 5.76475,7.1409219 5.71874,8.143189 9.0113,17.410043 9.0113,25.362135 0,17.100357 -12.35393,46.774642 -24.24182,58.229131 l -3.39279,3.26909 2.22928,6.73091 c 1.2261,3.702 4.09874,15.73091 6.38363,26.73091 8.52722,41.05191 15.93757,67.254 23.04945,81.5 5.63511,11.28784 11.88849,18.88712 23.74665,28.85759 10.333,8.68811 15.22824,14.12383 20.39104,22.64241 2.55735,4.2196 10.83456,22.05194 10.83456,23.34185 0,0.416 -1.5515,1.3174 -3.44779,2.00311 -4.06593,1.47026 -17.499,13.71485 -20.66379,18.83557 -3.37713,5.46431 -2.85521,12.3463 2.1098,27.81947 8.47218,26.40313 8.93807,36.01058 2.90759,59.95977 L 408.76257,404 h -9.38864 c -6.69394,0 -13.1895,-0.83961 -22.63128,-2.92531 -14.28397,-3.15534 -20.58227,-3.90988 -22.53953,-2.70022 -0.68264,0.42189 -2.39204,3.03824 -3.79869,5.81412 -2.74177,5.41063 -13.40986,36.98275 -17.9594,53.15069 l -2.7687,9.83927 -4.58816,-0.66039 c -19.13602,-2.75434 -24.7827,-4.99725 -42.26115,-16.78652 -6.97014,-4.70139 -13.62569,-8.85035 -14.79012,-9.21993 -1.58272,-0.50233 -3.1097,0.22477 -6.04928,2.88051 -6.20221,5.60332 -17.77141,13.80527 -26.48762,18.7783 C 225.02553,468.14673 215.81836,473 214.95532,473 c -0.37923,0 -3.78682,-5.2875 -7.57242,-11.75 z M 187.69416,273.85638 c 7.25725,-6.6589 13.84272,-11.33901 19.06689,-13.55029 2.75181,-1.16478 9.28325,-1.79247 24.73895,-2.37746 15.26771,-0.57788 25.23097,-1.52633 36.5,-3.4746 24.78143,-4.28439 32.5137,-2.84745 49.80036,9.25472 l 7.69964,5.39041 3.72477,-4.14976 c 9.75383,-10.86672 13.74498,-29.05176 13.76668,-62.72565 0.007,-11.53783 -0.3977,-14.89846 -3.09399,-25.66512 l -3.10255,-12.38887 -4.64745,3.57229 c -7.85329,6.03647 -18.88304,10.33313 -41.95665,16.34428 -11.66155,3.03807 -11.46099,2.58924 -11.72206,26.2319 -0.25089,22.72115 -1.05761,26.53379 -6.83717,32.31335 -5.78522,5.78522 -9.48324,6.56087 -29.47854,6.18307 -15.73336,-0.29727 -16.83949,-0.44763 -20.0291,-2.7225 -5.96879,-4.25704 -7.08405,-8.54406 -7.80131,-29.98811 l -0.63599,-19.01395 -2.69532,-0.592 c -1.48244,-0.32559 -20.64943,-0.46772 -42.59333,-0.31582 -27.36774,0.18943 -41.46803,-0.084 -44.8972,-0.87051 -2.74957,-0.63066 -5.1239,-1.02199 -5.27628,-0.8696 -0.53392,0.53392 4.80816,24.32703 6.87665,30.62799 2.85163,8.68649 6.81036,16.28369 12.26877,23.54497 8.29493,11.0347 23.85186,24.32813 36.02815,30.78615 5.57316,2.95586 4.63486,3.31979 14.29608,-5.54489 z M 254.875,228.375 258,227.75 l 0.0309,-14.125 c 0.0564,-25.82651 2.84189,-36.41678 11.19376,-42.55881 4.89239,-3.59791 8.67958,-4.98443 23.04952,-8.43859 29.22253,-7.02436 38.17318,-15.52066 36.35476,-34.50937 C 326.45675,105.43542 318.16866,96.068696 286,79.941442 265.1453,69.486262 251.98128,66.609619 225.5,66.720785 198.80574,66.832845 182.1919,70.022567 159.63162,79.366978 134.51035,89.772142 118.99365,103.2308 108.74996,123.5 c -5.81731,11.51072 -7.01097,21.06095 -4.1852,33.48493 1.34403,5.90923 2.17645,7.44358 5.90084,10.8766 2.91828,2.68997 6.5756,4.73372 11.18524,6.25042 6.66734,2.19374 8.00394,2.25535 50.34916,2.32081 l 43.5,0.0672 5.24164,2.36955 c 9.33908,4.22184 13.70615,11.03338 13.54734,21.13045 -0.0303,1.925 0.16751,9.2375 0.43953,16.25 l 0.49457,12.75 h 8.26346 c 4.5449,0 9.66971,-0.28125 11.38846,-0.625 z M 116.86122,81.129055 c 6.07677,-5.070915 16.06489,-11.475058 23.95482,-15.359253 l 6.32857,-3.115547 -10.46135,-5.221781 C 126.48118,52.340106 118.19287,47.125059 103.07123,36.283603 98.381439,32.921262 95.292327,31.307673 94.692829,31.907171 92.918197,33.681803 92.726739,46.258217 94.344043,54.818017 96.4168,65.788363 99.755144,72.803469 106.09094,79.502644 108.95049,82.52619 111.49989,85 111.75628,85 c 0.25639,0 2.55361,-1.741925 5.10494,-3.870945 z M 336.12765,78 c 4.51463,-6.496811 10.43004,-20.066291 12.42413,-28.5 1.4079,-5.954507 1.90564,-12.5 0.95053,-12.5 -0.27372,0 -2.63622,1.515967 -5.25,3.368816 -8.03192,5.693664 -21.02555,12.754843 -33.44722,18.17635 l -11.85583,5.17455 10.84472,6.207287 c 5.9646,3.414008 12.83851,7.964541 15.27537,10.112295 2.43686,2.147755 5.06193,3.805039 5.8335,3.682855 C 331.67442,83.599969 334.02558,81.025 336.12765,78 Z"
       style="fill:#a57545" />
    <path
       id="path131"
       d="m 207.3829,461.25 c -5.10453,-8.7141 -9.08646,-13.99544 -15.41146,-20.44062 -9.5478,-9.72922 -13.96399,-12.16155 -25.31822,-13.94461 -6.83352,-1.07314 -33.35268,-0.56898 -38.23186,0.72683 -1.89978,0.50454 -2.2351,-0.20702 -3.89712,-8.26978 -2.49845,-12.12048 -7.06185,-27.34596 -10.40812,-34.726 -7.42789,-16.38187 -16.014213,-20.16013 -48.328132,-21.266 l -18.712012,-0.64037 -0.787988,-4.59472 C 44.609203,348.3058 45.498109,314.27596 47.857745,298 54.125514,254.76709 62.403227,221.13969 78.012318,175.5 l 5.814118,-17 -0.538321,-9.53675 c -0.435673,-7.71825 -0.130879,-11.15054 1.598429,-18 2.215212,-8.77402 7.096694,-19.89974 11.390828,-25.96161 l 2.478183,-3.49836 -5.559131,-6.001639 C 82.299159,83.736946 77.386302,73.709616 74.44954,57.238529 71.843215,42.620725 72.854588,30.966604 77.681189,20 80.344488,13.948672 87.821589,2 88.945018,2 c 0.390556,0 9.80762,6.5167847 20.926812,14.481744 27.66869,19.819792 35.28354,24.058798 58.56805,32.603464 l 7.93988,2.91368 10.06012,-1.939448 c 24.08284,-4.642829 53.96323,-4.848789 74.83868,-0.515849 7.6891,1.59596 7.89403,1.584785 17.81774,-0.971661 22.73821,-5.857585 45.93262,-17.98884 67.9037,-35.515323 4.125,-3.2905415 7.82578,-5.9994088 8.22395,-6.0197049 0.39818,-0.020296 2.99231,3.1931189 5.76475,7.1409219 5.71874,8.143189 9.0113,17.410043 9.0113,25.362135 0,17.100357 -12.35393,46.774642 -24.24182,58.229131 l -3.39279,3.26909 2.22928,6.73091 c 1.2261,3.702 4.09874,15.73091 6.38363,26.73091 8.52722,41.05191 15.93757,67.254 23.04945,81.5 5.63511,11.28784 11.88849,18.88712 23.74665,28.85759 10.333,8.68811 15.22824,14.12383 20.39104,22.64241 2.55735,4.2196 10.83456,22.05194 10.83456,23.34185 0,0.416 -1.5515,1.3174 -3.44779,2.00311 -4.06593,1.47026 -17.499,13.71485 -20.66379,18.83557 -3.37713,5.46431 -2.85521,12.3463 2.1098,27.81947 8.47218,26.40313 8.93807,36.01058 2.90759,59.95977 L 408.76257,404 h -9.38864 c -6.69394,0 -13.1895,-0.83961 -22.63128,-2.92531 -14.28397,-3.15534 -20.58227,-3.90988 -22.53953,-2.70022 -0.68264,0.42189 -2.39204,3.03824 -3.79869,5.81412 -2.74177,5.41063 -13.40986,36.98275 -17.9594,53.15069 l -2.7687,9.83927 -4.58816,-0.66039 c -19.13602,-2.75434 -24.7827,-4.99725 -42.26115,-16.78652 -6.97014,-4.70139 -13.62569,-8.85035 -14.79012,-9.21993 -1.58272,-0.50233 -3.1097,0.22477 -6.04928,2.88051 -6.20221,5.60332 -17.77141,13.80527 -26.48762,18.7783 C 225.02553,468.14673 215.81836,473 214.95532,473 c -0.37923,0 -3.78682,-5.2875 -7.57242,-11.75 z m 21.53624,-18.37968 c 6.53889,-3.66693 15.65148,-10.62606 25.93449,-19.80572 4.18363,-3.73474 8.06334,-6.41961 9,-6.22827 4.64198,0.9483 19.26226,8.8574 30.45761,16.47658 10.87659,7.40226 19.98509,11.99913 20.9981,10.59731 0.16304,-0.22562 2.91602,-8.51022 6.11773,-18.41022 10.32653,-31.93066 15.77157,-41.99729 25.17987,-46.55177 4.4211,-2.14021 5.05536,-2.18744 14.23192,-1.05971 5.28254,0.64919 14.50971,2.30997 20.50482,3.69063 5.99512,1.38066 11.18284,2.22767 11.52827,1.88224 0.34543,-0.34543 0.61466,-5.20306 0.5983,-10.79472 -0.0272,-9.29317 -0.40213,-11.27821 -4.36374,-23.10387 -2.38369,-7.11547 -4.93998,-16.4084 -5.68063,-20.65097 -2.61032,-14.95224 1.54621,-26.71571 13.84693,-39.18846 l 6.78,-6.87482 -3.4787,-5.72655 c -3.41416,-5.62031 -8.04624,-10.36946 -22.33395,-22.89841 -3.93661,-3.45203 -9.30415,-9.17677 -11.92786,-12.72164 l -4.7704,-6.44523 -1.23522,7.31298 c -1.43416,8.49084 -5.15363,19.30989 -9.02786,26.25992 -1.49322,2.67871 -6.35573,8.69538 -10.80558,13.37038 -4.44984,4.675 -9.00098,9.7019 -10.11362,11.17089 l -2.023,2.67088 -13.68316,-9.83887 c -18.94104,-13.61954 -20.82123,-14.44587 -31.00743,-13.62756 -4.48032,0.35993 -12.19603,1.56252 -17.14603,2.67241 -6.66619,1.49471 -14.3159,2.16947 -29.5,2.60213 -15.94281,0.45428 -21.05575,0.92688 -23,2.12594 -4.90911,3.02757 -22.8146,18.20666 -26.7478,22.67501 -2.20239,2.50204 -4.32814,4.54917 -4.7239,4.54917 -0.39576,0 -1.91403,-0.84618 -3.37393,-1.88039 -1.4599,-1.03422 -7.37937,-4.30135 -13.15437,-7.26029 -5.775,-2.95894 -14.1,-8.12895 -18.5,-11.4889 -9.82601,-7.50339 -23.58724,-21.66727 -29.50878,-30.37221 C 108.08729,241.43897 101.31794,219.79815 97.190264,189.5 l -0.817412,-6 -5.589247,17 C 77.186604,241.85602 66.747958,293.97555 65.337783,327.54946 l -0.632109,15.04945 13.397163,1.16941 c 7.36844,0.64317 16.097163,1.87212 19.397163,2.73099 13.88726,3.61436 24.46035,11.49011 31.52882,23.48537 3.51497,5.96494 9.38076,21.50843 11.9363,31.62951 l 1.03883,4.11419 14.74802,0.5663 c 20.99322,0.80611 30.68836,3.96157 43.49693,14.15686 5.49842,4.3766 15.61786,16.12858 19.39721,22.52651 0.98181,1.66207 2.2142,3.02195 2.73864,3.02195 0.52445,0 3.46492,-1.40835 6.53439,-3.12968 z M 187.69416,273.85638 c 7.25725,-6.6589 13.84272,-11.33901 19.06689,-13.55029 2.75181,-1.16478 9.28325,-1.79247 24.73895,-2.37746 15.26771,-0.57788 25.23097,-1.52633 36.5,-3.4746 24.78143,-4.28439 32.5137,-2.84745 49.80036,9.25472 l 7.69964,5.39041 3.72477,-4.14976 c 9.75383,-10.86672 13.74498,-29.05176 13.76668,-62.72565 0.007,-11.53783 -0.3977,-14.89846 -3.09399,-25.66512 l -3.10255,-12.38887 -4.64745,3.57229 c -7.85329,6.03647 -18.88304,10.33313 -41.95665,16.34428 -11.66155,3.03807 -11.46099,2.58924 -11.72206,26.2319 -0.25089,22.72115 -1.05761,26.53379 -6.83717,32.31335 -5.78522,5.78522 -9.48324,6.56087 -29.47854,6.18307 -15.73336,-0.29727 -16.83949,-0.44763 -20.0291,-2.7225 -5.96879,-4.25704 -7.08405,-8.54406 -7.80131,-29.98811 l -0.63599,-19.01395 -2.69532,-0.592 c -1.48244,-0.32559 -20.64943,-0.46772 -42.59333,-0.31582 -27.36774,0.18943 -41.46803,-0.084 -44.8972,-0.87051 -2.74957,-0.63066 -5.1239,-1.02199 -5.27628,-0.8696 -0.53392,0.53392 4.80816,24.32703 6.87665,30.62799 2.85163,8.68649 6.81036,16.28369 12.26877,23.54497 8.29493,11.0347 23.85186,24.32813 36.02815,30.78615 5.57316,2.95586 4.63486,3.31979 14.29608,-5.54489 z M 254.875,228.375 258,227.75 l 0.0309,-14.125 c 0.0564,-25.82651 2.84189,-36.41678 11.19376,-42.55881 4.89239,-3.59791 8.67958,-4.98443 23.04952,-8.43859 29.22253,-7.02436 38.17318,-15.52066 36.35476,-34.50937 C 326.45675,105.43542 318.16866,96.068696 286,79.941442 265.1453,69.486262 251.98128,66.609619 225.5,66.720785 198.80574,66.832845 182.1919,70.022567 159.63162,79.366978 134.51035,89.772142 118.99365,103.2308 108.74996,123.5 c -5.81731,11.51072 -7.01097,21.06095 -4.1852,33.48493 1.34403,5.90923 2.17645,7.44358 5.90084,10.8766 2.91828,2.68997 6.5756,4.73372 11.18524,6.25042 6.66734,2.19374 8.00394,2.25535 50.34916,2.32081 l 43.5,0.0672 5.24164,2.36955 c 9.33908,4.22184 13.70615,11.03338 13.54734,21.13045 -0.0303,1.925 0.16751,9.2375 0.43953,16.25 l 0.49457,12.75 h 8.26346 c 4.5449,0 9.66971,-0.28125 11.38846,-0.625 z M 116.86122,81.129055 c 6.07677,-5.070915 16.06489,-11.475058 23.95482,-15.359253 l 6.32857,-3.115547 -10.46135,-5.221781 C 126.48118,52.340106 118.19287,47.125059 103.07123,36.283603 98.381439,32.921262 95.292327,31.307673 94.692829,31.907171 92.918197,33.681803 92.726739,46.258217 94.344043,54.818017 96.4168,65.788363 99.755144,72.803469 106.09094,79.502644 108.95049,82.52619 111.49989,85 111.75628,85 c 0.25639,0 2.55361,-1.741925 5.10494,-3.870945 z M 336.12765,78 c 4.51463,-6.496811 10.43004,-20.066291 12.42413,-28.5 1.4079,-5.954507 1.90564,-12.5 0.95053,-12.5 -0.27372,0 -2.63622,1.515967 -5.25,3.368816 -8.03192,5.693664 -21.02555,12.754843 -33.44722,18.17635 l -11.85583,5.17455 10.84472,6.207287 c 5.9646,3.414008 12.83851,7.964541 15.27537,10.112295 2.43686,2.147755 5.06193,3.805039 5.8335,3.682855 C 331.67442,83.599969 334.02558,81.025 336.12765,78 Z"
       style="fill:#414141" />
  </g>
</svg>
