<?xml version="1.0" encoding="UTF-8" standalone="no"?>
<!-- Created with Inkscape (http://www.inkscape.org/) -->

<svg
   xmlns:dc="http://purl.org/dc/elements/1.1/"
   xmlns:cc="http://creativecommons.org/ns#"
   xmlns:rdf="http://www.w3.org/1999/02/22-rdf-syntax-ns#"
   xmlns:svg="http://www.w3.org/2000/svg"
   xmlns="http://www.w3.org/2000/svg"
   xmlns:sodipodi="http://sodipodi.sourceforge.net/DTD/sodipodi-0.dtd"
   xmlns:inkscape="http://www.inkscape.org/namespaces/inkscape"
   version="1.1"
   id="svg2"
   width="25"
   height="25"
   viewBox="0 0 25 25"
   sodipodi:docname="pattern.svg"
   inkscape:version="0.92.2 (5c3e80d, 2017-08-06)">
  <metadata
     id="metadata8">
    <rdf:RDF>
      <cc:Work
         rdf:about="">
        <dc:format>image/svg+xml</dc:format>
        <dc:type
           rdf:resource="http://purl.org/dc/dcmitype/StillImage" />
        <dc:title></dc:title>
      </cc:Work>
    </rdf:RDF>
  </metadata>
  <defs
     id="defs6">
    <clipPath
       clipPathUnits="userSpaceOnUse"
       id="clipPath861">
      <rect
         style="opacity:0;fill:#f0cec5;fill-opacity:1"
         id="rect863"
         width="49.997433"
         height="49.998104"
         x="0.0025658365"
         y="0.0018956289" />
    </clipPath>
  </defs>
  <sodipodi:namedview
     pagecolor="#ffffff"
     bordercolor="#666666"
     borderopacity="1"
     objecttolerance="10"
     gridtolerance="10"
     guidetolerance="10"
     inkscape:pageopacity="0"
     inkscape:pageshadow="2"
     inkscape:window-width="1920"
     inkscape:window-height="1017"
     id="namedview4"
     showgrid="false"
     inkscape:zoom="4"
     inkscape:cx="-15.630204"
     inkscape:cy="8.0152716"
     inkscape:window-x="-8"
     inkscape:window-y="-8"
     inkscape:window-maximized="1"
     inkscape:current-layer="svg2" />
  <path
     style="fill:#000000;stroke-width:0.98854572"
     d="m 9.366128,49.176846 9.366129,-0.323503 9.129327,-9.320564 9.129327,-9.320564 -2.180352,-2.216769 -2.180352,-2.216769 -5.432613,5.341271 c -2.987936,2.937699 -6.873834,6.799042 -8.635327,8.580763 -3.064751,3.099944 -3.532323,3.239494 -10.85417,3.239494 l -8.62522293,0.131084 7.29021693,-6.610627 6.316447,-6.479541 -2.16513,-2.201295 -2.165131,-2.201293 -3.24592,3.198617 c -4.97019866,4.897768 -6.2565614,5.684353 -6.6273834,5.684353 -0.370823,0 1.48313778,-1.959533 5.6950904,-5.990127 L 7.843137,24.966985 3.921569,21.348758 C 1.764706,19.358732 -1.6831562,16.212684 -0.56727256,16.56933 0.51115948,17.300502 7.506498,23.940205 11.888077,28.280154 l 8.337272,8.367514 2.201944,-2.190554 C 23.632639,33.258003 25,32.646994 25,32.529341 25,32.411686 5.9224461,12.548643 0.36532852,8.1234219 L -1.3482968,6.7588348 7.299295,7.0668847 c 6.584184,0.2345459 7.566472,0.2499497 10.042418,2.6616768 l 2.743123,2.6719745 2.471547,-2.36068 L 25.02793,7.6791766 21.880469,4.377581 C 18.78683,1.1324449 18.572833,1.0724478 9.366503,0.8691141 -1.812713,0.94209443 -12.143436,0.52783769 -0.39284826,0.10640536 L 18.464985,0 21.97759,3.4749832 25.490196,6.9499662 29.27492,3.5145923 C 33.022029,0.1133607 33.143825,0.0812554 41.529822,0.2841887 57.888258,0.126948 59.179834,1.2182513 42.411203,0.89660478 l -9.611241,0.25763492 -9.53705,9.3257223 c -9.514518,9.30369 -9.532637,9.330678 -7.6696,11.423695 1.027096,1.153884 2.217538,2.097972 2.645427,2.097972 0.427888,0 4.718587,-3.812634 9.534886,-8.47252 l 8.756907,-8.4725209 h 6.489637 c 8.196531,0 8.330126,1.0800645 0.978549,7.9112139 -5.353303,4.974338 -5.461228,5.176963 -3.76962,7.077389 2.297922,2.581586 3.3775,2.64676 6.776079,-0.782582 4.920668,-4.965208 3.955422,-3.351076 -0.08093,0.876442 l -3.487728,3.652914 3.03664,2.282584 c 1.670153,1.255422 4.41376,4.005034 4.41376,4.524212 0,0.519179 -5.370093,-4.339069 -10.250394,-9.210064 -4.880301,-4.870995 -9.213974,-8.979405 -9.630385,-9.129799 -0.416411,-0.150395 -1.582004,0.653276 -2.590206,1.785934 -1.817883,2.042289 -1.737968,2.156346 9.630386,13.744772 6.304914,6.426965 11.46348,12.015063 11.46348,12.417997 0,0.402932 -2.953801,0.732604 -6.564001,0.732604 -5.783755,0 -6.89007,-0.317611 -9.307124,-2.671974 l -2.743123,-2.671974 -2.471547,2.360679 -2.471547,2.36068 3.147462,3.301596 c 3.067494,3.217711 3.372984,3.306803 12.023769,3.506565 11.15545,-0.0359 49.209554,0.114318 0.13563,0.539597 L 32.518638,50 28.957203,46.464267 25.395768,42.928532 22.064387,46.423053 18.733006,49.917574 9.366503,49.708961 c -18.106717,0.24289 -18.6023076,-0.504605 -3.75e-4,-0.532115 z m 8.082376,-9.807307 2.27642,-2.097204 -3.354846,-3.56624 -3.142981,-3.195477 -5.6225,5.71641 -5.8472161,5.810041 6.6608111,-0.09363 c 5.616751,-0.07896 6.827075,-0.544116 9.030312,-2.573898 z m 26.018691,-3.049585 -5.5311,-5.623483 -3.248783,3.086965 -3.248783,3.086964 2.343789,2.536519 c 2.049411,2.217936 3.152152,2.536518 8.779882,2.536518 h 6.436095 z m -14.239284,-8.136149 2.633971,-2.795193 -3.235663,-3.188511 -3.235665,-3.18851 -3.195857,3.35236 -3.195857,3.352361 3.075801,2.631344 c 1.69169,1.447239 3.400587,2.631343 3.797549,2.631343 0.396962,0 1.907036,-1.257837 3.355721,-2.795194 z m -12.567569,-12.1496 2.811501,-2.983591 -2.308778,-2.498628 C 15.155056,8.3788581 14.018816,8.0533557 8.441025,8.0533557 H 2.027766 l 5.325175,5.4822193 c 2.928847,3.01522 5.588589,5.482219 5.910538,5.482219 0.321949,0 1.850538,-1.342616 3.396863,-2.983589 z m 26.722011,-1.8215 c 2.830882,-2.6157 5.147059,-5.0716126 5.147059,-5.4575837 0,-0.385971 -2.790744,-0.7017656 -6.201653,-0.7017656 -5.351924,0 -6.517994,0.3423537 -8.510432,2.4986303 l -2.308778,2.498628 2.811501,2.983591 c 1.546325,1.640973 3.059843,2.972504 3.363373,2.958955 0.303529,-0.01355 2.868048,-2.164754 5.69893,-4.780455 z"
     id="path834"
     inkscape:connector-curvature="0"
     sodipodi:nodetypes="ccccccssscccccssscscscssscsscccscccccscccsssscssssscssscssssscccscccccccccscccccssccccssccscccccsssscsscssssssscscs"
     clip-path="url(#clipPath861)"
     transform="matrix(0.50002567,0,0,0.50001896,-0.00128298,-9.4785038e-4)" />
</svg>
