<?xml version="1.0" encoding="UTF-8" standalone="no"?>
<svg
   xmlns:dc="http://purl.org/dc/elements/1.1/"
   xmlns:cc="http://creativecommons.org/ns#"
   xmlns:rdf="http://www.w3.org/1999/02/22-rdf-syntax-ns#"
   xmlns:svg="http://www.w3.org/2000/svg"
   xmlns="http://www.w3.org/2000/svg"
   xmlns:sodipodi="http://sodipodi.sourceforge.net/DTD/sodipodi-0.dtd"
   xmlns:inkscape="http://www.inkscape.org/namespaces/inkscape"
   viewBox="0 0 1440 37.64"
   width="1440"
   height="37.64"
   version="1.1"
   id="svg12"
   sodipodi:docname="separation1.svg"
   inkscape:version="0.92.2 (5c3e80d, 2017-08-06)">
  <metadata
     id="metadata16">
    <rdf:RDF>
      <cc:Work
         rdf:about="">
        <dc:format>image/svg+xml</dc:format>
        <dc:type
           rdf:resource="http://purl.org/dc/dcmitype/StillImage" />
        <dc:title></dc:title>
      </cc:Work>
    </rdf:RDF>
  </metadata>
  <sodipodi:namedview
     pagecolor="#ffffff"
     bordercolor="#666666"
     borderopacity="1"
     objecttolerance="10"
     gridtolerance="10"
     guidetolerance="10"
     inkscape:pageopacity="0"
     inkscape:pageshadow="2"
     inkscape:window-width="1920"
     inkscape:window-height="1017"
     id="namedview14"
     showgrid="false"
     inkscape:zoom="0.98888889"
     inkscape:cx="696.27666"
     inkscape:cy="27.784819"
     inkscape:window-x="-8"
     inkscape:window-y="-8"
     inkscape:window-maximized="1"
     inkscape:current-layer="svg12" />
  <defs
     id="defs4">
    <style
       id="style2">.a,.b{fill-rule:evenodd;}.a{opacity:0.3;}.b{fill:#010303;}
</style>
  </defs>
  <path
     d="m 82.74,15.24 127.45,9.86 128,-2.17 313.7,-0.14 c 0,0 122.71,-12.15 124.21,-12.15 1.5,0 89.54,9.57 89.54,9.57 l 304.15,-0.58 40.89,-4.64 117.6,0.87 101.77,5.03 9.95,0.34 v -7.51 l -91.32,-9 -274,11.67 L 893.32,1.7 727.69,10.4 469.42,0 l -201,19.52 -76,0.21 L 94.97,9.97 0,13.75 v 6.89 z"
     id="path6"
     inkscape:connector-curvature="0" />
  <path
     class="a"
     d="m 82.74,27.78 127.45,9.86 128,-2.17 313.7,-0.14 c 0,0 125.43,-14.84 126.93,-14.84 1.5,0 86.82,12.22 86.82,12.22 l 304.15,-0.58 40.89,-4.64 117.6,0.87 101.77,5.08 9.95,0.33 v -7.51 l -91.32,-9 -272.18,3.8 h -184 l -164.8,1.89 -258.27,-10.4 -201,19.52 -76,-5.79 L 94.98,22.52 0,21.29 v 11.92 z"
     id="path8"
     inkscape:connector-curvature="0"
     style="opacity:0.3;fill-rule:evenodd" />
  <polygon
     class="b"
     points="1056.88,10.5 788.97,7.6 661.18,17.15 568.33,10.91 412.86,14.43 269.29,14.16 223.91,17.7 123.76,17.58 75.8,15.25 0,14 0,23.92 118.28,23.38 256.1,24.81 280.73,20.54 577.49,19.97 662.52,27.94 768.09,19.97 949.89,17.69 1150.91,19.05 1225.35,19.37 1259.44,20.54 1340.97,30.09 1440,23.89 1440,13.99 1341.49,13.81 1176.53,3.07 "
     id="polygon10"
     transform="rotate(-180,720,18.82)"
     style="fill:#010303;fill-rule:evenodd" />
</svg>
