<?xml version="1.0" encoding="UTF-8" standalone="no"?>
<!-- Created with Inkscape (http://www.inkscape.org/) -->

<svg
   xmlns:dc="http://purl.org/dc/elements/1.1/"
   xmlns:cc="http://creativecommons.org/ns#"
   xmlns:rdf="http://www.w3.org/1999/02/22-rdf-syntax-ns#"
   xmlns:svg="http://www.w3.org/2000/svg"
   xmlns="http://www.w3.org/2000/svg"
   xmlns:sodipodi="http://sodipodi.sourceforge.net/DTD/sodipodi-0.dtd"
   xmlns:inkscape="http://www.inkscape.org/namespaces/inkscape"
   version="1.1"
   id="svg2"
   width="1100.0139"
   height="210.09386"
   viewBox="0 0 1100.0139 210.09386"
   sodipodi:docname="banner.svg"
   inkscape:version="0.92.2 (5c3e80d, 2017-08-06)">
  <metadata
     id="metadata8">
    <rdf:RDF>
      <cc:Work
         rdf:about="">
        <dc:format>image/svg+xml</dc:format>
        <dc:type
           rdf:resource="http://purl.org/dc/dcmitype/StillImage" />
        <dc:title></dc:title>
      </cc:Work>
    </rdf:RDF>
  </metadata>
  <defs
     id="defs6" />
  <sodipodi:namedview
     pagecolor="#ffffff"
     bordercolor="#666666"
     borderopacity="1"
     objecttolerance="10"
     gridtolerance="10"
     guidetolerance="10"
     inkscape:pageopacity="0"
     inkscape:pageshadow="2"
     inkscape:window-width="1920"
     inkscape:window-height="1017"
     id="namedview4"
     showgrid="false"
     inkscape:zoom="0.64727273"
     inkscape:cx="611.12461"
     inkscape:cy="93.62208"
     inkscape:window-x="-8"
     inkscape:window-y="-8"
     inkscape:window-maximized="1"
     inkscape:current-layer="svg2" />
  <g
     transform="translate(0.01396089,0.04549609)"
     id="g817">
    <path
       style="fill:#73e0d4"
       d="M 0,105 V 0 h 550 550 V 105 210 H 550 0 Z"
       id="path837"
       inkscape:connector-curvature="0" />
    <path
       style="fill:#70dcd0"
       d="M 0,105 V 0 H 151.4425 302.885 L 303.1925,4.032225 303.5,8.06445 311.82439,4.032225 320.14878,0 H 710.07439 1100 V 105 210 H 882.66773 665.33545 l 0.451,-5.43842 0.451,-5.43842 -6.77868,2.03365 -6.77867,2.03365 -6.61481,-2.59523 c -7.75849,-3.04394 -8.6652,-3.13258 -9.87786,-0.96566 -0.50158,0.89627 -4.17233,2.66328 -8.15722,3.92671 -3.9849,1.26342 -8.23838,3.23011 -9.45219,4.37042 -1.50591,1.41473 -3.53399,2.0733 -6.38476,2.0733 h -4.17784 l -6.14385,-12.25 -6.14385,-12.25 -8.19048,8.81652 -8.19048,8.81652 -6.92338,-7.50134 -6.92338,-7.50134 -4.60661,1.24382 c -2.53364,0.68411 -6.28039,2.62349 -8.32611,4.30975 l -3.7195,3.06592 -5.83125,-1.56241 -5.83126,-1.56241 -7.03929,5.68749 C 526.27437,202.44063 522.90406,205 522.65639,205 c -0.24767,0 -1.70529,-4.66691 -3.23917,-10.3709 l -2.78886,-10.37091 -6.79504,2.50873 -6.79504,2.50873 -5.42863,-4.63783 C 494.6239,182.08702 491.70066,180 491.11356,180 c -2.03621,0 -3.87214,4.5407 -5.05409,12.5 -0.65339,4.4 -1.39804,8.73597 -1.65477,9.63548 -0.28743,1.00708 -3.89377,2.83218 -9.38585,4.75 C 466.21406,209.9601 465.84996,210 446.60003,210 h -19.49977 l -4.36185,-2.94378 c -4.33003,-2.9223 -4.39423,-2.93232 -8.80013,-1.374 L 409.5,207.252 398.61068,202.126 C 392.62156,199.3067 387.62958,197 387.51741,197 c -0.11218,0 0.34571,2.925 1.01753,6.5 l 1.22148,6.5 H 194.87821 0 Z m 409.50913,61.97124 c 0.35414,-1.11581 0.33924,-4.8736 -0.0331,-8.35064 l -0.67701,-6.32189 -14.11198,-0.60354 c -7.76159,-0.33195 -14.21739,-0.49813 -14.34623,-0.3693 -0.1872,0.18721 8.07457,13.98642 9.33656,15.59439 0.31507,0.40144 10.85297,1.63862 16.50526,1.93777 1.89199,0.10013 2.87239,-0.45595 3.32652,-1.88679 z m 55.98616,-4.85606 c 7.97831,-3.73877 8.31512,-4.03352 8.95818,-7.83975 0.52168,-3.08783 0.19469,-4.75743 -1.49142,-7.61518 C 471.77427,144.64711 470.7087,143 470.59411,143 c -0.84943,0 -21.97028,4.04367 -22.1677,4.2441 -0.13864,0.14074 0.78666,2.7309 2.0562,5.7559 1.26955,3.025 3.00736,7.1875 3.8618,9.25 0.85445,2.0625 1.84769,3.75 2.20721,3.75 0.35952,0 4.38417,-1.74817 8.94367,-3.88482 z m 231.39692,-19.45544 c 4.63294,-6.86572 4.82651,-7.42389 4.14104,-11.94066 -0.3955,-2.60604 -0.90228,-4.84644 -1.12617,-4.97867 -0.22389,-0.13222 -1.56257,-1.25431 -2.97484,-2.49352 -2.4078,-2.11275 -2.9236,-2.18164 -8.28009,-1.1059 -4.81119,0.96623 -6.20305,1.76677 -8.82292,5.07462 l -3.11057,3.92742 6.76747,9.90914 c 3.7221,5.45002 7.16762,9.66182 7.65671,9.35955 0.48908,-0.30227 3.0763,-3.79066 5.74937,-7.75198 z m -35.32511,-36.77073 5.64212,-2.11099 -0.60461,-6.389009 c -2.04536,-21.613608 -1.39919,-19.247184 -5.59915,-20.505521 -3.19005,-0.955762 -4.80848,-0.789324 -10.63408,1.0936 C 643.05353,80.34233 640,82.838083 640,86.453955 640,89.646239 652.89412,108 655.1368,108 c 0.4335,0 3.32713,-0.94995 6.4303,-2.11099 z M 737.58179,77 C 738.57753,77 739,75.767639 739,72.863051 c 0,-3.652131 -0.7342,-4.970544 -6.26496,-11.25 -9.88193,-11.21966 -9.35735,-9.781905 -5.82293,-15.959438 l 3.09893,-5.41636 -2.28107,-1.494616 c -1.25459,-0.822039 -5.8883,-3.308291 -10.29712,-5.525005 -11.62906,-5.846977 -11.96113,-5.427063 -8.09387,10.234926 l 3.08531,12.495142 -2.71215,2.830869 c -1.49167,1.556978 -2.70515,3.256245 -2.69661,3.77615 0.0226,1.378755 26.24203,15.412637 27.81626,14.888608 C 735.56427,77.199497 736.80177,77 737.58179,77 Z m 75.47479,-25.204086 c 2.6483,-5.662753 4.50646,-10.608135 4.12925,-10.989738 -0.73337,-0.741917 -27.05597,-3.288855 -27.62383,-2.672843 -0.18591,0.201667 -0.51634,4.967414 -0.7343,10.590549 l -0.39629,10.223882 5.03429,0.981351 c 2.76887,0.539742 7.0593,1.374005 9.5343,1.853917 2.475,0.479911 4.66684,0.745718 4.87075,0.590681 0.20392,-0.155037 2.53754,-4.915047 5.18583,-10.577799 z"
       id="path835"
       inkscape:connector-curvature="0" />
    <path
       style="fill:#6dd8ca"
       d="M 0,105 V 0 H 151.5 303 v 4 c 0,2.2 0.23499,4 0.5222,4 0.28721,0 4.10222,-1.8 8.4778,-4 l 7.95561,-4 H 709.9778 1100 V 105 210 H 926.39301 c -152.85851,0 -173.53912,-0.17687 -173.0391,-1.4799 0.31234,-0.81394 -1.64269,-6.21394 -4.34452,-12 C 746.30756,190.73405 744.30449,186 744.55813,186 c 0.25364,0 -4.11248,-5.5125 -9.7025,-12.25 -7.49773,-9.03682 -10.71344,-12.20916 -12.25965,-12.0943 -3.9846,0.296 -17.8456,6.02331 -19.46791,8.04407 -1.14858,1.43069 -5.4009,2.95798 -14.43846,5.18579 -7.04571,1.73681 -13.20562,2.91356 -13.6887,2.615 -0.48307,-0.29855 -2.28892,-3.00831 -4.013,-6.02169 -3.27433,-5.72294 -4.12895,-6.19549 -7.58388,-4.19343 C 661.21168,168.55586 650,180.77787 650,181.89737 c 0,0.35478 4.93983,2.8855 10.9774,5.62384 6.03757,2.73833 10.98757,5.2321 11,5.5417 0.0765,1.90434 -6.47356,6.03836 -12.30485,7.76618 l -6.82744,2.02298 -6.25855,-2.35571 c -4.37714,-1.64755 -8.18669,-4.14045 -12.67256,-8.29269 -3.5277,-3.26533 -8.1448,-7.47398 -10.26023,-9.35256 l -3.84622,-3.41559 3.68801,-6.29264 c 2.02841,-3.46095 3.53421,-6.39072 3.34623,-6.51061 -0.18799,-0.11988 -3.08707,-2.54748 -6.44241,-5.39465 l -6.10062,-5.17669 -10.74933,7.29214 -10.74934,7.29213 -8.62814,-1.27569 c -4.74548,-0.70163 -9.538,-1.7337 -10.65004,-2.29348 -1.11205,-0.55978 -6.38969,-2.10294 -11.72808,-3.42924 -8.04268,-1.99816 -10.27069,-2.98985 -13,-5.78632 -1.81161,-1.85618 -5.30773,-4.99574 -7.76917,-6.9768 l -4.47534,-3.60192 1.5531,-6.49113 1.55311,-6.49113 -8.74228,-5.35261 -8.74228,-5.3526 4.08007,-7.54714 c 2.24404,-4.15093 4.45787,-8.04602 4.91963,-8.65577 1.30566,-1.7241 -2.79462,-6.16712 -8.23608,-8.924515 C 520.25713,97.110085 517.62716,96 517.09021,96 c -1.18953,0 -15.11987,11.90979 -15.01701,12.83884 0.0403,0.36364 3.83702,3.81116 8.43724,7.66116 4.60021,3.85 8.39227,7.30295 8.42679,7.67322 0.0345,0.37026 -1.80479,4.13555 -4.08736,8.36729 l -4.15014,7.69408 -4.84316,-12.3673 c -2.66373,-6.80201 -5.33107,-13.82979 -5.92742,-15.61729 -0.59634,-1.7875 -1.53972,-3.25 -2.09641,-3.25 -0.55668,0 -1.75929,-0.91982 -2.67245,-2.04405 -1.08422,-1.33483 -4.86474,-2.85849 -10.89589,-4.39134 l -9.23559,-2.34729 -1.94203,3.14227 c -1.31511,2.12789 -2.17191,5.97544 -2.65414,11.91868 -0.39167,4.82703 -0.99591,8.95182 -1.34278,9.16619 -0.34686,0.21438 -4.55937,-0.5126 -9.36113,-1.6155 l -8.73047,-2.00528 -2.94456,2.47768 c -2.45762,2.06795 -4.43912,2.59597 -11.98236,3.19299 -8.74336,0.69202 -9.10105,0.81779 -10.97914,3.86048 -1.06773,1.72985 -2.45444,5.18633 -3.08157,7.68108 -0.94449,3.75722 -1.91552,5.02639 -5.65623,7.39294 -2.48379,1.57136 -4.99801,3.62887 -5.58715,4.57223 -0.95051,1.52202 -2.65913,1.66873 -15.16921,1.30256 -16.54633,-0.48431 -18.45088,-0.78886 -19.39133,-3.1008 -0.38869,-0.95552 -4.02357,-4.83484 -8.0775,-8.6207 l -7.3708,-6.88339 -5.32603,9.88064 c -5.09191,9.44631 -5.25176,9.96944 -3.63636,11.90063 1.62353,1.94091 1.5921,1.93883 -0.80317,-0.0531 -1.37107,-1.14021 -4.29285,-2.6118 -6.49285,-3.2702 -3.98407,-1.19233 -4.01511,-1.18037 -7.79424,3.00157 l -3.79424,4.19866 6.25158,6.30764 6.25157,6.30764 -2.20137,8.2639 c -2.05608,7.7185 -2.08882,8.3299 -0.49606,9.2639 2.32008,1.36051 6.48124,5.50983 8.2929,8.26931 l 1.48986,2.26932 11.63938,-1.45848 c 13.3901,-1.67785 22.5649,-1.16263 23.2799,1.3073 0.25674,0.8869 0.76853,3.75005 1.1373,6.36255 L 389.22709,210 H 194.61354 0 Z m 298.29063,56.56273 c 3.18485,-5.18479 7.33046,-10.77889 9.21249,-12.43132 l 3.42185,-3.00443 -3.97095,-4.81349 c -4.49938,-5.45403 -6.65671,-6.16191 -19.06524,-6.25586 L 280.27757,135 l -2.13879,5.58898 c -2.98972,7.81264 -2.75023,13.41785 0.96825,22.66102 l 3.11777,7.75 5.1376,-0.005 5.1376,-0.005 5.79063,-9.42688 z m 277.09924,-4.22808 c 1.18363,-4.66819 1.5068,-4.98959 9.38623,-9.33465 6.57564,-3.6261 8.28331,-5.05325 8.79331,-7.34884 0.36738,-1.65361 0.15149,-3.3318 -0.51458,-4 -1.60867,-1.61382 -15.16033,-3.59613 -17.23909,-2.52169 -0.92634,0.47879 -3.2567,0.87053 -5.17857,0.87053 -3.55551,0 -6.98071,2.32601 -6.43712,4.37138 0.75751,2.85027 9.32114,23.44076 9.62337,23.13853 0.18734,-0.18733 0.89224,-2.5162 1.56645,-5.17526 z m 402.23145,-8.27093 c 5.60967,-8.52736 6.0846,-8.97371 10.37868,-9.75416 4.1334,-0.75125 4.52534,-1.07982 4.81108,-4.03321 0.1711,-1.76844 -0.63486,-7.58142 -1.79102,-12.91775 -1.15616,-5.33632 -1.90023,-10.22848 -1.65349,-10.87147 0.25357,-0.66079 5.97897,-1.97032 13.16893,-3.01201 l 12.7202,-1.84294 1.3722,-3.28397 c 0.7546,-1.80619 1.3721,-3.906021 1.3721,-4.666302 0,-2.173086 -11.1325,-15.683899 -12.9071,-15.664446 -0.8761,0.0096 -4.682,2.372104 -8.45747,5.25 -6.16772,4.701365 -7.14577,5.942525 -9.63476,12.226558 l -2.77019,6.99401 -5.73274,1.00599 c -5.44689,0.95582 -5.80987,1.20543 -7.27991,5.00598 -1.83716,4.74972 -9.17474,16.42529 -11.54627,18.37244 C 958.7522,132.62729 958,133.70331 958,134.2636 c 0,2.44499 10.42372,22.68297 11.88383,23.07285 0.8889,0.23735 1.67077,0.48375 1.73749,0.54755 0.0667,0.0638 2.76673,-3.90533 6,-8.82028 z m -281.08449,-5.11598 c 5.48635,-7.78516 5.65154,-8.2081 4.98001,-12.75 -1.21502,-8.21781 -4.96188,-10.80141 -13.28752,-9.16226 -4.95191,0.97493 -6.11298,1.66204 -8.5568,5.06382 -1.55511,2.1647 -2.68011,4.32468 -2.5,4.79995 0.34555,0.91181 13.19771,20.00075 13.5086,20.06394 0.0996,0.0202 2.73469,-3.58671 5.85571,-8.01545 z M 631.95598,104.75 c 5.06606,-7.0125 9.36745,-12.75 9.55864,-12.75 0.1912,0 2.88462,3.6 5.98538,8 3.10076,4.4 6.19438,8 6.87471,8 0.68032,0 3.91673,-0.90498 7.19203,-2.01106 l 5.95508,-2.01106 -1.16193,-12.738942 c -0.63907,-7.006416 -1.20647,-12.850147 -1.26091,-12.98607 -0.0544,-0.135923 -1.56148,-0.8468 -3.34898,-1.579728 L 658.5,75.340544 V 67.51559 59.690636 l -9.80336,-3.019229 -9.80336,-3.019228 -2.67735,2.677341 -2.67734,2.677341 3.36437,9.246569 c 5.72781,15.742229 5.3403,17.357547 -4.40296,18.353434 l -6,0.613278 -7.8254,-8.610071 c -4.30397,-4.735539 -8.12897,-8.608141 -8.5,-8.605782 -0.37103,0.0024 -2.36387,3.264859 -4.42852,7.25 -2.58116,4.982081 -5.00234,8.125099 -7.75,10.060565 -2.19785,1.54817 -3.96933,3.34817 -3.93664,4 0.0327,0.65183 1.0452,3.869697 2.25,7.150815 l 2.19056,5.965671 7.52541,2.26913 c 6.13506,1.84989 7.85782,2.83184 9.32456,5.31483 2.32116,3.92942 5.8493,7.20712 6.717,6.24022 0.3729,-0.41554 4.82295,-6.49302 9.88901,-13.50552 z m 92.34683,-10 c 0.32324,-5.870005 0.15873,-9.75 -0.4134,-9.75 -0.52266,0 -5.68607,1.186674 -11.47425,2.637052 -8.11678,2.033872 -10.39714,2.967511 -9.96956,4.081788 0.30492,0.794604 0.5544,2.07054 0.5544,2.835412 0,0.764872 3.9375,4.061626 8.75,7.326118 11.11639,7.54065 11.76522,7.1721 12.55281,-7.13037 z M 402.48965,83.020016 C 403.32034,81.413633 404,79.652332 404,79.106013 c 0,-0.546319 -2.50205,-5.266954 -5.56011,-10.490299 l -5.56012,-9.496992 -6.93988,5.063509 C 382.12295,66.967161 379,69.682162 379,70.215568 c 0,0.533406 2.50125,4.188933 5.55833,8.123393 7.8918,10.156729 14.24243,11.814589 17.93132,4.681055 z M 739,73.352768 c 0,-4.341017 -0.49897,-5.23065 -7.57257,-13.501427 l -7.57258,-8.854194 3.17991,-5.557904 c 1.74895,-3.056847 3.01911,-5.684313 2.82258,-5.838813 -0.19654,-0.1545 -4.82114,-2.608908 -10.2769,-5.454241 -9.46338,-4.935425 -13.61357,-5.801305 -13.55855,-2.828801 0.012,0.650436 1.34162,6.35726 2.95462,12.68183 l 2.93272,11.499218 -2.95461,3.048389 c -1.62504,1.676614 -2.94963,3.476966 -2.94352,4.000782 0.0196,1.679477 26.26981,15.21988 29.7389,15.339927 3.21657,0.111309 3.25,0.06467 3.25,-4.534766 z m 74.19708,-21.645601 c 4.12539,-8.812879 4.5726,-10.360489 3.27383,-11.329594 -0.82733,-0.617334 -6.55924,-1.431049 -12.73757,-1.808254 -6.17834,-0.377205 -11.96928,-0.898574 -12.86877,-1.158599 -1.42361,-0.411535 -1.69284,0.923629 -2.07861,10.308255 -0.24374,5.929564 -0.35238,10.911445 -0.24141,11.070848 0.38452,0.552347 18.95759,3.925299 19.41495,3.525841 0.25272,-0.220732 2.60963,-4.994555 5.23758,-10.608497 z M 398.75,201.81987 c -5.9125,-2.82779 -10.75,-5.45608 -10.75,-5.84064 0,-0.38457 4.5,-3.77249 10,-7.52873 l 10,-6.82952 v -5.82406 c 0,-9.15369 0.43687,-9.46923 11.6121,-8.38722 l 9.44054,0.91405 2.95134,-2.82757 2.95135,-2.82756 9.52233,3.84836 9.52234,3.84835 v 4.12621 c 0,5.09172 -1.07675,6.5276 -7.84532,10.46193 -4.86141,2.82576 -5.64354,2.99921 -8.63933,1.91592 -2.57833,-0.93233 -5.27731,-0.90685 -12.42232,0.11727 l -9.1283,1.30841 0.47365,3.10246 c 1.88652,12.35702 1.92839,12.05714 -1.94104,13.90235 -1.96086,0.93507 -3.88743,1.69141 -4.28127,1.68077 -0.39384,-0.0106 -5.55357,-2.333 -11.46607,-5.16078 z m 85.61421,-30.07115 c -9.5866,-10.06729 -10.38203,-11.52836 -9.22632,-16.94711 l 0.9827,-4.60759 8.98361,-2.21977 c 4.94099,-1.22087 9.15986,-2.04352 9.37527,-1.82811 0.21541,0.21541 0.70165,6.00815 1.08053,12.87276 0.37889,6.8646 0.78877,12.59949 0.91087,12.74419 0.12209,0.1447 3.66609,-1.30643 7.87556,-3.22475 4.20946,-1.91832 7.65357,-3.26285 7.65357,-2.98785 0,0.275 -3.3662,2.03403 -7.48045,3.90896 -4.11425,1.87492 -8.99347,4.56298 -10.84272,5.97347 l -3.36227,2.56453 z M 355.40499,159.75 353.5,157.5 l 2.25,1.90499 c 2.11444,1.79022 2.70524,2.59501 1.90499,2.59501 -0.18976,0 -1.20226,-1.0125 -2.25,-2.25 z"
       id="path833"
       inkscape:connector-curvature="0" />
    <path
       style="fill:#69d3c5"
       d="M 0,105 V 0 H 151.5 303 v 4 c 0,2.2 0.18019,4 0.40043,4 0.22024,0 4.31505,-1.8 9.09957,-4 l 8.69914,-4 H 710.59957 1100 v 105 105 h -10.4489 -10.4489 l -1.7428,-5.52895 -1.7429,-5.52895 -5.5872,5.52895 L 1064.442,210 H 937.0913 809.74059 l -8.03092,-2.20091 -8.03092,-2.2009 -1.46135,2.2009 C 790.91923,209.75424 789.88429,210 782.94893,210 H 775.1418 L 774,204.5 c -0.62799,-3.025 -1.31238,-5.5 -1.52088,-5.5 -0.2085,0 -4.36745,1.72985 -9.24212,3.84411 l -8.86303,3.8441 -4.62645,-10.0941 c -4.62384,-10.0884 -4.6253,-10.0951 -2.5762,-11.84411 1.66692,-1.42281 3.99269,-1.75 12.43946,-1.75 H 770 v -6.28759 c 0,-6.2027 -0.066,-6.3526 -4.88861,-11.1027 -3.60698,-3.55274 -5.05011,-5.825 -5.50459,-8.66719 -0.54818,-3.4281 -1.28432,-4.24379 -6.68803,-7.41082 l -6.07206,-3.55874 -2.76217,1.96684 c -1.51919,1.08176 -3.3713,2.7008 -4.11579,3.59786 -1.60074,1.92877 -14.2639,8.46234 -16.40144,8.46234 -1.34905,0 -2.10205,-1.97341 -6.19368,-16.23209 -0.30713,-1.07029 1.83689,-5.01609 5.6114,-10.32708 l 6.10843,-8.59498 -3.41111,-3.77569 c -3.9142,-4.33255 -5.7768,-12.0465 -3.55511,-14.72347 0.69767,-0.84065 6.10025,-3.95167 12.00573,-6.913376 l 10.73723,-5.384923 0.69034,-4.603564 c 0.65495,-4.36748 0.49733,-4.801236 -3.07348,-8.458074 -3.41118,-3.493369 -3.70575,-4.217649 -3.14405,-7.730363 0.59617,-3.728235 0.31601,-4.224338 -7.35581,-13.025679 l -7.97559,-9.149826 3.48556,-5.786189 3.48556,-5.786189 -10.56282,-5.298962 c -5.93552,-2.977622 -11.29815,-5.058816 -12.24136,-4.750776 -0.9232,0.301504 -4.44483,4.910441 -7.82584,10.242083 l -6.14728,9.693895 4.91633,7.285695 c 4.37164,6.478492 4.77574,7.518141 3.64729,9.383727 -1.17671,1.945377 -1.99667,2.073942 -11.26905,1.766933 L 681.5,67.5 l -4.25794,4.620446 c -4.79495,5.203169 -9.46154,6.652856 -14.98562,4.65532 L 659,75.598223 v -8.070497 -8.070497 l -8.96317,-2.728614 C 645.10708,55.227877 640.46052,54 639.71114,54 c -0.74938,0 -2.45345,1.163031 -3.78683,2.584512 -2.34549,2.500482 -2.70067,2.564237 -10.92431,1.960904 l -8.5,-0.623609 -3.90939,6.789097 c -2.15016,3.734003 -5.43732,9.59134 -7.30479,13.016305 -2.21062,4.054323 -4.95034,7.343887 -7.85167,9.427464 -3.565,2.560193 -4.3248,3.614771 -3.79891,5.272791 0.36156,1.139895 1.40915,4.322536 2.328,7.072536 l 1.67062,5 7.87325,2.59361 c 5.49071,1.80875 8.32618,3.32181 9.36999,5 0.82321,1.32351 2.65013,3.67443 4.05982,5.22427 2.52703,2.77825 2.67728,2.80838 10.68369,2.1425 l 8.12062,-0.67538 4.22064,7.64592 c 3.11927,5.65072 4.65349,7.5243 5.87939,7.17984 0.91231,-0.25635 4.02124,-0.76587 6.90874,-1.13226 3.4559,-0.43852 5.25,-1.13459 5.25,-2.03688 0,-0.75389 -0.89864,-5.99916 -1.99697,-11.65616 -1.09834,-5.657 -1.99834,-10.36101 -2,-10.45334 -0.002,-0.0923 3.48447,-1.3618 7.74697,-2.82105 7.46912,-2.55701 7.96175,-2.92627 13.59259,-10.1886 5.45787,-7.039239 6.04227,-7.495498 8.875,-6.928952 C 687.88542,88.727083 692.09024,89 695.56164,89 h 6.31164 l 0.33617,3.25 c 0.24529,2.371359 -0.50996,4.480959 -2.79358,7.80319 -1.91741,2.78947 -3.3984,6.46938 -3.82329,9.5 -1.67539,11.95019 -1.14895,11.09932 -7.65972,12.38024 -5.24224,1.03134 -6.20392,1.61602 -8.78411,5.34055 l -2.8974,4.18242 6.87582,9.93697 c 3.7817,5.46534 6.7608,10.05199 6.62023,10.19257 -0.14058,0.14057 -4.04317,1.63788 -8.67244,3.32736 -5.8594,2.13841 -9.20048,4.00512 -10.9959,6.14357 l -2.57906,3.0718 -7,-6.03113 c -6.70378,-5.77591 -7.23282,-6.03253 -12.50172,-6.06433 -5.469,-0.033 -5.51557,-0.0593 -7.83122,-4.42437 -2.12901,-4.01322 -3.02998,-4.65729 -10.46802,-7.48319 l -8.13851,-3.09204 -3.15727,3.06016 -3.15728,3.06015 -10.37299,-2.73377 C 599.16785,138.91657 594.05,137.0901 593.5,136.36131 c -0.55,-0.72879 -4.42259,-1.82827 -8.60575,-2.4433 l -7.60576,-1.11822 -0.6278,-9.6499 c -0.60403,-9.28441 -0.74698,-9.74762 -3.77429,-12.23026 l -3.14648,-2.58038 -8.11996,1.39484 c -4.46598,0.76716 -8.50096,1.76933 -8.96664,2.22705 -0.46567,0.45772 -4.96567,-0.52665 -10,-2.18748 -7.11951,-2.34874 -9.931,-3.84043 -12.65332,-6.71346 -1.925,-2.03158 -5.6164,-4.560467 -8.20312,-5.61976 -5.07656,-2.078914 -4.71532,-1.305929 -6.3769,-13.645342 -1.16827,-8.675952 -1.65017,-8.743748 -13.2929,-1.870121 C 496.46755,85.26624 491.4276,88 490.92717,88 c -0.50042,0 -3.0357,-1.622685 -5.63394,-3.605966 -4.53367,-3.460628 -4.94714,-3.576361 -10.25865,-2.87144 -3.04402,0.40399 -9.44337,0.843536 -14.22078,0.976769 l -8.68619,0.242243 -7.80691,6.687918 c -4.29381,3.678355 -8.15859,7.316317 -8.58841,8.08436 -0.42982,0.768043 -3.45085,2.145428 -6.71341,3.060856 -5.55135,1.55763 -6.01868,1.92466 -7.28404,5.72075 -1.3113,3.93389 -1.57114,4.11514 -8.60734,6.00409 l -7.25522,1.94774 -4.60271,-3.30542 -4.60272,-3.30542 -2.92099,3.43176 c -1.60655,1.88747 -4.05441,4.88694 -5.43971,6.66549 l -2.51871,3.23373 1.78191,4.95533 1.78191,4.95532 -5.86038,6.81094 c -3.2232,3.74602 -6.19718,7.20839 -6.60883,7.69416 -0.41166,0.48576 -4.82635,-2.88924 -9.81044,-7.5 -7.41793,-6.86232 -10.19673,-8.76404 -15.31679,-10.48237 -8.99119,-3.01751 -13.6818,-1.74184 -24.75482,6.73241 -4.675,3.5778 -10.12711,7.71881 -12.1158,9.20225 l -3.61579,2.69715 -4.2774,-5.5443 -4.27739,-5.5443 1.09963,-6.63609 c 0.6048,-3.64985 1.49864,-6.89976 1.98631,-7.22202 0.48767,-0.32227 4.08249,-2.78594 7.9885,-5.47484 l 7.10184,-4.88889 -2.63789,-3.61111 c -5.60277,-7.66985 -8.03993,-7.872666 -19.36,-1.6111 -4.47447,2.475 -9.45287,4.5 -11.06312,4.5 -2.69356,0 -3.23135,0.6598 -6.72439,8.25 -3.75615,8.16195 -3.78033,8.29448 -2.26548,12.41745 1.46955,3.99968 1.42462,4.42237 -1.11611,10.5 -1.45601,3.4829 -2.77681,8.1298 -2.9351,10.32643 l -0.28781,3.99388 -13.74557,6.00612 c -14.62911,6.39218 -16.42076,8.15905 -10.68337,10.53555 3.9133,1.62095 40.28403,0.75069 42.4113,-1.01479 0.75539,-0.62692 3.71571,-5.04918 6.57849,-9.82725 2.86277,-4.77806 6.77453,-10.01665 8.69278,-11.6413 l 3.48774,-2.95391 3.72652,4.37017 3.72653,4.37016 -3.32404,13.08375 c -1.82822,7.19606 -3.33446,13.14338 -3.34721,13.21628 -0.0127,0.0729 2.8207,1.9854 6.29655,4.25 6.69467,4.36175 9.18655,4.80653 17.68028,3.15579 3.77016,-0.73273 5.03803,-0.5435 7.81732,1.16671 4.63309,2.85094 7.95635,8.36982 8.75843,14.54496 l 0.68191,5.25 H 176.62883 0 Z m 977.91798,44.12197 c 5.74006,-8.53668 6.14246,-8.90395 10.46634,-9.55235 4.15976,-0.6238 4.51997,-0.91398 4.80623,-3.87198 0.1702,-1.7587 -0.72094,-7.86725 -1.9803,-13.57455 -1.25937,-5.7073 -2.08674,-10.57993 -1.83862,-10.82806 0.24813,-0.24812 6.22852,-1.37077 13.28977,-2.49475 7.0612,-1.12399 12.9261,-2.11384 13.033,-2.19967 0.1069,-0.0858 0.7443,-2.21233 1.4165,-4.72555 l 1.2222,-4.5695 -5.7792,-7.15278 C 1009.3754,86.218751 1006.0283,83 1005.1159,83 c -0.9123,0 -4.7991,2.280571 -8.63731,5.067935 -6.3282,4.595615 -7.26062,5.73729 -10.00478,12.250005 L 983.44762,107.5 978.1002,108 c -5.32514,0.49792 -5.35526,0.52002 -7.22941,5.3068 -2.42335,6.18946 -8.40834,15.6303 -11.53353,18.1932 l -2.43879,2 5.50583,11.66802 c 3.45944,7.33127 6.17297,11.84122 7.30077,12.134 0.98721,0.25629 1.89582,0.51818 2.01914,0.58198 0.12331,0.0638 2.91051,-3.87911 6.19377,-8.76203 z M 381.0444,87.353769 c 6.08312,-1.373741 8.07393,-1.445249 12.02737,-0.432012 5.90417,1.513192 8.49785,0.209224 10.08648,-5.070956 1.03976,-3.455867 0.81881,-4.132823 -4.17043,-12.777673 -2.89759,-5.02066 -5.58258,-9.322677 -5.96664,-9.560037 -0.38406,-0.237361 -4.1048,2.025092 -8.26832,5.027672 C 380.58933,67.543343 376.78538,70 376.29962,70 c -0.48576,0 -2.82752,1.981117 -5.20391,4.402483 l -4.32072,4.402484 2.86251,5.0965 c 1.57437,2.803075 3.1448,5.096957 3.48983,5.097516 0.34504,5.59e-4 3.90772,-0.739787 7.91707,-1.645214 z m 432.07597,-35.0129 c 4.07284,-8.700101 4.75007,-10.886594 3.68478,-11.896761 -1.09767,-1.040883 -26.59363,-4.028886 -27.35773,-3.206193 -0.13388,0.144147 -0.40182,5.203277 -0.59542,11.242513 l -0.352,10.980427 8.5,1.649138 c 4.675,0.907026 9.09185,1.703333 9.81522,1.769572 0.74345,0.06808 3.48453,-4.51348 6.30515,-10.538696 z"
       id="path831"
       inkscape:connector-curvature="0" />
    <path
       style="fill:#63cbbb"
       d="M 0,105 V 0 h 150.89301 c 136.6722,0 150.95022,0.1490745 151.5,1.5817875 0.33385,0.8699831 0.60699,2.6699831 0.60699,4 C 303,6.9118044 303.18019,8 303.40043,8 c 0.22024,0 4.32002,-1.802287 9.11062,-4.0050823 l 8.71019,-4.00508226 94.03465,0.25508228 L 509.29054,0.5 510.67553,5.25 C 512.49284,11.482678 514.13177,11.457578 527,5 l 9.96366,-5 h 23.90154 c 23.06053,0 23.91994,0.07037237 24.42455,2 0.39934,1.5270741 1.36401,2 4.07961,2 1.95613,0 5.83992,-0.9 8.63064,-2 5.02589,-1.9810192 7.43205,-2 253.53702,-2 H 1100 v 70.5 c 0,38.775 -0.3375,70.49311 -0.75,70.48469 -0.4125,-0.008 -1.3525,-0.3972 -2.0889,-0.86394 -0.8004,-0.50735 -4.8219,0.0302 -10,1.33671 l -8.6611,2.18533 0.023,3.9286 c 0.013,2.16074 0.3687,7.41251 0.791,11.67061 l 0.7679,7.74201 -9.041,-0.64175 -9.041,-0.64175 v 12.95698 12.95698 l 7,1.81557 c 3.85,0.99856 7,2.3358 7,2.97165 0,0.63585 -2.8246,3.95559 -6.2769,7.3772 L 1063.4462,210 H 940.33008 c -97.55672,0 -123.221,-0.2595 -123.6214,-1.25 -0.27791,-0.6875 -5.05106,-7.06201 -10.60699,-14.16559 C 800.54576,187.48084 796,181.31253 796,180.87705 c 0,-0.43548 1.51683,-2.00209 3.37073,-3.48135 l 3.37072,-2.68957 -1.35885,-5.10306 c -0.74738,-2.80669 -1.3642,-7.9281 -1.37073,-11.38092 L 800,151.9443 l -6.75,0.57392 c -3.7125,0.31566 -8.03671,0.77678 -9.60936,1.02472 -2.01689,0.31798 -3.69471,-0.25209 -5.69455,-1.93485 -1.55936,-1.31211 -2.61559,-2.60525 -2.34719,-2.87365 0.2684,-0.2684 2.02331,-4.8403 3.89981,-10.15977 3.07942,-8.72949 3.24568,-9.73014 1.70655,-10.27086 -0.93789,-0.3295 -3.18112,-1.19027 -4.98495,-1.91283 l -3.27969,-1.31374 -2.27521,5.21138 c -1.25137,2.86626 -3.795,8.92388 -5.65251,13.46138 -2.03577,4.97294 -3.9517,8.25 -4.82337,8.25 -1.13566,0 -11.16171,-5.09557 -13.10145,-6.65859 -0.92936,-0.74887 -2.92766,-17.83673 -2.19841,-18.7991 0.4344,-0.57327 1.33701,-5.38057 2.00581,-10.68289 1.03124,-8.17586 0.98627,-10.53082 -0.29593,-15.5 -1.14816,-4.449665 -1.27155,-6.922483 -0.51285,-10.277871 0.97568,-4.31501 0.90781,-4.514003 -2.89928,-8.5 -3.49118,-3.655243 -3.85205,-4.506616 -3.45504,-8.151236 0.42065,-3.861743 0.0556,-4.522221 -7.14454,-12.926295 C 728.41453,55.632883 725,51.283502 725,50.838727 c 0,-1.778335 6.20003,-10.739775 8.45064,-12.214426 l 2.40034,-1.572766 -6.26391,-14.775767 C 726.0453,13.921186 722.75241,7.5 722.0098,7.5 c -0.72235,0 -3.89321,4.678089 -7.04634,10.395754 -3.15313,5.717664 -6.48198,10.814919 -7.39743,11.327232 -1.10862,0.620414 -3.20139,0.407796 -6.26676,-0.636681 -3.15348,-1.074498 -6.26541,-1.372695 -9.88531,-0.947247 l -5.28301,0.620914 -2.43349,6.620014 c -1.60412,4.363817 -3.26468,7.096056 -4.87232,8.01679 -2.28849,1.310669 -2.95097,1.053897 -10.74649,-4.165243 l -8.30765,-5.562018 -4.01123,1.415243 C 653.5536,35.363141 649.66337,36 647.11482,36 c -5.84926,0 -7.03799,-1.695617 -7.83248,-11.172282 -0.32224,-3.843624 -1.13861,-7.54113 -1.81416,-8.216681 -1.09869,-1.09869 -17.3307,-4.207464 -17.89854,-3.427949 -0.12698,0.174301 -1.92018,3.383154 -3.98491,7.130784 -2.06473,3.74763 -4.27845,6.972545 -4.91939,7.166477 -0.64094,0.193933 -2.29034,0.599964 -3.66534,0.902292 -1.375,0.302327 -4.23807,1.989356 -6.36237,3.748953 l -3.86237,3.199266 -11.6706,-0.233987 c -10.71704,-0.214869 -11.82456,-0.06386 -13.55499,1.848245 -1.82391,2.0154 -1.82901,2.346588 -0.15864,10.318557 0.94917,4.529979 1.93501,8.961433 2.19075,9.847677 0.38837,1.345838 -1.3926,1.902428 -10.8084,3.377848 -6.20036,0.971574 -11.90672,2.358373 -12.68079,3.081777 -1.20632,1.127342 -1.08244,2.524558 0.86694,9.778425 1.25089,4.654731 1.97017,8.955323 1.5984,9.556872 -1.07846,1.744975 -10.39222,1.300937 -13.76546,-0.656274 l -3.01612,-1.75 0.52071,-7.800282 0.52071,-7.800282 -5.40888,-3.591298 C 528.434,59.332924 526,57.187227 526,56.539921 c 0,-0.647305 0.70184,-3.540277 1.55965,-6.428826 l 1.55965,-5.251908 8.95732,0.700718 8.95732,0.700719 5.5204,-3.665339 c 3.54219,-2.351879 5.26359,-4.100719 4.80376,-4.880311 C 556.23317,35.807799 544.77842,22 544.32118,22 c -0.22537,0 -3.32366,1.675919 -6.88507,3.724264 -5.98846,3.444262 -6.60033,4.12091 -8.13833,9 -1.08473,3.441166 -2.20806,5.26821 -3.2304,5.254094 -0.86206,-0.0119 -5.56247,-0.904885 -10.44535,-1.984403 l -8.87797,-1.962762 -3.79264,4.234404 -3.79264,4.234403 -6.45823,-3.438531 -6.45824,-3.438531 -5.98862,3.877548 c -4.11672,2.665521 -6.35043,4.878152 -7.14616,7.078703 -1.72491,4.770139 -5.64941,4.969055 -15.43147,0.782157 C 453.35675,47.512606 449.45148,46 448.99769,46 c -0.45379,0 -3.09408,4.20898 -5.8673,9.35329 l -5.04222,9.35329 -6.98305,0.94526 -6.98305,0.94526 -1.77312,-3.932075 c -1.26722,-2.810196 -4.20912,-5.755926 -10.31104,-10.324487 -4.69585,-3.515826 -9.24578,-7.611477 -10.11095,-9.101446 -1.45354,-2.503229 -2.66906,-2.913328 -16,-5.398171 -20.09777,-3.746156 -19.19755,-3.828123 -18.37262,1.672863 1.07951,7.198688 -0.57003,9.679746 -10.78532,16.222153 L 347.76903,61.5 l 0.60938,7.328693 c 0.58018,6.977423 0.46589,7.537264 -2.38451,11.680176 C 344.34725,82.902184 343,85.426266 343,86.11794 c 0,0.691675 1.98047,3.778409 4.40104,6.85941 l 4.40104,5.60182 -3.43329,12.90933 c -1.88831,7.10013 -3.60661,13.08266 -3.81845,13.2945 -0.21184,0.21183 -2.14193,0.62079 -4.28908,0.90878 -3.83481,0.51436 -4.01665,0.38959 -10.27103,-7.04704 -3.50191,-4.16387 -6.90566,-7.69984 -7.56389,-7.85771 -0.65824,-0.15786 -2.7238,-2.29888 -4.59015,-4.7578 -5.35148,-7.050609 -7.60319,-7.185903 -18.75445,-1.12686 -6.59501,3.5834 -10.01451,4.90162 -11.65006,4.49113 -2.07392,-0.52052 -2.75254,0.28807 -6.51501,7.76273 l -4.19994,8.34377 1.63138,4.60534 c 1.58266,4.4678 1.55954,4.78136 -0.77402,10.5 -2.40152,5.88517 -2.41156,5.89409 -6.23974,5.54207 -2.10889,-0.19393 -4.78861,-0.41893 -5.95492,-0.5 -1.35307,-0.0941 -5.15338,2.56046 -10.5,7.33427 L 246.5,160.46337 v 5.22564 c 0,4.99782 0.15259,5.29607 3.5,6.84095 4.4591,2.05795 14.19704,17.00057 13.30417,20.41491 -0.52895,2.0227 -1.12768,2.1613 -8.68614,2.01077 -4.46492,-0.0889 -8.89752,0.15474 -9.85023,0.54149 -1.13072,0.45902 -4.29313,-0.70234 -9.10741,-3.34457 l -7.37522,-4.04775 -1.05152,3.69759 c -0.57834,2.03368 -1.86717,6.9601 -2.86408,10.9476 l -1.81255,7.25 h -4.43412 c -3.21787,0 -5.35565,-0.70289 -7.79378,-2.56254 -3.66263,-2.79363 -5.92803,-2.64313 -8.85222,0.58807 C 199.72045,209.96638 197.98971,210 99.845012,210 H 0 Z m 890.82657,44.75 c 2.30281,-5.0875 4.1839,-9.94192 4.18018,-10.78759 -0.004,-0.84568 -2.14425,-3.60256 -4.75675,-6.12641 -4.60569,-4.44941 -4.84361,-4.54901 -7.83116,-3.27844 -1.69463,0.72071 -5.60578,4.03728 -8.69143,7.37015 l -5.61028,6.05977 1.46495,4.2994 c 1.32164,3.8788 2.17191,4.65623 8.69144,7.94682 3.97456,2.00609 7.4829,3.67417 7.79629,3.70686 0.3134,0.0327 2.45394,-4.10306 4.75676,-9.19056 z M 978,149 c 4.56983,-6.79631 6.59619,-9.00334 8.27579,-9.01365 4.9234,-0.0302 6.72421,-1.11897 6.72421,-4.06533 0,-2.51291 1.41208,-3.81494 12.0745,-11.13337 l 12.0744,-8.28765 -0.6416,-4.2896 c -0.4272,-2.85532 -0.092,-5.94349 1.0012,-9.23597 l 1.6429,-4.946358 -6.1399,-7.514036 C 1009.1291,85.762856 1006.1441,83 1004.8931,83 c -1.6135,0 -6.74367,3.233907 -14.41576,9.087302 -0.56783,0.433223 -4.08746,-1.191695 -7.9137,-3.653534 C 978.77357,85.995195 975.34611,84 974.94708,84 c -0.39903,0 -1.70177,0.790524 -2.89497,1.75672 -2.1068,1.705983 -2.14135,2.083824 -1.19624,13.082414 0.80772,9.399836 0.7182,11.949346 -0.52646,14.993276 C 968.56706,118.14239 961.06409,130 960.09927,130 c -0.36619,0 -3.35084,-5.44026 -6.63254,-12.08947 -3.2817,-6.64921 -6.31006,-12.30437 -6.72969,-12.56702 -0.56265,-0.35219 -14.56041,7.3797 -16.50017,9.11414 -0.14472,0.1294 0.38642,1.78985 1.18031,3.6899 1.80883,4.32913 20.13877,17.04284 23.3578,16.20104 1.69649,-0.44364 2.7463,1.07266 7.14206,10.31566 4.69829,9.87912 7.09545,13.33575 9.2483,13.33575 0.43069,0 3.50629,-4.05 6.83466,-9 z M 834.66377,133.22896 c 0.86366,-0.54947 0.57428,-3.65006 -1.12214,-12.02349 -1.25725,-6.2057 -2.54052,-11.53769 -2.85171,-11.84888 -0.9337,-0.93371 -17.53682,9.57033 -18.06057,11.42609 -0.26658,0.94453 -0.78137,4.05733 -1.14398,6.91735 l -0.6593,5.20002 6.33697,0.3573 c 12.52887,0.70641 16.35554,0.7002 17.50073,-0.0284 z M 806.37732,108.25 c 1.68145,-5.74603 4.58157,-19.624448 4.18393,-20.022083 -0.99175,-0.991749 -19.49832,0.99133 -20.49855,2.19653 -0.71208,0.85801 -0.68755,3.92301 0.0789,9.860663 l 1.11218,8.61567 4.6231,0.36936 c 9.8241,0.78489 9.97655,0.77008 10.50042,-1.02014 z m 5.43997,-53 C 817.39431,43.993126 818.503,40.932019 817.28348,40.157641 816.71386,39.795938 813.6613,34.325 810.5,28 c -3.1613,-6.325 -6.22564,-11.803216 -6.80965,-12.173813 -0.61378,-0.389488 -3.96312,3.514236 -7.93751,9.251333 l -6.87567,9.925146 -0.58114,12.299359 -0.58115,12.299359 7.89256,1.577247 c 12.70603,2.539168 11.86161,2.84801 16.20985,-5.928631 z M 289.97625,38.164457 c 6.33039,-3.990338 7.51336,-5.168744 7.71829,-7.688545 0.13311,-1.636752 0.92755,-6.557157 1.76542,-10.934235 0.83787,-4.377078 1.18964,-8.269311 0.78172,-8.649407 -0.40793,-0.380096 -4.95504,-1.8303806 -10.1047,-3.2228553 l -9.36302,-2.5317724 -2.97504,6.6811787 c -1.93547,4.346566 -4.15766,7.554757 -6.35945,9.181179 -1.86143,1.375 -3.3968,3.048517 -3.41194,3.718927 -0.0381,1.685952 12.23819,18.282633 13.47247,18.213872 0.55,-0.03064 4.36431,-2.176394 8.47625,-4.768342 z m -7.50129,154.444373 -4.47157,-9.56889 1.74831,-5.26997 1.7483,-5.26997 5.50494,-0.29259 c 5.18172,-0.27541 5.87163,-0.0201 11.75,4.34818 3.43478,2.55243 6.24506,4.87695 6.24506,5.1656 0,1.64818 -9.52942,13.4717 -13.44141,16.67729 l -4.61206,3.77924 z m 808.09424,-0.57363 -8.9308,-1.5352 0.2084,-7 c 0.1147,-3.85 0.4597,-8.82968 0.7668,-11.06595 l 0.5583,-4.06596 8.107,-2.65775 c 4.4589,-1.46176 8.2573,-2.50752 8.4409,-2.32391 0.1836,0.18361 0.2092,7.05012 0.057,15.2589 L 1099.5,193.5704 Z M 421.4795,98.977353 c -1.75997,-1.944755 -1.76286,-2.237134 -0.0748,-7.592204 0.96561,-3.063256 2.53781,-7.411219 3.49377,-9.66214 l 1.73813,-4.092584 4.82332,8.848507 c 5.49182,10.074874 5.37408,11.102161 -1.50827,13.159793 -5.85424,1.750255 -6.32273,1.713685 -8.47213,-0.661372 z"
       id="path829"
       inkscape:connector-curvature="0" />
    <path
       style="fill:#60c6b4"
       d="M 0,105 V 0 h 139.53222 139.53223 l 0.81773,2.2105259 C 281.09503,5.4891835 275.53444,17.490578 271.30936,20.713207 269.48921,22.101501 268,23.981104 268,24.890102 c 0,0.908999 2.29646,4.793089 5.10324,8.631311 2.80678,3.838223 5.6914,7.808565 6.41026,8.822982 1.23219,1.738779 1.79934,1.543557 9.90423,-3.409201 4.72846,-2.889477 8.75911,-5.069455 8.95701,-4.844395 1.19521,1.359297 7.16486,30.030469 6.47809,31.113093 -0.45221,0.71286 -0.8291,2.228697 -0.83752,3.368528 C 304.00082,70.533711 292.28388,82 290.29421,82 c -0.46859,0 -3.62473,-2.8125 -7.01364,-6.25 l -6.16166,-6.25 3.44054,-7.384551 c 1.8923,-4.061503 3.43887,-7.661503 3.43681,-8 -0.002,-0.338497 -0.88442,-2.059832 -1.96082,-3.825188 l -1.95708,-3.20974 -9.16585,4.355683 c -9.79299,4.653704 -10.87332,5.611391 -10.8972,9.660158 -0.008,1.427999 -0.73904,4.047121 -1.62361,5.820271 -1.51651,3.039931 -1.49631,3.3483 0.35407,5.403638 1.0793,1.198851 6.30094,6.884329 11.60363,12.634395 5.3027,5.750066 9.30587,10.749649 8.89593,11.110183 -0.40993,0.360534 -4.74591,1.429018 -9.63552,2.374408 -4.8896,0.94539 -9.6146,2.128803 -10.5,2.629803 -0.88539,0.501 -6.03357,2.00168 -11.4404,3.33485 -5.40682,1.33316 -9.99552,2.58887 -10.19711,2.79045 -0.20159,0.20159 0.93634,5.51595 2.52872,11.80969 l 2.89525,11.44316 -2.44813,3.20968 c -1.59596,2.0924 -2.45434,4.53825 -2.46595,7.02639 -0.0168,3.59672 -0.47791,4.16186 -8,9.80452 -4.3902,3.29329 -7.97064,6.66829 -7.95652,7.5 0.0141,0.83171 0.85932,5.19758 1.87822,9.70194 1.95651,8.64938 1.76929,9.31026 -2.63759,9.31026 -0.86358,0 -5.76938,4.06238 -10.90178,9.02752 l -9.33165,9.02752 -4.71845,-2.39799 c -4.47332,-2.2734 -4.94175,-2.3219 -9.01644,-0.93351 L 183,193.188 v 6.20674 6.20673 l -4.52675,2.19926 L 173.9465,210 H 86.973249 0 Z m 121.02144,68.36711 C 123.20965,171.91903 125,170.65583 125,170.56 c 0,-0.0958 0.89817,-5.06285 1.99593,-11.03785 1.09776,-5.97499 1.73642,-11.12429 1.41925,-11.44289 -0.94614,-0.95036 -21.6145,-1.26396 -25.62595,-0.38881 L 99.078457,148.5 103.5111,159 c 3.25938,7.72079 5.41059,11.36023 8.12738,13.75 2.03211,1.7875 4.07941,3.25 4.54957,3.25 0.47016,0 2.64518,-1.1848 4.83339,-2.63289 z M 847,209.36889 c 0,-0.56127 7.99519,-19.40169 8.56455,-20.18208 0.12567,-0.17225 3.8683,1.51687 8.31696,3.75361 7.16342,3.6017 8.36567,4.61386 10.5124,8.85023 C 878.32269,209.54371 877.57546,210 860.95031,210 853.27764,210 847,209.716 847,209.36889 Z m 35,-0.22897 c 0,-0.47304 3.375,-3.68601 7.5,-7.13992 4.125,-3.45391 7.5,-6.42905 7.5,-6.61141 0,-0.18236 -1.125,-2.87539 -2.5,-5.98451 -1.375,-3.10912 -2.5,-6.2689 -2.5,-7.02174 0,-0.75284 1.9125,-3.84513 4.25,-6.87176 l 4.25,-5.50296 5.75,-0.004 c 6.64843,-0.004 6.64608,10e-4 4.32648,-10.813 -1.2192,-5.68412 -2.03306,-7.02437 -8.21487,-13.52796 -3.77389,-3.97033 -8.9137,-9.65867 -11.42182,-12.64075 l -4.56021,-5.42197 -3.43979,1.32784 c -1.89188,0.73031 -6.13979,4.16629 -9.43979,7.63551 l -6,6.30767 -6.20121,-1.68557 c -5.00315,-1.35993 -6.77836,-2.42171 -9.18862,-5.49586 l -2.98742,-3.81027 1.93862,-4.52263 C 852.12762,124.86937 853,121.15442 853,119.10137 v -3.73281 l -11,-4.41376 -11,-4.41376 v -4.28375 c 0,-4.249056 -0.0628,-4.323981 -7.75,-9.252762 -4.2625,-2.73296 -8.425,-5.008637 -9.25,-5.057059 -1.13995,-0.06691 -1.08127,-0.25387 0.24445,-0.778894 2.74476,-1.087005 23.63346,-19.525929 23.6978,-20.918575 0.0417,-0.903112 -2.23171,-1.251973 -8.19225,-1.257109 -4.5375,-0.0039 -11.24194,-0.289728 -14.89876,-0.635151 l -6.64877,-0.628042 5.31512,-11.311825 c 4.64075,-9.876604 5.12375,-11.470643 3.80686,-12.56357 -0.82955,-0.68846 -4.17038,-6.562321 -7.42407,-13.053025 C 806.64669,20.310575 803.54812,15 803.01466,15 c -0.53346,0 -4.14322,4.729715 -8.02169,10.510479 l -7.05176,10.510479 -2.92095,-1.510479 c -1.60652,-0.830764 -4.85579,-1.517444 -7.2206,-1.525958 -2.82299,-0.01016 -7.37394,-1.383918 -13.25112,-4 C 759.62524,26.793035 755.27995,25 754.89235,25 c -0.38761,0 -2.27115,2.180325 -4.18564,4.845166 -3.10457,4.321322 -4.06073,4.960222 -8.84381,5.909347 -2.9496,0.585299 -5.46387,0.966507 -5.58727,0.847127 -0.12341,-0.119379 -2.92395,-6.634266 -6.22342,-14.477527 C 726.75274,14.280852 723.08404,7.0788868 721.89955,6.1197452 720.33486,4.8527378 719.93583,3.77754 720.44035,2.1879258 L 721.13478,0 H 910.56739 1100 v 46.22654 46.22654 l -7.75,-7.68889 -7.75,-7.68889 -7.75,5.005438 c -4.2625,2.752991 -7.75,5.187839 -7.75,5.410773 0,0.222935 4.5,3.871008 10,8.106831 5.5,4.235822 10,7.869298 10,8.074398 0,1.67358 -6.7114,16.15326 -8.0313,17.32726 -1.1774,1.04729 -2.0403,4.50246 -2.8591,11.4482 -0.645,5.47152 -1.271,10.03759 -1.3911,10.14683 -0.1202,0.10924 -3.4399,-0.4977 -7.3771,-1.34877 -6.6889,-1.44587 -7.1865,-1.73771 -7.5844,-4.4483 -0.2341,-1.5955 0.5087,-5.56829 1.6508,-8.82841 2.0439,-5.83419 2.0476,-6.01049 0.2383,-11.19853 -2.2848,-6.55123 -9.1371,-14.06733 -11.9974,-13.15951 -1.0632,0.33743 -8.8698,-0.89962 -17.3481,-2.749 L 1018.8855,97.5 l -5.6797,-7.25 c -4.1572,-5.306714 -6.3052,-7.25 -8.0135,-7.25 -1.2837,0 -5.1717,2.025 -8.6401,4.5 -3.4684,2.475 -6.62024,4.5 -7.00408,4.5 -0.38385,0 -3.86938,-2.051612 -7.74561,-4.559138 l -7.04771,-4.559137 -2.15077,2.020545 -2.15077,2.020545 -7.97663,-2.211408 C 958.08948,83.495133 953.9375,82.135942 953.25,81.690983 952.5625,81.246024 952,78.993332 952,76.685001 v -4.196965 l -13.25,-3.138045 c -9.6473,-2.284804 -13.46801,-2.826982 -14.05181,-1.994018 -0.441,0.629215 -0.58688,3.834012 -0.32418,7.121772 0.47081,5.892271 0.40641,6.073824 -4.5038,12.697334 l -4.98144,6.71959 0.69025,6.101029 c 0.65478,5.787422 0.88338,6.199552 4.44746,8.017812 5.25805,2.68245 10.70565,8.07102 11.54654,11.4214 0.5557,2.21411 -0.22968,4.74416 -3.61955,11.66002 -4.3121,8.79737 -4.32169,8.84141 -2.42018,11.11871 6.28653,7.52894 5.97252,7.35357 12.17866,6.80137 L 943.5,148.5 l 3.85401,8.5 c 2.11971,4.675 3.98026,8.63555 4.13456,8.80122 0.1543,0.16568 3.72106,-1.73286 7.92613,-4.21897 5.67287,-3.35389 8.34737,-4.38822 10.36544,-4.00872 2.49609,0.4694 3.17235,-0.19283 8.21986,-8.04927 3.926,-6.11081 6.21546,-8.71658 8,-9.10525 1.375,-0.29948 3.46163,-0.73707 4.63696,-0.97244 1.47552,-0.29548 2.33242,-1.43677 2.76845,-3.68725 0.54846,-2.83076 2.20916,-4.29799 12.63029,-11.15878 6.5993,-4.34471 12.1387,-7.71971 12.3098,-7.5 0.1711,0.2197 1.587,2.11349 3.1465,4.20841 1.5594,2.09492 4.1079,4.46702 5.6632,5.27133 2.1719,1.12309 2.981,2.41957 3.4877,5.58788 0.437,2.73288 2.1164,5.91393 4.975,9.42361 l 4.3154,5.29811 -6.9666,9.01423 c -3.8317,4.95783 -6.9667,9.19323 -6.9667,9.41199 0,0.21876 3.7604,1.85154 8.3565,3.62841 l 8.3564,3.23067 0.6446,9.08007 c 0.3545,4.99404 0.8967,9.33224 1.2049,9.64044 0.3082,0.3082 2.8952,0.79525 5.749,1.08233 l 5.1886,0.52198 0.2889,8.75 0.289,8.75 H 969.03893 C 921.11963,210 882,209.61344 882,209.13992 Z M 892.02984,83.472998 c 1.42576,-1.290302 1.54231,-2.336617 0.75188,-6.75 -0.51449,-2.872649 -1.23835,-5.510803 -1.60858,-5.862565 -0.37023,-0.351762 -4.07473,-0.944606 -8.23223,-1.31743 l -7.55909,-0.677863 -3.61342,5.81743 c -4.26727,6.870099 -4.26675,6.870749 7.0375,8.776496 10.46746,1.764677 11.28843,1.765542 13.22394,0.01393 z M 830.50807,192.75 c -0.23603,-0.6875 -1.54598,-5.29153 -2.91098,-10.23117 l -2.48183,-8.98116 2.52966,-3.31656 2.52967,-3.31656 -3.00244,-4.61564 -3.00243,-4.61564 2.25899,-5.08664 c 1.24244,-2.79765 3.34487,-7.21451 4.67207,-9.81525 l 2.41309,-4.72863 4.79056,13.22863 c 4.59166,12.67935 4.97824,13.35318 9.31047,16.22862 2.48595,1.65 4.89264,3.675 5.34821,4.5 0.45557,0.825 1.14882,4.94176 1.54056,9.14835 0.82036,8.80919 2.13399,7.64867 -12.24308,10.8161 -10.85955,2.39248 -11.19316,2.41478 -11.75252,0.78555 z M 343.18066,58.555419 c -2.56476,-1.813086 -4.18846,-2.229932 -7.14261,-1.833697 -2.4752,0.331995 -6.13965,-0.258029 -10.39274,-1.673365 L 319.07586,52.862182 318.78793,44.181091 318.5,35.5 308.69902,34.36569 c -5.39053,-0.623871 -10.08087,-1.41421 -10.42297,-1.756311 -0.67121,-0.671209 2.50114,-20.309987 3.60827,-22.33742 0.36883,-0.675423 4.8515,-3.262923 9.96147,-5.7500003 L 321.13665,0 h 45.57143 c 42.24462,0 45.66484,0.12773481 46.85087,1.7497375 1.16721,1.5962516 1.57162,1.6197586 4.61025,0.2679794 2.56603,-1.1415366 8.78396,-1.55123814 27.0808,-1.78436325 13.0625,-0.1664329 23.75,-0.0440965 23.75,0.27185861 0,0.31595513 -0.92902,2.39550174 -2.0645,4.62121484 -1.95715,3.8363369 -1.98315,4.2854922 -0.5,8.6383009 0.86048,2.525352 1.5645,4.918431 1.5645,5.317952 0,0.399522 -2.41225,2.087791 -5.36055,3.751709 -5.17636,2.921355 -5.50695,3.372257 -9.62132,13.122652 l -4.26078,10.097345 -3.62867,-2.138127 c -1.99578,-1.17597 -6.43607,-3.775707 -9.86733,-5.777193 -3.43125,-2.001486 -6.48569,-4.384388 -6.78764,-5.295337 C 427.80953,30.839934 410.64976,16 408.99691,16 c -0.64348,0 -3.09158,1.380009 -5.44024,3.066687 l -4.27028,3.066686 -7.3932,-2.148025 -7.39319,-2.148026 -9,3.373748 -9,3.373749 0.35393,10.579136 c 0.2241,6.698494 -0.0658,11.363383 -0.79027,12.717093 -1.17348,2.192664 -16.74059,13.158092 -18.55476,13.069915 -0.55489,-0.02697 -2.5026,-1.104965 -4.32824,-2.395544 z M 493.69405,41.026771 C 487.14022,37.331034 486.62679,36.642412 483.60864,27.5 481.14451,20.035796 481.08198,19.416282 482.67495,18.25 483.61397,17.5625 484.74625,17 485.19113,17 485.63601,17 486,13.175 486,8.5 V 0 h 11.30913 11.30912 l 1.57022,4.9102042 1.57022,4.9102042 -4.24805,4.1691476 -4.24805,4.169147 1.36753,7.170649 c 1.89437,9.933164 1.83964,10.268344 -2.38012,14.577806 l -3.75,3.829713 z M 682.05293,23.063223 c -2.33154,-2.784773 -4.75976,-5.058827 -5.39605,-5.053454 -0.63628,0.0054 -3.56591,1.131226 -6.51027,2.501896 l -5.35339,2.492128 -2.71368,-2.251896 c -1.49252,-1.238544 -6.43751,-4.049735 -10.98885,-6.247093 l -8.27518,-3.995197 -1.92667,2.379344 c -1.89831,2.344309 -2.04051,2.361481 -9.65776,1.16623 -4.25209,-0.667212 -8.76163,-1.455892 -10.0212,-1.752624 C 618.43,11.647666 614.63194,4.7350067 615.51805,1.9431287 616.0627,0.22708067 617.09303,0 624.33456,0 h 8.19979 l 5.21176,4.5591207 5.21176,4.5591207 3.21357,-4.5591207 L 649.385,0 h 10.18177 c 6.43075,0 11.72636,0.54496 14.37438,1.4792356 3.76362,1.327884 4.44348,1.3148497 6.64462,-0.1273916 1.91329,-1.25363429 4.20586,-1.50509924 10.4345,-1.14452866 4.39036,0.25415416 8.24942,0.72904058 8.57568,1.05530316 0.48418,0.4841739 -4.19807,24.7452025 -4.88913,25.3329875 -0.11375,0.09675 -2.0536,0.480772 -4.31077,0.853376 -3.99945,0.660213 -4.21189,0.548539 -8.34312,-4.385759 z"
       id="path827"
       inkscape:connector-curvature="0" />
    <path
       style="fill:#5ec2b0"
       d="M 0,105.02418 V 0 H 139.48095 278.9619 l 0.65642,2.6153904 C 280.48536,6.0699689 274.74039,18.076492 270.84087,20.959529 269.27839,22.114719 268,23.954194 268,25.04725 268,27.125161 279.75555,44 281.20309,44 c 0.4576,0 4.41435,-2.221839 8.79276,-4.93742 l 7.96076,-4.93742 0.98821,3.68742 C 300.69982,44.361198 305,62.952778 305,63.991772 c 0,1.938512 -2.35115,0.965466 -11.27945,-4.668101 -5.61762,-3.544595 -9.73253,-6.924528 -10.95709,-9 C 281.6849,48.495652 280.45715,47 280.03512,47 c -0.42204,0 -5.06163,2.034226 -10.31021,4.520502 l -9.54287,4.520503 -0.6683,4.859113 -0.6683,4.859114 -6.17272,-1.809211 c -3.395,-0.995067 -8.50512,-2.482699 -11.35583,-3.305851 l -5.1831,-1.496639 -1.98417,5.875437 -1.98417,5.875437 5.34778,4.568749 5.34778,4.568748 -4.35691,7.066693 c -5.5154,8.945718 -6.53143,14.016595 -3.60227,17.978495 1.88303,2.54693 7.09355,20.91212 7.09688,25.01392 7.1e-4,0.87726 -0.84334,2.3594 -1.87567,3.29364 -1.08558,0.98244 -2.14804,3.74218 -2.51991,6.54544 -0.61264,4.6183 -1.00816,5.12935 -8.38884,10.83898 l -7.7459,5.99216 -6.48419,-3.33409 c -3.56631,-1.83376 -7.1592,-3.34104 -7.9842,-3.34953 -0.825,-0.008 -8.13303,-1.92244 -16.24007,-4.25323 -13.70659,-3.94067 -14.82841,-4.1176 -16,-2.52347 -0.83375,1.13445 -4.29305,2.24269 -10.22693,3.27636 -4.93185,0.85912 -10.25889,2.31729 -11.83786,3.24038 -2.72496,1.59305 -2.83786,1.93248 -2.22134,6.67835 0.35725,2.75 0.95929,5.27991 1.33787,5.62202 0.37858,0.34211 4.86356,2.09574 9.96661,3.89696 l 9.27828,3.27494 3.51151,-4.10241 3.5115,-4.1024 7.21022,4.25058 c 3.96561,2.33781 7.16521,4.79276 7.11021,5.45544 -0.055,0.66268 -0.1675,5.16898 -0.25,10.014 l -0.15,8.80912 -4.88785,1.56307 c -4.32189,1.38209 -5.82815,1.40069 -13.00858,0.16066 -8.02955,-1.38667 -8.1605,-1.37539 -11.66162,1.00368 -3.46965,2.35768 -3.66047,2.37597 -9.48521,0.90871 l -5.94432,-1.49738 -6.45058,4.20272 c -5.61934,3.66114 -6.34776,4.4822 -5.65264,6.3715 0.43887,1.19284 1.09741,3.40629 1.46343,4.91879 l 0.66547,2.75 h -7.54562 -7.54561 l 3.50188,-5.2 3.50188,-5.19999 -6.72532,-4.27399 c -3.69892,-2.3507 -6.95031,-4.24786 -7.22531,-4.21592 -0.9193,0.10679 -14,15.75174 -14,16.74447 0,0.53832 0.5625,1.20574 1.25,1.48315 0.6875,0.27741 -9.382981,0.53991 -22.378846,0.58333 L 56.242308,210 50.429983,206.5 C 42.32664,201.62042 34.39283,201.78834 33.806596,206.85183 L 33.5,209.5 16.75,209.77418 0,210.04836 Z m 125.46874,63.6836 c 0.2671,-1.21428 0.96861,-5.13278 1.5589,-8.70778 0.59028,-3.575 1.72555,-9.74353 2.5228,-13.70784 C 130.3477,142.32785 131,135.88606 131,131.97709 v -7.10723 l -7.56754,-3.49642 -7.56754,-3.49641 -9.81836,6.31148 c -9.60551,6.17466 -9.832767,6.40904 -10.482935,10.81149 -0.365516,2.475 -0.915558,5.95512 -1.222316,7.73361 -0.475775,2.7584 -0.200956,3.36925 1.870038,4.15664 1.885885,0.71702 3.482868,3.47096 7.154773,12.33818 3.98527,9.62397 5.36755,11.90745 8.80933,14.55271 l 4.08235,3.13757 4.36265,-3.00158 c 2.39945,-1.65087 4.58118,-3.99508 4.84829,-5.20935 z m 75.52774,-106.145117 6.49647,-3.340295 3.65447,2.894393 3.65447,2.894394 7.77833,-8.567679 7.77833,-8.56768 -6.9793,-6.979306 -6.97931,-6.979306 -5.94997,7.535924 c -4.85981,6.15518 -6.38086,7.467162 -8.30174,7.160626 C 199.42656,48.179406 183,53.836615 183,55.20827 c 0,0.92629 10.06811,10.724468 11,10.705088 0.275,-0.0057 3.42341,-1.513532 6.99648,-3.350695 z M 883,209.10594 c 0,-0.49174 3.4875,-3.86136 7.75,-7.48804 6.49949,-5.52999 8.34788,-6.5959 11.45534,-6.60594 3.51099,-0.0113 3.9175,-0.36907 7.75,-6.82013 3.33925,-5.62078 4.04466,-7.71797 4.04466,-12.02475 0,-7.51324 1.80752,-7.96714 15.14362,-3.80281 l 10.35638,3.23388 5.70479,-3.54908 c 3.13763,-1.95199 5.7358,-3.99907 5.77372,-4.54907 0.12874,-1.86787 15.81381,-9.99893 18.74723,-9.71848 2.47901,0.23701 3.3596,-0.63832 8.27426,-8.22479 4.41703,-6.81832 6.09071,-8.60975 8.5,-9.09804 5.72062,-1.15939 6.3641,-1.56344 6.98387,-4.38526 0.49289,-2.24412 3.01001,-4.42576 12.06233,-10.45467 6.2917,-4.19032 11.8346,-7.61876 12.3177,-7.61876 0.4831,0 1.9488,1.56402 3.2572,3.47559 1.3084,1.91158 3.8281,4.25675 5.5993,5.21149 2.6189,1.41161 3.3402,2.53436 3.8615,6.01019 0.4449,2.96687 1.8304,5.62556 4.5295,8.69196 2.1387,2.42972 3.8886,4.85466 3.8886,5.38876 0,0.5341 -2.925,4.79183 -6.5,9.46163 -3.575,4.66979 -6.5,8.72567 -6.5,9.01306 0,0.28738 3.5882,1.96892 7.9738,3.73676 8.9106,3.59186 8.3322,2.60353 9.5004,16.23484 l 0.5762,6.72428 -3.5128,2.27572 c -1.9321,1.25165 -3.5184,2.63791 -3.5252,3.08059 -0.01,0.44268 1.8044,3.48018 4.0249,6.75 L 1045.0745,210 H 998.53726 C 954.68301,210 952,209.89796 952,208.23006 c 0,-1.11216 -2.58396,-3.36443 -6.95291,-6.06039 -5.71843,-3.52868 -7.30469,-4.10217 -8.93426,-3.23006 C 935.02309,199.52283 933.38651,200 932.476,200 c -0.91052,0 -4.17993,2.25 -7.26536,5 l -5.60987,5 H 901.30038 C 891.21238,210 883,209.59878 883,209.10594 Z m 8.09492,-76.35214 -5.40508,-5.74621 1.66089,-7.55867 c 1.18553,-5.39531 1.369,-8.10409 0.64102,-9.46433 -1.46574,-2.73876 1.65646,-21.647066 4.17052,-25.257036 1.70566,-2.449174 1.80922,-3.430122 0.88812,-8.412813 -0.57348,-3.102202 -1.15692,-5.725235 -1.29654,-5.828963 C 891.61423,70.382051 887.9,69.892816 883.5,69.398591 l -8,-0.898591 -3.71839,-7 c -2.04511,-3.85 -3.73261,-7.830569 -3.75,-8.845708 -0.0174,-1.015139 -0.77362,-3.101825 -1.68051,-4.637078 -1.37364,-2.32539 -2.50046,-2.876704 -6.75,-3.302545 -4.99187,-0.500228 -5.26743,-0.383213 -12.86876,5.464526 -4.27221,3.286636 -8.21243,5.82744 -8.75606,5.646233 -0.54362,-0.181208 -4.09799,-3.919608 -7.8986,-8.307556 l -6.91019,-7.978087 3.2864,-4.519893 3.28641,-4.519892 -1.76069,-4 c -0.96838,-2.2 -2.66998,-6.08156 -3.78133,-8.625689 l -2.02063,-4.625689 -8.33883,1.348956 c -4.58635,0.741927 -9.1076,1.111604 -10.04722,0.821507 -1.29172,-0.398809 -3.34104,1.9247 -8.40251,9.526732 C 791.70733,30.475618 788.29126,35 787.79783,35 c -0.49343,0 -2.16693,-0.65663 -3.71889,-1.459179 -2.52257,-1.304469 -2.95234,-2.285201 -4.05352,-9.25 -1.21275,-7.67042 -1.30961,-7.851595 -6.26732,-11.723304 l -5.03553,-3.9324833 -3.11128,3.4496403 c -1.71121,1.897303 -4.93984,5.642949 -7.17472,8.323659 l -4.06344,4.874019 -6.84798,-8.641176 L 740.67716,8 h -8.33858 c -7.01248,0 -8.65747,-0.3188939 -10.3438,-2.0052163 -1.69447,-1.6944755 -1.81216,-2.3143402 -0.75945,-4 C 722.47286,0.01318382 723.72863,0 911.24055,0 H 1100 v 30.932612 c 0,28.61008 -0.1314,30.968658 -1.75,31.412685 -0.9625,0.26404 -4.1125,1.014248 -7,1.667129 -4.6607,1.053819 -5.2633,1.484525 -5.3683,3.837315 l -0.1183,2.650259 -0.6317,-2.894302 c -0.3474,-1.591867 -1.8259,-3.784911 -3.2855,-4.873431 l -2.6538,-1.979129 -11.1177,6.873431 -11.1177,6.873431 0.5945,4 c 1.0282,6.91709 1.2996,7.299047 5.7166,8.045291 3.1056,0.524698 6.9342,2.822488 14.8484,8.911671 l 10.6639,8.204678 -3.1719,7.65091 c -1.7446,4.20799 -3.6788,8.15778 -4.2984,8.77731 -0.6195,0.61952 -4.3546,1.19024 -8.3003,1.26827 l -7.174,0.14187 -1.8916,-4.93537 c -2.4462,-6.38238 -9.6087,-13.86313 -12.5644,-13.12277 -1.1661,0.29209 -7.9161,-0.8075 -15,-2.44354 -7.0839,-1.636036 -13.7798,-2.983162 -14.8798,-2.993614 -1.2771,-0.01214 -4.1639,-2.727204 -7.987,-7.511855 C 1009.8587,85.919475 1006.7889,83 1005.6342,83 c -1.0405,0 -5.80057,-3.825 -10.57804,-8.5 -8.51317,-8.33059 -11.66679,-9.990889 -13.77084,-7.25 -0.52776,0.6875 -2.00351,4.175 -3.27945,7.75 -2.29943,6.442653 -5.35789,10.979606 -7.43018,11.022012 -0.59163,0.01211 -4.75914,-0.98368 -9.26113,-2.212859 l -8.18544,-2.234871 -0.65423,-4.75684 c -0.53511,-3.890753 -0.27764,-5.285714 1.41414,-7.661594 l 2.06836,-2.904754 -3.76612,-9.292843 -3.76613,-9.292843 -5.34787,-1.817798 c -2.94133,-0.999788 -6.32921,-1.571496 -7.52863,-1.270461 -2.53885,0.637209 -8.17793,11.252369 -9.12548,17.178044 -0.86934,5.436554 -1.95914,6.487759 -11.94069,11.517816 -4.94036,2.489621 -10.92532,5.637423 -13.29991,6.995114 l -4.31744,2.468531 9.06744,5.829516 c 8.96337,5.762605 9.0676,5.876026 9.08109,9.881673 0.0218,6.482857 0.88191,8.201307 5.04391,10.078117 2.13574,0.96308 4.62405,2.56973 5.52958,3.57032 1.55415,1.71732 1.15462,2.36798 -7.12995,11.61149 -7.90244,8.81716 -9.4326,10.04117 -15.36677,12.29223 L 896.5,138.5 Z M 873,127.42467 c -3.025,-1.87902 -5.13013,-3.41826 -4.67807,-3.42053 1.15521,-0.006 9.55911,4.99435 10.23663,6.09062 0.7692,1.24458 0.65631,1.19035 -5.55856,-2.67009 z m -9.25,-4.08695 c 0.6875,-0.27741 1.8125,-0.27741 2.5,0 0.6875,0.27741 0.125,0.50439 -1.25,0.50439 -1.375,0 -1.9375,-0.22698 -1.25,-0.50439 z m -3.9375,-1.02083 c 0.72187,-0.28887 1.58438,-0.25335 1.91667,0.0789 0.33229,0.3323 -0.25834,0.56864 -1.3125,0.52522 -1.16495,-0.048 -1.4019,-0.28494 -0.60417,-0.60416 z m -5,-1 c 0.72187,-0.28887 1.58438,-0.25335 1.91667,0.0789 0.33229,0.3323 -0.25834,0.56864 -1.3125,0.52522 -1.16495,-0.048 -1.4019,-0.28494 -0.60417,-0.60416 z m -12.44963,-10.49343 -10.13712,-4.06405 -0.6394,-4.81998 c -0.62428,-4.706062 -0.81601,-4.931856 -8.11287,-9.554238 C 819.36307,89.781346 816,87.550264 816,87.427232 c 0,-0.123032 5.18009,-4.819804 11.51131,-10.437271 l 11.51132,-10.213576 5.5001,4.698887 c 3.02506,2.584387 5.9608,5.559701 6.52387,6.611807 C 851.92067,79.720291 853.21233,80 859.8802,80 c 10.11746,0 10.55391,0.501964 12.08176,13.895306 1.36292,11.947524 1.30282,12.065094 -6.18027,12.089384 -4.42211,0.0143 -4.92432,0.29535 -8,4.47631 -1.80493,2.45355 -3.73169,4.45324 -4.28169,4.44376 -0.55,-0.009 -5.56171,-1.84607 -11.13713,-4.0813 z M 330.69493,37.349334 c -6.7299,-3.98373 -8.13214,-4.471158 -10.17933,-3.538396 -3.01315,1.372884 -21.18479,-0.50647 -21.85791,-2.260597 -0.54952,-1.432033 2.68142,-19.671981 3.80729,-21.493683 0.44058,-0.7128688 5.04795,-3.2672449 10.2386,-5.6763915 L 322.14114,0 h 44.87974 c 51.49606,0 48.31853,-0.63601662 44.4445,8.8960319 -1.6844,4.1444811 -3.50713,6.5465941 -6.99869,9.2233561 l -4.72111,3.619388 -7.7621,-2.043916 -7.7621,-2.043917 -8.77884,3.31335 c -6.95362,2.624468 -9.10772,3.072396 -10.36069,2.154424 C 364.21183,22.481308 361.925,21.274831 360,20.437656 358.075,19.600481 353.35,15.547229 349.5,11.430428 342.58643,4.0377523 342.43351,3.9425872 337.1147,3.7226682 L 331.7294,3.5 328.8647,11.954771 C 327.28911,16.604895 326,20.960014 326,21.632814 c 0,0.750641 2.22161,1.462858 5.75,1.843368 3.1625,0.341053 6.425,0.98312 7.25,1.426817 1.9277,1.036746 4.14168,14.555318 2.63116,16.065846 -1.62605,1.626041 -2.64364,1.289254 -10.93623,-3.619511 z"
       id="path825"
       inkscape:connector-curvature="0" />
    <path
       style="fill:#5dc0ac"
       d="M 0,105.02418 V 0 L 118.75,-4.4257245e-5 237.5,-8.8514491e-5 240.5,3.4880148 c 2.86057,3.3259873 3.18591,3.444542 7,2.5508337 2.27046,-0.5320084 4.88101,-2.0401927 6.03756,-3.4880591 C 255.50428,0.0886963 255.96575,0 266.809,0 c 11.05349,0 11.25242,0.04070185 12.3888,2.5347844 0.99607,2.18613 0.69145,3.4928355 -2.21463,9.4999996 C 275.12992,15.865653 273.35846,19 273.04659,19 c -0.31186,0 -1.71747,1.066755 -3.12358,2.370567 -2.14036,1.984653 -2.83442,2.167379 -4.26346,1.122438 -1.39553,-1.020432 -3.57251,-0.786871 -11.93324,1.280275 -5.62447,1.390622 -10.33079,2.602504 -10.45849,2.693072 -0.12769,0.09057 0.65981,3.283756 1.75,7.095975 C 246.10802,37.374547 247,40.765565 247,41.097924 247,41.689342 233.37121,48 232.09395,48 231.73773,48 228.08337,44.856527 223.97314,41.014503 219.86291,37.17248 216.275,34.040136 216,34.053739 c -0.275,0.0136 -2.92873,3.157075 -5.89717,6.985496 C 205.70851,46.706609 204.1862,48 201.91004,48 c -1.53759,0 -6.01068,1.191709 -9.94019,2.648243 -8.41623,3.1196 -17.39797,10.90284 -18.29269,15.851757 -0.2983,1.65 -0.81547,4.673542 -1.14926,6.718982 l -0.60689,3.718982 8.13171,4.088542 c 4.93311,2.480323 9.17714,3.967578 10.78949,3.781018 L 193.5,84.5 l -0.35499,-8.706234 -0.355,-8.706234 7.58284,-3.752087 7.58283,-3.752087 3.14532,2.958321 c 3.82092,3.593753 5.9992,8.359148 5.20654,11.390278 -0.48079,1.838557 1.0183,3.860487 8.24558,11.121408 l 8.8332,8.874318 -0.26184,4.933222 c -0.20192,3.804415 0.181,5.357205 1.67347,6.786155 1.22347,1.1714 2.97826,6.16898 4.77085,13.58719 l 2.83555,11.73426 -2.70217,2.82046 C 237.69176,135.8874 237,137.62749 237,140.58621 c 0,3.76566 -0.39438,4.28035 -7.42901,9.69528 -4.08596,3.14518 -7.89547,5.71851 -8.46558,5.71851 -0.57011,0 -3.90201,-1.57505 -7.40422,-3.5001 -3.50221,-1.92506 -6.6068,-3.26096 -6.89909,-2.96867 -0.29229,0.2923 -6.73526,-1.28266 -14.31771,-3.49989 -15.08124,-4.41001 -17.01396,-4.69964 -17.79413,-2.66654 -0.32349,0.84298 -3.70983,1.85119 -8.85699,2.63696 -6.53124,0.99707 -14.25248,3.52896 -16.55853,5.42975 -0.12389,0.10212 0.23316,3.03222 0.79346,6.51132 0.94324,5.85702 1.58046,6.98247 8.60118,15.19141 4.17035,4.87617 7.71411,8.86576 7.87501,8.86576 0.1609,0 1.23857,-2.84278 2.39481,-6.31729 1.42509,-4.28241 3.32597,-7.51222 5.90128,-10.02694 l 3.79901,-3.70964 6.68026,3.71298 L 192,169.3721 v 5.67438 c 0,3.12091 -0.28604,7.76128 -0.63565,10.31193 -0.60264,4.39677 -0.84436,4.69376 -4.65556,5.72 -2.9608,0.79727 -6.19618,0.75868 -12.28011,-0.14646 -7.84343,-1.16691 -8.44466,-1.12007 -11.9164,0.9283 -3.53598,2.08628 -3.85437,2.10586 -9.68316,0.59547 l -6.02696,-1.56174 -6.49088,4.22898 c -6.9749,4.54432 -6.80066,4.09469 -4.7512,12.26038 L 136.21682,210 h -6.72342 -6.72342 l 1.61501,-2.5 c 0.88826,-1.375 2.3288,-3.60521 3.20121,-4.95602 0.8724,-1.35082 1.34338,-2.84891 1.0466,-3.3291 C 127.88904,198.01144 116.43044,191 115.20746,191 c -0.54509,0 -4.27869,3.8724 -8.29688,8.60533 -4.01819,4.73292 -8.208928,8.93941 -9.312747,9.34774 -1.103819,0.40833 -3.732746,0.35465 -5.842061,-0.11928 -2.389673,-0.53692 -4.549181,-0.47954 -5.729703,0.15226 -2.511725,1.34423 -30.706707,1.33971 -31.537821,-0.005 -1.121653,-1.81487 -10.341643,-5.98137 -13.205004,-5.96733 -5.155572,0.0253 -7.15398,1.05119 -7.476648,3.83818 L 33.5,209.5 16.75,209.77418 0,210.04836 Z m 115.45632,76.34217 c 0.7826,-3.09959 2.15544,-4.97786 5.48792,-7.50835 l 4.44424,-3.3747 2.42935,-11.99165 c 1.33615,-6.59541 2.62442,-16.96154 2.86283,-23.03585 l 0.43348,-11.0442 -7.51572,-3.30292 c -4.13365,-1.8166 -7.922,-3.14671 -8.41855,-2.9558 -0.49656,0.19092 -4.96573,3.0346 -9.9315,6.31931 l -9.028656,5.97219 -1.109857,6.72044 c -1.506762,9.12379 -1.441935,9.71316 1.140143,10.36562 1.738349,0.43925 3.240665,2.92752 6.60648,10.94225 2.39607,5.70554 4.10066,10.78765 3.78798,11.29356 -0.31267,0.50592 -4.07309,1.93241 -8.356477,3.16998 C 90.447596,175.20151 87,177.67622 87,181.03883 c 0,1.44551 1.073952,1.94624 5.25,2.44778 2.8875,0.34679 8.175,1.00487 11.75,1.46241 9.85136,1.26081 10.26618,1.13109 11.45632,-3.58267 z m 100.3238,-53.83391 c -3.30779,-5.12295 -4.61743,-6.27936 -8.68653,-7.6702 l -4.79149,-1.63776 -2.11872,5.01486 -2.11872,5.01486 2.46767,4.3729 c 1.35722,2.40509 3.64078,6.44763 5.07459,8.98342 l 2.60692,4.61051 5.73065,-6.32808 5.73066,-6.32808 z M 952,207.99287 c 0,-1.38077 -2.10645,-3.36737 -6.75,-6.36594 -6.33237,-4.08913 -6.91707,-4.2743 -9.45034,-2.99287 -1.48519,0.75127 -3.51019,1.33973 -4.5,1.3077 -0.98981,-0.032 -5.28716,-4.14991 -9.54966,-9.15084 -7.53592,-8.84144 -7.75,-9.23818 -7.75,-14.36231 0,-5.01671 0.14097,-5.30066 2.93626,-5.91461 3.7209,-0.81725 20.84139,4.17281 21.98425,6.40769 0.44392,0.86807 1.06578,4.21319 1.38192,7.43359 0.31614,3.2204 0.77244,6.05292 1.014,6.29449 0.45529,0.45528 21.41043,-1.38515 25.50863,-2.24036 2.13,-0.44449 1.56374,-1.31092 -6.75,-10.328 C 955.08378,172.66786 951,167.97201 951,167.64617 c 0,-1.49007 16.63236,-10.05847 19.03548,-9.8064 2.24545,0.23554 3.34195,-0.85804 8.23975,-8.21776 5.18133,-7.78578 6.005,-8.56815 9.93719,-9.43893 4.2518,-0.94155 4.32309,-0.91098 8.54309,3.6626 l 4.25549,4.61207 11.7445,-11.67701 11.7445,-11.67701 2.6658,1.97023 c 1.7873,1.32093 2.8902,3.29787 3.3465,5.99876 0.437,2.58657 2.0778,5.64288 4.5841,8.53872 2.147,2.48061 3.9036,4.78027 3.9036,5.11036 0,0.33008 -2.5875,4.00234 -5.75,8.16057 -3.1625,4.15823 -6.3108,8.32196 -6.9963,9.25274 -1.1111,1.50883 -0.3295,2.0536 7.2088,5.02437 l 8.455,3.33204 0.504,5.00424 c 1.4872,14.76849 1.5941,13.92377 -2.0658,16.32292 -3.9005,2.55686 -4.0775,3.60094 -1.3017,7.68132 1.1224,1.65 2.706,4.2375 3.5191,5.75 l 1.4783,2.75 H 998.02568 C 952.61216,210 952,209.9733 952,207.99287 Z m 105.1867,-101.3026 -4.2297,-4.30974 2.7715,-7.78439 2.7715,-7.784393 4.5707,0.430107 c 3.8578,0.363016 6.0104,1.565746 13.8003,7.710556 5.0762,4.004247 9.0779,7.43207 8.8925,7.61738 -0.4764,0.47645 -22.7789,8.43021 -23.6384,8.43021 -0.3898,0 -2.612,-1.93938 -4.9384,-4.30973 z m -43.7072,-16.613042 c -2.8458,-3.622254 -6.3723,-6.816115 -8.8545,-8.019211 -2.2687,-1.099679 -7.44201,-5.340557 -11.49613,-9.424173 -6.83733,-6.887081 -7.58153,-7.364411 -10.27665,-6.591462 -2.00293,0.574434 -4.05545,0.352824 -6.60724,-0.713381 -3.08701,-1.289837 -4.81667,-1.362543 -10.41597,-0.437838 C 962.13616,65.501023 958.5218,66 957.7971,66 c -0.73471,0 -2.85483,-3.976118 -4.79228,-8.987525 l -3.47464,-8.987526 -5.95926,-2.012474 C 940.29333,44.905614 936.80406,44 935.81699,44 933.6081,44 926,58.552669 926,62.777803 c 0,5.141618 -1.17466,5.226582 -15.31348,1.107638 -7.25259,-2.112836 -13.70743,-3.851402 -14.34411,-3.86348 -0.63667,-0.01208 -1.74352,2.264235 -2.45966,5.058475 l -1.30208,5.080435 -7.04033,-0.652176 c -3.87219,-0.358696 -7.72858,-0.843712 -8.56976,-1.077813 -1.6706,-0.46493 -8.95692,-14.398922 -8.99282,-17.197426 -0.0475,-3.699193 -3.47244,-6.478691 -8.58224,-6.964791 -4.74206,-0.451116 -5.1463,-0.271576 -12.89552,5.727396 l -8,6.193111 -7.22122,-7.844586 c -3.97167,-4.314522 -7.23417,-8.229829 -7.25,-8.700682 -0.0158,-0.470852 1.37827,-2.632647 3.09801,-4.803987 l 3.12679,-3.947892 -3.87072,-9.03727 -3.87073,-9.03727 -3.50606,0.620159 c -1.92834,0.341088 -6.4932,0.893197 -10.14413,1.22691 -6.3935,0.584397 -6.70274,0.508051 -8.39335,-2.07215 -1.69983,-2.5942657 -1.67967,-2.8342773 0.63806,-7.596802 L 803.5,0.07770224 l 82,1.4893e-4 82,1.4894e-4 L 971,4.7890001 974.5,9.5 975,5 975.5,0.5 1037.75,0.24242977 1100,-0.01514046 V 19.268856 38.552852 l -4.0566,-0.38686 c -2.2311,-0.212774 -6.9959,-0.0721 -10.5882,0.312616 -6.3395,0.6789 -6.5768,0.807176 -8.0666,4.360435 -1.3984,3.335371 -1.3788,4.264365 0.2201,10.445789 0.9652,3.731658 1.5831,6.942303 1.3731,7.134768 -0.21,0.192465 -5.0775,3.32679 -10.8167,6.965168 -10.2357,6.488902 -12.5637,7.498114 -13.2318,5.735992 -0.1833,-0.483582 -4.0973,-3.261306 -8.6977,-6.17272 -10.4508,-6.613839 -11.2281,-6.327554 -12.6503,4.658714 -0.9823,7.588467 -1.2654,8.202147 -7.331,15.893246 -3.4701,4.4 -6.6774,8.13433 -7.1273,8.298512 -0.45,0.164182 -2.9463,-2.410396 -5.5475,-5.721284 z M 226.26903,71.307009 c 0.97297,-0.253543 2.32297,-0.236869 3,0.03705 0.67703,0.273923 -0.11903,0.481368 -1.76903,0.460988 -1.65,-0.02038 -2.20394,-0.244498 -1.23097,-0.498042 z M 748.1973,16.859247 C 744.78879,12.523105 742,8.5465568 742,8.0224727 c 0,-0.5240841 1.39662,-2.5435385 3.10359,-4.4876765 L 748.20718,0 h 20.68465 20.68465 l 3.76523,4.5044223 3.76523,4.5044223 -2.30347,0.8864632 c -1.26691,0.4875552 -4.94696,2.0605652 -8.1779,3.4955772 C 783.39463,14.825898 780.19092,16 779.5062,16 c -0.68472,0 -3.49725,-1.793317 -6.25008,-3.985148 l -5.00513,-3.9851488 -6.9282,8.3567188 -6.92819,8.35672 z m -382.68809,6.155657 c -0.3812,-0.616794 -3.031,-2.15538 -5.88845,-3.419079 -2.85745,-1.263698 -5.93636,-3.377227 -6.84203,-4.696729 C 351.87306,13.579593 349.12614,10.3625 346.67446,7.75 342.51196,3.3144652 341.88677,3 337.23087,3 334.01995,3 331.80192,2.4662524 331.00063,1.5007531 329.89989,0.1744506 332.94265,0.00525156 357.37818,0.03397476 L 385,0.06644335 384.989,5.2832217 c -0.006,2.8692281 -0.27613,6.8192463 -0.60017,8.7778193 -0.56086,3.389875 -0.95687,3.697097 -8.239,6.391647 -4.2074,1.556834 -8.1668,3.022544 -8.79867,3.257133 -0.63187,0.23459 -1.46074,-0.07812 -1.84194,-0.694917 z"
       id="path823"
       inkscape:connector-curvature="0" />
    <path
       style="fill:#58b9a5"
       d="M 0,105 V 0 h 71.943464 71.943466 l 1.73615,2.9390762 c 1.37259,2.3236002 2.27442,2.8440357 4.30654,2.48523 14.5151,-2.5628971 21.53549,-3.2897725 22.15123,-2.2934871 1.15199,1.8639618 21.97985,0.7146542 25.19216,-1.3901356 C 198.76436,0.763515 201.82877,0 204.25933,0 c 4.01579,0 4.60388,0.35953434 8.11145,4.9589564 3.11368,4.0829247 3.9559,6.2156516 4.76756,12.0727356 1.38136,9.968072 1.17553,10.118392 -10.89974,7.959954 -9.40527,-1.681178 -9.90245,-1.676599 -14.52562,0.133797 C 189.08012,26.156449 186.0502,27 184.97983,27 c -1.34272,0 -2.77228,1.627828 -4.61056,5.25 l -2.66443,5.25 2.89392,8.358938 2.89391,8.358938 -4.91622,4.264947 -4.91622,4.264947 -4.87412,-2.873885 C 166.10534,58.293248 163.52374,57 163.04921,57 161.59312,57 149,62.874968 149,63.554269 c 0,0.350854 0.71022,3.080974 1.57826,6.066933 1.4825,5.099613 1.92309,5.603088 7.26157,8.297945 l 5.68332,2.868929 3.62325,-1.858839 3.62325,-1.858839 8.61517,4.159147 c 4.73835,2.287531 8.61518,4.53168 8.61518,4.986998 0,0.455319 -1.84225,4.491897 -4.09388,8.970175 l -4.09388,8.142322 2.19685,4.69036 2.19684,4.69035 8.49617,1.32169 c 4.6729,0.72693 8.69084,1.82896 8.92876,2.44897 0.23792,0.62001 -0.67238,3.62578 -2.02287,6.6795 -2.31204,5.22792 -3.05857,5.91935 -12.78172,11.83825 -5.67945,3.45732 -11.22627,7.06078 -12.32627,8.00768 -1.13936,0.98078 -5.44254,2.25187 -10,2.95384 -4.4,0.67771 -9.52288,2.16304 -11.38417,3.30074 l -3.38417,2.06854 -9.33484,-2.25041 -9.33484,-2.25041 -0.28099,-11.45669 -0.28099,-11.45669 -7.39283,-3.36781 -7.39283,-3.36782 -9.77297,6.50689 c -10.164844,6.76779 -10.247652,6.88169 -11.497426,15.81398 -0.38477,2.75 -1.053822,5.68646 -1.486781,6.52547 -0.43296,0.83901 -1.547697,7.81401 -2.477195,15.5 -0.929497,7.68599 -2.327286,15.20815 -3.106199,16.7159 -0.815575,1.57872 -1.160846,3.91134 -0.814103,5.5 0.41376,1.89571 0.304204,2.33602 -0.350233,1.40761 -0.789557,-1.1201 -2.755792,-0.96619 -11.503591,0.90043 C 62.695887,188.61213 63.036,188.2293 63.013655,199.20986 L 63,205.91972 l -3.927279,1.17664 c -3.642738,1.09139 -4.325128,0.95211 -9.418476,-1.9224 -4.803925,-2.71117 -6.124741,-3.02401 -10.553104,-2.49953 -4.791697,0.5675 -5.095584,0.77903 -5.692814,3.96254 L 32.777418,210 H 16.388709 0 Z m 56.092766,-1.75429 C 61.224035,102.18067 69.948698,94.090989 70.65409,89.744165 71.167579,86.579908 70.956593,86.284427 66.871337,84.446497 64.491721,83.375924 60.329731,80.837242 57.622468,78.804983 53.99253,76.080098 52.017517,75.237849 50.100087,75.597044 48.670039,75.864938 45.475,76.42018 43,76.830915 c -5.249912,0.871242 -5.281606,1.034202 -2.926406,15.046693 1.306105,7.770794 1.657929,8.547372 4.857247,10.721362 1.976489,1.34306 4.328698,2.14068 5.509155,1.86811 1.133002,-0.26161 3.676749,-0.81123 5.65277,-1.22137 z M 1030.5235,207.25 c 0.9002,-1.5125 2.6474,-4.00932 3.8828,-5.54849 l 2.2462,-2.79848 3.6839,5.54848 3.684,5.54849 h -7.5667 -7.5668 z m -33.54134,-4.2713 c -2.29262,-2.73829 -4.91399,-5.00722 -5.82528,-5.04209 -1.14919,-0.044 -0.96153,-0.34269 0.61243,-0.97492 1.24813,-0.50134 5.70749,-3.45418 9.90969,-6.56186 7.5111,-5.55473 7.6046,-5.67781 5.5254,-7.27507 -1.1633,-0.89362 -5.4241,-4.30145 -9.46838,-7.57297 l -7.35333,-5.94821 5.55866,-10.16776 c 4.46595,-8.16893 7.77675,-12.49638 16.84205,-22.01316 l 11.2833,-11.84541 2.7167,1.64704 c 1.9443,1.17878 2.962,2.87358 3.5798,5.96137 l 0.8632,4.31434 -8.7747,8.28589 -8.7747,8.2859 2.1615,2.9641 c 1.1888,1.63026 3.15,4.31935 4.3582,5.97576 2.5258,3.46291 2.2493,4.73713 -3.8278,17.64235 -1.8529,3.9347 -3.3689,7.72284 -3.3689,8.41809 0,0.69524 -0.4992,4.1308 -1.1094,7.63457 -1.0895,6.25649 -1.1955,6.41416 -5.9247,8.81061 l -4.8153,2.44012 z M 87.194949,196.5 c 0.02038,-1.65 0.244498,-2.20394 0.498042,-1.23097 0.253543,0.97297 0.236869,2.32297 -0.03705,3 C 87.382014,198.94606 87.174569,198.15 87.194949,196.5 Z M 961.23213,178.73293 C 955.60446,173.08603 951,168.17542 951,167.82045 c 0,-1.43527 16.0723,-9.81647 18.70341,-9.75324 2.18143,0.0524 3.95142,1.467 8.04659,6.43088 2.8875,3.50002 5.25,6.82988 5.25,7.39969 C 983,173.25918 972.99718,189 972.13205,189 c -0.36728,0 -5.27224,-4.62018 -10.89992,-10.26707 z M 228.02774,134.62052 220.55548,133.5 216.83183,128 c -2.048,-3.025 -3.74799,-5.80767 -3.77774,-6.1837 -0.0298,-0.37604 4.72786,-4.12801 10.57248,-8.33772 8.75901,-6.30887 10.8474,-7.41892 11.88314,-6.3163 0.69112,0.73575 2.3909,6.27901 3.77729,12.31836 l 2.52072,10.98065 -1.97195,2.76935 c -1.08458,1.52315 -2.50382,2.71109 -3.15386,2.63988 -0.65005,-0.0712 -4.54443,-0.63371 -8.65417,-1.25 z m -23.67749,-34.15018 c -0.3173,-0.826852 -1.36099,-4.083437 -2.31931,-7.236854 -1.42215,-4.679669 -2.32032,-5.996407 -4.88667,-7.163953 L 194,84.639065 v -8.806961 -8.806961 l 6.88553,-3.467498 6.88553,-3.467498 3.86447,3.340568 c 3.54291,3.062599 3.86447,3.764393 3.86447,8.43398 0,5.06671 0.0459,5.139497 8.75,13.884141 7.64988,7.685491 8.75,9.229591 8.75,12.281299 v 3.490575 l -14.03643,0.2265 c -11.71213,0.18899 -14.13196,-0.0224 -14.61332,-1.27687 z M 1005,82.260545 c -0.825,-0.319859 -5.53633,-4.318101 -10.46962,-8.884984 -7.31878,-6.775192 -9.39679,-8.19621 -11.29059,-7.720896 -3.78883,0.950937 -11.18952,-1.588188 -11.77147,-4.038711 -0.27638,-1.163775 -1.33925,-6.002969 -2.36195,-10.753765 l -1.85944,-8.63781 6.62654,-1.970013 6.62653,-1.970012 1.02464,-5.867272 1.02463,-5.867271 8.47537,0.260574 8.47536,0.260573 4.5,4.935587 4.5,4.935586 8.2257,-6.868813 c 9.5275,-7.955936 9.7718,-7.00123 -3.6252,-14.165699 -6.7096,-3.588205 -9.0916,-5.457761 -10.834,-8.5035188 C 997.68851,-0.59783966 993.8343,0 1050,0 h 50 v 19 19 h -10.8641 -10.8642 l -1.7185,-4.5 c -2.0627,-5.401096 -1.4261,-5.347108 -19.5532,-1.658219 l -13.5,2.747273 v 3.286883 c 0,3.191691 0.2644,3.399544 9.1283,7.176941 8.9354,3.807844 9.2593,3.866974 15.3292,2.79779 3.5099,-0.618257 6.5511,-0.714368 7.0079,-0.221468 0.4438,0.47894 1.5169,3.3458 2.3847,6.3708 1.8752,6.536694 2.5826,5.621189 -10.7969,13.973047 -8.0522,5.026353 -10.1475,5.948242 -11,4.839763 -0.5793,-0.753119 -4.7639,-3.733907 -9.2992,-6.623972 l -8.2459,-5.254665 -2.7541,1.959638 c -1.5147,1.077801 -6.333,2.676577 -10.7073,3.552835 -4.3743,0.876259 -8.3155,2.146733 -8.7582,2.823276 -0.4428,0.676543 -2.4698,4.042578 -4.5045,7.480078 -2.0348,3.4375 -3.9436,6.214474 -4.2418,6.171053 -0.2982,-0.04342 -1.2172,-0.34065 -2.0422,-0.660508 z M 882.56786,68.858027 c -3.81268,-0.488938 -6.99683,-0.994514 -7.07588,-1.123502 C 874.33622,65.848791 868,51.527177 868,50.800579 868,50.255068 867.06936,48.501774 865.93191,46.90437 864.09921,44.330592 863.26682,44 858.619,44 c -4.50168,0 -5.64501,-0.417716 -8.06926,-2.948084 L 847.72529,38.103831 851.33573,28.051916 854.94616,18 h -4.37731 -4.37731 l -5.54033,-8.75 -5.54033,-8.75 43.57949,-0.26061009 43.57948,-0.26061008 6.4538,3.60916677 6.45379,3.6091668 3.29615,-3.5985567 c 5.15546,-5.6284522 7.38269,-5.0781273 18.29562,4.5206566 C 961.84614,12.584781 966,16.600254 966,17.042488 c 0,0.442234 -1.18946,2.21765 -2.64324,3.94537 -2.51384,2.987533 -2.61339,3.528295 -2.03362,11.046589 l 0.60961,7.90528 -6.47277,3.61978 -6.47278,3.61978 -5.94679,-2.008264 c -3.27074,-1.104545 -6.7974,-1.785826 -7.83703,-1.513958 -1.12503,0.294202 -3.24627,3.297389 -5.23999,7.418621 C 928.12101,54.884058 926.39431,58 926.12627,58 c -0.26805,0 -4.83834,-2.234947 -10.1562,-4.966548 l -9.66885,-4.966549 -5.40061,3.410877 c -3.19671,2.018955 -5.42002,4.147742 -5.44817,5.216549 -0.094,3.5698 -3.61932,13.302993 -4.7734,13.179174 -0.64847,-0.06957 -4.2985,-0.526538 -8.11118,-1.015476 z M 359.40737,19.479773 c -1.70094,-0.746394 -5.9471,-4.576769 -9.43589,-8.511945 -8.31558,-9.3795201 -7.86339,-10.35522797 4.98514,-10.75668657 5.20817,-0.16273173 9.77576,0.15179124 10.46081,0.72032761 0.9544,0.79208326 0.94935,3.00549176 -0.0235,10.28885896 -0.6817,5.103819 -1.27422,9.392172 -1.31671,9.529672 -0.14659,0.474345 -1.58718,0.0825 -4.66989,-1.270227 z M 773.80768,12.182856 C 769.56215,8.8506661 769.10987,8.0953327 769.05768,4.25 L 769,0 h 9.78824 9.78824 l 3.66281,4.3818993 3.66281,4.3818993 -7.70105,3.2390994 c -4.23558,1.781504 -8.15105,3.379435 -8.70105,3.550956 -0.55,0.171522 -3.11154,-1.345428 -5.69232,-3.370998 z"
       id="path821"
       inkscape:connector-curvature="0" />
    <path
       style="fill:#52af99"
       d="m 0,183.48315 v -26.51684 l 4.75,2.43708 c 9.184363,4.71221 8.918654,4.08201 5.742351,13.61958 l -2.7808213,8.35005 1.2849427,12.97402 C 10.210274,206.60275 10.179996,207.39522 8.449578,208.66053 7.4420675,209.39724 5.1287491,210 3.3088704,210 H 0 Z m 0,-42.39217 c 0,-11.085 1.5717198,-11.85404 4.2237398,-2.06665 0.9480569,3.49884 1.6230569,6.38721 1.5,6.4186 C 5.6006829,145.47432 4.2625,146.59094 2.75,147.92431 L 0,150.34863 Z m 74,-6.64201 v -12.55102 l -3.54041,-1.47928 -3.540409,-1.47928 -9.15663,7.02862 -9.15663,7.02862 -2.55296,-2.36012 c -1.82667,-1.68869 -4.766795,-2.72572 -10.334728,-3.64521 -4.279972,-0.7068 -8.104972,-1.78148 -8.5,-2.38819 -0.395028,-0.60671 -2.077682,-5.363 -3.739231,-10.56954 -2.875971,-9.01198 -3.198538,-9.534 -6.719236,-10.87398 -3.55355,-1.3525 -3.888701,-1.28534 -8.5665488,1.71642 C -0.7206462,110.59602 0,115.0729 0,53.977252 V -0.04549609 l 71.879891,0.09212421 71.879889,0.09212421 1.70575,3.18062387 c 1.58419,2.9539502 1.59275,3.6660985 0.12011,9.9926768 C 144.71354,17.058682 144,21.150767 144,22.405575 c 0,1.832672 -1.28481,2.878418 -6.53135,5.316066 -5.67553,2.636965 -7.70654,4.418685 -15.5,13.597504 -9.75205,11.485559 -10.65716,13.988881 -7.41078,20.496404 0.85683,1.717554 1.79628,4.599191 2.08767,6.403638 0.50583,3.132404 0.11992,3.60877 -8.53126,10.530813 -4.98358,3.9875 -9.446846,7.25 -9.918361,7.25 -0.471515,0 -1.590595,-5.907106 -2.486845,-13.126902 -0.896249,-7.219796 -1.853353,-13.35071 -2.126896,-13.624253 -0.273543,-0.273543 -4.545446,3.202456 -9.493119,7.724443 -7.966617,7.281189 -9.068457,8.706525 -9.631147,12.458811 -1.091978,7.281829 -1.529519,7.455465 -8.929272,3.543528 C 61.9127,81.064032 57.770723,78.27858 56.324246,76.785734 L 53.694289,74.071469 55.38148,64.785734 C 58.586975,47.143761 57.152752,49.38434 69.625318,42.533658 l 11.113828,-6.104382 -3.904141,-7.759288 c -2.147278,-4.267608 -4.62425,-8.035619 -5.504381,-8.373357 -0.920423,-0.3532 -5.567653,1.356739 -10.939243,4.025071 l -9.339003,4.639141 -6.15152,-1.914568 -6.15152,-1.914568 -10.544321,6.830521 -10.544322,6.830521 5.595493,5.866289 c 4.202179,4.405547 5.901877,7.083055 6.825923,10.752774 1.067631,4.239949 1.021044,5.039591 -0.352109,6.043665 -0.870396,0.636449 -7.335771,1.699386 -14.367499,2.362081 -7.0317284,0.662695 -13.1730029,1.592942 -13.6472769,2.067216 -0.92928241,0.929282 7.2145988,18.002465 9.4465349,19.804122 1.017529,0.821367 3.684296,-0.449144 11.12772,-5.301508 9.33617,-6.086244 9.897347,-6.311079 12.118938,-4.855437 1.828059,1.19779 2.680701,3.295805 3.961296,9.747184 0.897511,4.521476 1.631489,9.661747 1.631062,11.422824 -6.44e-4,2.65358 0.744189,3.714511 4.349039,6.194711 4.303967,2.96121 4.409453,2.97889 10.007909,1.67748 4.408261,-1.02473 6.7816,-2.36617 10.7443,-6.072813 5.833424,-5.456485 4.006221,-6.218059 14.713383,6.132503 C 83.216934,108.55745 86,112.40433 86,113.18246 c 0,0.77813 2.174767,4.9398 4.832815,9.24816 l 4.832814,7.83338 -1.312261,7.54628 c -0.721744,4.15046 -1.884011,7.90916 -2.582815,8.35269 -0.698804,0.44352 -4.983053,0.8133 -9.520553,0.82172 L 74,147 Z m 929.9725,-53.090881 c -1.3599,-0.903051 -5.92345,-5.018656 -10.14127,-9.145788 l -7.66877,-7.503877 3.13383,-6.355082 c 1.72361,-3.495295 3.84344,-6.580304 4.71075,-6.855575 0.8673,-0.275271 5.15802,-3.989441 9.53496,-8.25371 10.8664,-10.586735 22.3961,-19.845137 25.6838,-20.624153 2.3046,-0.546061 2.971,-1.532531 4.3119,-6.382892 0.8723,-3.155357 2.0646,-6.7129022 2.6496,-7.9056569 0.585,-1.1927547 0.8601,-3.5552547 0.6113,-5.25 L 1036.3464,0 H 1066.1732 1096 v 8.3450124 c 0,7.0750206 0.3044,8.6204646 2,10.1549876 1.7128,1.550094 2,3.079967 2,10.654988 V 38 h -10.4832 -10.4831 l -2.5169,-4.966756 C 1074.9727,29.986096 1074,26.382473 1074,23.709303 v -4.357185 l -7.5406,-2.364838 -7.5405,-2.364838 -8.7176,8.677179 c -8.6603,8.620218 -8.7152,8.706638 -8.3606,13.164972 0.2726,3.428226 -0.2567,5.585602 -2.2419,9.137554 -1.8725,3.350251 -2.5988,6.108374 -2.5988,9.868818 0,6.765317 -1.5168,8.102055 -11.5949,10.218295 -4.3478,0.912963 -8.431,2.056096 -9.0738,2.540295 -0.6428,0.4842 -3.0254,4.005631 -5.2946,7.825404 C 1008.7674,79.874732 1006.8059,83 1006.6778,83 c -0.128,0 -1.3454,-0.73886 -2.7053,-1.641911 z M 902,28.959785 c -6.87461,-1.38021 -9.97463,-2.486777 -11.21744,-4.004121 -1.28731,-1.571675 -3.917,-2.449789 -10.5,-3.506199 C 868.91057,19.62454 868,18.619248 868,7.889216 V 0 h 11.86711 11.86712 l 2.64707,4 c 2.75692,4.1659802 4.04606,4.5982113 9.257,3.1037337 2.94931,-0.8458512 3.47589,-0.5423267 9.36141,5.3959723 l 6.23631,6.292239 -1.94634,5.854028 C 914.98157,31.588107 915.02717,31.575241 902,28.959785 Z"
       id="path819"
       inkscape:connector-curvature="0" />
  </g>
</svg>
