<?xml version="1.0" encoding="UTF-8" standalone="no"?>
<svg
   xmlns:dc="http://purl.org/dc/elements/1.1/"
   xmlns:cc="http://creativecommons.org/ns#"
   xmlns:rdf="http://www.w3.org/1999/02/22-rdf-syntax-ns#"
   xmlns:svg="http://www.w3.org/2000/svg"
   xmlns="http://www.w3.org/2000/svg"
   xmlns:sodipodi="http://sodipodi.sourceforge.net/DTD/sodipodi-0.dtd"
   xmlns:inkscape="http://www.inkscape.org/namespaces/inkscape"
   viewBox="0 0 899.99995 899.99994"
   width="100%"
   height="100%"
   preserveAspectRatio="none"
   version="1.1"
   id="svg4"
   sodipodi:docname="big-note3.svg"
   inkscape:version="0.92.2 (5c3e80d, 2017-08-06)">
  <metadata
     id="metadata10">
    <rdf:RDF>
      <cc:Work
         rdf:about="">
        <dc:format>image/svg+xml</dc:format>
        <dc:type
           rdf:resource="http://purl.org/dc/dcmitype/StillImage" />
        <dc:title></dc:title>
      </cc:Work>
    </rdf:RDF>
  </metadata>
  <defs
     id="defs8" />
  <sodipodi:namedview
     pagecolor="#ffffff"
     bordercolor="#666666"
     borderopacity="1"
     objecttolerance="10"
     gridtolerance="10"
     guidetolerance="10"
     inkscape:pageopacity="0"
     inkscape:pageshadow="2"
     inkscape:window-width="1920"
     inkscape:window-height="1017"
     id="namedview6"
     showgrid="false"
     inkscape:zoom="2.0000001"
     inkscape:cx="221.67961"
     inkscape:cy="834.10591"
     inkscape:window-x="-8"
     inkscape:window-y="-8"
     inkscape:window-maximized="1"
     inkscape:current-layer="svg4"
     inkscape:measure-start="0,0"
     inkscape:measure-end="0,0" />
  <path
     style="fill:#F5F2DC;stroke-width:0.21536888"
     d="m 657.44155,896.55234 c 16.14308,-6.85013 56.62068,3.10555 80.34066,-1.6221 65.38163,-1.59748 -7.47359,1.8618 105.31622,1.1845 l 54.87546,0.489 c 0,-0.8738 0.54913,-1.6919 0.76404,-2.5545 0.18485,-1.0206 0.13394,-2.0455 -0.15204,-3.0626 -2.46166,-7.8142 -0.63031,-10.1763 -0.81279,-11.4297 -0.0573,-0.4341 0.24355,-1.1311 -0.12895,-1.5372 -0.34386,-0.3726 -1.90952,-0.3392 -2.91246,-0.4118 -1.22579,-0.091 -2.45397,-0.1794 -3.68291,-0.2664 0,-0.05 3.50056,-0.2383 3.91129,-0.27 0.60176,-0.047 0.32109,-3.5322 0.81778,-3.6775 0.49665,-0.1453 1.79472,3.0621 1.78996,2.7976 -3.60297,-5.6268 1.23293,-8.5394 0.75506,-11.0697 0.0478,-0.3559 0.1383,-0.6582 0.14306,-0.9955 0,-0.829 -0.0863,-1.6618 -0.26302,-2.489 -0.16239,-0.7452 -0.42442,-1.5121 -0.0853,-2.2499 0.053,-0.078 0.0785,-0.1587 0.0763,-0.2391 h 0.052 v -0.1864 c -0.0286,-0.9315 -2.74488,-7.5693 -10.88751,-8.1826 -2.07099,-3.6481 10.54402,2.3574 10.67773,1.0383 -4.07137,-4.6493 0.50771,-15.7626 -1.54283,-16.4432 -1.11753,-0.3596 -2.86519,-0.6116 -4.14031,-0.9208 -1.10797,-0.272 -1.68124,-0.3719 -0.27713,-0.5937 1.22414,-0.1652 2.49608,-0.2708 3.78684,-0.3136 1.24171,-0.067 1.32363,2e-4 1.65317,-0.4209 0.47757,-0.585 0.0671,-1.466 0.11483,-2.0827 -0.35916,-31.7952 -2.51822,-41.3707 0.48177,-54.8575 0.0444,-0.2005 0.22447,-0.7154 0,-0.9036 -0.40117,-0.3391 -0.88363,-0.3 -1.82445,-0.3727 -4.47653,-0.7211 -4.38039,0.2363 -0.35347,-1.0672 0.8835,-0.3149 0.65498,-0.4792 0.22517,-0.9673 -0.47758,-0.5589 -1.18446,-0.5592 -0.35348,-1.1181 0.42565,-0.2472 0.79155,-0.5092 1.09314,-0.7827 0.28178,-0.3 0.0857,-0.7538 0.47728,-1.0127 0.72592,-0.5012 1.23683,-0.2746 1.23683,-0.9118 0,-0.6074 0.47779,-1.2008 0.58763,-1.8082 0.20059,-1.265 -0.24865,-2.5032 -0.42532,-3.7626 -0.15283,-1.0843 -0.26725,-2.1702 -0.57287,-3.2508 -0.3391,-1.2035 -0.0955,-2.3882 -0.25789,-3.5899 -0.0812,-0.6092 -0.47707,-0.8479 -1.35102,-1.3136 -0.79279,-0.4173 -1.01708,-0.8714 -1.18423,-1.3781 -0.21606,-0.6067 -0.19875,-1.2235 0.052,-1.8282 9.66018,-16.3669 -4.00039,-12.6987 2.50254,-35.8598 0.11072,-0.6077 0.32905,-1.2115 0.65369,-1.8073 0.3343,-0.5011 1.1703,-0.766 -0.35796,-0.9672 -1.12709,-0.1472 -2.63609,-0.1485 -3.42887,-0.5118 -0.51581,-0.2348 -1.47087,-0.9725 -0.67808,-1.2072 0.79279,-0.2348 3.49146,-0.074 3.96903,-0.5328 0.20058,-0.1863 -0.33921,-0.604 -0.40608,-0.8145 -0.0836,-0.3661 -0.096,-0.734 -0.0379,-1.1009 0.0573,-0.6911 0.61546,-1.1006 -1.33306,-1.3336 -1.43271,-0.1695 -3.01785,-0.278 -4.12106,-0.6599 1.3213,-0.1789 2.64912,-0.35 3.98314,-0.5127 1.43274,-0.1864 1.57071,-0.1861 1.60891,-0.7655 0.0716,-1.1066 0.18682,-2.2745 -0.26687,-3.3681 -0.95782,-11.3976 1.67888,-22.1202 2.26838,-25.7701 1.04911,-6.9475 -3.07261,-19.1332 -0.4683,-20.3604 0.89306,-0.3726 -1.50936,0.085 -1.57619,-0.4009 -0.0573,-0.434 2.09174,-1.131 1.71924,-1.5372 -0.34385,-0.3726 -1.8396,-0.201 -2.84253,-0.2736 -0.30053,-0.8026 -2.86264,0.1271 -1.40555,-0.8964 0.60176,-0.047 3.49223,0.035 3.98891,-0.1109 1.25315,-1.258 -1.23377,-7.616 -0.72234,-9.2161 -1.0455,-0.4761 0.84611,0.7016 -3.35895,0.21 1.11753,-0.434 3.003,-0.8969 3.27042,-1.549 0.14328,-0.3503 -0.14719,-0.706 -0.0994,-1.0618 0.0478,-0.3558 0.13829,-0.6582 0.14306,-0.9954 0,-0.8291 -0.0863,-1.6618 -0.26302,-2.489 -0.16236,-0.7453 -0.42442,-1.5122 -0.0853,-2.25 0.053,-0.078 0.0786,-0.1586 0.0763,-0.2391 h 0.052 v -0.1863 c -0.0286,-0.9315 1.15721,-2.9776 1.0617,-4.0563 -1.06518,-27.7462 -5.40747,-8.1262 -1.11366,-30.7564 0.11939,-0.5812 0.0718,-1.1704 0.0718,-1.7535 0,-0.7453 2.20327,-1.0261 0.43622,-1.3391 -0.62084,-0.1118 -7.8804,-0.317 -7.93292,-0.6691 -0.0478,-0.2999 6.85865,-0.06 7.32669,-0.3491 1.09366,-0.6725 0.84915,-1.5783 0.99242,-2.359 0.24358,-1.3302 -1.63494,-3.2795 -1.42479,-4.6135 0.17191,-1.0843 1.68589,-0.6965 1.68589,-1.7808 -3.64909,-8.5639 1.17943,-7.5411 -1.66087,-14.0996 -0.16236,-0.5179 -3.01411,-0.039 -3.48213,-0.5382 -0.554,-0.5906 0.41048,-0.8153 1.4325,-1.2009 1.23692,-0.4602 1.68545,-0.5773 1.58517,-1.2163 -0.10031,-0.639 1.56515,-3.7974 1.67499,-4.4308 0.22922,-1.3209 -1.26378,-0.128 -1.26378,-1.4527 0,-2.748 3.23242,-3.7736 0.47728,-8.2252 v -3.9362 c 0,-0.2124 0.22447,-0.7155 0,-0.9037 -0.40117,-0.3391 -0.88363,-0.3 -1.82445,-0.3727 -0.79279,-0.056 -3.79162,-0.1044 -4.17367,-0.4118 0.69248,-0.4006 2.93665,-0.3406 3.82019,-0.6554 0.88351,-0.3149 0.65499,-0.4791 0.22517,-0.9673 -0.4776,-0.5589 -1.18446,-0.5592 -0.35347,-1.1181 5.44044,-22.6376 2.71263,-32.977 1.94827,-40.6052 0.80714,-7.5398 2.47098,-17.3954 0.50551,-17.6677 h -0.0269 c -0.16702,-0.2254 -0.183,-0.4437 0.1854,-0.5527 0.79278,-0.2348 -0.77395,-1.2389 -0.29638,-1.6972 0.20058,-0.1864 -0.3386,-0.6031 -0.40544,-0.8136 -0.0836,-0.3662 -0.0966,-0.735 -0.0385,-1.1018 0.0573,-0.6912 0.61546,-1.1008 -1.33306,-1.3336 -1.43275,-0.1696 -4.43944,-2.1353 -5.54265,-2.5172 1.3213,-0.1789 4.07068,1.5081 5.40473,1.3454 1.43271,-0.1863 1.57067,-0.1861 1.60891,-0.7655 0.66439,-4.7502 1.70592,-5.2867 1.67242,-10.7178 0.17667,-1.0731 -1.28529,-2.0631 -1.16114,-3.1381 1.37898,-9.8348 -0.45206,-1.0956 -3.20884,-8.457 3.20916,-0.1763 3.84656,1.0873 4.22179,-3.1681 0.1767,-1.2184 0.29105,-2.4388 0.47728,-3.6572 -2.01851,-11.5712 2.54969,-29.197 -1.7,-33.0336 0.45372,-1.0936 -0.22988,-2.4278 -0.30151,-3.5344 -0.0382,-0.5795 -0.1762,-0.5792 -1.60891,-0.7655 -1.33405,-0.1627 -0.81301,0.083 -2.13431,-0.096 1.10318,-0.3819 0.83948,-0.9068 2.27223,-1.0763 1.94852,-0.2329 1.39038,-0.6425 1.33306,-1.3337 -0.0581,-0.3668 -0.0451,-0.7347 0.0385,-1.1008 0.0668,-0.2105 0.60602,-0.6282 0.40544,-0.8145 -0.47758,-0.4583 1.08916,-1.4625 0.29638,-1.6973 -0.3684,-0.109 -0.35242,-0.3273 -0.1854,-0.5527 h 0.0269 c 1.07963,-0.1422 0.97603,-0.3181 0.7063,-0.5845 0.0444,-0.024 0.0902,-0.05 0.13023,-0.068 0.26096,-0.1196 0.10125,-0.053 -0.14177,0.057 -0.11007,-0.1079 -0.24207,-0.2298 -0.3368,-0.3718 -0.32477,-0.5958 -0.54278,-1.1996 -0.65369,-1.8072 2.44422,-7.0142 2.17533,-6.3188 0.83396,-7.0544 -0.15382,-2.1802 -0.0398,-3.1772 0.0905,-3.599 -0.40725,0.093 -1.48737,-0.2779 -4.00688,-2.9235 4.94362,-2.4979 4.3046,-11.7517 4.06718,-90.2029 -7.31998,2.3561 -8.73215,0.3689 -0.24698,-1.0181 1.76705,-0.3129 -0.43623,-0.5947 -0.43622,-1.34 0,-0.5831 0.0475,-1.1714 -0.0718,-1.7527 -0.30073,-13.5139 1.08262,-9.3923 -2.35435,-15.175 -0.11939,-0.2012 3.38869,-1.6904 3.41733,-1.899 0.0812,-0.4863 -2.12276,0.08 -2.12276,-0.4064 -2.03756,-0.4074 0.44425,-0.3751 -0.34962,-1.3272 -0.47422,-0.5687 2.22826,1.0573 2.26645,0.4518 0.14807,-2.4313 0.65507,-2.7588 0.40672,-5.1807 -3.95234,-23.1904 0.62854,-29.1614 -0.11739,-56.2902 -5.98208,-5.9648 0.30028,-3.7099 -1.55759,-14.846 -0.41073,-2.4573 1.31308,-5.2581 -0.23351,-7.2661 2.62562,-4.3575 1.60035,-2.7858 -1.20412,-5.3062 1.94852,-0.233 1.39038,-0.6425 1.33306,-1.3336 -2.99474,-2.887 1.37896,-4.4158 0.93981,-5.1344 -0.32467,-0.5959 -0.54294,-1.2005 -0.65369,-1.8082 3.88705,-26.9339 -5.66082,-21.6627 0.23864,-43.9696 0.30562,-1.0806 0.42007,-2.1665 0.57287,-3.2509 0.1767,-1.2594 0.6259,-2.4966 0.42532,-3.7616 -0.10984,-0.6074 -0.58763,-1.2017 -0.58763,-1.8091 0,-0.6371 -0.51091,-0.4097 -1.23683,-0.9109 -0.39161,-0.2589 -0.1955,-0.7136 -0.47728,-1.0136 -0.30159,-0.2735 -0.66753,-0.5355 -1.09314,-0.7827 -0.83099,-0.5589 -0.12413,-0.5583 0.35348,-1.1172 0.42981,-0.4881 0.65833,-0.6524 -0.22518,-0.9673 -4.52901,-0.6038 -3.61537,-0.8122 0.35348,-1.0672 0.94082,-0.073 1.42328,-0.034 1.82445,-0.3728 0.33677,-4.176 -0.45094,-9.2863 -0.47728,-13.0659 0,-1.3246 0.14327,-2.6545 -0.086,-3.9754 -0.10984,-0.6334 -0.42556,-1.2691 -0.32525,-1.9081 0.10028,-0.639 -0.34825,-0.7561 -1.58517,-1.2163 -1.02202,-0.3857 2.84729,-0.8312 3.40129,-1.4218 0.46801,-0.4993 -2.65209,-0.6029 -2.48971,-1.1209 0.13851,-0.4285 -0.24826,-1.0136 -0.24826,-1.4626 -0.005,-0.685598 0.0294,-1.382498 0.0962,-2.069998 1.44867,-36.2735 -1.10406,-17.1432 1.27532,-54.243 0.76017,-3.4297 0.58225,-7.1984 0.74864,-10.4179 -2.55682,-9.8991 -0.23655,-21.1108 -0.44841,-30.4218002 H 764.82767 v -0.1227 c -0.61661,0 -1.19393,-0.7782 -1.80265,-1.0827 -0.72024,-0.2619 -1.44392,-0.1898 -2.16317,0.2154 -1.34497,0.5753 -2.72134,0.8868 -4.07552,1.0018 -2.3922,0.019 -8.98834,11.5749102 -13.42682,-0.7709 -216.45837,9.3453202 -365.76624,-4.74907 -512.92313,0.3141 -0.76252,-0.4331 -1.52883,-0.5952 -2.29402,-0.8118 -0.8887,-0.2503 -1.76189,-0.88690004 -2.65458,-0.6027 -2.0084,1.48664 -3.55395,3.03036 -3.18703,4.8117 -63.88606,-2.31701 -74.96117,-4.32886 -146.39279,-3.2279 -44.94103,-1.169 -51.13097,7.9754002 -44.94103,-1.169 -17.59289,-0.3757 -30.02319973,-0.74750004 -29.7372197,0.2718 0.40589,1.9059 -2.16614003,12.0015002 1.69228,11.3606002 3.366,23.2315 7.5052497,33.864 -0.54398,19.0276 0.16636,3.2194 -0.0108,6.9881 0.74925,10.4179 2.37937,37.0998 -0.1733,17.9695 1.27537,54.243 0.0668,0.6875 0.1005,1.3843 0.0956,2.0699 0,0.449 -0.38616,1.0341 -0.24764,1.462698 0.16237,0.5179 -2.95772,0.6215 -2.48972,1.1208 0.55402,0.5907 4.42266,1.0362 3.40064,1.4219 -1.23689,0.4601 -1.68478,0.5773 -1.58451,1.2163 0.10031,0.639 -0.21605,1.2746 -0.32588,1.9081 -0.22922,1.3209 -0.0854,2.6516 -0.0854,3.9763 -0.0263,3.7795 -0.81464,8.889 -0.47789,13.065 0.40116,0.3391 0.88359,0.3001 1.82442,0.3728 0.7928,0.056 3.79228,0.1044 4.17432,0.4117 -0.69249,0.4006 -2.93729,0.3406 -3.82083,0.6555 -0.8835,0.3148 -0.65428,0.4791 -0.22453,0.9672 0.47761,0.559 1.18448,0.5583 0.35348,1.1173 -0.42562,0.2471 -0.79153,0.5092 -1.09312,0.7827 -0.28177,0.3 -0.0863,0.7546 -0.47794,1.0136 -0.72591,0.5011 -1.2368,0.2738 -1.2368,0.9108 0,0.6075 -0.4778,1.2018 -0.58767,1.8091 -0.20058,1.265 0.24862,2.5023 0.42534,3.7617 0.15277,1.0844 0.26724,2.1703 0.57286,3.2508 0.85458,17.3191 2.48771,48.873 0.52542,50.9122 -0.0573,0.6912 -0.61612,1.1007 1.33238,1.3336 -2.80444,2.5205 -3.82974003,0.9488 -1.20408,5.3062 -1.54659,2.0081 0.17784,4.8088 -0.23287,7.2662 -0.17672,1.0731 -0.42047,2.1458 -0.54464,3.2208 -0.12891,1.1495 -0.70219,2.4092 0.3246,3.4935 0.3429,0.4432 0.54169,0.9011 0.59208,1.3636 0.10402,0.2625 0.13585,0.5285 0.095,0.7936 -0.0525,0.1695 -0.47709,0.449 -0.40542,0.6073 0.22444,0.4154 2.53139,0.7306 2.53139,1.1182 0,0.3483 -2.13966,0.8045 -2.77008,1.0653 -1.76704,0.7341 -1.24678,2.2521 -1.38051,3.1836 -0.12591,0.9583 1.68093,29.6442 4.18781,36.2426 -4.97972003,1.8956 -2.27391,2.551 -2.96508,8.3461 -0.0528,0.078 -0.0796,0.1586 -0.0763,0.2391 h -0.0526 v 0.1864 c 0.0286,0.9315 -1.1566,2.9775 -1.06106,4.0562 0.10031,1.3209 -0.0169,5.9007 -0.15075,7.2198 -0.24835,2.4219 0.25865,2.7495 0.40673,5.1808 0.0384,0.6055 2.74134,-1.0205 2.26711,-0.4519 -0.79388,0.9522 1.68726,0.9199 -0.35025,1.3273 0,0.4862 -2.20397,-0.079 -2.12278,0.4073 0.0286,0.2086 3.53733,1.6969 3.41794,1.8981 -3.43697,5.7827 -2.0536,1.6611 -2.3543,15.175 -0.11939,0.5813 -0.0719,1.1695 -0.0719,1.7527 0,0.7452 -2.20392003,1.027 -0.43688,1.3399 0.62082,0.1118 6.03286,0.7052 6.08536,1.0573 -1.37395,6.4005 -1.02993,-1.9917 -6.33173,-0.039 8.13881,12.7076 -4.50497,29.6962 0.83592,43.8533 0,0.2124 -0.22444,0.7154 0,0.9036 8.0546697,1.5887 3.50442,0.6487 -0.39455,2.9699 -0.22092,0.2363 0.94154,4.0208 -0.69412,5.0708 -0.20058,1.265 0.24862,2.5022 0.42534,3.7617 1.84341,13.1816 -2.72353003,22.0697 3.89461,33.6445 -2.51953,2.6455 -3.59962,3.0156 -4.00687,2.9226 0.13017,0.4218 0.24365,1.4197 0.0898,3.5999 -1.34138003,0.7356 -1.61025003,0.039 0.83395,7.0534 -0.1109,0.6076 -0.32892,1.2124 -0.65367,1.8081 -0.0947,0.1421 -0.22673,0.2631 -0.3368,0.371 -0.24304,-0.11 -0.40275,-0.1769 -0.14179,-0.057 0.0398,0.018 0.0865,0.044 0.13087,0.068 -0.26972,0.2664 -0.37397,0.4424 0.70566,0.5845 h 0.0267 c 0.16706,0.2254 0.183,0.4437 -0.18539,0.5527 -0.7928,0.2348 0.77395,1.2389 0.29639,1.6972 -0.20058,0.1863 0.33923,0.604 0.40608,0.8145 0.0835,0.3662 0.0966,0.7341 0.0384,1.1009 -0.0573,0.6912 -0.61612,1.1008 1.33242,1.3336 1.43274,0.1696 1.16968,0.6945 2.27288,1.0764 -1.32131,0.1788 -0.80091,-0.066 -2.13497,0.096 -1.43273,0.1863 -1.57069,0.186 -1.60889,0.7655 -0.0716,1.1066 -0.75459,2.4408 -0.30089,3.5344 -4.24969,3.8366 0.31786,21.4624 -1.70063003,33.0336 0.18624003,1.2184 0.30057003,2.4387 0.47729003,3.6571 0.37523,4.2555 1.01264,2.9919 4.22179,3.1682 -2.75681,7.3615 -4.58718,-1.3778 -3.20822,8.457 0.12418,1.075 -1.33842,2.065 -1.16175,3.1381 -0.0337,5.4311 1.008,5.9676 1.67241,10.7178 0.0384,0.5794 0.17616,0.5791 1.60889,0.7655 1.33406,0.1626 4.08342,-1.5243 5.40474,-1.3455 -1.10321,0.3819 -4.10991,2.3477 -5.54265,2.5172 -1.94854,0.2329 -1.38975,0.6434 -1.33242,1.3346 0.0581,0.3668 0.045,0.7347 -0.0384,1.1008 -0.0669,0.2105 -0.60666,0.6273 -0.40608,0.8137 0.47756,0.4583 -1.08919,1.4633 -0.29639,1.6981 0.36839,0.109 0.35245,0.3273 0.18539,0.5527 h -0.0267 c -1.96547003,0.2723 -0.30164,10.127 0.5055,17.6668 3.87661,4.2457 -10.0643,25.4937 1.94892,40.606 0.831,0.5589 0.12413,0.5584 -0.35348,1.1173 -0.42975,0.4881 -0.65897,0.6524 0.22453,0.9673 0.88354,0.3148 3.12834,0.2548 3.82083,0.6554 -0.38204,0.3074 -3.38152,0.3559 -4.17432,0.4118 -0.94083,0.073 -1.42326,0.034 -1.82442,0.3727 -0.22444,0.1882 0,0.6912 0,0.9036 v 3.9361 c -2.75512003,4.4516 0.47789,5.4772 0.47789,8.2252 0,1.3247 -1.49362,0.1318 -1.2644,1.4527 0.10982,0.6334 1.77595,3.7918 1.67564,4.4308 -0.10027,0.639 0.34762,0.757 1.58451,1.2172 1.02202,0.3856 1.98717,0.6094 1.43316,1.2 -0.468,0.4993 -3.31978,0.02 -3.48216,0.5382 -2.84030003,6.5585 1.9876,5.5357 -1.66148,14.0996 0,1.0843 1.51462,0.6965 1.68651,1.7808 0.21019,1.334 -1.66903,3.2833 -1.42542,4.6135 0.14325,0.7807 -0.10125,1.6865 0.99239,2.359 0.46805,0.2888 7.3751297,0.049 7.3273597,0.3491 -0.0525,0.3521 -7.3127297,0.5573 -7.9335497,0.6691 -1.76704003,0.313 0.43688,0.5938 0.43688,1.339 0,0.5832 -0.0475,1.1724 0.0719,1.7536 4.2938,22.6302 -0.0485,3.0102 -1.1137,30.7564 -0.0955,1.0787 1.08965,3.1248 1.06106,4.0563 v 0.1873 h 0.0526 c -0.005,0.081 0.0234,0.1613 0.0763,0.2391 0.33909,0.7378 0.0764,1.5047 -0.086,2.25 -0.17667,0.8272 -0.26301,1.6599 -0.26301,2.489 0.005,0.3372 0.096,0.6396 0.14372,0.9954 0.0478,0.3558 -0.24338,0.7115 -0.10008,1.0618 0.26742,0.6521 2.15287,1.1159 3.27042,1.5499 -4.20506,0.4916 -2.31347,-0.6861 -3.35897,-0.21 0.43509,7.5935 -3.17728003,8.9284 3.26658,9.3261 -4.99022003,-2.5463 -5.78527003,13.5054 -4.57336003,23.4685 1.72491003,11.4423 4.14300003,4.8338 1.49091003,15.2832 0.12417,1.0749 0.36792,2.1477 0.54464,3.2208 0.41071,2.4573 1.24532,4.8143 0.23287,7.2661 -0.4537,1.0936 -0.33853,2.2615 -0.26686,3.3681 0.038,0.5794 0.17677,0.5791 1.60955,0.7654 1.33401,0.1628 2.66119,0.3339 3.9825,0.5128 -1.1032,0.3819 -2.68838,0.4904 -4.12111,0.6599 -1.9485,0.2329 -1.3897,0.6425 -1.33238,1.3336 0.0581,0.3669 0.045,0.7348 -0.0384,1.1009 -0.0669,0.2105 -0.60605,0.6282 -0.40547,0.8145 0.47756,0.4584 3.17559,0.298 3.96839,0.5327 0.7928,0.2348 -0.16228,0.9725 -0.67805,1.2073 -0.7928,0.3633 -2.30184,0.3655 -3.4289,0.5127 -1.52827,0.2012 -0.69225,0.4651 -0.35794,0.9663 0.32461,0.5958 0.54295,1.1996 0.65367,1.8073 6.50292,23.1611 -7.15763,19.4938 2.50256,35.8607 0.25069,0.6047 0.26864,1.2206 0.0526,1.8273 -0.16716,0.5067 -0.39211,0.9607 -1.18486,1.3781 -0.87399,0.4657 -1.26919,0.7044 -1.35038,1.3136 -0.16242,1.2017 0.0805,2.3873 -0.25856,3.5908 -0.30563,1.0806 -0.42005,2.1665 -0.57286,3.2508 -0.17667,1.2594 -0.62592,2.4967 -0.42534,3.7617 0.10987,0.6074 0.58767,1.2008 0.58767,1.8082 0,0.6372 0.51089,0.4106 1.23679,0.9118 0.39165,0.2589 0.19618,0.7127 0.47794,1.0127 0.3016,0.2735 0.6675,0.5355 1.09313,0.7827 0.831,0.5589 0.12412,0.5592 -0.35349,1.1181 -0.42975,0.4881 -0.65897,0.6524 0.22453,0.9673 0.88355,0.3148 3.12835,0.2548 3.82083,0.6554 -0.38203,0.3074 -3.38151,0.3559 -4.17431,0.4118 -0.94083,0.073 -1.42327,0.034 -1.82442,0.3727 -0.22444,0.1882 -0.0445,0.7031 0,0.9036 -2.09006003,31.2913 10.1617497,62.5598 0.0764,75.6324 0.13368,1.3191 0.46331,2.6272 0.36304,3.9481 -0.0955,1.0787 -0.54426,2.2656 -0.57286,3.1972 v 0.1863 h 0.0526 c -0.005,0.08 0.0234,0.1605 0.0763,0.2382 0.33909,0.7378 0.0765,1.5047 -0.086,2.2499 -0.17667,0.8272 -0.26302,1.66 -0.26302,2.489 0.005,0.3373 0.096,0.6396 0.14372,0.9955 -0.47789,2.5303 4.35741,5.4429 0.75441,11.0697 -0.005,0.2645 -0.10022,0.5128 0.39647,0.6581 0.49668,0.1453 1.61015,0.1752 2.21193,0.2218 0.41072,0.032 3.9106,0.2197 3.9106,0.27 -1.22892,0.087 -2.45644,0.1757 -3.68222,0.2664 -1.00294,0.073 -2.56927,0.039 -2.91314,0.4118 -0.37252,0.4061 -0.0716,1.1031 -0.12891,1.5372 -0.18248,1.2533 1.64949,3.6155 -0.81215,11.4297 -0.28599,1.0171 -0.33694,2.042 -0.15207,3.0626 0.21493,0.8626 0.76407,1.6807 0.76407,2.5545 l 54.0625297,0.1692 c 7.58419,4.2785 4.56159,-3.0858 12.7185,-1.5957 -7.95196,9.49107 26.65412,-11.84084 66.26269,2.5584 51.14206,-1.93353 74.44385,-1.52165 112.91204,2.13033 49.35629,-3.95975 11.93335,-11.26583 42.225,-0.35583 323.16349,-3.84257 235.41693,-9.29293 366.43372,-1.7522 z M 1.9121603,394.85944 c -0.17559,-0.569 -0.37912,-0.087 0,0 z m 896.9765197,1.2053 c 0.37916,-0.086 0.17562,-0.5688 0,0 z"
     id="path2"
     inkscape:connector-curvature="0"
     sodipodi:nodetypes="ccccccccccccccccccccccccccccccccccccsccccccccccccccccccccccccccccccsccccccccscccccccccccscscccccccccccccccccccccccccccccccccccccccccccccccccccccccccccccsccccccccccccccccccccccccccccccccccccccccccccccccccsccccccccccccscccccccccccccccscccccccccccccccccccccccccccccccccccccccccccccccccscscccccccccccsccccccccscccccccccccccccccccccccccccscccccccccccccccccccccccccccccccccccccc" />
</svg>
