<?xml version="1.0" encoding="UTF-8" standalone="no"?>
<svg
   xmlns:dc="http://purl.org/dc/elements/1.1/"
   xmlns:cc="http://creativecommons.org/ns#"
   xmlns:rdf="http://www.w3.org/1999/02/22-rdf-syntax-ns#"
   xmlns:svg="http://www.w3.org/2000/svg"
   xmlns="http://www.w3.org/2000/svg"
   xmlns:sodipodi="http://sodipodi.sourceforge.net/DTD/sodipodi-0.dtd"
   xmlns:inkscape="http://www.inkscape.org/namespaces/inkscape"
   viewBox="0 0 1919.9999 1920"
   version="1.1"
   id="svg4"
   sodipodi:docname="big-note3.svg"
   width="100%"
   height="100%"
   preserveAspectRatio="none"
   inkscape:version="0.92.2 (5c3e80d, 2017-08-06)">
  <metadata
     id="metadata10">
    <rdf:RDF>
      <cc:Work
         rdf:about="">
        <dc:format>image/svg+xml</dc:format>
        <dc:type
           rdf:resource="http://purl.org/dc/dcmitype/StillImage" />
        <dc:title></dc:title>
      </cc:Work>
    </rdf:RDF>
  </metadata>
  <defs
     id="defs8" />
  <sodipodi:namedview
     pagecolor="#ffffff"
     bordercolor="#666666"
     borderopacity="1"
     objecttolerance="10"
     gridtolerance="10"
     guidetolerance="10"
     inkscape:pageopacity="0"
     inkscape:pageshadow="2"
     inkscape:window-width="1920"
     inkscape:window-height="1017"
     id="namedview6"
     showgrid="false"
     inkscape:zoom="1.4142136"
     inkscape:cx="184.81294"
     inkscape:cy="1785.9976"
     inkscape:window-x="-8"
     inkscape:window-y="-8"
     inkscape:window-maximized="1"
     inkscape:current-layer="svg4"
     inkscape:measure-start="0,0"
     inkscape:measure-end="0,0" />
  <path
     style="fill:#f1eee5;stroke-width:0.45945358"
     d="m 857.09664,1.6831898 c 3.873,-0.056 6.7744,0.495 7.9143,1.8501 1.0266,1.3949 2.2257,12.0160002 2.8343,16.5853002 -5.3848,-22.4025002 34.1971,-12.2264002 34.2413,-11.9367002 v 0.091 c 0.3393,0.5607 0.6679,0.6142 0.8321,-0.6225 0.3534,-2.6615 1.8664,2.5981002 2.5564,0.9948 0.2805,-0.6733 0.908,1.1389 1.2249,1.3634002 0.5512,0.2805 1.105,0.3231 1.6573,0.128 2.0746,29.4778 -14.1788,-18.4244002 5.7986,23.082 0.2693,-4.4357 -2.2704,-13.666 -2.0255,-18.1445 0.2805,-4.8098 0.2801,-5.2727002 1.1523,-5.4010002 7.15128,-2.2305 7.95905,-5.7269 16.13532,-5.6144 1.61554,-0.5932 3.10452,4.3149 4.72286,3.8981 14.80588,-4.6293 1.65064,1.5183 12.73307,10.7730002 0.26536,-10.7734002 3.31775,-0.2749 9.72412,-1.5346 1.83429,-0.5932 -1.28334,-13.6166002 0.55096,-14.2419002 17.41991,6.7764 43.95483,-8.559 49.73063,5.7075 1.6464,-1.5231 3.6549,0.7718 5.3209,1.0123 0.8723,0.1283 -14.23991,7.2613002 -13.95949,12.0711002 0.24496,4.4785 14.98759,-3.9399 15.25689,0.4958 0.575,-3.7035 1.3639,-2.8196 1.6191,-7.6293 0.3506,-6.5414002 0.9684,-4.6665002 2.0089,-4.4741 0.5523,0.1951 1.1062,0.1525 1.6574,-0.128 0.317,-0.2245002 0.9443,-2.0367002 1.2248,-1.3634002 0.69,1.6033002 2.2032,-3.6563 2.5565,-0.9948 0.1643,1.2368 0.4928,1.1832 0.8321,0.6225 v -0.091 c 0.214,-3.6244 0.4788,-3.2753 0.88,-2.3698 0.036,-0.1489 0.075,-0.3038 0.1026,-0.4383 0.18,-0.8761 0.081,-0.3408 -0.085,0.4751 0.1625,0.3695 0.3447,0.8126 0.5584,1.1306 0.8969,1.0903 1.806,1.8231 2.7207,2.1954 10.5594,-8.2054 9.5126,-7.3016 10.6199,-2.7985 3.2848,0.5168 4.7854,0.1331 5.4195,-0.3045 -0.1405,1.3661 0.4156,4.9920002 4.4,13.4532002 17.4253,-22.2175002 30.8045,-6.8864 50.6489,-13.0750002 1.8959,-0.5932 3.7587,-2.1007 5.6631,-1.4273 1.5806,5.4909002 7.2781,1.5892 7.6338,2.331 0.8415,2.7897002 0.01,9.4848002 0.8485,7.8815002 0.7348,-1.4429 0.9808,-2.2116 1.4548,0.7544 0.474,2.9661 0.3851,10.5001 0.988,12.8248 0.4628,-1.2826 0.5358,-11.3502 0.62,-14.0117 0.1094,-3.1584 0.05,-4.7796 0.5611,-6.1263002 0.2832,-0.7536 1.0406,0 1.3604,0 22.0561,-4.5897 27.5636,8.3676002 48.4285,-2.4552 2.9396,17.7986002 13.0982,-12.8461 17.5318,20.9041002 0.5301,-0.1764 1.4234,-18.3428002 1.5916,-20.4271002 0.4713,-5.932 0.894,1.4662 2.0159,1.4662 0.8779,0 1.7648,-0.1604 2.6399,0.2405 20.3446,1.0094 14.1384,-3.6354 22.8439,7.9028002 0.303,0.4008 2.5448,-11.3770002 2.859,-11.4732002 0.732,-0.2725 -0.1189,7.1271002 0.6131,7.1271002 0.6134,6.8403 0.5647,-1.4898 1.9981,1.1752 0.8562,1.592 -1.5931,-7.4817002 -0.6816,-7.6099002 3.6603,-0.497 4.1533,-2.199 7.7994,-1.3653 1.9858,0.4488 3.4317,7.8621002 5.4203,7.5254002 1.624,-0.3207 10.1543,-3.3605002 11.5567,-3.4567002 h 0.2805 v 0.1746 c 0.1212,-0.01 0.2429,0.078 0.36,0.256 8.7241,2.3203002 9.7096,-6.7627 12.5633,9.9546002 9.9365,-8.4158 53.1217,-14.4810002 54.5644,-14.0583002 1.4023,0.4489 -14.8912,6.0732002 -13.7861,12.0053002 0.3926,2.1163 19.6596,1.9289 20.1841,1.9289 0.5833,0 1.0578,-7.7447 1.6833,-8.4982002 0.2384,-0.2405 0.6589,1.1850002 0.9142,1.3614002 0.3991,0.1372 0.7996,0.03 1.1947,-0.32 0.6963,-0.1693 1.3857,-0.8367 2.0529,-1.9878002 1.6323,-3.447 3.5288,-1.5228 5.2593,-1.0899 1.6184,0.4168 3.2333,1.2356 4.8488,1.8288 3.6995,1.3788002 7.9158,-4.4086 10.9389,0.7835002 6.56,-8.8145002 4.1938,-5.3733002 7.9883,4.0415 0.3505,-6.5413002 0.9671,-4.6664002 2.0076,-4.474 4.3463,10.0536 6.6478,-4.6315002 7.7296,-3.1573002 0.897,1.09 1.806,1.8236 2.7207,2.1954 40.5478,-13.0491 32.6122,19.0039002 66.1944,-0.801 1.6267,-1.0261 3.2616,-1.4107 4.8939,-1.9238 1.896,-0.5932 3.7587,-2.1007 5.6631,-1.4273 0.9143,0.3687 1.8091,1.9723 2.7234,1.9723 0.9592,0 0.6168,1.7151 1.3713,4.1521002 0.3899,1.3147 1.0744,0.6579 1.526,1.6038 0.4117,1.0125 0.8062,2.2403 1.1783,3.6692 0.8414,2.7897 0.8419,0.4184 1.6833,-1.1849 0.7349,-1.4429 0.9808,-2.2116 1.4548,0.7544 0.474,2.9661 5.092,3.83 5.6951,6.1548 0.4627,-1.2827 1.279,-5.3824 1.3631,-8.0438 0.1094,-3.1584 -5.3996,-4.0775 -4.8891,-5.4242002 6.2869,-1.1306 13.9789,1.5154002 19.6689,1.6038002 1.9942,0 3.9962,-0.4806002 5.9847,0.289 0.9537,0.3687 1.9106,1.4285 2.8726,1.0918 0.9621,-0.3367 1.1384,1.1691 1.8312,5.3216 0.5805,3.4309 2.7377,-4.9953 3.6268,-6.8551 0.7517,-1.5712002 8.3411,-0.2239002 9.1209,-0.7690002 0.645,-0.4649 -7.3924,5.3958002 -6.7165,5.3958002 1.0321,0.016 18.6795,-10.2782002 22.935,-2.0773 29.0913,-6.2675002 26.7992,-9.6326002 61.8415,-2.5248 5.1633,-2.5519002 10.837,-1.9567002 15.6837,-2.5153002 13.9942,13.3334002 50.2959,-17.7874998 28.6439,9.9012002 2.8889,-0.2726 19.9474,9.8718 22.8167,8.509 1.5344,-0.9601 -11.044,-20.0877002 -9.5075,-19.4672002 0.022,0.012 105.0824,22.8489002 0.064,0.043 l 166.9735,1.0028 117.0677,-1.0433 c 0,1.8641 1.1714,3.6093002 1.6299,5.4496002 0.3944,2.1773 0.2858,4.3638 -0.3243,6.5336 -5.2516,16.6702 -1.3447,21.7095 -1.734,24.3833 -0.1223,0.9261 0.5196,2.413 -0.2751,3.2794 -0.7335,0.795 -4.0736,0.7235 -6.2132,0.8785 -2.615,0.1935 -5.2352,0.3828 -7.8569,0.5683 0,0.1072 7.4679,0.5084 8.3441,0.5759 1.2837,0.099 0.685,7.5355 1.7446,7.8455 1.0595,0.31 3.8287,-6.5326 3.8186,-5.9682 -7.6864,12.0038 2.6302,18.2172 1.6108,23.6153 0.1018,0.7592 0.295,1.4042 0.3051,2.1236 0,1.7687 -0.1842,3.5453 -0.5611,5.3099 -0.3464,1.5898 -0.9054,3.226 -0.182,4.7999 0.113,0.1658 0.1676,0.3385 0.1629,0.51 h 0.1108 v 0.3976 c -0.061,1.9873 -5.8557,16.148 -23.2267,17.4563 -4.4181,7.7826 22.494,-5.029 22.7792,-2.215 -8.6856,9.9185 1.0831,33.6269 -3.2914,35.0787 -2.384,0.7672 -6.1124,1.3048 -8.8326,1.9646 -2.3637,0.5802 -3.5867,0.7933 -0.5912,1.2664 2.6115,0.3526 5.3249,0.5778 8.0785,0.669 2.649,0.1431 2.8238,-3e-4 3.5268,0.8979 1.0188,1.2481 0.1431,3.1275 0.245,4.4431 -0.7662,67.8298 -5.3722,88.2576 1.0278,117.0293 0.095,0.4279 0.4788,1.5263 0,1.9277 -0.8559,0.7234 -1.8851,0.6402 -3.8922,0.7952 -9.5499,1.5383 -9.3448,-0.5042 -0.7541,2.2768 1.8848,0.6717 1.3973,1.0221 0.4804,2.0634 -1.0188,1.1923 -2.5269,1.193 -0.7541,2.3854 0.908,0.5272 1.6886,1.0862 2.332,1.6698 0.6012,0.6398 0.1828,1.6079 1.0182,2.1604 1.5487,1.0691 2.6386,0.5858 2.6386,1.9451 0,1.2957 1.0193,2.5617 1.2536,3.8574 0.4279,2.6987 -0.5304,5.3402 -0.9073,8.0269 -0.3261,2.3132 -0.5702,4.6299 -1.2222,6.9351 -0.7234,2.5675 -0.2037,5.0949 -0.5501,7.6584 -0.1732,1.2997 -1.0178,1.8088 -2.8822,2.8024 -1.6913,0.8903 -2.1698,1.8589 -2.5264,2.94 -0.4609,1.2943 -0.424,2.61 0.1109,3.9 20.6084,34.9162 -8.5342,27.0908 5.3387,76.5011 0.2362,1.2963 0.702,2.5843 1.3946,3.8554 0.7132,1.0692 2.4966,1.6342 -0.7637,2.0634 -2.4044,0.314 -5.6236,0.3169 -7.3149,1.0919 -1.1004,0.5008 -3.1378,2.0747 -1.4466,2.5754 1.6913,0.5009 7.4485,0.1587 8.4673,1.1365 0.4279,0.3975 -0.7236,1.2885 -0.8663,1.7376 -0.1783,0.7811 -0.2047,1.5658 -0.081,2.3486 0.1222,1.4745 1.3129,2.3481 -2.8439,2.845 -3.0565,0.3616 -6.4381,0.5932 -8.7916,1.4079 2.8188,0.3816 5.6515,0.7467 8.4974,1.0938 3.0565,0.3975 3.3508,0.3968 3.4323,1.633 0.1528,2.3608 0.3986,4.8522 -0.5693,7.1852 -2.0434,24.315 3.5816,47.1899 4.8392,54.9764 2.2381,14.8212 -6.5549,40.8173 -0.9991,43.4353 1.9052,0.795 -3.2199,-0.1822 -3.3625,0.8553 -0.1223,0.926 4.4624,2.4129 3.6677,3.2794 -0.7335,0.7949 -3.9245,0.4287 -6.064,0.5837 -0.6412,1.7123 -6.107,-0.2713 -2.9985,1.9122 1.2837,0.099 7.45,-0.074 8.5096,0.2366 2.6734,2.6837 -2.632,16.2476 -1.541,19.661 -2.2304,1.0158 1.8051,-1.4966 -7.1657,-0.448 2.384,0.9261 6.4064,1.9136 6.9769,3.3047 0.3056,0.7472 -0.314,1.506 -0.2121,2.2651 0.1018,0.7591 0.295,1.4042 0.3051,2.1236 0,1.7686 -0.1841,3.5452 -0.5611,5.3099 -0.3463,1.5898 -0.9054,3.226 -0.182,4.7999 0.113,0.1659 0.1677,0.3383 0.1629,0.51 h 0.1108 v 0.3976 c -0.061,1.9872 2.4688,6.3521 2.265,8.6533 -2.2724,59.192 -11.5359,17.336 -2.3758,65.6136 0.2547,1.24 0.1533,2.4971 0.1533,3.741 0,1.5898 4.7003,2.1889 0.9306,2.8567 -1.3245,0.2385 -16.8116,0.6762 -16.9236,1.4273 -0.1019,0.6399 14.6318,0.1287 15.6303,0.7447 2.3331,1.4348 1.8115,3.3673 2.1171,5.0326 0.5197,2.8378 -3.4878,6.9964 -3.0395,9.8422 0.3667,2.3131 3.5965,1.486 3.5965,3.7991 -7.7847,18.2696 2.5162,16.0876 -3.5431,30.0792 -0.3464,1.1048 -6.4301,0.083 -7.4286,1.148 -1.1818,1.26 0.8757,1.7393 3.056,2.5619 2.6388,0.9817 3.5956,1.2315 3.3817,2.5948 -0.214,1.3633 3.339,8.1011 3.5733,9.4524 0.489,2.8179 -2.696,0.2731 -2.696,3.099 0,5.8625 6.8958,8.0504 1.0182,17.5472 v 8.3973 c 0,0.4531 0.4788,1.5264 0,1.9278 -0.8559,0.7234 -1.8851,0.6401 -3.8922,0.795 -1.6913,0.1193 -8.0888,0.2229 -8.9038,0.8786 1.4773,0.8545 6.2648,0.7266 8.1497,1.3983 1.8848,0.6717 1.3973,1.022 0.4804,2.0634 -1.0189,1.1923 -2.5269,1.1931 -0.7541,2.3854 11.6063,48.2934 5.7869,70.3509 4.1563,86.6244 1.7219,16.085 5.2714,37.1101 1.0784,37.6911 h -0.057 c -0.3564,0.4808 -0.3904,0.9465 0.3955,1.1791 1.6913,0.5008 -1.6511,2.643 -0.6323,3.6208 0.4279,0.3974 -0.7223,1.2865 -0.8649,1.7356 -0.1783,0.7811 -0.2061,1.5679 -0.082,2.3505 0.1222,1.4745 1.3129,2.3482 -2.8439,2.845 -3.0565,0.3617 -9.4708,4.5553 -11.8243,5.37 2.8187,0.3816 8.6841,-3.2172 11.5301,-2.8702 3.0564,0.3975 3.3507,0.397 3.4323,1.633 1.4174,10.1339 3.6393,11.2784 3.5678,22.8648 0.3769,2.2893 -2.7419,4.4013 -2.4771,6.6946 2.9418,20.98081 -0.9644,2.33715 -6.8455,18.0416 6.8462,0.37593 8.206,-2.31961 9.0065,6.75856 0.377,2.59932 0.6209,5.20271 1.0182,7.80203 -4.3062,24.68522 5.4393,62.28682 -3.6267,70.47152 0.968,2.333 -0.4904,5.1794 -0.6432,7.5402 -0.082,1.2361 -0.3759,1.2355 -3.4323,1.6329 -2.846,0.3471 -1.7345,-0.1761 -4.5532,0.2055 2.3534,0.8147 1.7909,1.9345 4.8474,2.2962 4.1568,0.4968 2.9661,1.3706 2.8439,2.8451 -0.124,0.7826 -0.096,1.5674 0.082,2.3485 0.1426,0.4491 1.2928,1.3402 0.8649,1.7376 -1.0188,0.9777 2.3236,3.12 0.6323,3.6208 -0.7859,0.2326 -0.7519,0.6982 -0.3955,1.1791 h 0.057 c 2.3032,0.3033 2.0822,0.6786 1.5068,1.247 0.095,0.051 0.1923,0.1065 0.2778,0.1454 0.5567,0.2552 0.216,0.1124 -0.3024,-0.1221 -0.2348,0.2302 -0.5164,0.4902 -0.7185,0.7931 -0.6929,1.271 -1.1579,2.5592 -1.3946,3.8554 5.2144,14.9635 4.6407,13.48 1.7792,15.0493 -0.3282,4.6512 -0.085,6.7781 0.1929,7.6779 -0.8688,-0.1984 -3.173,0.5929 -8.548,6.2369 10.5464,5.3287 9.1832,25.0702 8.6767,192.4327 -15.616,-5.0263 -18.6286,-0.787 -0.5269,2.172 3.7697,0.6676 -0.9307,1.2688 -0.9306,2.8586 0,1.244 0.1014,2.4991 -0.1533,3.7391 -0.6416,28.8297 2.3096,20.0369 -5.0226,32.3733 -0.2547,0.4293 7.2292,3.6062 7.2903,4.0513 0.1732,1.0375 -4.5286,-0.1704 -4.5286,0.8669 -4.3468,0.8692 0.9477,0.8003 -0.7458,2.8314 -1.0117,1.2133 4.7536,-2.2555 4.8351,-0.9638 0.3158,5.1867 1.3974,5.8854 0.8676,11.0522 -8.4316,49.4728 1.3409,62.2109 -0.2504,120.0858 -12.7618,12.7249 0.6406,7.9143 -3.3229,31.6714 -0.8762,5.2423 2.8013,11.2172 -0.4981,15.5011 5.6013,9.2959 3.4141,5.9429 -2.5688,11.3199 4.1568,0.4969 2.9661,1.3705 2.8439,2.845 -6.3888,6.1589 2.9417,9.4203 2.0049,10.9534 -0.6927,1.2711 -1.1583,2.561 -1.3946,3.8573 8.2924,57.4591 -12.0764,46.2138 0.5091,93.802 0.652,2.3052 0.8962,4.6218 1.2222,6.9351 0.3769,2.6867 1.3352,5.3262 0.9073,8.0249 -0.2343,1.2957 -1.2536,2.5636 -1.2536,3.8593 0,1.3592 -1.0899,0.874 -2.6386,1.9432 -0.8354,0.5524 -0.417,1.5224 -1.0182,2.1624 -0.6434,0.5834 -1.424,1.1425 -2.332,1.6697 -1.7728,1.1923 -0.2648,1.1911 0.7541,2.3835 0.9169,1.0413 1.4044,1.3917 -0.4804,2.0634 -9.6619,1.2883 -7.7128,1.7328 0.7541,2.2768 2.0071,0.155 3.0363,0.072 3.8922,0.7952 0.7184,8.9089 -0.962,19.8109 -1.0182,27.874 0,2.8259 0.3056,5.663 -0.1834,8.4808 -0.2343,1.3514 -0.9079,2.7074 -0.6939,4.0707 0.2139,1.3632 -0.7429,1.6131 -3.3817,2.5948 -2.1803,0.8227 6.0742,1.7731 7.2561,3.0331 0.9984,1.0652 -5.6578,1.2862 -5.3114,2.3912 0.2955,0.9142 -0.5296,2.1625 -0.5296,3.1204 -0.011,1.4625 0.063,2.9492 0.2053,4.4159 3.0905,77.3831 -2.3553,36.5718 2.7207,115.7182 1.6217,7.3168 1.2421,15.3566 1.5971,22.2248 -5.4546,21.1182 -0.5047,45.0365 -0.9566,64.8999 l -284.0453,-0.01 v 0.2617 c -1.3154,0 -2.547,1.6601 -3.8456,2.3098 -1.5366,0.5587 -3.0804,0.4049 -4.6148,-0.4596 -2.8693,-1.2272 -5.8055,-1.8917 -8.6944,-2.1372 -5.1034,-0.041 -14.6497,-10.3623 -28.6439,1.6446 -4.8468,-0.5031 -10.5218,0.033 -15.6851,-2.2651 -55.8521,-7.1931 -27.0523,0.5259 -81.6603,-3.8535 -1.035,-0.2021 -2.0841,-0.3058 -3.1162,-0.2909 -0.676,0 -1.5556,1.1692 -2.2007,0.7505 -0.7797,-0.4909 -0.9371,8.9414 -1.6888,7.5266 -0.8891,-1.6748 -1.5599,-13.3722 -2.1404,-10.2824 -0.6928,3.7393 -0.8691,5.0933 -1.8311,4.7901 -0.9621,-0.3032 -1.919,0.6532 -2.8726,0.9852 -1.9886,0.6929 -3.9906,0.2599 -5.9847,0.2599 -5.69,0.079 -13.3834,2.4611 -19.6703,1.4429 -0.5105,-1.2127 -0.4503,-2.6713 -0.5597,-5.5155 -0.041,-1.1606 -0.082,-3.9294 -0.1629,-6.5627 -0.355,0 -0.6687,0 -1.025,0.01 -0.1023,2.1242 -0.201,4.2532 -0.4202,5.4883 -0.474,2.6709 -0.7199,1.9781 -1.4548,0.6788 -0.8414,-1.4439 -0.8419,-3.5808 -1.6833,-1.0686 -0.3721,1.2866 -0.7666,2.393 -1.1783,3.3047 -0.4516,0.8518 -1.1361,0.2608 -1.526,1.4447 -0.7544,2.1945 -0.412,3.7391 -1.3713,3.7391 -0.9143,0 -1.809,1.4444 -2.7234,1.7764 -1.9044,0.6064 -3.7671,-0.7516 -5.6631,-1.2858 -1.6323,-0.4619 -3.2672,-0.8078 -4.8939,-1.7318 -33.5822,-17.8344 -25.6465,11.0293 -66.1944,-0.7214 -0.9147,0.3347 -1.8236,0.9947 -2.7206,1.9761 -1.0819,1.3276 -3.3834,-11.8963 -7.7297,-2.843 -1.0405,0.1734 -1.6584,1.8626 -2.009,-4.028 -3.7944,8.4781 -1.4283,11.5776 -7.9883,3.6401 -3.023,4.6755 -7.238,-0.5377 -10.9375,0.704 -1.6155,0.5342 -3.2318,1.273 -4.8501,1.6485 -1.7306,0.3897 -3.6257,2.1207 -5.258,-0.9833 -0.6672,-1.0367 -1.3566,-1.6377 -2.0529,-1.79 -0.3951,-0.3146 -0.7956,-0.4108 -1.1947,-0.2871 -0.2552,0.1588 -0.6772,1.4423 -0.9156,1.2257 -0.6254,-0.6786 -1.0985,-7.6526 -1.6819,-7.6526 -0.5245,0 -1.2127,6.4702 -1.6053,8.376 -1.1051,5.3418 -3.3903,3.7693 -4.7927,4.1735 -1.4426,0.3807 -44.628,-5.0836 -54.5616,-12.662 -2.8538,15.0541 -3.8405,6.8742 -12.5647,8.9636 -0.1171,0.1599 -0.2375,0.2427 -0.3586,0.2327 v 0.1571 h -0.2806 c -1.4023,-0.086 -4.4839,3.4983 -6.1078,3.2096 -1.9886,-0.3032 -8.8834,0.05 -10.8691,0.4539 -3.6462,0.7507 -4.1392,-0.782 -7.7994,-1.2296 -0.9115,-0.1155 1.5378,-8.2853 0.6816,-6.8517 -1.4334,2.4 -1.3861,-5.1027 -1.9995,1.057 -0.7321,0 0.1203,6.6626 -0.6117,6.4173 -0.3142,-0.086 -2.5561,-10.6918 -2.859,-10.3309 -8.7056,10.3903 -2.5006,6.2082 -22.8453,7.1173 -0.875,0.361 -1.7606,0.2173 -2.6385,0.2173 -1.1219,0 -1.5448,6.6606 -2.0159,1.3187 -0.1066,-1.1874 -0.5025,-8.1551 -0.9143,-13.1662 -1.0561,0 -2.0223,9e-4 -3.0833,0 1.5865,2.2734 3.9107,6.0194 2.4634,13.9108 -59.6842,-7.9392 -72.4706,4.2075 -135.7964,-12.2973 -3.9851,7.6211 -4.5408,10.8856 -4.3999,12.1151 -0.6341,-0.394 -2.1347,-0.7388 -5.4195,-0.2734 -1.1074,4.055 -0.061,4.8679 -10.6199,-2.5212 -0.9147,0.3353 -1.8239,0.9943 -2.7208,1.9761 -0.2138,0.2864 -0.3958,0.6855 -0.5583,1.0182 0.1655,0.7347 0.2649,1.2175 0.085,0.4287 -0.027,-0.1212 -0.067,-0.2617 -0.1026,-0.3957 -0.4012,0.8154 -0.6661,1.1305 -0.8801,-2.1333 v -0.081 c -0.3393,-0.5049 -0.6679,-0.5533 -0.832,0.5604 -0.3535,2.3967 -1.8652,-2.3396 -2.5551,-0.8959 -0.2805,0.6064 -0.9079,-1.0256 -1.2249,-1.2277 -0.5511,-0.2526 -1.1064,-0.29 -1.6587,-0.1144 -1.0405,0.1733 -1.6571,1.8606 -2.0076,-4.0299 -0.2278,-3.8652 -0.8797,-3.6675 -1.4261,-5.946 -0.081,10e-5 -0.1557,0 -0.2368,0 -0.1293,2.5979 0.1171,1.9349 -0.1012,5.529 -0.2804,4.3313 -0.2814,4.7482 -1.1537,4.8639 -1.666,0.2165 -3.6746,2.2812 -5.3209,0.9095 -53.82533,8.5832 -63.11571,8.0958 -93.59556,-0.9095 -0.8722,-0.1156 -0.8731,-0.5326 -1.1536,-4.8639 -0.087,-1.4256 0.1821,-3.3963 0.5446,-5.5116 h -1.2399 c -0.5422,2.2585 -0.9785,4.396 -1.0688,5.9286 -0.3506,5.8905 -0.9672,4.2032 -2.0077,4.0299 -0.5523,-0.1756 -1.1062,-0.1382 -1.6573,0.1144 -0.317,0.2021 -0.9458,1.8341 -1.2263,1.2277 -0.6899,-1.4437 -2.2016,3.2926 -2.5551,0.8959 -0.1641,-1.1137 -0.4928,-1.0653 -0.8321,-0.5604 v 0.081 c -0.4099,5.9418 -15.247,0.9118 -26.5979,-1.5282 -1.9773,0.2742 -3.8238,3.9987 -5.8067,4.0997 -0.7517,0.029 -1.8809,0.8177 -2.3744,-2.8061 -0.3647,-2.7432 0.859,-7.5411 0.5364,-10.5152 -0.6086,4.1147 -1.8064,13.6808 -2.8329,14.9369 -5.2114,5.5787 -47.2256,-3.9931 -50.6516,-11.607 -0.8414,-2.5122 -0.8419,-0.3753 -1.6833,1.0686 -0.7349,1.2993 -0.9808,1.9921 -1.4548,-0.6788 -0.1909,-1.0757 -0.2861,-2.852 -0.3764,-4.6874 h -1.0894 c -0.062,2.3074 -0.1065,4.738 -0.1423,5.756 -0.1093,2.8442 -0.05,4.3027 -0.5611,5.5155 -0.2833,0.6786 -1.0406,0 -1.3603,0 h -5.9259 c -22.1357,-5.7374 -29.3417,-10.6265 -46.9155,3.739 -1.6323,0 -1.0486,-4.5788 -2.681,-5.0985 -2.0082,-0.6353 -4.9428,5.0456 -6.9454,4.3092 -5.5591,-13.8688 -45.5034,-0.2914 -56.0424,0.6632 -4.2483,-5.5726 -11.5641,-1.5951 -15.3784,-2.9788 -0.5357,-0.1444 -1.0726,0.7357 -1.5999,0.3025 -0.9817,-0.8084 -1.6786,-6.5083 -2.332,-9.8867 -0.74,12.7123 1.0329,6.9938 0.3161,10.1544 -2.4088,-1.5461 -11.9805,5.9701 -13.8744,2.1817 -0.219,-1.5015 -0.095,-10.2376 -0.1656,-12.0568 -1.5408,-4.4048 -0.1424,3.3407 -1.3507,4.249 -0.1094,3.032 0.149,7.5537 -0.412,8.5932 -0.6114,1.1261 -1.6594,-5.3706 -2.3128,-5.1973 -0.7321,0.2021 -0.044,7.4647 -0.605,4.7649 -1.8474,-7.873 -20.1924,4.5873 -30.6515,1.4158 -17.226,-5.2146 -7.2771,-12.5226 -23.0082,-4.5051 -1.6183,-0.3755 -3.2333,-1.1143 -4.8488,-1.6485 -3.6994,-1.2417 -7.2478,-3.7647 -10.9388,-0.704 -1.6464,1.3716 -3.4046,1.0233 -5.0706,0.8068 -0.8723,-0.1155 -0.8718,-0.5345 -1.1523,-4.8658 -0.1121,-1.8455 -0.2358,-3.6724 -0.3531,-5.5097 h -1.0729 c -0.1228,1.9565 -0.2235,3.9843 -0.3381,5.9286 -0.3506,5.8905 -0.9685,4.2013 -2.009,4.028 -0.5524,-0.1756 -1.1062,-0.1363 -1.6573,0.1163 -0.317,0.2022 -0.9458,1.8341 -1.2263,1.2277 -1.4491,-18.3643 -2.545,-13.1833 -3.3899,0.4169 -0.3029,4.6201 -0.7016,2.0928 -1.4561,1.0821 -0.897,-0.9814 -1.8059,-1.6414 -2.7207,-1.9761 -34.868,-19.6589 -29.3457,21.6382 -53.9854,-7.5653 -0.9104,-0.7579 -1.8375,-0.8123 -2.7508,-0.1591 -0.7629,0.5053 -1.4478,1.1853 -2.0761,3.5819 -0.7011,2.6421 -1.0605,3.837 -1.9776,4.0824 -1.8091,0.4909 -3.5926,-0.2436 -5.4045,0.7816 -1.6267,0.9239 -3.2615,1.2697 -4.8939,1.7317 -1.8959,0.5341 -3.7587,1.8922 -5.6631,1.2858 -0.9143,-0.332 -1.8091,-1.7764 -2.7234,-1.7764 -0.9593,0 -0.6168,-1.5446 -1.3713,-3.7391 -0.3898,-1.1839 -1.0744,-0.5929 -1.526,-1.4447 -0.4118,-0.9117 -0.8062,-2.018 -1.1783,-3.3047 -6.7242,3.5621 -72.9118,5.0717 -89.2517,5.5155 -0.9284,-0.1444 -2.2561,1.0986 -3.1368,-0.3452 -0.9122,-3.8136 -0.8829,-18.965 -3.3844,-3.0913 -1.0245,6.1989 -17.7552,-7.644 -24.7545,4.6641 -1.9858,-0.4042 -3.9552,-1.4008 -5.9436,-1.0977 -1.624,0.2888 -3.4108,1.6454 -4.8132,1.7318 h -0.2805 v -0.1571 c -0.1211,0.01 -0.2416,-0.072 -0.3586,-0.2327 -1.1107,-1.0251 -2.2667,-0.231 -3.3886,0.26 -1.2453,0.5341 -2.499,0.795 -3.7471,0.795 -0.5076,-0.014 -0.9615,-0.29 -1.4971,-0.4344 -3.8094,1.4446 -8.1955,-13.1727 -16.6664,-2.2806 -7.7674,-6.5208 4.3681,-15.2814 -2.7522,0.2308 -0.6114,1.1261 -1.6593,0.2165 -2.3128,0.3898 -1.8869,0.5517 -5.4431,-4.9867 -17.2069,2.4551 -1.5312,0.8646 -3.0756,1.0185 -4.6121,0.4597 l -128.1981,-1.976 c -95.874204,2.494 -109.079404,-17.0141 -95.874204,2.494 -37.5315,0.8014 -64.0494998,1.5945 -63.4393998,-0.5799 0.8659,-4.066 -4.6211,-25.6033 3.6102,-24.2359 7.1807998,-49.5606 16.0111998,-72.2434 -1.1605,-40.5922 0.3549,-6.8682 -0.023,-14.9081 1.5984,-22.2249 5.0759998,-79.1464 -0.3697,-38.3351 2.7208,-115.7185 0.1426,-1.4667 0.2144,-2.9533 0.2039,-4.4158 0,-0.9579 -0.8238,-2.2062 -0.5283,-3.1204 0.3464,-1.105 -6.3098,-1.326 -5.3114,-2.3912 1.1819,-1.26 9.4349998,-2.2105 7.2546998,-3.0332 -2.6386998,-0.9817 -3.5941998,-1.2316 -3.3802998,-2.5948 0.214,-1.3633 -0.4609,-2.7193 -0.6952,-4.0707 -0.489,-2.8178 -0.1821,-5.6568 -0.1821,-8.4827 -0.056,-8.063 -1.7379,-18.9632 -1.0195,-27.8721 0.8558,-0.7234 1.885,-0.6402 3.8921,-0.7952 1.6912998,-0.1192 8.0901998,-0.2227 8.9051998,-0.8784 -1.4773,-0.8545 -6.2662,-0.7266 -8.1511,-1.3983 -1.8847998,-0.6717 -1.3957998,-1.0222 -0.4789998,-2.0635 1.0188998,-1.1924 2.5268998,-1.191 0.7540998,-2.3834 -0.9079998,-0.5272 -1.6885998,-1.0863 -2.3319998,-1.6698 -0.6011,-0.64 -0.1841,-1.6099 -1.0196,-2.1623 -1.5486,-1.0692 -2.6385,-0.5842 -2.6385,-1.9432 0,-1.2959 -1.0193,-2.5637 -1.2537,-3.8594 -0.4279,-2.6987 0.5304,-5.3382 0.9074,-8.0249 0.3259,-2.3133 0.5701,-4.6299 1.2221,-6.9351 1.8231,-36.9474 5.3070998,-104.2623 1.1209,-108.6126 -0.1223,-1.4745 -1.3144,-2.3482 2.8424,-2.8451 -5.9828,-5.377 -8.1701,-2.024 -2.5687,-11.3199 -3.2994,-4.2838 0.3794,-10.2588 -0.4968,-15.5011 -0.377,-2.2893 -0.897,-4.5778 -1.1619,-6.8711 -0.275,-2.4522 -1.498,-5.1397 0.6925,-7.4529 0.7315,-0.9454 1.1556,-1.9223 1.2631,-2.909 0.2219,-0.5599 0.2898,-1.1274 0.2026,-1.693 -0.112,-0.3616 -1.0178,-0.9577 -0.8649,-1.2955 0.4788,-0.8863 5.4002998,-1.5587 5.4002998,-2.3854 0,-0.7432 -4.5645998,-1.7164 -5.9094998,-2.2728 -3.7697,-1.566 -2.6598,-4.8044 -2.9451,-6.7917 -0.2686,-2.0442 3.586,-63.2409 8.9339998,-77.3175 -10.6233998,-4.044 -4.8509998,-5.4422 -6.3254998,-17.805 -0.1127,-0.1659 -0.1698,-0.3384 -0.1628,-0.5101 h -0.1123 v -0.3976 c 0.061,-1.9872 -2.4674,-6.352 -2.2636,-8.6533 0.214,-2.8179 -0.036,-12.5882 -0.3216,-15.4022 -0.5298,-5.1668 0.5518,-5.8656 0.8677,-11.0523 0.082,-1.2917 5.8482,2.1771 4.8365,0.9639 -1.6936,-2.0312 3.5994998,-1.9623 -0.7472,-2.8315 0,-1.0372 -4.7018,0.1686 -4.5286,-0.8688 0.061,-0.4452 7.5462998,-3.6201 7.2915998,-4.0494 -7.3321998,-12.3364 -4.3809998,-3.5436 -5.0224998,-32.3733 -0.2547,-1.24 -0.1533,-2.495 -0.1533,-3.739 0,-1.5898 -4.70169998,-2.191 -0.932,-2.8586 1.3244,-0.2385 12.8700998,-1.5043 12.9820998,-2.2555 -2.9311,-13.6544 -2.1972,4.2489 -13.5076998,0.083 17.3627998,-27.1095 -9.6106,-63.3519 1.7833,-93.5537 0,-0.4531 -0.4788,-1.5263 0,-1.9277 17.1832998,-3.3893 7.4760998,-1.3839 -0.8417,-6.3358 -0.4713,-0.504 2.0086,-8.5778 -1.4808,-10.8177 -0.4279,-2.6987 0.5304,-5.3381 0.9074,-8.0249 3.9326,-28.1209 -5.8102,-47.082 8.3084998,-71.775 -5.3749998,-5.6438 -7.6791998,-6.4333 -8.5479998,-6.2349 0.2777,-0.8998 0.5198,-3.0286 0.1916,-7.6797 -2.8616,-1.5694 -3.43519998,-0.083 1.7791,-15.0474 -0.2366,-1.2961 -0.7017,-2.5864 -1.3945,-3.8573 -0.2021,-0.303 -0.4837,-0.5611 -0.7185,-0.7913 -0.5185,0.2345 -0.8592,0.3774 -0.3025,0.1222 0.085,-0.039 0.1846,-0.094 0.2792,-0.1455 -0.5754,-0.5684 -0.7978,-0.9437 1.5054,-1.247 h 0.057 c 0.3564,-0.4809 0.3904,-0.9465 -0.3955,-1.1791 -1.6913,-0.5008 1.6511,-2.643 0.6323,-3.6207 -0.4279,-0.3974 0.7237,-1.2885 0.8663,-1.7376 0.1782,-0.7811 0.2061,-1.566 0.082,-2.3486 -0.1223,-1.4745 -1.3144,-2.3482 2.8425,-2.845 3.0564998,-0.3617 2.4952998,-1.4815 4.8487998,-2.2962 -2.8188,-0.3816 -1.7086,0.1416 -4.5545998,-0.2055 -3.0565,-0.3974 -3.3508,-0.3969 -3.4323,-1.633 -0.1528,-2.3608 -1.6098,-5.2071 -0.6419,-7.5401 -9.066,-8.1847 0.6781,-45.7864 -3.628,-70.47161 0.3973,-2.59932 0.6412,-5.20262 1.0182,-7.80194 0.8005,-9.07826 2.1603,-6.38272 9.0064998,-6.75865 -5.8811998,-15.70456 -9.7859998,2.9392 -6.8441998,-18.04164 0.2649,-2.29327 -2.8553,-4.40527 -2.4784,-6.69457 -0.072,-11.5864 2.1504,-12.7309 3.5678,-22.8648 0.082,-1.236 0.3758,-1.2354 3.4323,-1.6329 2.8459998,-0.347 8.7112998,3.2518 11.5300998,2.8702 -2.3535,-0.8147 -8.7678,-5.0083 -11.8242998,-5.37 -4.1569,-0.4968 -2.9648,-1.3725 -2.8425,-2.847 0.124,-0.7826 0.096,-1.5674 -0.082,-2.3485 -0.1426,-0.4491 -1.2942,-1.3383 -0.8663,-1.7357 1.0188,-0.9778 -2.3236,-3.1218 -0.6323,-3.6227 0.7859,-0.2326 0.7519,-0.6983 0.3955,-1.1791 h -0.057 c -4.193,-0.581 -0.6435,-21.6042 1.0784,-37.6892 8.2700998,-9.0576 -21.4705002,-54.3866 4.1576998,-86.6262 1.7728,-1.1924 0.2648,-1.1912 -0.7540998,-2.3835 -0.9168,-1.0414 -1.4058,-1.3918 0.4789998,-2.0635 1.8849,-0.6717 6.6738,-0.5438 8.1511,-1.3983 -0.815,-0.6557 -7.2139,-0.7592 -8.9051998,-0.8784 -2.0071,-0.155 -3.0363,-0.072 -3.8921,-0.7952 -0.4788,-0.4014 0,-1.4746 0,-1.9277 v -8.3969 c -5.87759998,-9.4968 1.0195,-11.6847 1.0195,-17.5472 0,-2.8259 -3.1864,-0.2811 -2.6974,-3.0991 0.2343,-1.3513 3.7887,-8.0891 3.5747,-9.4523 -0.2139,-1.3633 0.7416,-1.6151 3.3802998,-2.5968 2.1803,-0.8226 4.2393,-1.3 3.0574,-2.5599 -0.9984,-1.0652 -7.0821998,-0.043 -7.4285998,-1.1481 -6.05929998,-13.9915 4.2401998,-11.8095 -3.5445,-30.0791 0,-2.3132 3.2312,-1.486 3.5979,-3.7992 0.4484,-2.8458 -3.5606,-7.0043 -3.0409,-9.8421 0.3056,-1.6654 -0.216,-3.5978 2.1171,-5.0326 0.9985,-0.616 15.7335998,-0.1049 15.6316998,-0.7447 -0.112,-0.7512 -15.6004998,-1.1889 -16.9248998,-1.4274 -3.76969998,-0.6677 0.932,-1.2668 0.932,-2.8566 0,-1.244 -0.1014,-2.501 0.1533,-3.741 9.1600998,-48.2776 -0.1035,-6.4217 -2.3759,-65.6136 -0.2038,-2.3013 2.3246,-6.6662 2.2636,-8.6534 v -0.3997 h 0.1123 c -0.01,-0.1716 0.05,-0.3441 0.1628,-0.51 0.7234,-1.5739 0.163,-3.2101 -0.1834,-4.7999 -0.3769,-1.7647 -0.5611,-3.5413 -0.5611,-5.3099 0.011,-0.7194 0.2047,-1.3645 0.3066,-2.1236 0.1019,-0.7591 -0.5192,-1.5179 -0.2135,-2.2651 0.5705,-1.3911 4.5928,-2.3806 6.9768998,-3.3066 -8.9707998,-1.0486 -4.9353998,1.4638 -7.1657998,0.448 0.9282,-16.1994 -6.7782,-19.0472 6.9686998,-19.8957 -10.6457998,5.4322 -12.34189978,-28.8115 -9.7564998,-50.0659 3.6798,-24.4104 8.8383998,-10.3121 3.1806,-32.6042 0.2649,-2.2933 0.7849,-4.5817 1.1619,-6.871 0.8762,-5.2424 2.6567,-10.2707 0.4968,-15.5012 -0.9679,-2.333 -0.7222,-4.8244 -0.5693,-7.1852 0.081,-1.2361 0.3771,-1.2355 3.4337,-1.633 2.8458998,-0.3471 5.6771998,-0.7121 8.4959998,-1.0937 -2.3535,-0.8147 -5.7352,-1.0464 -8.7916998,-1.408 -4.1568,-0.4969 -2.9647,-1.3705 -2.8424,-2.845 0.1239,-0.7827 0.096,-1.5675 -0.082,-2.3485 -0.1427,-0.4492 -1.2929,-1.3402 -0.865,-1.7377 1.0188,-0.9777 6.7745998,-0.6356 8.4658998,-1.1364 1.6913,-0.5008 -0.3462,-2.0746 -1.4465,-2.5755 -1.6913,-0.775 -4.9105998,-0.7798 -7.3149998,-1.0938 -3.2603,-0.4292 -1.4768,-0.9923 -0.7636,-2.0615 0.6925,-1.2711 1.1583,-2.5591 1.3945,-3.8554 13.8728998,-49.4103 -15.2696,-41.5868 5.3387998,-76.503 0.5348,-1.29 0.5731,-2.6038 0.1122,-3.8981 -0.3566,-1.0811 -0.8365,-2.0496 -2.5276998,-2.94 -1.8645,-0.9936 -2.7076,-1.5027 -2.8808,-2.8024 -0.3465,-2.5635 0.1718,-5.0928 -0.5516,-7.6603 -0.652,-2.3053 -0.8961,-4.622 -1.2221,-6.9351 -0.3769,-2.6867 -1.3353,-5.3263 -0.9074,-8.025 0.2344,-1.2957 1.2537,-2.5617 1.2537,-3.8574 0,-1.3593 1.0899,-0.876 2.6385,-1.9451 0.8355,-0.5525 0.4185,-1.5206 1.0196,-2.1604 0.6434,-0.5836 1.424,-1.1425 2.3319998,-1.6698 1.7728,-1.1924 0.2648,-1.1931 -0.7540998,-2.3854 -0.9168,-1.0413 -1.4058,-1.3917 0.4789998,-2.0634 1.8849,-0.6718 6.6738,-0.5438 8.1511,-1.3983 -0.815,-0.6557 -7.2139,-0.7593 -8.9051998,-0.8785 -2.0071,-0.155 -3.0363,-0.072 -3.8921,-0.7952 -0.4788,-0.4014 -0.095,-1.4998 0,-1.9277 -4.4588,-66.7548 21.6783998,-133.4607 0.1629,-161.349 0.2852,-2.814 0.9884,-5.6047 0.7745,-8.4226 -0.2038,-2.3012 -1.1611,-4.8333 -1.2221,-6.8206 v -0.3976 h 0.1123 c -0.01,-0.1716 0.05,-0.3423 0.1628,-0.5081 0.7234,-1.5739 0.1631,-3.2101 -0.1834,-4.7999 -0.3769,-1.7646 -0.5611,-3.5412 -0.5611,-5.3099 0.011,-0.7193 0.2047,-1.3644 0.3066,-2.1235 -1.0195,-5.3982 9.2957998,-11.6116 1.6094,-23.6154 -0.01,-0.5643 -0.2138,-1.094 0.8458,-1.404 1.0596,-0.31 3.4349998,-0.3738 4.7187998,-0.4732 0.8762,-0.068 8.3426,-0.4688 8.3426,-0.576 -2.6217,-0.1855 -5.2404,-0.3748 -7.8554,-0.5682 -2.1396,-0.155 -5.4810998,-0.084 -6.2146998,-0.8786 -0.7947,-0.8664 -0.1527,-2.3533 -0.275,-3.2794 -0.3893,-2.6738 3.5189,-7.7131 -1.7326,-24.3833 -0.6101,-2.1698 -0.7188,-4.3563 -0.3244,-6.5336 0.4585,-1.8402 1.63,-3.5855 1.63,-5.4496002 l 115.3334038,-0.3609 c 16.1796,-9.1275 9.7314,6.5830002 27.1328,3.4041002 -43.5514,-18.1734002 139.8293,-6.4180002 141.3604,-5.4579002 11.7639,8.2640002 8.1358,5.9756002 10.0227,6.5883002 0.6535,0.1924 13.594,-10.2966002 14.2054,-9.0461002 0.561,1.1544 4.4744,12.3813002 4.5838,15.7481002 0.1365,4.1151 0.27,8.2356 0.4009,12.3614 0.6712,-6.7522 -0.076,-13.8547 0.7404,-20.5532 0.2188,-1.6673 0.5926,-1.3483 0.9908,-1.3323 8.4709,12.0955 12.8556,-4.1371002 16.6649,-2.5328002 0.5357,-0.1603 0.991,-0.4668 1.4986,-0.4829 11.0132,2.0654 42.8925,5.1198002 43.2847,6.6229002 0.5414,3.7516 0.9194,9.6204 1.385,13.9012 0.4095,3.7195 0.5613,5.6444 0.8951,0.9308 0.2488,-4.1095 0.4077,-8.381 0.4721,-12.7142 0.101,-4.1685 -2e-4,-4.4422 0.6337,-5.5485 0.8807,-1.6033002 2.207,-0.2256 3.1353,-0.3859 47.8663,1.2057 62.2818,8.4518 82.5855,-1.6194002 0.302,-0.1489 1.0771,-0.7535 1.3604,0 0.5104,1.3468002 0.4517,2.9680002 0.5611,6.1264002 0.084,2.6614 0.1572,12.7291 0.62,14.0117 0.603,-2.3247 0.5127,-9.8588 0.9867,-12.8248 0.474,-2.9661 0.7213,-2.1974 1.4561,-0.7544 0.8414,1.6032 0.8405,3.9746 1.682,1.1849 0.3721,-1.4289 0.7665,-2.6568 1.1783,-3.6692 0.4515,-0.946 1.1361,-0.2892 1.526,-1.6039 0.7544,-2.4369002 0.412,-4.1521002 1.3713,-4.1521002 0.9143,0 1.809,-1.6035 2.7234,-1.9723 32.824,13.7124002 60.6409,13.5218002 76.7527,4.1521 0.9148,-0.3717 1.8237,-1.1054 2.7207,-2.1953 0.7545,-1.1223 1.1519,-3.928 1.4548,1.2024 0.2216,3.7837002 0.225,8.8505002 0.7719,11.5119002 3.5048,10.8773 1.3963,-7.5632 2.6193,-11.0484002 0.2806,-0.6734 0.908,1.1389 1.2249,1.3634002 0.5512,0.2805 1.1064,0.3231 1.6587,0.128 1.0406,-0.1924002 1.6571,-2.0673002 2.0077,4.474 0.6794,15.4111 1.0842,12.8697 1.7641,0.4635 0.2805,-4.8098 0.2814,-5.2728002 1.1537,-5.4011002 1.666,-0.2404 3.4241,-0.6271 5.0705,0.8960002 3.691,3.3989 7.2394,0.5953 10.9388,-0.7835002 1.6155,-0.5932 3.2305,-1.4119 4.8489,-1.8288 15.731,8.9033002 5.7821,0.7871 23.0081,-5.0035 9.9748,7.1951002 25.9133,-10.478 33.5693,1.0919 0.561,1.1543 0.3026,6.1747002 0.412,9.5415002 1.2082,1.009 -0.1915,9.612 1.3494,4.7204 0.07,-2.0201 -0.052,-11.7237002 0.1669,-13.3911002 15.1361,-1.515 13.1934,6.2251002 13.5569,13.6994002 0.4768,-19.6191002 6.9308,-4.5642 12.5648,-9.9546002 0.117,-0.1778 0.2387,-0.2636 0.3599,-0.256 v -0.1745 h 0.2805 c 1.4023,0.096 4.4826,-3.8852 6.1066,-3.5645 41.7707,3.5758 12.2336,18.1536002 46.3023,3.739 0.875,-0.4008 1.7608,-0.2405 2.6386,-0.2405 1.1219,0 1.546,-7.3982 2.0173,-1.4661 3.9118,29.1145002 -3.1929,29.2332002 1.5327,2.0344 1.0126,-3.6715 2.3749,-2.8508 3.5501,-3.3318 2.0026,-0.8177 4.9385,5.4917002 6.9467,4.7863002 1.6324,-0.5772002 1.0474,-5.6629002 2.6797,-5.6629002 12.8926,12.2503002 11.3527,-3.9575 21.2263,5.5775002 0.7796,0.5451 0.059,10.1192 0.8115,11.6904 0.8891,1.8598 1.226,-1.3786 1.8066,-4.8096 0.6928,-4.1524 0.869,-5.6582 1.831,-5.3215 0.962,0.3367 5.7181,-5.2554002 6.6718,-5.6241002 1.9885,-0.7696 0.1927,4.2433002 2.1869,4.2433002 4.137,0 5.681,-10.8531002 12.3827,-1.6039002 h 5.9259 c 0.3197,0 1.077,-0.7535 1.3603,0 0.5105,1.3468002 0.4517,2.9680002 0.5611,6.1264002 0.084,2.6614 0.1573,12.7291 0.62,14.0117 0.603,-2.3247 0.5128,-9.8588 0.9867,-12.8248 0.4741,-2.9661 0.7213,-2.1974 1.4562,-0.7544 0.8414,1.6032 0.8405,3.9746 1.6819,1.1849 2.6766,-6.6056002 28.9053,-14.5368002 42.7373,-14.7370002 z M 4.0794362,1076.9705 c -0.3746,1.2137 -0.8088,0.1848 0,0 z M 1039.8303,1916.0428 c 0.8537,0.5304 0.131,1.1427 0,0 z m 877.7989,-841.6438 c 0.8089,0.1847 0.3747,1.2136 0,0 z M 1043.899,5.3582898 c 0.1688,-0.059 0.2504,0.3454 -0.2833,0.7136 0.049,-0.4763 0.1821,-0.6784 0.2833,-0.7136 z"
     id="path2"
     inkscape:connector-curvature="0"
     sodipodi:nodetypes="ccccccccccccccccccccccccccccccccccccccccccccccccscccccccccccccccsccccccccccccccsccccccccccccccccccccccccccccccccccccccccccccccccccccccccsccccccccccccccccccccccccccccccsccccccccscccccccccccscscccccccccccccccccccccccccccccccccccccccccccccccccccccccccccccsccccccccccccccccccccccccccccccccccccccccccsccccccccccccccscccccccccccccccscccccccccccccccccccccccccccccccccccccccccccccccscccccccccccccccccccccccccccccccccccccsccccccccccccccccccccccccccccccccccccccccccsccccccccccccscccccccccccccccscccccccccccccccccccccccccccccccccccccccccccccccccscscccccccccccsccccccccscccccccccccccccccccccccccccscccccccccccccccccccccccccccccccccccccccccccccccccsccccsccccccccccccccccccccccccccsccccccccccscsccccccccccccccccc" />
</svg>
