<?xml version="1.0" encoding="UTF-8" standalone="no"?>
<svg
   xmlns:dc="http://purl.org/dc/elements/1.1/"
   xmlns:cc="http://creativecommons.org/ns#"
   xmlns:rdf="http://www.w3.org/1999/02/22-rdf-syntax-ns#"
   xmlns:svg="http://www.w3.org/2000/svg"
   xmlns="http://www.w3.org/2000/svg"
   xmlns:sodipodi="http://sodipodi.sourceforge.net/DTD/sodipodi-0.dtd"
   xmlns:inkscape="http://www.inkscape.org/namespaces/inkscape"
   viewBox="0 0 1919.9999 1920"
   version="1.1"
   id="svg4"
   sodipodi:docname="big-note2.svg"
   width="100%"
   height="100%"
   preserveAspectRatio="none"
   inkscape:version="0.92.2 (5c3e80d, 2017-08-06)">
  <metadata
     id="metadata10">
    <rdf:RDF>
      <cc:Work
         rdf:about="">
        <dc:format>image/svg+xml</dc:format>
        <dc:type
           rdf:resource="http://purl.org/dc/dcmitype/StillImage" />
        <dc:title></dc:title>
      </cc:Work>
    </rdf:RDF>
  </metadata>
  <defs
     id="defs8" />
  <sodipodi:namedview
     pagecolor="#ffffff"
     bordercolor="#666666"
     borderopacity="1"
     objecttolerance="10"
     gridtolerance="10"
     guidetolerance="10"
     inkscape:pageopacity="0"
     inkscape:pageshadow="2"
     inkscape:window-width="1920"
     inkscape:window-height="1017"
     id="namedview6"
     showgrid="false"
     inkscape:zoom="0.1767767"
     inkscape:cx="1417.5817"
     inkscape:cy="1388.9634"
     inkscape:window-x="-8"
     inkscape:window-y="-8"
     inkscape:window-maximized="1"
     inkscape:current-layer="svg4"
     inkscape:measure-start="0,0"
     inkscape:measure-end="0,0" />
  <path
     style="fill:#f1eee5;stroke-width:0.45945358"
     d="m 1.6831898,1062.9033 c -0.056,-3.873 0.495,-6.7744 1.8501,-7.9143 1.3949,-1.0266 12.0160002,-2.2257 16.5853002,-2.8343 -22.4025002,5.3848 -12.2264002,-34.1971 -11.9367002,-34.2413 h 0.091 c 0.5607,-0.3393 0.6142,-0.6679 -0.6225,-0.8321 -2.6615,-0.3534 2.5981002,-1.8664 0.9948,-2.5564 -0.6733,-0.2805 1.1389,-0.908 1.3634002,-1.2249 0.2805,-0.5512 0.3231,-1.105 0.128,-1.6573 29.4778,-2.0746 -18.4244002,14.1788 23.082,-5.7986 -4.4357,-0.2693 -13.666,2.2704 -18.1445,2.0255 -4.8098,-0.2805 -5.2727002,-0.2801 -5.4010002,-1.1523 -2.2305,-7.15128 -5.7269,-7.95905 -5.6144,-16.13532 -0.5932,-1.61554 4.3149,-3.10452 3.8981,-4.72286 -4.6293,-14.80588 1.5183,-1.65064 10.7730002,-12.73307 -10.7734002,-0.26536 -0.2749,-3.31775 -1.5346,-9.72412 -0.5932,-1.83429 -13.6166002,1.28334 -14.2419002,-0.55096 6.7764,-17.41991 -8.559,-43.95482 5.7075,-49.73063 -1.5231,-1.64637 0.7718,-3.65493 1.0123,-5.32091 0.1283,-0.87231 7.2613002,14.23992 12.0711002,13.9595 4.4785,-0.24496 -3.9399,-14.98764 0.4958,-15.25692 -3.7035,-0.57493 -2.8196,-1.36384 -7.6293,-1.61904 -6.5414002,-0.35063 -4.6665002,-0.96844 -4.4741,-2.00898 0.1951,-0.55229 0.1525,-1.1062 -0.128,-1.65737 -0.2245002,-0.31699 -2.0367002,-0.94433 -1.3634002,-1.22482 1.6033002,-0.68998 -3.6563,-2.20315 -0.9948,-2.55651 1.2368,-0.16424 1.1832,-0.4928 0.6225,-0.83208 h -0.091 c -3.6244,-0.214 -3.2753,-0.47879 -2.3698,-0.87994 -0.1489,-0.0357 -0.3038,-0.0751 -0.4383,-0.10265 -0.8761,-0.18001 -0.3408,-0.0807 0.4751,0.0848 0.3695,-0.16249 0.8126,-0.34467 1.1306,-0.55839 1.0903,-0.8969 1.8231,-1.80598 2.1954,-2.72068 -8.2054,-10.55942 -7.3016,-9.51257 -2.7985,-10.61996 0.5168,-3.28475 0.1331,-4.78537 -0.3045,-5.4195 1.3661,0.14056 4.9920002,-0.41559 13.4532002,-4.39991 -22.2175002,-17.42538 -6.8864,-30.8045 -13.0750002,-50.64891 -0.5932,-1.89595 -2.1007,-3.7587 -1.4273,-5.66313 5.4909002,-1.58064 1.5892,-7.27811 2.331,-7.63379 2.7897002,-0.84147 9.4848002,-0.007 7.8815002,-0.84847 -1.4429,-0.73483 -2.2116,-0.98085 0.7544,-1.4548 2.9661,-0.47402 10.5001,-0.38511 12.8248,-0.98806 -1.2826,-0.46281 -11.3502,-0.53582 -14.0117,-0.61998 -3.1584,-0.10938 -4.7796,-0.0504 -6.1263002,-0.56112 -0.7536,-0.28322 0,-1.04054 0,-1.36034 -4.5897,-22.0561 8.3676002,-27.56368 -2.4552,-48.42859 17.7986002,-2.93951 -12.8461,-13.0982 20.9041002,-17.53175 -0.1764,-0.53008 -18.3428002,-1.4234 -20.4271002,-1.59164 -5.932,-0.47122 1.4662,-0.89395 1.4662,-2.01585 0,-0.8779 -0.1604,-1.76485 0.2405,-2.63996 1.0094,-20.34457 -3.6354,-14.13839 7.9028002,-22.8439 0.4008,-0.30291 -11.3770002,-2.5448 -11.4732002,-2.85893 -0.2725,-0.73202 7.1271002,0.11891 7.1271002,-0.61311 6.8403,-0.61339 -1.4898,-0.56476 1.1752,-1.99812 1.592,-0.85618 -7.4817002,1.59312 -7.6099002,0.68157 -0.497,-3.66023 -2.199,-4.15324 -1.3653,-7.79941 0.4488,-1.98578 7.8621002,-3.43168 7.5254002,-5.42027 -0.3207,-1.62394 -3.3605002,-10.15429 -3.4567002,-11.55666 v -0.28056 h 0.1746 c -0.01,-0.12113 0.078,-0.24283 0.256,-0.35993 2.3203002,-8.72412 -6.7627,-9.7096 9.9546002,-12.56335 -8.4158,-9.93645 -14.4810002,-53.12173 -14.0583002,-54.56434 0.4489,-1.40237 6.0732002,14.89116 12.0053002,13.78608 2.1163,-0.39266 1.9289,-19.65959 1.9289,-20.18408 0,-0.58338 -7.7447,-1.05786 -8.4982002,-1.68332 -0.2405,-0.23841 1.1850002,-0.65897 1.3614002,-0.9142 0.1372,-0.39911 0.03,-0.79962 -0.32,-1.19475 -0.1693,-0.69625 -0.8367,-1.3857 -1.9878002,-2.05284 -3.447,-1.63236 -1.5228,-3.52883 -1.0899,-5.25936 0.4168,-1.61834 1.2356,-3.23326 1.8288,-4.84879 1.3788002,-3.69946 -4.4086,-7.91578 0.7835002,-10.93887 -8.8145002,-6.55997 -5.3733002,-4.19384 4.0415,-7.98827 -6.5413002,-0.35059 -4.6664002,-0.96711 -4.474,-2.00767 10.0536,-4.34623 -4.6315002,-6.64776 -3.1573002,-7.7296 1.09,-0.89702 1.8236,-1.80596 2.1954,-2.72069 -13.0491,-40.54783 19.0039002,-32.61217 -0.801,-66.19434 -1.0261,-1.62675 -1.4107,-3.2616 -1.9238,-4.89396 -0.5932,-1.896 -2.1007,-3.75866 -1.4273,-5.66308 0.3687,-0.91435 1.9723,-1.80908 1.9723,-2.72343 0,-0.95922 1.7151,-0.61682 4.1521002,-1.3713 1.3147,-0.38985 0.6579,-1.07437 1.6038,-1.52593 1.0125,-0.41176 2.2403,-0.80625 3.6692,-1.17833 2.7897,-0.84142 0.4184,-0.84191 -1.1849,-1.68333 -1.4429,-0.73484 -2.2116,-0.98077 0.7544,-1.45477 2.9661,-0.474 3.83,-5.09205 6.1548,-5.69507 -1.2827,-0.46278 -5.3824,-1.27902 -8.0438,-1.36316 -3.1584,-0.10938 -4.0775,5.39958 -5.4242002,4.88907 -1.1306,-6.28686 1.5154002,-13.97889 1.6038002,-19.6689 0,-1.99417 -0.4806002,-3.99613 0.289,-5.98469 0.3687,-0.95362 1.4285,-1.91057 1.0918,-2.8726 -0.3367,-0.96203 1.1691,-1.13833 5.3216,-1.83113 3.4309,-0.58055 -4.9953,-2.73774 -6.8551,-3.62684 -1.5712002,-0.75167 -0.2239002,-8.34113 -0.7690002,-9.12085 -0.4649,-0.64509 5.3958002,7.3924 5.3958002,6.71646 0.016,-1.03212 -10.2782002,-18.67951 -2.0773,-22.93502 C 6.4095898,378.81471 3.0444898,381.10686 10.15229,346.0645 7.6003898,340.90121 8.1955898,335.22758 7.6369898,330.38084 20.97039,316.38659 -10.15051,280.08492 17.53819,301.73696 c -0.2726,-2.88892 9.8718,-19.94747 8.509,-22.81672 -0.9601,-1.53441 -20.0877002,11.04403 -19.4672002,9.50751 0.012,-0.0216 22.8489002,-105.08246 0.043,-0.0643 l 1.0028,-166.97354 -1.0433,-117.067632 c 1.8641,0 3.6093002,-1.1714752 5.4496002,-1.6299508 2.1773,-0.3943474 4.3638,-0.2857521 6.5336,0.3243482 16.6702,5.2515428 21.7095,1.3446513 24.3833,1.7339607 0.9261,0.1222793 2.413,-0.5195852 3.2794,0.2750797 0.795,0.7335638 0.7235,4.0736562 0.8785,6.2132472 0.1935,2.615015 0.3828,5.23514 0.5683,7.856882 0.1072,0 0.5084,-7.467862 0.5759,-8.344089 0.099,-1.2837544 7.5355,-0.684991 7.8455,-1.7445913 0.31,-1.0595298 -6.5326,-3.8287438 -5.9682,-3.8185906 12.0038,7.6863389 18.2172,-2.6302405 23.6153,-1.6107908 0.7592,-0.1018819 1.4042,-0.295028 2.1236,-0.3051882 1.7687,0 3.5453,0.1842017 5.3099,0.5611087 1.5898,0.3464265 3.226,0.9054211 4.7999,0.1820176 0.1658,-0.1130231 0.3385,-0.16756 0.51,-0.1628583 v -0.110853 h 0.3976 c 1.9873,0.060961 16.148,5.8557431 17.4563,23.2266789 7.7826,4.418129 -5.029,-22.4939056 -2.215,-22.7791609 9.9185,8.6856079 33.6269,-1.0830972 35.0787,3.2913783 0.7672,2.3840647 1.3048,6.1124016 1.9646,8.8326626 0.5802,2.363675 0.7933,3.586643 1.2664,0.591217 0.3526,-2.611512 0.5778,-5.324974 0.669,-8.0785885 0.1431,-2.6489996 -3e-4,-2.8237572 0.8979,-3.5267704 1.2481,-1.0188191 3.1275,-0.1430894 4.4431,-0.2449713 67.8298,0.7662164 88.2576,5.3722062 117.0293,-1.027786 0.4279,-0.094665 1.5263,-0.478859 1.9277,0 0.7234,0.8558361 0.6402,1.8850872 0.7952,3.8921747 1.5383,9.5499225 -0.5042,9.3448215 2.2768,0.7540747 0.6717,-1.8848153 1.0221,-1.3973006 2.0634,-0.4803634 1.1923,1.018819 1.193,2.5268482 2.3854,0.7540746 0.5272,-0.9080382 1.0862,-1.6886365 1.6698,-2.33202 0.6398,-0.6011313 1.6079,-0.1827603 2.1604,-1.018206 1.0691,-1.548619 0.5858,-2.6385767 1.9451,-2.6385767 1.2957,0 2.5617,-1.0192836 3.8574,-1.253598 2.6987,-0.427918 5.3402,0.530446 8.0269,0.907353 2.3132,0.3260361 4.6299,0.5701189 6.9351,1.2221211 2.5675,0.7234036 5.0949,0.203733 7.6584,0.5501595 1.2997,0.1732132 1.8088,1.0177547 2.8024,2.8821795 0.8903,1.6912817 1.8589,2.1697686 2.94,2.5263553 1.2943,0.4609219 2.61,0.4239929 3.9,-0.110853 34.9162,-20.6083831 27.0908,8.5341579 76.5011,-5.3387387 1.2963,-0.2362062 2.5843,-0.7019859 3.8554,-1.3945587 1.0692,-0.7131733 1.6342,-2.49663712 2.0634,0.763654 0.314,2.404455 0.3169,5.6236528 1.0919,7.3149353 0.5008,1.10038 2.0747,3.137845 2.5754,1.446564 0.5009,-1.691282 0.1587,-7.4484405 1.1365,-8.4672596 0.3975,-0.427918 1.2885,0.7236334 1.7376,0.8662961 0.7811,0.1782583 1.5658,0.2046992 2.3486,0.080745 1.4745,-0.1222723 2.3481,-1.3129776 2.845,2.8438603 0.3616,3.0564582 0.5932,6.4380932 1.4079,8.7916072 0.3816,-2.81878 0.7467,-5.65147 1.0938,-8.4973675 0.3975,-3.056528 0.3968,-3.3508482 1.633,-3.4323398 2.3608,-0.1528228 4.8522,-0.3985586 7.1852,0.5693195 24.315,2.0433439 47.1899,-3.5816143 54.9764,-4.8392154 14.8212,-2.2381087 40.8173,6.5549032 43.4353,0.999046 0.795,-1.90520568 -0.1822,3.2199573 0.8553,3.362543 0.926,0.1222793 2.4129,-4.46239603 3.2794,-3.6677312 0.7949,0.7335638 0.4287,3.9244834 0.5837,6.0640734 1.7123,0.6411413 -0.2713,6.106957 1.9122,2.998508 0.099,-1.2837549 -0.074,-7.4500844 0.2366,-8.5096843 2.6837,-2.673384 16.2476,2.6320561 19.661,1.5409947 1.0158,2.230401 -1.4966,-1.8050321 -0.448,7.1657616 0.9261,-2.3840654 1.9136,-6.4063903 3.3047,-6.976901 0.7472,-0.3056457 1.506,0.3140079 2.2651,0.212126 0.7591,-0.1018819 1.4042,-0.295028 2.1236,-0.3051882 1.7686,0 3.5452,0.1841316 5.3099,0.5611087 1.5898,0.3463564 3.226,0.9054211 4.7999,0.1820176 0.1659,-0.1130231 0.3383,-0.1677002 0.51,-0.1628583 v -0.110853 h 0.3976 c 1.9872,0.060961 6.3521,-2.4687248 8.6533,-2.264961 59.192,2.272373 17.336,11.5359302 65.6136,2.375814 1.24,-0.2547048 2.4971,-0.1532784 3.741,-0.1532784 1.5898,0 2.1889,-4.700319 2.8567,-0.9306183 0.2385,1.3244648 0.6762,16.8115269 1.4273,16.9235689 0.6399,0.101882 0.1287,-14.6317845 0.7447,-15.6302832 1.4348,-2.3331237 3.3673,-1.8115108 5.0326,-2.1171565 2.8378,-0.5196398 6.9964,3.4878725 9.8422,3.039564 2.3131,-0.3667468 1.486,-3.5965665 3.7991,-3.5965665 18.2696,7.7847166 16.0876,-2.5161181 30.0792,3.5431928 1.1048,0.3463564 0.083,6.4300954 1.148,7.4285244 1.26,1.181872 1.7393,-0.875686 2.5619,-3.0559871 0.9817,-2.6387693 1.2315,-3.5956268 2.5948,-3.3817029 1.3633,0.2139941 8.1011,-3.3389861 9.4524,-3.5733005 2.8179,-0.4890191 0.2731,2.696056 3.099,2.696056 5.8625,0 8.0504,-6.8958251 17.5472,-1.018206 h 8.3973 c 0.4531,0 1.5264,-0.478859 1.9278,0 0.7234,0.8558361 0.6401,1.8850872 0.795,3.8921747 0.1193,1.6912817 0.2229,8.0887728 0.8786,8.9038288 0.8545,-1.477288 0.7266,-6.264868 1.3983,-8.1497541 0.6717,-1.8848153 1.022,-1.3973006 2.0634,-0.4803634 1.1923,1.0188891 1.1931,2.5268485 2.3854,0.7540746 48.2934,-11.606274 70.3509,-5.7869329 86.6244,-4.1563059 16.085,-1.7219024 37.1101,-5.27141685 37.6911,-1.0784228 v 0.057479 c 0.4808,0.3563064 0.9465,0.3903933 1.1791,-0.3955128 0.5008,-1.6912817 2.643,1.6510916 3.6208,0.6322726 0.3974,-0.4279181 1.2865,0.722335 1.7356,0.8649276 0.7811,0.1782583 1.5679,0.2060677 2.3505,0.082114 1.4745,-0.1222723 2.3482,-1.3129776 2.845,2.8438603 0.3617,3.0565269 4.5553,9.4708129 5.37,11.8243269 0.3816,-2.818779 -3.2172,-8.684121 -2.8702,-11.5300872 0.3975,-3.0564579 0.397,-3.3507782 1.633,-3.4323398 10.1339,-1.4173777 11.2784,-3.6392981 22.8648,-3.5678266 2.2893,-0.37690697 4.4013,2.7419519 6.6946,2.4770869 20.98081,-2.9418155 2.33715,0.9643971 18.0416,6.8455197 0.37593,-6.846198 -2.31961,-8.2059893 6.75856,-9.00647 2.59932,-0.376977 5.20271,-0.62090852 7.80203,-1.0182059 24.68522,4.3061572 62.28682,-5.439344 70.47152,3.6266743 2.333,-0.9679482 5.1794,0.4903988 7.5402,0.6432216 1.2361,0.081562 1.2355,0.3758819 1.6329,3.4323398 0.3471,2.8459662 -0.1761,1.734407 0.2055,4.5531862 0.8147,-2.353444 1.9345,-1.790899 2.2962,-4.8474259 0.4968,-4.1568379 1.3706,-2.9661326 2.8451,-2.8438603 0.7826,0.1239539 1.5674,0.096145 2.3485,-0.082114 0.4491,-0.1425926 1.3402,-1.2928386 1.7376,-0.8649276 0.9777,1.0188261 3.12,-2.3235543 3.6208,-0.6322726 0.2326,0.7859061 0.6982,0.7518192 1.1791,0.3955128 v -0.057479 c 0.3033,-2.3032038 0.6786,-2.0821958 1.247,-1.5067802 0.051,-0.094595 0.1065,-0.1923319 0.1454,-0.2778174 0.2552,-0.5567068 0.1124,-0.2159973 -0.1221,0.3024512 0.2302,0.2348049 0.4902,0.5164103 0.7931,0.7184924 1.271,0.692853 2.5592,1.157932 3.8554,1.3945587 14.9635,-5.21433561 13.48,-4.64071522 15.0493,-1.7791229 4.6512,0.3281452 6.7781,0.084798 7.6779,-0.1929668 -0.1984,0.8687991 0.5929,3.1730602 6.2369,8.5480046 5.3287,-10.54638871 25.0702,-9.1831465 192.4327,-8.676649 -5.0263,15.615967 -0.787,18.628599 2.172,0.5268941 0.6676,-3.7697007 1.2688,0.9306253 2.8586,0.9306183 1.244,0 2.4991,-0.1014334 3.7391,0.1532784 28.8297,0.6415547 20.0369,-2.3096019 32.3733,5.0226021 0.4293,0.2547047 3.6062,-7.2291989 4.0513,-7.2903 1.0375,-0.1732133 -0.1704,4.5285534 0.8669,4.5285534 0.8692,4.3467987 0.8003,-0.9477309 2.8314,0.7458631 1.2133,1.0116719 -2.2555,-4.7536185 -0.9638,-4.83511 5.1867,-0.3158759 5.8854,-1.39746448 11.0522,-0.8676646 49.4728,8.431666 62.2109,-1.34087305 120.0858,0.2504459 12.7249,12.7617693 7.9143,-0.64060032 31.6714,3.3228546 5.2423,0.8762265 11.2172,-2.8012353 15.5011,0.4981549 9.2959,-5.6013327 5.9429,-3.4140837 11.3199,2.5687806 0.4969,-4.1568379 1.3705,-2.9661326 2.845,-2.8438603 6.1589,6.3887805 9.4203,-2.9417722 10.9534,-2.0049351 1.2711,0.6926428 2.561,1.1582824 3.8573,1.3945587 57.4591,-8.2923744 46.2138,12.0763969 93.802,-0.5091026 2.3052,-0.6520022 4.6218,-0.8961551 6.9351,-1.2221211 2.6867,-0.3769771 5.3262,-1.335271 8.0249,-0.907353 1.2957,0.2343144 2.5636,1.253598 3.8593,1.253598 1.3592,0 0.874,1.0899577 1.9432,2.6385767 0.5524,0.8354457 1.5224,0.4170747 2.1624,1.018206 0.5834,0.6433835 1.1425,1.4240518 1.6697,2.33202 1.1923,1.7727739 1.1911,0.2648145 2.3835,-0.7540746 1.0413,-0.9169372 1.3917,-1.4044519 2.0634,0.4803634 1.2883,9.6618911 1.7328,7.7127971 2.2768,-0.7540747 0.155,-2.0070875 0.072,-3.0363386 0.7952,-3.8921747 8.9089,-0.7184286 19.8109,0.9620098 27.874,1.018206 2.8259,0 5.663,-0.3056324 8.4808,0.1833867 1.3514,0.2343144 2.7074,0.9078519 4.0707,0.6938578 1.3632,-0.2139239 1.6131,0.7429336 2.5948,3.3817029 0.8227,2.1803011 1.7731,-6.074214 3.0331,-7.2560861 1.0652,-0.9984287 1.2862,5.6577944 2.3912,5.3113679 0.9142,-0.2954855 2.1625,0.5296311 3.1204,0.5296311 1.4625,0.01051 2.9492,-0.062713 4.4159,-0.2052837 77.3831,-3.0905112 36.5718,2.3553279 115.7182,-2.7206897 7.3168,-1.6217021 15.3566,-1.2421303 22.2248,-1.5971054 21.1182,5.4545562 45.0365,0.5046567 64.8999,0.9566207 l -0.01,284.0452523 h 0.2617 c 0,1.31542 1.6601,2.54704 2.3098,3.84564 0.5587,1.53652 0.4049,3.08036 -0.4596,4.61477 -1.2272,2.86926 -1.8917,5.80553 -2.1372,8.69444 -0.041,5.10337 -10.3623,14.64964 1.6446,28.64389 -0.5031,4.84675 0.033,10.52173 -2.2651,15.68502 -7.1931,55.85212 0.5259,27.05231 -3.8535,81.66039 -0.2021,1.03495 -0.3058,2.08408 -0.2909,3.1162 0,0.67594 1.1692,1.55555 0.7505,2.20065 -0.4909,0.77971 8.9414,0.93711 7.5266,1.68879 -1.6748,0.8891 -13.3722,1.55987 -10.2824,2.14042 3.7393,0.6928 5.0933,0.8691 4.7901,1.83113 -0.3032,0.96203 0.6532,1.91899 0.9852,2.8726 0.6929,1.98856 0.2599,3.99053 0.2599,5.9847 0.079,5.69001 2.4611,13.3834 1.4429,19.67026 -1.2127,0.5105 -2.6713,0.45035 -5.5155,0.55974 -1.1606,0.0407 -3.9294,0.0815 -6.5627,0.16286 0,0.35501 0,0.66868 0.01,1.02504 2.1242,0.10222 4.2532,0.20097 5.4883,0.42015 2.6709,0.47401 1.9781,0.71994 0.6788,1.45478 -1.4439,0.84143 -3.5808,0.84191 -1.0686,1.68332 1.2866,0.37209 2.393,0.76657 3.3047,1.17833 0.8518,0.45157 0.2608,1.13608 1.4447,1.52594 2.1945,0.75447 3.7391,0.41208 3.7391,1.3713 0,0.91435 1.4444,1.80907 1.7764,2.72342 0.6064,1.90442 -0.7516,3.76709 -1.2858,5.66309 -0.4619,1.63236 -0.8078,3.26721 -1.7318,4.89396 -17.8344,33.58216 11.0293,25.6465 -0.7214,66.19433 0.3347,0.91474 0.9947,1.82368 1.9761,2.72069 1.3276,1.08185 -11.8963,3.38338 -2.843,7.72961 0.1734,1.04056 1.8626,1.65845 -4.028,2.00904 8.4781,3.79443 11.5776,1.4283 3.6401,7.98826 4.6755,3.02309 -0.5377,7.23805 0.704,10.93751 0.5342,1.61554 1.273,3.23182 1.6485,4.85016 0.3897,1.73053 2.1207,3.62564 -0.9833,5.258 -1.0367,0.66713 -1.6377,1.35657 -1.79,2.05283 -0.3146,0.39513 -0.4108,0.79563 -0.2871,1.19475 0.1588,0.25523 1.4423,0.67715 1.2257,0.91556 -0.6786,0.62546 -7.6526,1.09857 -7.6526,1.68196 0,0.52448 6.4702,1.21266 8.376,1.60532 5.3418,1.10507 3.7693,3.3903 4.1735,4.79268 0.3807,1.4426 -5.0836,44.62795 -12.662,54.56161 15.0541,2.85374 6.8742,3.8405 8.9636,12.56471 0.1599,0.1171 0.2427,0.23743 0.2327,0.35856 h 0.1571 v 0.28056 c -0.086,1.40237 3.4983,4.4839 3.2096,6.10785 -0.3032,1.98858 0.05,8.88334 0.4539,10.86906 0.7507,3.64621 -0.782,4.13923 -1.2296,7.79941 -0.1155,0.91154 -8.2853,-1.53776 -6.8517,-0.68157 2.4,1.43342 -5.1027,1.38612 1.057,1.99952 0,0.73202 6.6626,-0.12038 6.4173,0.61171 -0.086,0.31412 -10.6918,2.55601 -10.3309,2.85893 10.3903,8.70558 6.2082,2.50066 7.1173,22.8453 0.361,0.87503 0.2173,1.76065 0.2173,2.63856 0,1.12189 6.6606,1.54476 1.3187,2.01591 -1.1874,0.10651 -8.1551,0.50248 -13.1662,0.91421 0,1.05617 9e-4,2.02236 0,3.08336 2.2734,-1.58652 6.0194,-3.91075 13.9108,-2.46345 -7.9392,59.68423 4.2075,72.47062 -12.2973,135.79639 7.6211,3.98517 10.8856,4.54082 12.1151,4.39991 -0.394,0.63413 -0.7388,2.13476 -0.2734,5.4195 4.055,1.10746 4.8679,0.061 -2.5212,10.61996 0.3353,0.9147 0.9943,1.82386 1.9761,2.72076 0.2864,0.21378 0.6855,0.39582 1.0182,0.55831 0.7347,-0.1655 1.2175,-0.26493 0.4287,-0.0849 -0.1212,0.0273 -0.2617,0.0673 -0.3957,0.10265 0.8154,0.40115 1.1305,0.66602 -2.1333,0.88001 h -0.081 c -0.5049,0.33935 -0.5533,0.66791 0.5604,0.83208 2.3967,0.35344 -2.3396,1.8652 -0.8959,2.55511 0.6064,0.28049 -1.0256,0.9079 -1.2277,1.22483 -0.2526,0.55117 -0.29,1.1064 -0.1144,1.65869 0.1733,1.04054 1.8606,1.65709 -4.0299,2.00765 -3.8652,0.2278 -3.6675,0.87966 -5.946,1.42607 10e-5,0.081 0,0.15576 0,0.23677 2.5979,0.12934 1.9349,-0.11709 5.529,0.10125 4.3313,0.28042 4.7482,0.2814 4.8639,1.1537 0.2165,1.66599 2.2812,3.67455 0.9095,5.32091 8.5832,53.82532 8.0958,63.1157 -0.9095,93.59555 -0.1156,0.8722 -0.5326,0.8731 -4.8639,1.1536 -1.4256,0.087 -3.3963,-0.1821 -5.5116,-0.5446 v 1.2399 c 2.2585,0.5422 4.396,0.9785 5.9286,1.0688 5.8905,0.3506 4.2032,0.9672 4.0299,2.0077 -0.1756,0.5523 -0.1382,1.1062 0.1144,1.6573 0.2021,0.317 1.8341,0.9458 1.2277,1.2263 -1.4437,0.6899 3.2926,2.2016 0.8959,2.5551 -1.1137,0.1641 -1.0653,0.4928 -0.5604,0.8321 h 0.081 c 5.9418,0.4099 0.9118,15.247 -1.5282,26.5979 0.2742,1.9773 3.9987,3.8238 4.0997,5.8067 0.029,0.7517 0.8177,1.8809 -2.8061,2.3744 -2.7432,0.3647 -7.5411,-0.859 -10.5152,-0.5364 4.1147,0.6086 13.6808,1.8064 14.9369,2.8329 5.5787,5.2114 -3.9931,47.2256 -11.607,50.6516 -2.5122,0.8414 -0.3753,0.8419 1.0686,1.6833 1.2993,0.7349 1.9921,0.9808 -0.6788,1.4548 -1.0757,0.1909 -2.852,0.2861 -4.6874,0.3764 v 1.0894 c 2.3074,0.062 4.738,0.1065 5.756,0.1423 2.8442,0.1093 4.3027,0.05 5.5155,0.5611 0.6786,0.2833 0,1.0406 0,1.3603 v 5.9259 c -5.7374,22.1357 -10.6265,29.3417 3.739,46.9155 0,1.6323 -4.5788,1.0486 -5.0985,2.681 -0.6353,2.0082 5.0456,4.9428 4.3092,6.9454 -13.8688,5.5591 -0.2914,45.5034 0.6632,56.0424 -5.5726,4.2483 -1.5951,11.5641 -2.9788,15.3784 -0.1444,0.5357 0.7357,1.0726 0.3025,1.5999 -0.8084,0.9817 -6.5083,1.6786 -9.8867,2.332 12.7123,0.74 6.9938,-1.0329 10.1544,-0.3161 -1.5461,2.4088 5.9701,11.9805 2.1817,13.8744 -1.5015,0.219 -10.2376,0.095 -12.0568,0.1656 -4.4048,1.5408 3.3407,0.1424 4.249,1.3507 3.032,0.1094 7.5537,-0.149 8.5932,0.412 1.1261,0.6114 -5.3706,1.6594 -5.1973,2.3128 0.2021,0.7321 7.4647,0.044 4.7649,0.605 -7.873,1.8474 4.5873,20.1924 1.4158,30.6515 -5.2146,17.226 -12.5226,7.2771 -4.5051,23.0082 -0.3755,1.6183 -1.1143,3.2333 -1.6485,4.8488 -1.2417,3.6994 -3.7647,7.2478 -0.704,10.9388 1.3716,1.6464 1.0233,3.4046 0.8068,5.0706 -0.1155,0.8723 -0.5345,0.8718 -4.8658,1.1523 -1.8455,0.1121 -3.6724,0.2358 -5.5097,0.3531 v 1.0729 c 1.9565,0.1228 3.9843,0.2235 5.9286,0.3381 5.8905,0.3506 4.2013,0.9685 4.028,2.009 -0.1756,0.5524 -0.1363,1.1062 0.1163,1.6573 0.2022,0.317 1.8341,0.9458 1.2277,1.2263 -18.3643,1.4491 -13.1833,2.545 0.4169,3.3899 4.6201,0.3029 2.0928,0.7016 1.0821,1.4561 -0.9814,0.897 -1.6414,1.8059 -1.9761,2.7207 -19.6589,34.868 21.6382,29.3457 -7.5653,53.9854 -0.7579,0.9104 -0.8123,1.8375 -0.1591,2.7508 0.5053,0.7629 1.1853,1.4478 3.5819,2.0761 2.6421,0.7011 3.837,1.0605 4.0824,1.9776 0.4909,1.8091 -0.2436,3.5926 0.7816,5.4045 0.9239,1.6267 1.2697,3.2615 1.7317,4.8939 0.5341,1.8959 1.8922,3.7587 1.2858,5.6631 -0.332,0.9143 -1.7764,1.8091 -1.7764,2.7234 0,0.9593 -1.5446,0.6168 -3.7391,1.3713 -1.1839,0.3898 -0.5929,1.0744 -1.4447,1.526 -0.9117,0.4118 -2.018,0.8062 -3.3047,1.1783 3.5621,6.7242 5.0717,72.9118 5.5155,89.2517 -0.1444,0.9284 1.0986,2.2561 -0.3452,3.1368 -3.8136,0.9122 -18.965,0.8829 -3.0913,3.3844 6.1989,1.0245 -7.644,17.7552 4.6641,24.7545 -0.4042,1.9858 -1.4008,3.9552 -1.0977,5.9436 0.2888,1.624 1.6454,3.4108 1.7318,4.8132 v 0.2805 h -0.1571 c 0.01,0.1211 -0.072,0.2416 -0.2327,0.3586 -1.0251,1.1107 -0.231,2.2667 0.26,3.3886 0.5341,1.2453 0.795,2.499 0.795,3.7471 -0.014,0.5076 -0.29,0.9615 -0.4344,1.4971 1.4446,3.8094 -13.1727,8.1955 -2.2806,16.6664 -6.5208,7.7674 -15.2814,-4.3681 0.2308,2.7522 1.1261,0.6114 0.2165,1.6593 0.3898,2.3128 0.5517,1.8869 -4.9867,5.4431 2.4551,17.2069 0.8646,1.5312 1.0185,3.0756 0.4597,4.6121 l -1.976,128.1981 c 2.494,95.8742 -17.0141,109.0794 2.494,95.8742 0.8014,37.5315 1.5945,64.0495 -0.5799,63.4394 -4.066,-0.8659 -25.6033,4.6211 -24.2359,-3.6102 -49.5606,-7.1808 -72.2434,-16.0112 -40.5922,1.1605 -6.8682,-0.3549 -14.9081,0.023 -22.2249,-1.5984 -79.1464,-5.076 -38.3351,0.3697 -115.7185,-2.7208 -1.4667,-0.1426 -2.9533,-0.2144 -4.4158,-0.2039 -0.9579,0 -2.2062,0.8238 -3.1204,0.5283 -1.105,-0.3464 -1.326,6.3098 -2.3912,5.3114 -1.26,-1.1819 -2.2105,-9.435 -3.0332,-7.2547 -0.9817,2.6387 -1.2316,3.5942 -2.5948,3.3803 -1.3633,-0.214 -2.7193,0.4609 -4.0707,0.6952 -2.8178,0.489 -5.6568,0.1821 -8.4827,0.1821 -8.063,0.056 -18.9632,1.7379 -27.8721,1.0195 -0.7234,-0.8558 -0.6402,-1.885 -0.7952,-3.8921 -0.1192,-1.6913 -0.2227,-8.0902 -0.8784,-8.9052 -0.8545,1.4773 -0.7266,6.2662 -1.3983,8.1511 -0.6717,1.8848 -1.0222,1.3958 -2.0635,0.479 -1.1924,-1.0189 -1.191,-2.5269 -2.3834,-0.7541 -0.5272,0.908 -1.0863,1.6886 -1.6698,2.332 -0.64,0.6011 -1.6099,0.1841 -2.1623,1.0196 -1.0692,1.5486 -0.5842,2.6385 -1.9432,2.6385 -1.2959,0 -2.5637,1.0193 -3.8594,1.2537 -2.6987,0.4279 -5.3382,-0.5304 -8.0249,-0.9074 -2.3133,-0.3259 -4.6299,-0.5701 -6.9351,-1.2221 -36.9474,-1.8231 -104.2623,-5.3071 -108.6126,-1.1209 -1.4745,0.1223 -2.3482,1.3144 -2.8451,-2.8424 -5.377,5.9828 -2.024,8.1701 -11.3199,2.5687 -4.2838,3.2994 -10.2588,-0.3794 -15.5011,0.4968 -2.2893,0.377 -4.5778,0.897 -6.8711,1.1619 -2.4522,0.275 -5.1397,1.498 -7.4529,-0.6925 -0.9454,-0.7315 -1.9223,-1.1556 -2.909,-1.2631 -0.5599,-0.2219 -1.1274,-0.2898 -1.693,-0.2026 -0.3616,0.112 -0.9577,1.0178 -1.2955,0.8649 -0.8863,-0.4788 -1.5587,-5.4003 -2.3854,-5.4003 -0.7432,0 -1.7164,4.5646 -2.2728,5.9095 -1.566,3.7697 -4.8044,2.6598 -6.7917,2.9451 -2.0442,0.2686 -63.2409,-3.586 -77.3175,-8.934 -4.044,10.6234 -5.4422,4.851 -17.805,6.3255 -0.1659,0.1127 -0.3384,0.1698 -0.5101,0.1628 v 0.1123 h -0.3976 c -1.9872,-0.061 -6.352,2.4674 -8.6533,2.2636 -2.8179,-0.214 -12.5882,0.036 -15.4022,0.3216 -5.1668,0.5298 -5.8656,-0.5518 -11.0523,-0.8677 -1.2917,-0.082 2.1771,-5.8482 0.9639,-4.8365 -2.0312,1.6936 -1.9623,-3.5995 -2.8315,0.7472 -1.0372,0 0.1686,4.7018 -0.8688,4.5286 -0.4452,-0.061 -3.6201,-7.5463 -4.0494,-7.2916 -12.3364,7.3322 -3.5436,4.381 -32.3733,5.0225 -1.24,0.2547 -2.495,0.1533 -3.739,0.1533 -1.5898,0 -2.191,4.7017 -2.8586,0.932 -0.2385,-1.3244 -1.5043,-12.8701 -2.2555,-12.9821 -13.6544,2.9311 4.2489,2.1972 0.083,13.5077 -27.1095,-17.3628 -63.3519,9.6106 -93.5537,-1.7833 -0.4531,0 -1.5263,0.4788 -1.9277,0 -3.3893,-17.1833 -1.3839,-7.4761 -6.3358,0.8417 -0.504,0.4713 -8.5778,-2.0086 -10.8177,1.4808 -2.6987,0.4279 -5.3381,-0.5304 -8.0249,-0.9074 -28.1209,-3.9326 -47.082,5.8102 -71.775,-8.3085 -5.6438,5.375 -6.4333,7.6792 -6.2349,8.548 -0.8998,-0.2777 -3.0286,-0.5198 -7.6797,-0.1916 -1.5694,2.8616 -0.083,3.4352 -15.0474,-1.7791 -1.2961,0.2366 -2.5864,0.7017 -3.8573,1.3945 -0.303,0.2021 -0.5611,0.4837 -0.7913,0.7185 0.2345,0.5185 0.3774,0.8592 0.1222,0.3025 -0.039,-0.085 -0.094,-0.1846 -0.1455,-0.2792 -0.5684,0.5754 -0.9437,0.7978 -1.247,-1.5054 v -0.057 c -0.4809,-0.3564 -0.9465,-0.3904 -1.1791,0.3955 -0.5008,1.6913 -2.643,-1.6511 -3.6207,-0.6323 -0.3974,0.4279 -1.2885,-0.7237 -1.7376,-0.8663 -0.7811,-0.1782 -1.566,-0.2061 -2.3486,-0.082 -1.4745,0.1223 -2.3482,1.3144 -2.845,-2.8425 -0.3617,-3.0565 -1.4815,-2.4953 -2.2962,-4.8488 -0.3816,2.8188 0.1416,1.7086 -0.2055,4.5546 -0.3974,3.0565 -0.3969,3.3508 -1.633,3.4323 -2.3608,0.1528 -5.2071,1.6098 -7.5401,0.6419 -8.1847,9.066 -45.7864,-0.6781 -70.47161,3.628 -2.59932,-0.3973 -5.20262,-0.6412 -7.80194,-1.0182 -9.07826,-0.8005 -6.38272,-2.1603 -6.75865,-9.0065 -15.70456,5.8812 2.9392,9.786 -18.04164,6.8442 -2.29327,-0.2649 -4.40527,2.8553 -6.69457,2.4784 -11.5864,0.072 -12.7309,-2.1504 -22.8648,-3.5678 -1.236,-0.082 -1.2354,-0.3758 -1.6329,-3.4323 -0.347,-2.846 3.2518,-8.7113 2.8702,-11.5301 -0.8147,2.3535 -5.0083,8.7678 -5.37,11.8243 -0.4968,4.1569 -1.3725,2.9648 -2.847,2.8425 -0.7826,-0.124 -1.5674,-0.096 -2.3485,0.082 -0.4491,0.1426 -1.3383,1.2942 -1.7357,0.8663 -0.9778,-1.0188 -3.1218,2.3236 -3.6227,0.6323 -0.2326,-0.7859 -0.6983,-0.7519 -1.1791,-0.3955 v 0.057 c -0.581,4.193 -21.6042,0.6435 -37.6892,-1.0784 -9.0576,-8.2701 -54.3866,21.4705 -86.6262,-4.1577 -1.1924,-1.7728 -1.1912,-0.2648 -2.3835,0.7541 -1.0414,0.9168 -1.3918,1.4058 -2.0635,-0.479 -0.6717,-1.8849 -0.5438,-6.6738 -1.3983,-8.1511 -0.6557,0.815 -0.7592,7.2139 -0.8784,8.9052 -0.155,2.0071 -0.072,3.0363 -0.7952,3.8921 -0.4014,0.4788 -1.4746,0 -1.9277,0 h -8.3969 c -9.4968,5.8776 -11.6847,-1.0195 -17.5472,-1.0195 -2.8259,0 -0.2811,3.1864 -3.0991,2.6974 -1.3513,-0.2343 -8.0891,-3.7887 -9.4523,-3.5747 -1.3633,0.2139 -1.6151,-0.7416 -2.5968,-3.3803 -0.8226,-2.1803 -1.3,-4.2393 -2.5599,-3.0574 -1.0652,0.9984 -0.043,7.0822 -1.1481,7.4286 -13.9915,6.0593 -11.8095,-4.2402 -30.0791,3.5445 -2.3132,0 -1.486,-3.2312 -3.7992,-3.5979 -2.8458,-0.4484 -7.0043,3.5606 -9.8421,3.0409 -1.6654,-0.3056 -3.5978,0.216 -5.0326,-2.1171 -0.616,-0.9985 -0.1049,-15.7336 -0.7447,-15.6317 -0.7512,0.112 -1.1889,15.6005 -1.4274,16.9249 -0.6677,3.7697 -1.2668,-0.932 -2.8566,-0.932 -1.244,0 -2.501,0.1014 -3.741,-0.1533 -48.2776,-9.1601 -6.4217,0.1035 -65.6136,2.3759 -2.3013,0.2038 -6.6662,-2.3246 -8.6534,-2.2636 h -0.3997 v -0.1123 c -0.1716,0.01 -0.3441,-0.05 -0.51,-0.1628 -1.5739,-0.7234 -3.2101,-0.163 -4.7999,0.1834 -1.7647,0.3769 -3.5413,0.5611 -5.3099,0.5611 -0.7194,-0.011 -1.3645,-0.2047 -2.1236,-0.3066 -0.7591,-0.1019 -1.5179,0.5192 -2.2651,0.2135 -1.3911,-0.5705 -2.3806,-4.5928 -3.3066,-6.9769 -1.0486,8.9708 1.4638,4.9354 0.448,7.1658 -16.1994,-0.9282 -19.0472,6.7782 -19.8957,-6.9687 5.4322,10.6458 -28.8115,12.3419 -50.0659,9.7565 -24.4104,-3.6798 -10.3121,-8.8384 -32.6042,-3.1806 -2.2933,-0.2649 -4.5817,-0.7849 -6.871,-1.1619 -5.2424,-0.8762 -10.2707,-2.6567 -15.5012,-0.4968 -2.333,0.9679 -4.8244,0.7222 -7.1852,0.5693 -1.2361,-0.081 -1.2355,-0.3771 -1.633,-3.4337 -0.3471,-2.8459 -0.7121,-5.6772 -1.0937,-8.496 -0.8147,2.3535 -1.0464,5.7352 -1.408,8.7917 -0.4969,4.1568 -1.3705,2.9647 -2.845,2.8424 -0.7827,-0.1239 -1.5675,-0.096 -2.3485,0.082 -0.4492,0.1427 -1.3402,1.2929 -1.7377,0.865 -0.9777,-1.0188 -0.6356,-6.7746 -1.1364,-8.4659 -0.5008,-1.6913 -2.0746,0.3462 -2.5755,1.4465 -0.775,1.6913 -0.7798,4.9106 -1.0938,7.315 -0.4292,3.2603 -0.9923,1.4768 -2.0615,0.7636 -1.2711,-0.6925 -2.5591,-1.1583 -3.8554,-1.3945 -49.4103,-13.8729 -41.5868,15.2696 -76.503,-5.3388 -1.29,-0.5348 -2.6038,-0.5731 -3.8981,-0.1122 -1.0811,0.3566 -2.0496,0.8365 -2.94,2.5277 -0.9936,1.8645 -1.5027,2.7076 -2.8024,2.8808 -2.5635,0.3465 -5.0928,-0.1718 -7.6603,0.5516 -2.3053,0.652 -4.622,0.8961 -6.9351,1.2221 -2.6867,0.3769 -5.3263,1.3353 -8.025,0.9074 -1.2957,-0.2344 -2.5617,-1.2537 -3.8574,-1.2537 -1.3593,0 -0.876,-1.0899 -1.9451,-2.6385 -0.5525,-0.8355 -1.5206,-0.4185 -2.1604,-1.0196 -0.5836,-0.6434 -1.1425,-1.424 -1.6698,-2.332 -1.1924,-1.7728 -1.1931,-0.2648 -2.3854,0.7541 -1.0413,0.9168 -1.3917,1.4058 -2.0634,-0.479 -0.6718,-1.8849 -0.5438,-6.6738 -1.3983,-8.1511 -0.6557,0.815 -0.7593,7.2139 -0.8785,8.9052 -0.155,2.0071 -0.072,3.0363 -0.7952,3.8921 -0.4014,0.4788 -1.4998,0.095 -1.9277,0 -66.7548,4.4588 -133.4607,-21.6784 -161.349,-0.1629 -2.814,-0.2852 -5.6047,-0.9884 -8.4226,-0.7745 -2.3012,0.2038 -4.8333,1.1611 -6.8206,1.2221 h -0.3976 v -0.1123 c -0.1716,0.01 -0.3423,-0.05 -0.5081,-0.1628 -1.5739,-0.7234 -3.2101,-0.1631 -4.7999,0.1834 -1.7646,0.3769 -3.5412,0.5611 -5.3099,0.5611 -0.7193,-0.011 -1.3644,-0.2047 -2.1235,-0.3066 -5.3982,1.0195 -11.6116,-9.2958 -23.6154,-1.6094 -0.5643,0.01 -1.094,0.2138 -1.404,-0.8458 -0.31,-1.0596 -0.3738,-3.435 -0.4732,-4.7188 -0.068,-0.8762 -0.4688,-8.3426 -0.576,-8.3426 -0.1855,2.6217 -0.3748,5.2404 -0.5682,7.8554 -0.155,2.1396 -0.084,5.4811 -0.8786,6.2147 -0.8664,0.7947 -2.3533,0.1527 -3.2794,0.275 -2.6738,0.3893 -7.7131,-3.5189 -24.3833,1.7326 -2.1698,0.6101 -4.3563,0.7188 -6.5336,0.3244 -1.8402,-0.4585 -3.5855,-1.63 -5.4496002,-1.63 l -0.3609,-115.3334 c -9.1275,-16.1796 6.5830002,-9.7314 3.4041002,-27.1328 -18.1734002,43.5514 -6.4180002,-139.8293 -5.4579002,-141.3604 8.2640002,-11.7639 5.9756002,-8.1358 6.5883002,-10.0227 0.1924,-0.6535 -10.2966002,-13.594 -9.0461002,-14.2054 1.1544,-0.561 12.3813002,-4.4744 15.7481002,-4.5838 4.1151,-0.1365 8.2356,-0.27 12.3614,-0.4009 -6.7522,-0.6712 -13.8547,0.076 -20.5532,-0.7404 -1.6673,-0.2188 -1.3483,-0.5926 -1.3323,-0.9908 12.0955,-8.4709 -4.1371002,-12.8556 -2.5328002,-16.6649 -0.1603,-0.5357 -0.4668,-0.991 -0.4829,-1.4986 2.0654,-11.0132 5.1198002,-42.8925 6.6229002,-43.2847 3.7516,-0.5414 9.6204,-0.9194 13.9012,-1.385 3.7195,-0.4095 5.6444,-0.5613 0.9308,-0.8951 -4.1095,-0.2488 -8.381,-0.4077 -12.7142,-0.4721 -4.1685,-0.101 -4.4422,2e-4 -5.5485,-0.6337 -1.6033002,-0.8807 -0.2256,-2.207 -0.3859,-3.1353 1.2057,-47.8663 8.4518,-62.2818 -1.6194002,-82.5855 -0.1489,-0.302 -0.7535,-1.0771 0,-1.3604 1.3468002,-0.5104 2.9680002,-0.4517 6.1264002,-0.5611 2.6614,-0.084 12.7291,-0.1572 14.0117,-0.62 -2.3247,-0.603 -9.8588,-0.5127 -12.8248,-0.9867 -2.9661,-0.474 -2.1974,-0.7213 -0.7544,-1.4561 1.6032,-0.8414 3.9746,-0.8405 1.1849,-1.682 -1.4289,-0.3721 -2.6568,-0.7665 -3.6692,-1.1783 -0.946,-0.4515 -0.2892,-1.1361 -1.6039,-1.526 -2.4369002,-0.7544 -4.1521002,-0.412 -4.1521002,-1.3713 0,-0.9143 -1.6035,-1.809 -1.9723,-2.7234 13.7124002,-32.824 13.5218002,-60.6409 4.1521,-76.7527 -0.3717,-0.9148 -1.1054,-1.8237 -2.1953,-2.7207 -1.1223,-0.7545 -3.928,-1.1519 1.2024,-1.4548 3.7837002,-0.2216 8.8505002,-0.225 11.5119002,-0.7719 10.8773,-3.5048 -7.5632,-1.3963 -11.0484002,-2.6193 -0.6734,-0.2806 1.1389,-0.908 1.3634002,-1.2249 0.2805,-0.5512 0.3231,-1.1064 0.128,-1.6587 -0.1924002,-1.0406 -2.0673002,-1.6571 4.474,-2.0077 15.4111,-0.6794 12.8697,-1.0842 0.4635,-1.7641 -4.8098,-0.2805 -5.2728002,-0.2814 -5.4011002,-1.1537 -0.2404,-1.666 -0.6271,-3.4241 0.8960002,-5.0705 3.3989,-3.691 0.5953,-7.2394 -0.7835002,-10.9388 -0.5932,-1.6155 -1.4119,-3.2305 -1.8288,-4.8489 8.9033002,-15.731 0.7871,-5.7821 -5.0035,-23.0081 7.1951002,-9.9748 -10.478,-25.9133 1.0919,-33.5693 1.1543,-0.561 6.1747002,-0.3026 9.5415002,-0.412 1.009,-1.2082 9.612,0.1915 4.7204,-1.3494 -2.0201,-0.07 -11.7237002,0.052 -13.3911002,-0.1669 -1.515,-15.1361 6.2251002,-13.1934 13.6994002,-13.5569 -19.6191002,-0.4768 -4.5642,-6.9308 -9.9546002,-12.5648 -0.1778,-0.117 -0.2636,-0.2387 -0.256,-0.3599 h -0.1745 v -0.2805 c 0.096,-1.4023 -3.8852,-4.4826 -3.5645,-6.1066 3.5758,-41.7707 18.1536002,-12.2336 3.739,-46.3023 -0.4008,-0.875 -0.2405,-1.7608 -0.2405,-2.6386 0,-1.1219 -7.3982,-1.546 -1.4661,-2.0173 29.1145002,-3.9118 29.2332002,3.1929 2.0344,-1.5327 -3.6715,-1.0126 -2.8508,-2.3749 -3.3318,-3.5501 -0.8177,-2.0026 5.4917002,-4.9385 4.7863002,-6.9467 -0.5772002,-1.6324 -5.6629002,-1.0474 -5.6629002,-2.6797 12.2503002,-12.8926 -3.9575,-11.3527 5.5775002,-21.2263 0.5451,-0.7796 10.1192,-0.059 11.6904,-0.8115 1.8598,-0.8891 -1.3786,-1.226 -4.8096,-1.8066 -4.1524,-0.6928 -5.6582,-0.869 -5.3215,-1.831 0.3367,-0.962 -5.2554002,-5.7181 -5.6241002,-6.6718 -0.7696,-1.9885 4.2433002,-0.1927 4.2433002,-2.1869 0,-4.137 -10.8531002,-5.681 -1.6039002,-12.3827 v -5.9259 c 0,-0.3197 -0.7535,-1.077 0,-1.3603 1.3468002,-0.5105 2.9680002,-0.4517 6.1264002,-0.5611 2.6614,-0.084 12.7291,-0.1573 14.0117,-0.62 -2.3247,-0.603 -9.8588,-0.5128 -12.8248,-0.9867 -2.9661,-0.4741 -2.1974,-0.7213 -0.7544,-1.4562 1.6032,-0.8414 3.9746,-0.8405 1.1849,-1.6819 -6.6056002,-2.6766 -14.5368002,-28.9053 -14.7370002,-42.7373 z M 1076.9705,1915.9205 c 1.2137,0.3746 0.1848,0.8088 0,0 z M 1916.0428,880.1696 c 0.5304,-0.85366 1.1427,-0.13096 0,0 z M 1074.399,2.3707167 c 0.1847,-0.808868 1.2136,-0.3746437 0,0 z M 5.3582898,876.10091 c -0.059,-0.16873 0.3454,-0.25036 0.7136,0.28329 -0.4763,-0.049 -0.6784,-0.18211 -0.7136,-0.28329 z"
     id="path2"
     inkscape:connector-curvature="0"
     sodipodi:nodetypes="ccccccccccccccccccccccccccccccccccccccccccccccccscccccccccccccccsccccccccccccccsccccccccccccccccccccccccccccccccccccccccccccccccccccccccsccccccccccccccccccccccccccccccsccccccccscccccccccccscscccccccccccccccccccccccccccccccccccccccccccccccccccccccccccccsccccccccccccccccccccccccccccccccccccccccccsccccccccccccccscccccccccccccccscccccccccccccccccccccccccccccccccccccccccccccccscccccccccccccccccccccccccccccccccccccsccccccccccccccccccccccccccccccccccccccccccsccccccccccccscccccccccccccccscccccccccccccccccccccccccccccccccccccccccccccccccscscccccccccccsccccccccscccccccccccccccccccccccccccscccccccccccccccccccccccccccccccccccccccccccccccccsccccsccccccccccccccccccccccccccsccccccccccscsccccccccccccccccc" />
</svg>
