<?xml version="1.0" encoding="UTF-8" standalone="no"?>
<svg
   xmlns:dc="http://purl.org/dc/elements/1.1/"
   xmlns:cc="http://creativecommons.org/ns#"
   xmlns:rdf="http://www.w3.org/1999/02/22-rdf-syntax-ns#"
   xmlns:svg="http://www.w3.org/2000/svg"
   xmlns="http://www.w3.org/2000/svg"
   xmlns:sodipodi="http://sodipodi.sourceforge.net/DTD/sodipodi-0.dtd"
   xmlns:inkscape="http://www.inkscape.org/namespaces/inkscape"
   viewBox="0 0 899.99995 899.99994"
   width="100%"
   height="100%"
   preserveAspectRatio="none"
   version="1.1"
   id="svg4"
   sodipodi:docname="big-note1.svg"
   inkscape:version="0.92.2 (5c3e80d, 2017-08-06)">
  <metadata
     id="metadata10">
    <rdf:RDF>
      <cc:Work
         rdf:about="">
        <dc:format>image/svg+xml</dc:format>
        <dc:type
           rdf:resource="http://purl.org/dc/dcmitype/StillImage" />
        <dc:title />
      </cc:Work>
    </rdf:RDF>
  </metadata>
  <defs
     id="defs8" />
  <sodipodi:namedview
     pagecolor="#ffffff"
     bordercolor="#666666"
     borderopacity="1"
     objecttolerance="10"
     gridtolerance="10"
     guidetolerance="10"
     inkscape:pageopacity="0"
     inkscape:pageshadow="2"
     inkscape:window-width="1920"
     inkscape:window-height="1017"
     id="namedview6"
     showgrid="false"
     inkscape:zoom="0.7071068"
     inkscape:cx="798.99862"
     inkscape:cy="480.78131"
     inkscape:window-x="-8"
     inkscape:window-y="-8"
     inkscape:window-maximized="1"
     inkscape:current-layer="svg4"
     inkscape:measure-start="0,0"
     inkscape:measure-end="0,0" />
  <path
     style="fill:#f1eee5;stroke-width:0.21536888"
     d="m 498.23595,0.78855107 c -1.81547,-0.026 -3.1755,0.23200003 -3.70983,0.86720003 -0.48122,0.6539 -1.0433,5.6325 -1.32858,7.7744 2.52413,-10.5012 -16.02989,-5.7311 -16.05061,-5.5953 v 0.043 c -0.15905,0.2628 -0.31308,0.2879 -0.39005,-0.2918 -0.16565,-1.2476 -0.87487,1.2179 -1.19831,0.4663 -0.13148,-0.3156 -0.42562,0.5339 -0.57417,0.6391 -0.25838,0.1315 -0.51797,0.1515 -0.77686,0.06 -0.97247,13.8176999 6.64631,-8.6364 -2.71809,10.8196999 -0.12624,-2.0792 1.06425,-6.4058999 0.94945,-8.5051999 -0.13149,-2.2546 -0.1313,-2.4716 -0.54014,-2.5318 -3.35218,-1.0455 -3.73082,-2.6845 -7.56345,-2.6317 -0.75728,-0.2781 -1.45524,2.0226 -2.21384,1.8272 -6.94025,-2.17 -0.77374,0.7118 -5.96863,5.0499 -0.12438,-5.0501 -1.55519,-0.1289 -4.55818,-0.7194 -0.85982,-0.278 0.60157,-6.3828 -0.25826,-6.6759 -8.16558,3.1765 -20.60382,-4.012 -23.31123,2.6754 -0.77174,-0.7139 -1.71325,0.3618 -2.49418,0.4745 -0.4089,0.06 6.67496,3.4038 6.54352,5.6583999 -0.11483,2.0993 -7.02546,-1.8468999 -7.15169,0.2324 -0.26949,-1.7360999 -0.6393,-1.3216999 -0.75892,-3.5762999 -0.16436,-3.0662 -0.45396,-2.1874 -0.94171,-2.0972 -0.25889,0.091 -0.51853,0.072 -0.77689,-0.06 -0.14859,-0.1052 -0.44266,-0.9547 -0.57414,-0.6391 -0.32342,0.7516 -1.03272,-1.7139 -1.19836,-0.4663 -0.077,0.5797 -0.231,0.5546 -0.39004,0.2918 v -0.043 c -0.10031,-1.699 -0.22443,-1.5354 -0.41247,-1.1109 -0.0167,-0.07 -0.0352,-0.1424 -0.0481,-0.2055 -0.0844,-0.4106 -0.0378,-0.1597 0.0397,0.2228 -0.0762,0.1732 -0.16156,0.3809 -0.26174,0.5299 -0.42042,0.5111 -0.84656,0.8546 -1.27532,1.0291 -4.94973,-3.84630003 -4.45902,-3.42260003 -4.97811,-1.3118 -1.53972,0.2423 -2.24314,0.062 -2.54039,-0.1427 0.0659,0.6403 -0.19481,2.34 -2.06246,6.3062 -8.16814,-10.4145 -14.43961,-3.228 -23.74167,-6.1289 -0.88873,-0.2781 -1.7619,-0.9847 -2.6546,-0.6691 -0.74092,2.5739 -3.41161,0.745 -3.57834,1.0927 -0.39443,1.3077 -0.003,4.446 -0.39772,3.6944 -0.34445,-0.6763 -0.45977,-1.0367 -0.68193,0.3537 -0.2222,1.3903 -0.18052,4.9218999 -0.46316,6.0115999 -0.21694,-0.6012 -0.25116,-5.3203999 -0.29061,-6.5679999 -0.0513,-1.4805 -0.0236,-2.2404 -0.26303,-2.8717 -0.13276,-0.3532 -0.48775,0 -0.63766,0 -10.33879,-2.1514 -12.92047,3.9223 -22.7009,-1.1509 -1.3779,8.3430999 -6.13978,-6.0216 -8.21801,9.7987999 -0.24847,-0.083 -0.66722,-8.5981999 -0.74608,-9.5751999 -0.22088,-2.78060003 -0.41904,0.6873 -0.94493,0.6873 -0.41151,0 -0.82727,-0.075 -1.23748,0.1127 -9.53652,0.4732 -6.62737,-1.7041 -10.70808,3.7044 -0.14199,0.1879 -1.19287,-5.3329 -1.34012,-5.378 -0.34314,-0.1277 0.0557,3.3408 -0.2874,3.3408 -0.28752,3.2064 -0.26473,-0.6983 -0.93662,0.5509 -0.40133,0.7463 0.74678,-3.507 0.31949,-3.5671 -1.71573,-0.233 -1.94683,-1.0308 -3.65597,-0.64 -0.93084,0.2104 -1.6086,3.6853 -2.54076,3.5275 -0.76122,-0.1503 -4.75982,-1.5752 -5.41718,-1.6203 h -0.13151 v 0.082 c -0.0568,0 -0.11383,0.037 -0.16872,0.12 -4.08943,1.0876 -4.55138,-3.17000003 -5.88907,4.6662 -4.65771,-3.9448 -24.90081,-6.7879 -25.57704,-6.5898 -0.65736,0.2105 6.98024,2.8468 6.46223,5.6275 -0.18406,0.992 -9.21543,0.9042 -9.46129,0.9042 -0.27346,0 -0.49587,-3.6303 -0.78906,-3.9836 -0.11175,-0.1127 -0.30889,0.5555 -0.42853,0.6382 -0.18708,0.064 -0.37482,0.014 -0.56004,-0.15 -0.32636,-0.079 -0.64954,-0.3922 -0.96226,-0.9318 -0.76517,-1.6158 -1.65414,-0.7138 -2.46533,-0.5109 -0.7586,0.1954 -1.51559,0.5792 -2.27287,0.8573 -1.73412,0.6463 -3.71052,-2.0665 -5.1276,0.3672 -3.07498,-4.13170003 -1.96586,-2.5187 -3.7445,1.8945 -0.16434,-3.0662 -0.45333,-2.1874 -0.94109,-2.0972 -2.0373,4.7126 -3.11614,-2.171 -3.62325,-1.48 -0.42048,0.5109 -0.84655,0.8549 -1.27533,1.0291 -19.00676,-6.1168 -15.28692,8.9080999 -31.02856,-0.3754 -0.76254,-0.481 -1.52888,-0.6613 -2.29405,-0.9018 -0.88875,-0.2781 -1.76187,-0.9847 -2.65457,-0.6691 -0.4286,0.1729 -0.848,0.9245 -1.27661,0.9245 -0.44963,0 -0.28913,0.804 -0.64279,1.9463 -0.18274,0.6163 -0.50361,0.3084 -0.71528,0.7518 -0.19301,0.4746 -0.37793,1.0502 -0.55234,1.72 -0.39442,1.3076 -0.39465,0.1961 -0.78907,-0.5555 -0.34445,-0.6763 -0.45973,-1.0367 -0.68192,0.3537 -0.22219,1.3903 -2.3869,1.7953 -2.66956,2.8849999 -0.21693,-0.6011999 -0.59954,-2.5229999 -0.63898,-3.7704999 -0.0513,-1.4805 2.53105,-1.9113 2.29175,-2.5426 -2.94697,-0.53 -6.55261,0.7103 -9.2198,0.7518 -0.93477,0 -1.87319,-0.2253 -2.80532,0.1354 -0.44701,0.1729 -0.89558,0.6697 -1.34653,0.5118 -0.45096,-0.1578 -0.5336,0.548 -0.85835,2.4945 -0.27213,1.6083 -1.28331,-2.3415 -1.70008,-3.2133 -0.35234,-0.7365 -3.9099,-0.1049 -4.2754,-0.3605 -0.30238,-0.2179 3.46519,2.5293 3.14834,2.5293 -0.4838,0.01 -8.75602,-4.8179 -10.75079,-0.9737 -13.63655,-2.9379 -12.5621,-4.5153 -28.98821,-1.1835 -2.42029,-1.1962 -5.07981,-0.9172 -7.35172,-1.1791 -6.5598,6.2501 -23.57621,-8.3378 -13.42682,4.6412 -1.35418,-0.1278 -9.35037,4.6273999 -10.69533,3.9885999 -0.71926,-0.45 5.17688,-9.4160999 4.45664,-9.1251999 -0.0101,0.01 -49.257406,10.7103999 -0.0301,0.02 l -78.268892,0.47 -54.8754566,-0.489 c 0,0.8738 -0.549129,1.6919 -0.7640394,2.5545 -0.1848504,1.0206 -0.1339463,2.0455 0.1520382,3.0626 2.4616608,7.8141999 0.6303053,10.1762999 0.8127941,11.4296999 0.057318,0.4341 -0.2435556,1.1311 0.1289436,1.5372 0.3438581,0.3726 1.9095265,0.3392 2.9124598,0.4118 1.2257883,0.091 2.453972,0.1794 3.6829136,0.2664 0,0.05 -3.5005605,0.2383 -3.9112919,0.27 -0.6017599,0.047 -0.3210895,3.5322 -0.8177772,3.6775 -0.4966546,0.1453 -1.7947238,-3.0621 -1.7899644,-2.7976 3.6029715,5.6268 -1.2329253,8.5394 -0.7550583,11.0697 -0.047757,0.3559 -0.1382943,0.6582 -0.1430569,0.9955 0,0.829 0.086345,1.6618 0.2630197,2.489 0.1623874,0.7452 0.4244161,1.5121 0.085321,2.2499 -0.05298,0.078 -0.078544,0.1587 -0.07634,0.2391 h -0.051962 v 0.1864 c 0.028575,0.9315 2.7448797,7.5693 10.8875057,8.1826 2.070998,3.6481 -10.5440182,-2.3574 -10.6777317,-1.0383 4.0713789,4.6493 -0.5077018,15.7626 1.5428337,16.4432 1.1175304,0.3596 2.8651884,0.6116 4.1403108,0.9208 1.1079727,0.272 1.681239,0.3719 0.277133,0.5937 -1.2241463,0.1652 -2.4960817,0.2708 -3.7868386,0.3136 -1.2417186,0.067 -1.3236362,-2e-4 -1.6531737,0.4209 -0.4775715,0.585 -0.067073,1.466 -0.1148303,2.0827 0.359164,31.795199 2.5182218,41.370699 -0.4817747,54.857499 -0.044374,0.2005 -0.2244652,0.7154 0,0.9036 0.4011732,0.3391 0.8836347,0.3 1.824457,0.3727 4.4765264,0.7211 4.3803853,-0.2363 0.3534725,1.0672 -0.8835072,0.3149 -0.6549847,0.4792 -0.2251703,0.9673 0.4775714,0.5589 1.1844601,0.5592 0.3534724,1.1181 -0.4256429,0.2472 -0.7915484,0.5092 -1.0931344,0.7827 -0.2817803,0.3 -0.085669,0.7538 -0.4772841,1.0127 -0.7259152,0.5012 -1.2368329,0.2746 -1.2368329,0.9118 0,0.6074 -0.4777892,1.2008 -0.58762408,1.8082 -0.20058657,1.265 0.24864658,2.5032 0.42532178,3.7626 0.1528294,1.0843 0.2672432,2.1702 0.5728693,3.2508 0.3390954,1.2035 0.0955,2.3882 0.2578873,3.5899 0.081194,0.6092 0.4770725,0.8479 1.3510217,1.3136 0.7927883,0.4173 1.017079,0.8714 1.1842291,1.3781 0.2160571,0.6067 0.1987467,1.2235 -0.051962,1.8282 -9.66018,16.3669 4.0003867,12.6987 -2.5025339,35.8598 -0.1107216,0.6077 -0.3290559,1.2115 -0.6536994,1.8073 -0.3343,0.5011 -1.17029872,0.766 0.3579628,0.9672 1.1270884,0.1472 2.6360874,0.1485 3.4288761,0.5118 0.5158032,0.2348 1.470865,0.9725 0.6780769,1.2072 -0.7927884,0.2348 -3.4914566,0.074 -3.9690281,0.5328 -0.2005866,0.1863 0.3392032,0.604 0.4060763,0.8145 0.083559,0.3661 0.095953,0.734 0.037849,1.1009 -0.057315,0.6911 -0.6154582,1.1006 1.3330596,1.3336 1.4327149,0.1695 3.0178564,0.278 4.1210661,0.6599 -1.3213032,0.1789 -2.6491267,0.35 -3.9831412,0.5127 -1.4327476,0.1864 -1.5707102,0.1861 -1.6089094,0.7655 -0.071636,1.1066 -0.1868243,2.2745 0.2668686,3.3681 0.9578175,11.3976 -1.67888185,22.1202 -2.2683824,25.7701 -1.0491135,6.9475 3.0726111,19.1332 0.46830284,20.3604 -0.89306521,0.3726 1.50935506,-0.085 1.57619216,0.4009 0.057318,0.434 -2.0917483,1.131 -1.71924913,1.5372 0.34385805,0.3726 1.83960173,0.201 2.84253453,0.2736 0.300535,0.8026 2.8626363,-0.1271 1.4055507,0.8964 -0.6017601,0.047 -3.4922272,-0.035 -3.9889147,0.1109 -1.25314882,1.258 1.2337764,7.616 0.7223413,9.2161 1.0455005,0.4761 -0.84610884,-0.7016 3.3589509,-0.21 -1.1175307,0.434 -3.0029956,0.8969 -3.2704225,1.549 -0.1432714,0.3503 0.1471912,0.706 0.099434,1.0618 -0.047757,0.3558 -0.1382944,0.6582 -0.143057,0.9954 0,0.8291 0.086312,1.6618 0.2630197,2.489 0.1623546,0.7453 0.4244162,1.5122 0.085321,2.25 -0.05298,0.078 -0.07861,0.1586 -0.07634,0.2391 h -0.051962 v 0.1863 c 0.028576,0.9315 -1.15721482,2.9776 -1.06170053,4.0563 1.06517493,27.7462 5.40746753,8.1262 1.11366293,30.7564 -0.1193929,0.5812 -0.071849,1.1704 -0.071849,1.7535 0,0.7453 -2.20327466,1.0261 -0.4362273,1.3391 0.6208429,0.1118 7.8804036,0.317 7.9329233,0.6691 0.047757,0.2999 -6.8586494,0.06 -7.3266956,0.3491 -1.09365185,0.6725 -0.8491458,1.5783 -0.99241722,2.359 -0.24358117,1.3302 1.63494032,3.2795 1.42479572,4.6135 -0.1719126,1.0843 -1.68589066,0.6965 -1.68589066,1.7808 3.64908616,8.5639 -1.17943042,7.5411 1.66087176,14.0996 0.1623545,0.5179 3.0141073,0.039 3.482121,0.5382 0.5540025,0.5906 -0.4104779,0.8153 -1.4324941,1.2009 -1.2369231,0.4602 -1.6854501,0.5773 -1.5851733,1.2163 0.1003098,0.639 -1.5651498,3.7974 -1.6749847,4.4308 -0.22922771,1.3209 1.2637763,0.128 1.2637763,1.4527 0,2.748 -3.23241816,3.7736 -0.477284,8.2252 v 3.9362 c 0,0.2124 -0.2244652,0.7155 0,0.9037 0.4011731,0.3391 0.8836346,0.3 1.8244569,0.3727 0.7927884,0.056 3.7916125,0.1044 4.17367,0.4118 -0.6924788,0.4006 -2.936657,0.3406 -3.8201974,0.6554 -0.8835072,0.3149 -0.6549847,0.4791 -0.2251704,0.9673 0.4776043,0.5589 1.1844603,0.5592 0.3534725,1.1181 -5.4404412,22.6376 -2.7126249,32.977 -1.9482685,40.6052 -0.8071418,7.5398 -2.47097679,17.3954 -0.5055107,17.6677 h 0.026943 c 0.1670186,0.2254 0.1829969,0.4437 -0.1853967,0.5527 -0.79278831,0.2348 0.7739493,1.2389 0.2963778,1.6972 -0.2005866,0.1864 0.3385946,0.6031 0.4054349,0.8136 0.083559,0.3662 0.096594,0.735 0.038491,1.1018 -0.057315,0.6912 -0.6154583,1.1008 1.3330596,1.3336 1.4327471,0.1696 4.4394438,2.1353 5.5426535,2.5172 -1.3213027,0.1789 -4.0706819,-1.5081 -5.4047286,-1.3454 -1.4327147,0.1863 -1.5706774,0.1861 -1.6089094,0.7655 -0.6643958,4.7502 -1.70592109,5.2867 -1.67241882,10.7178 -0.17667516,1.0731 1.28529002,2.0631 1.16113452,3.1381 -1.37897607,9.8348 0.4520612,1.0956 3.2088376,8.457 -3.2091555,0.1763 -3.8465577,-1.0873 -4.22178308,3.1681 -0.17670798,1.2184 -0.29105089,2.4388 -0.47728405,3.6572 2.01851133,11.5712 -2.54969257,29.197 1.70000373,33.0336 -0.4537258,1.0936 0.2298744,2.4278 0.3015101,3.5344 0.038232,0.5795 0.1761947,0.5792 1.6089094,0.7655 1.3340467,0.1627 0.8130033,-0.083 2.1343061,0.096 -1.1031769,0.3819 -0.8394839,0.9068 -2.272231,1.0763 -1.9485179,0.2329 -1.3903747,0.6425 -1.3330596,1.3337 0.058103,0.3668 0.045068,0.7347 -0.038491,1.1008 -0.06684,0.2105 -0.6060181,0.6282 -0.4054349,0.8145 0.4775748,0.4583 -1.08916611,1.4625 -0.2963778,1.6973 0.3683936,0.109 0.3524153,0.3273 0.1853967,0.5527 h -0.026943 c -1.07962686,0.1422 -0.97602935,0.3181 -0.7063033,0.5845 -0.0443414,0.024 -0.0901555,0.05 -0.13022689,0.068 -0.26095632,0.1196 -0.10124874,0.053 0.14177399,-0.057 0.1100648,0.1079 0.2420674,0.2298 0.3367934,0.3718 0.3247748,0.5958 0.5427806,1.1996 0.6536994,1.8072 -2.44421997,7.0142 -2.1753354,6.3188 -0.8339639,7.0544 0.1538181,2.1802 0.039749,3.1772 -0.090453,3.599 0.4072496,-0.093 1.487372,0.2779 4.0068774,2.9235 -4.94362002,2.4979 -4.3046002,11.7517 -4.0671795,90.2029 7.3199849,-2.3561 8.7321563,-0.3689 0.2469817,1.0181 -1.76704736,0.3129 0.4362306,0.5947 0.4362273,1.34 0,0.5831 -0.047547,1.1714 0.071849,1.7527 0.3007287,13.5139 -1.08262601,9.3923 2.3543448,15.175 0.1193928,0.2012 -3.38868716,1.6904 -3.41732831,1.899 -0.0811937,0.4863 2.12275951,-0.08 2.12275951,0.4064 2.037562,0.4074 -0.4442489,0.3751 0.3496234,1.3272 0.4742212,0.5687 -2.22825883,-1.0573 -2.26645797,-0.4518 -0.14806684,2.4313 -0.65506152,2.7588 -0.40671781,5.1807 3.95234368,23.1904 -0.62853427,29.1614 0.11739653,56.2902 5.98207965,5.9648 -0.30028142,3.7099 1.55758815,14.846 0.4107312,2.4573 -1.31307909,5.2581 0.2335102,7.2661 -2.6256249,4.3575 -1.60035188,2.7858 1.2041159,5.3062 -1.9485178,0.233 -1.3903747,0.6425 -1.3330596,1.3336 2.9947411,2.887 -1.37895576,4.4158 -0.9398133,5.1344 0.3246763,0.5959 0.5429449,1.2005 0.6536994,1.8082 -3.8870507,26.9339 5.6608113,21.6627 -0.2386419,43.9696 -0.305626,1.0806 -0.4200727,2.1665 -0.5728693,3.2509 -0.176708,1.2594 -0.62590829,2.4966 -0.42532172,3.7616 0.10983488,0.6074 0.58762412,1.2017 0.58762412,1.8091 0,0.6371 0.5109177,0.4097 1.2368329,0.9109 0.3916152,0.2589 0.1955038,0.7136 0.4772841,1.0136 0.301586,0.2735 0.6675243,0.5355 1.0931344,0.7827 0.8309878,0.5589 0.1241318,0.5583 -0.3534725,1.1172 -0.4298143,0.4881 -0.6583368,0.6524 0.2251704,0.9673 4.5290117,0.6038 3.6153738,0.8122 -0.3534726,1.0672 -0.9408223,0.073 -1.4232838,0.034 -1.8244569,0.3728 -0.3367635,4.176 0.4509421,9.2863 0.477284,13.0659 0,1.3246 -0.1432652,2.6545 0.085963,3.9754 0.1098348,0.6334 0.4255556,1.2691 0.3252458,1.9081 -0.1002768,0.639 0.3482502,0.7561 1.5851733,1.2163 1.0220162,0.3857 -2.8472879,0.8312 -3.40129052,1.4218 -0.46801347,0.4993 2.65209132,0.6029 2.48970382,1.1209 -0.1385088,0.4285 0.2482646,1.0136 0.2482646,1.4626 0.00493,0.6856 -0.029397,1.3825 -0.096227,2.07 -1.4486772,36.2735 1.10406,17.1432 -1.2753234,54.243 -0.7601729,3.4297 -0.5822486,7.1984 -0.7486432,10.4179 2.5568234,9.8991 0.2365579,21.1108 0.448416,30.4218 H 135.17227 v 0.1227 c 0.61661,0 1.19393,0.7782 1.80265,1.0827 0.72024,0.2619 1.44392,0.1898 2.16317,-0.2154 1.34497,-0.5753 2.72134,-0.8868 4.07552,-1.0018 2.3922,-0.019 6.86702,-4.8574 13.42682,0.7709 2.27192,-0.2359 4.93206,0.015 7.35236,-1.0618 26.18068,-3.3718 12.68077,0.2465 38.27831,-1.8063 0.48513,-0.095 0.97691,-0.1434 1.46071,-0.1364 0.31685,0 0.72917,0.5481 1.03156,0.3518 0.36549,-0.2301 0.43927,4.1913 0.79162,3.5281 0.41677,-0.7851 0.73119,-6.2682 1.00332,-4.8199 0.32475,1.7528 0.40739,2.3875 0.85834,2.2454 0.45096,-0.1421 0.89953,0.3062 1.34654,0.4618 0.93213,0.3248 1.87056,0.1218 2.80532,0.1218 2.6672,0.037 6.27347,1.1537 9.22044,0.6764 0.2393,-0.5685 0.2111,-1.2522 0.26238,-2.5854 0.0191,-0.544 0.0382,-1.8419 0.0763,-3.0763 0.16641,0 0.31344,0 0.48048,0 0.0479,0.9957 0.0942,1.9937 0.19695,2.5727 0.22219,1.2519 0.33747,0.9272 0.68193,0.3181 0.39442,-0.6768 0.39464,-1.6785 0.78905,-0.5009 0.17442,0.6031 0.35933,1.1218 0.55235,1.5491 0.21167,0.3993 0.53253,0.1223 0.71528,0.6772 0.35366,1.0287 0.19316,1.7527 0.6428,1.7527 0.4286,0 0.848,0.6771 1.2766,0.8327 0.8927,0.2843 1.76582,-0.3523 2.65457,-0.6027 0.76517,-0.2165 1.53151,-0.3787 2.29405,-0.8118 15.74164,-8.3599 12.0218,5.17 31.02859,-0.3381 0.42879,0.1568 0.85485,0.4662 1.27533,0.9262 0.50711,0.6224 1.58596,-5.5763 3.62325,-1.3326 0.48776,0.081 0.7774,0.8731 0.94174,-1.8881 1.77864,3.9741 0.66951,5.427 3.7445,1.7063 1.41707,2.1916 3.39283,-0.2521 5.12695,0.33 0.75729,0.2504 1.51492,0.5967 2.27352,0.7727 0.81118,0.1827 1.69952,0.9941 2.46468,-0.4609 0.31272,-0.486 0.6359,-0.7677 0.96227,-0.8391 0.18522,-0.1475 0.37295,-0.1925 0.56004,-0.1346 0.11964,0.075 0.31741,0.6761 0.42917,0.5746 0.29318,-0.3181 0.51495,-3.5872 0.78841,-3.5872 0.24585,0 0.56844,3.0329 0.7525,3.9263 0.518,2.5039 1.5892,1.7668 2.24657,1.9563 0.67622,0.1785 20.91935,-2.3829 25.57575,-5.9353 1.33769,7.0566 1.80024,3.2223 5.88971,4.2017 0.0549,0.075 0.1113,0.1137 0.16808,0.1091 v 0.074 h 0.13151 c 0.65736,-0.04 2.10183,1.6398 2.86305,1.5045 0.93215,-0.1421 4.16407,0.023 5.09488,0.2128 1.70916,0.3519 1.94026,-0.3666 3.65597,-0.5764 0.42728,-0.054 -0.72083,-3.8837 -0.31949,-3.2117 0.67192,1.125 0.64975,-2.3919 0.93728,0.4954 0.34313,0 -0.0564,3.1231 0.28674,3.0081 0.14724,-0.04 1.19813,-5.0117 1.34012,-4.8426 4.08074,4.8705 1.17219,2.9101 10.70874,3.3363 0.41017,0.1692 0.8253,0.1018 1.23682,0.1018 0.52589,0 0.72411,3.1222 0.94496,0.6182 0.0499,-0.5566 0.23554,-3.8227 0.42853,-6.1717 0.49508,0 0.94799,4e-4 1.44533,0 -0.74368,1.0657 -1.83316,2.8216 -1.15474,6.5207 27.97698,-3.7215 33.9706,1.9723 63.65456,-5.7644 1.86805,3.5724 2.12851,5.1027 2.06246,5.679 0.29725,-0.1847 1.00067,-0.3463 2.54039,-0.1282 0.51912,1.9008 0.0286,2.2819 4.9781,-1.1818 0.42877,0.1572 0.85494,0.4661 1.27536,0.9263 0.10021,0.1343 0.18554,0.3213 0.26171,0.4773 -0.0776,0.3444 -0.12419,0.5707 -0.0398,0.2009 0.0128,-0.057 0.0315,-0.1226 0.0481,-0.1854 0.18804,0.3822 0.3122,0.5299 0.4125,-1 v -0.038 c 0.15907,-0.2367 0.31309,-0.2594 0.39004,0.2627 0.16568,1.1234 0.87431,-1.0967 1.19771,-0.42 0.13148,0.2843 0.42558,-0.4807 0.57414,-0.5754 0.25836,-0.1184 0.51862,-0.136 0.77751,-0.054 0.48775,0.081 0.77676,0.8722 0.94108,-1.889 0.10679,-1.8118 0.41235,-1.7191 0.66847,-2.7872 0.038,10e-5 0.073,0 0.11099,0 0.0606,1.2178 -0.0549,0.907 0.0475,2.5917 0.13145,2.0303 0.13191,2.2258 0.5408,2.28 0.78093,0.1015 1.72244,1.0693 2.49418,0.4263 25.23062,4.0234 29.58548,3.7949 43.87293,-0.4263 0.40884,-0.054 0.40926,-0.2497 0.54075,-2.28 0.0408,-0.6682 -0.0854,-1.592 -0.25529,-2.5835 h 0.58121 c 0.25415,1.0587 0.45867,2.0606 0.501,2.779 0.16434,2.7612 0.45337,1.9703 0.94111,1.889 0.25889,-0.082 0.51853,-0.065 0.77686,0.054 0.14859,0.095 0.44334,0.8597 0.57482,0.5754 0.3234,-0.6767 1.032,1.5434 1.19771,0.42 0.0769,-0.5221 0.231,-0.4994 0.39004,-0.2627 v 0.038 c 0.19215,2.7852 7.14704,0.4274 12.46777,-0.7164 0.92686,0.1286 1.79241,1.8744 2.72189,1.9218 0.35236,0.014 0.88167,0.3833 1.113,-1.3154 0.17095,-1.2859 -0.40265,-3.5349 -0.25144,-4.929 0.28529,1.9288 0.84675,6.4129 1.32793,7.0017 2.44284,2.615 22.137,-1.8718 23.74293,-5.4408 0.39441,-1.1776 0.39465,-0.1759 0.78905,0.5009 0.34449,0.6091 0.45975,0.9338 0.68194,-0.3182 0.0895,-0.5042 0.13411,-1.3369 0.17644,-2.1972 h 0.51065 c 0.0291,1.0816 0.0499,2.2209 0.0667,2.6981 0.0512,1.3332 0.0234,2.0169 0.26301,2.5854 0.1328,0.3181 0.48778,0 0.63764,0 h 2.77777 c 10.37611,-2.6894 13.75392,-4.9812 21.99164,1.7527 0.76514,0 0.49153,-2.1463 1.25672,-2.39 0.94134,-0.2977 2.31694,2.3652 3.25566,2.02 2.60582,-6.501 21.32972,-0.1366 26.26987,0.3109 1.99139,-2.6122 5.42067,-0.7477 7.20863,-1.3964 0.25111,-0.068 0.50278,0.3449 0.74995,0.1418 0.46017,-0.3789 0.78684,-3.0507 1.09313,-4.6343 0.34687,5.9588 -0.48418,3.2783 -0.14818,4.7598 1.12913,-0.7247 5.61586,2.7985 6.50363,1.0227 0.10265,-0.7038 0.0445,-4.7989 0.0776,-5.6516 0.72225,-2.0648 0.0668,1.5659 0.63314,1.9917 0.0513,1.4212 -0.0698,3.5408 0.19313,4.0281 0.28659,0.5278 0.77784,-2.5175 1.08412,-2.4363 0.34318,0.095 0.0206,3.4991 0.2836,2.2336 0.86597,-3.6905 9.46519,2.1503 14.36789,0.6636 8.07469,-2.4443 3.41114,-5.8699 10.78509,-2.1117 0.75858,-0.1761 1.51561,-0.5224 2.27288,-0.7728 1.73409,-0.582 3.39741,-1.7647 5.12756,-0.33 0.77175,0.643 1.59591,0.4797 2.37685,0.3782 0.40889,-0.054 0.40865,-0.2505 0.54014,-2.2808 0.0525,-0.8651 0.11053,-1.7215 0.16551,-2.5827 h 0.50292 c 0.0576,0.9171 0.10477,1.8676 0.15849,2.779 0.16434,2.7612 0.45398,1.9694 0.94172,1.8882 0.25893,-0.082 0.51853,-0.064 0.77686,0.055 0.14859,0.095 0.44334,0.8597 0.57482,0.5755 0.67927,-8.6083 1.19297,-6.1797 1.58902,0.1954 0.14198,2.1656 0.32888,0.981 0.68255,0.5072 0.42047,-0.46 0.84651,-0.7694 1.27533,-0.9263 16.34437,-9.2151 13.75579,10.1429 25.30565,-3.5462 0.42675,-0.3553 0.86133,-0.3808 1.28944,-0.075 0.35761,0.2369 0.67866,0.5556 0.97317,1.679 0.32864,1.2385 0.49711,1.7986 0.927,1.9136 0.84802,0.2302 1.68403,-0.1141 2.53336,0.3664 0.76252,0.4331 1.52883,0.5952 2.29402,0.8118 0.8887,0.2503 1.76189,0.8869 2.65458,0.6027 0.42857,-0.1557 0.84801,-0.8327 1.27659,-0.8327 0.44967,0 0.28912,-0.724 0.6428,-1.7527 0.18272,-0.555 0.50362,-0.2779 0.71531,-0.6772 0.19303,-0.4274 0.37791,-0.946 0.55233,-1.5491 3.15197,1.6697 34.17741,2.3774 41.83673,2.5854 0.43519,-0.068 1.05755,0.515 1.47038,-0.1618 0.42759,-1.7876 0.41386,-8.8899 1.58644,-1.4491 0.48023,2.9058 8.32275,-3.5831 11.60367,2.1863 0.93084,-0.1894 1.854,-0.6566 2.78606,-0.5145 0.76125,0.1354 1.59881,0.7713 2.25619,0.8118 h 0.13148 v -0.074 c 0.0568,0 0.11325,-0.034 0.1681,-0.1091 0.52064,-0.4805 1.06251,-0.1082 1.5884,0.1219 0.58374,0.2504 1.17141,0.3727 1.75646,0.3727 0.23793,-0.01 0.4507,-0.136 0.70176,-0.2037 1.78566,0.6772 3.84164,-6.1747 7.81238,-1.069 3.64097,-3.0566 -2.04755,-7.1631 1.29009,0.1082 0.2866,0.5279 0.7778,0.1015 1.08413,0.1827 0.88448,0.2586 2.55145,-2.3375 8.06573,1.1509 0.71775,0.4052 1.44169,0.4774 2.16192,0.2154 l 60.09287,-0.9262 c 44.94103,1.169 51.13097,-7.9754 44.94103,1.169 17.59289,0.3757 30.0232,0.7475 29.73722,-0.2718 -0.40589,-1.9059 2.16614,-12.0015 -1.69228,-11.3606 -3.366,-23.2315 -7.50525,-33.864 0.54398,-19.0276 -0.16636,-3.2194 0.0108,-6.9881 -0.74925,-10.4179 -2.37937,-37.0998 0.1733,-17.9695 -1.27537,-54.243 -0.0668,-0.6875 -0.1005,-1.3843 -0.0956,-2.0699 0,-0.449 0.38616,-1.0341 0.24764,-1.4627 -0.16237,-0.5179 2.95772,-0.6215 2.48972,-1.1208 -0.55402,-0.5907 -4.42266,-1.0362 -3.40064,-1.4219 1.23689,-0.4601 1.68478,-0.5773 1.58451,-1.2163 -0.10031,-0.639 0.21605,-1.2746 0.32588,-1.9081 0.22922,-1.3209 0.0854,-2.6516 0.0854,-3.9763 0.0263,-3.7795 0.81464,-8.889 0.47789,-13.065 -0.40116,-0.3391 -0.88359,-0.3001 -1.82442,-0.3728 -0.7928,-0.056 -3.79228,-0.1044 -4.17432,-0.4117 0.69249,-0.4006 2.93729,-0.3406 3.82083,-0.6555 0.8835,-0.3148 0.65428,-0.4791 0.22453,-0.9672 -0.47761,-0.559 -1.18448,-0.5583 -0.35348,-1.1173 0.42562,-0.2471 0.79153,-0.5092 1.09312,-0.7827 0.28177,-0.3 0.0863,-0.7546 0.47794,-1.0136 0.72591,-0.5011 1.2368,-0.2738 1.2368,-0.9108 0,-0.6075 0.4778,-1.2018 0.58767,-1.8091 0.20058,-1.265 -0.24862,-2.5023 -0.42534,-3.7617 -0.15277,-1.0844 -0.26724,-2.1703 -0.57286,-3.2508 -0.85458,-17.3191 -2.48771,-48.873 -0.52542,-50.9122 0.0573,-0.6912 0.61612,-1.1007 -1.33238,-1.3336 2.80444,-2.5205 3.82974,-0.9488 1.20408,-5.3062 1.54659,-2.0081 -0.17784,-4.8088 0.23287,-7.2662 0.17672,-1.0731 0.42047,-2.1458 0.54464,-3.2208 0.12891,-1.1495 0.70219,-2.4092 -0.3246,-3.4935 -0.3429,-0.4432 -0.54169,-0.9011 -0.59208,-1.3636 -0.10402,-0.2625 -0.13585,-0.5285 -0.095,-0.7936 0.0525,-0.1695 0.47709,-0.449 0.40542,-0.6073 -0.22444,-0.4154 -2.53139,-0.7306 -2.53139,-1.1182 0,-0.3483 2.13966,-0.8045 2.77008,-1.0653 1.76704,-0.7341 1.24678,-2.2521 1.38051,-3.1836 0.12591,-0.9583 -1.68093,-29.6442 -4.18781,-36.2426 4.97972,-1.8956 2.27391,-2.551 2.96508,-8.3461 0.0528,-0.078 0.0796,-0.1586 0.0763,-0.2391 h 0.0526 v -0.1864 c -0.0286,-0.9315 1.1566,-2.9775 1.06106,-4.0562 -0.10031,-1.3209 0.0169,-5.9007 0.15075,-7.2198 0.24835,-2.4219 -0.25865,-2.7495 -0.40673,-5.1808 -0.0384,-0.6055 -2.74134,1.0205 -2.26711,0.4519 0.79388,-0.9522 -1.68726,-0.9199 0.35025,-1.3273 0,-0.4862 2.20397,0.079 2.12278,-0.4073 -0.0286,-0.2086 -3.53733,-1.6969 -3.41794,-1.8981 3.43697,-5.7827 2.0536,-1.6611 2.3543,-15.175 0.11939,-0.5813 0.0719,-1.1695 0.0719,-1.7527 0,-0.7452 2.20392,-1.027 0.43688,-1.3399 -0.62082,-0.1118 -6.03286,-0.7052 -6.08536,-1.0573 1.37395,-6.4005 1.02993,1.9917 6.33173,0.039 -8.13881,-12.7076 4.50497,-29.6962 -0.83592,-43.8533 0,-0.2124 0.22444,-0.7154 0,-0.9036 -8.05467,-1.5887 -3.50442,-0.6487 0.39455,-2.9699 0.22092,-0.2363 -0.94154,-4.0208 0.69412,-5.0708 0.20058,-1.265 -0.24862,-2.5022 -0.42534,-3.7617 -1.84341,-13.1816 2.72353,-22.0697 -3.89461,-33.6445 2.51953,-2.6455 3.59962,-3.0156 4.00687,-2.9226 -0.13017,-0.4218 -0.24365,-1.4197 -0.0898,-3.5999 1.34138,-0.7356 1.61025,-0.039 -0.83395,-7.0534 0.1109,-0.6076 0.32892,-1.2124 0.65367,-1.8081 0.0947,-0.1421 0.22673,-0.2631 0.3368,-0.371 0.24304,0.11 0.40275,0.1769 0.14179,0.057 -0.0398,-0.018 -0.0865,-0.044 -0.13087,-0.068 0.26972,-0.2664 0.37397,-0.4424 -0.70566,-0.5845 h -0.0267 c -0.16706,-0.2254 -0.183,-0.4437 0.18539,-0.5527 0.7928,-0.2348 -0.77395,-1.2389 -0.29639,-1.6972 0.20058,-0.1863 -0.33923,-0.604 -0.40608,-0.8145 -0.0835,-0.3662 -0.0966,-0.7341 -0.0384,-1.1009 0.0573,-0.6912 0.61612,-1.1008 -1.33242,-1.3336 -1.43274,-0.1696 -1.16968,-0.6945 -2.27288,-1.0764 1.32131,-0.1788 0.80091,0.066 2.13497,-0.096 1.43273,-0.1863 1.57069,-0.186 1.60889,-0.7655 0.0716,-1.1066 0.75459,-2.4408 0.30089,-3.5344 4.24969,-3.8366 -0.31786,-21.4624 1.70063,-33.0336 -0.18624,-1.2184 -0.30057,-2.4387 -0.47729,-3.6571 -0.37523,-4.2555 -1.01264,-2.9919 -4.22179,-3.1682 2.75681,-7.3615 4.58718,1.3778 3.20822,-8.457 -0.12418,-1.075 1.33842,-2.065 1.16175,-3.1381 0.0337,-5.4311 -1.008,-5.9676 -1.67241,-10.7178 -0.0384,-0.5794 -0.17616,-0.5791 -1.60889,-0.7655 -1.33406,-0.1626 -4.08342,1.5243 -5.40474,1.3455 1.10321,-0.3819 4.10991,-2.3477 5.54265,-2.5172 1.94854,-0.2329 1.38975,-0.6434 1.33242,-1.3346 -0.0581,-0.3668 -0.045,-0.7347 0.0384,-1.1008 0.0669,-0.2105 0.60666,-0.6273 0.40608,-0.8137 -0.47756,-0.4583 1.08919,-1.4633 0.29639,-1.6981 -0.36839,-0.109 -0.35245,-0.3273 -0.18539,-0.5527 h 0.0267 c 1.96547,-0.2723 0.30164,-10.127 -0.5055,-17.6668 -3.87661,-4.2457 10.0643,-25.4937 -1.94892,-40.606 -0.831,-0.5589 -0.12413,-0.5584 0.35348,-1.1173 0.42975,-0.4881 0.65897,-0.6524 -0.22453,-0.9673 -0.88354,-0.3148 -3.12834,-0.2548 -3.82083,-0.6554 0.38204,-0.3074 3.38152,-0.3559 4.17432,-0.4118 0.94083,-0.073 1.42326,-0.034 1.82442,-0.3727 0.22444,-0.1882 0,-0.6912 0,-0.9036 v -3.9361 c 2.75512,-4.4516 -0.47789,-5.4772 -0.47789,-8.2252 0,-1.3247 1.49362,-0.1318 1.2644,-1.4527 -0.10982,-0.6334 -1.77595,-3.7918 -1.67564,-4.4308 0.10027,-0.639 -0.34762,-0.757 -1.58451,-1.2172 -1.02202,-0.3856 -1.98717,-0.6094 -1.43316,-1.2 0.468,-0.4993 3.31978,-0.02 3.48216,-0.5382 2.8403,-6.5585 -1.9876,-5.5357 1.66148,-14.0996 0,-1.0843 -1.51462,-0.6965 -1.68651,-1.7808 -0.21019,-1.334 1.66903,-3.2833 1.42542,-4.6135 -0.14325,-0.7807 0.10125,-1.6865 -0.99239,-2.359 -0.46805,-0.2888 -7.37513,-0.049 -7.32736,-0.3491 0.0525,-0.3521 7.31273,-0.5573 7.93355,-0.6691 1.76704,-0.313 -0.43688,-0.5938 -0.43688,-1.339 0,-0.5832 0.0475,-1.1724 -0.0719,-1.7536 -4.2938,-22.6302 0.0485,-3.0102 1.1137,-30.7564 0.0955,-1.0787 -1.08965,-3.1248 -1.06106,-4.0563 v -0.1873 h -0.0526 c 0.005,-0.081 -0.0234,-0.1613 -0.0763,-0.2391 -0.33909,-0.7378 -0.0764,-1.5047 0.086,-2.25 0.17667,-0.8272 0.26301,-1.6599 0.26301,-2.489 -0.005,-0.3372 -0.096,-0.6396 -0.14372,-0.9954 -0.0478,-0.3558 0.24338,-0.7115 0.10008,-1.0618 -0.26742,-0.6521 -2.15287,-1.1159 -3.27042,-1.5499 4.20506,-0.4916 2.31347,0.6861 3.35897,0.21 -0.43509,-7.5935 3.17728,-8.9284 -3.26658,-9.3261 4.99022,2.5463 5.78527,-13.5054 4.57336,-23.4685 -1.72491,-11.4423 -4.143,-4.8338 -1.49091,-15.2832 -0.12417,-1.0749 -0.36792,-2.1477 -0.54464,-3.2208 -0.41071,-2.4573 -1.24532,-4.8143 -0.23287,-7.2661 0.4537,-1.0936 0.33853,-2.2615 0.26686,-3.3681 -0.038,-0.5794 -0.17677,-0.5791 -1.60955,-0.7654 -1.33401,-0.1628 -2.66119,-0.3339 -3.9825,-0.5128 1.1032,-0.3819 2.68838,-0.4904 4.12111,-0.6599 1.9485,-0.2329 1.3897,-0.6425 1.33238,-1.3336 -0.0581,-0.3669 -0.045,-0.7348 0.0384,-1.1009 0.0669,-0.2105 0.60605,-0.6282 0.40547,-0.8145 -0.47756,-0.4584 -3.17559,-0.298 -3.96839,-0.5327 -0.7928,-0.2348 0.16228,-0.9725 0.67805,-1.2073 0.7928,-0.3633 2.30184,-0.3655 3.4289,-0.5127 1.52827,-0.2012 0.69225,-0.4651 0.35794,-0.9663 -0.32461,-0.5958 -0.54295,-1.1996 -0.65367,-1.8073 -6.50292,-23.1611 7.15763,-19.4938 -2.50256,-35.8607 -0.25069,-0.6047 -0.26864,-1.2206 -0.0526,-1.8273 0.16716,-0.5067 0.39211,-0.9607 1.18486,-1.3781 0.87399,-0.4657 1.26919,-0.7044 1.35038,-1.3136 0.16242,-1.2017 -0.0805,-2.3873 0.25856,-3.5908 0.30563,-1.0806 0.42005,-2.1665 0.57286,-3.2508 0.17667,-1.2594 0.62592,-2.4967 0.42534,-3.7617 -0.10987,-0.6074 -0.58767,-1.2008 -0.58767,-1.8082 0,-0.6372 -0.51089,-0.4106 -1.23679,-0.9118 -0.39165,-0.2589 -0.19618,-0.7127 -0.47794,-1.0127 -0.3016,-0.2735 -0.6675,-0.5355 -1.09313,-0.7827 -0.831,-0.5589 -0.12412,-0.5592 0.35349,-1.1181 0.42975,-0.4881 0.65897,-0.6524 -0.22453,-0.9673 -0.88355,-0.3148 -3.12835,-0.2548 -3.82083,-0.6554 0.38203,-0.3074 3.38151,-0.3559 4.17431,-0.4118 0.94083,-0.073 1.42327,-0.034 1.82442,-0.3727 0.22444,-0.1882 0.0445,-0.7031 0,-0.9036 2.09006,-31.291299 -10.16175,-62.559799 -0.0764,-75.632399 -0.13368,-1.3191 -0.46331,-2.6272 -0.36304,-3.9481 0.0955,-1.0787 0.54426,-2.2656 0.57286,-3.1972 v -0.1863 h -0.0526 c 0.005,-0.08 -0.0234,-0.1605 -0.0763,-0.2382 -0.33909,-0.7378 -0.0765,-1.5047 0.086,-2.2499 0.17667,-0.8272 0.26302,-1.66 0.26302,-2.489 -0.005,-0.3373 -0.096,-0.6396 -0.14372,-0.9955 0.47789,-2.5303 -4.35741,-5.4429 -0.75441,-11.0697 0.005,-0.2645 0.10022,-0.5128 -0.39647,-0.6581 -0.49668,-0.1453 -1.61015,-0.1752 -2.21193,-0.2218 -0.41072,-0.032 -3.9106,-0.2197 -3.9106,-0.27 1.22892,-0.087 2.45644,-0.1757 3.68222,-0.2664 1.00294,-0.073 2.56927,-0.039 2.91314,-0.4118 0.37252,-0.4061 0.0716,-1.1031 0.12891,-1.5372 0.18248,-1.2533 -1.64949,-3.6155 0.81215,-11.4296999 0.28599,-1.0171 0.33694,-2.042 0.15207,-3.0626 -0.21493,-0.8626 -0.76407,-1.6807 -0.76407,-2.5545 l -54.06253,-0.1692 c -7.58419,-4.27850003 -4.56159,3.0858 -12.7185,1.5957 20.41472,-8.5188 -65.54499,-3.0084 -66.26269,-2.5584 -5.51433,3.8738 -3.81366,2.8011 -4.69814,3.0883 -0.30633,0.09 -6.37219,-4.8266 -6.65878,-4.2404 -0.26297,0.5411 -2.09738,5.8037 -2.14866,7.3819 -0.064,1.9289999 -0.12656,3.8604999 -0.18792,5.7943999 -0.31463,-3.1651 0.0356,-6.4943999 -0.34707,-9.6342999 -0.10256,-0.7815 -0.27778,-0.632 -0.46443,-0.6245 -3.97074,5.6696999 -6.02607,-1.9393 -7.81168,-1.1872 -0.2511,-0.075 -0.46453,-0.2189 -0.70246,-0.2264 -5.16244,0.9681 -20.10586,2.3999 -20.28971,3.1045 -0.25378,1.7586 -0.43097,4.5095999 -0.64922,6.5161999 -0.19195,1.7435 -0.26311,2.6458 -0.41957,0.4363 -0.11663,-1.9264 -0.19111,-3.9285999 -0.2213,-5.9597999 -0.0474,-1.954 9e-5,-2.0823 -0.29705,-2.6009 -0.41283,-0.7515 -1.03453,-0.1057 -1.46967,-0.1809 -22.43733,0.5652 -29.1946,3.9618 -38.71196,-0.759 -0.14156,-0.07 -0.50489,-0.3533 -0.63768,0 -0.23925,0.6313 -0.21174,1.3912 -0.26302,2.8717 -0.0394,1.2475 -0.0737,5.9667999 -0.29062,6.5679999 -0.28266,-1.0897 -0.24033,-4.6212999 -0.46252,-6.0115999 -0.22219,-1.3904 -0.33811,-1.0301 -0.68255,-0.3537 -0.3944,0.7516 -0.39398,1.8631 -0.78843,0.5555 -0.17443,-0.6698 -0.3593,-1.2454 -0.55233,-1.72 -0.21164,-0.4434 -0.53255,-0.1355 -0.71531,-0.7518 -0.35363,-1.1423 -0.19313,-1.9463 -0.6428,-1.9463 -0.42858,0 -0.84797,-0.7517 -1.2766,-0.9245 -15.38625,6.4277 -28.42542,6.3383 -35.97783,1.9463 -0.42881,-0.1742 -0.85485,-0.5182 -1.27532,-1.0291 -0.35368,-0.526 -0.53996,-1.8412 -0.68194,0.5637 -0.10388,1.7736 -0.10547,4.1486 -0.36183,5.3962 -1.64287,5.0986999 -0.65451,-3.5453 -1.2278,-5.179 -0.13153,-0.3156 -0.42562,0.5339 -0.57417,0.6391 -0.25837,0.1315 -0.51862,0.1515 -0.77751,0.06 -0.48779,-0.09 -0.77677,-0.969 -0.94111,2.0972 -0.31847,7.2239999 -0.50822,6.0326999 -0.82693,0.2173 -0.13148,-2.2546 -0.1319,-2.4717 -0.54079,-2.5318 -0.78094,-0.1127 -1.60505,-0.2939 -2.3768,0.42 -1.73016,1.5933 -3.39347,0.2791 -5.12756,-0.3672 -0.75727,-0.2781 -1.5143,-0.6619 -2.27292,-0.8573 -7.37391,4.1734 -2.71036,0.369 -10.78505,-2.3454 -4.67569,3.3727 -12.14686,-4.9116 -15.73561,0.5118 -0.26297,0.5411 -0.14185,2.8944 -0.19313,4.4726 -0.56634,0.473 0.0898,4.5055999 -0.63253,2.2127 -0.0328,-0.9469 0.0244,-5.4955 -0.0782,-6.2771 -7.09505,-0.7102 -6.18441,2.9181 -6.3548,6.4216 -0.2235,-9.19640003 -3.24881,-2.1395 -5.88975,-4.6662 -0.0548,-0.083 -0.11189,-0.1236 -0.1687,-0.12 v -0.082 h -0.13149 c -0.65733,0.045 -2.10122,-1.8212 -2.86247,-1.6709 -19.58001,1.6762 -5.7345,8.5094999 -21.7042,1.7527 -0.41016,-0.1879 -0.82538,-0.1127 -1.23684,-0.1127 -0.52589,0 -0.72469,-3.46790003 -0.94561,-0.6873 -1.83366,13.6473999 1.49667,13.7030999 -0.71846,0.9536 -0.47465,-1.721 -1.11323,-1.3363 -1.66411,-1.5617 -0.93871,-0.3833 -2.31492,2.5742 -3.25626,2.2435 -0.76519,-0.2705 -0.49097,-2.6544 -1.25611,-2.6544 -6.04341,5.7423 -5.32158,-1.85510003 -9.94983,2.6144 -0.36544,0.2555 -0.0277,4.7434 -0.38039,5.4798999 -0.41677,0.8717 -0.57469,-0.6461999 -0.84684,-2.2544999 -0.32475,-1.9465 -0.40735,-2.6523 -0.85829,-2.4945 -0.45093,0.1578 -2.68036,-2.4634 -3.1274,-2.6363 -0.93211,-0.3607 -0.0903,1.9891 -1.02511,1.9891 -1.93922,0 -2.66297,-5.08740003 -5.80439,-0.7518 h -2.77777 c -0.14986,0 -0.50484,-0.3533 -0.63764,0 -0.2393,0.6313 -0.21173,1.3912 -0.26301,2.8717 -0.0394,1.2475 -0.0737,5.9667999 -0.29063,6.5679999 -0.28266,-1.0897 -0.24037,-4.6212999 -0.46252,-6.0115999 -0.22223,-1.3904 -0.3381,-1.0301 -0.68259,-0.3537 -0.39441,0.7516 -0.39398,1.8631 -0.78839,0.5555 -1.25469,-3.0964 -13.54939,-6.81420003 -20.03314,-6.90800003 z M 898.08778,504.82945 c 0.17559,0.569 0.37912,0.087 0,0 z m -485.50827,393.3151 c -0.40016,0.2487 -0.0614,0.5357 0,0 z M 1.111257,503.62415 c -0.37915687,0.086 -0.17561422,0.5688 0,0 z M 410.67231,2.5112511 c -0.0791,-0.028 -0.11736,0.1619 0.13279,0.3345 -0.023,-0.2233 -0.0854,-0.318 -0.13279,-0.3345 z"
     id="path2"
     inkscape:connector-curvature="0"
     sodipodi:nodetypes="ccccccccccccccccccccccccccccccccccccccccccccccccscccccccccccccccsccccccccccccccsccccccccccccccccccccccccccccccccccccccccccccccccccccccccsccccccccccccccccccccccccccccccsccccccccscccccccccccscscccccccccccccccccccccccccccccccccccccccccccccccccccccccccccccsccccccccccccccccccccccccccccccccccccccccccsccccccccccccccscccccccccccccccscccccccccccccccccccccccccccccccccccccccccccccccscccccccccccccccccccccccccccccccccccccsccccccccccccccccccccccccccccccccccccccccccsccccccccccccscccccccccccccccscccccccccccccccccccccccccccccccccccccccccccccccccscscccccccccccsccccccccscccccccccccccccccccccccccccscccccccccccccccccccccccccccccccccccccccccccccccccsccccsccccccccccccccccccccccccccsccccccccccscsccccccccccccccccc" />
</svg>
