<?xml version="1.0" encoding="UTF-8" standalone="no"?>
<svg
   xmlns:dc="http://purl.org/dc/elements/1.1/"
   xmlns:cc="http://creativecommons.org/ns#"
   xmlns:rdf="http://www.w3.org/1999/02/22-rdf-syntax-ns#"
   xmlns:svg="http://www.w3.org/2000/svg"
   xmlns="http://www.w3.org/2000/svg"
   xmlns:sodipodi="http://sodipodi.sourceforge.net/DTD/sodipodi-0.dtd"
   xmlns:inkscape="http://www.inkscape.org/namespaces/inkscape"
   viewBox="0 0 223.73672 78.614894"
   preserveAspectRatio="none"
   version="1.1"
   id="svg14"
   sodipodi:docname="button.svg"
   width="223.73672"
   height="78.614891"
   inkscape:version="0.92.2 (5c3e80d, 2017-08-06)">
  <metadata
     id="metadata20">
    <rdf:RDF>
      <cc:Work
         rdf:about="">
        <dc:format>image/svg+xml</dc:format>
        <dc:type
           rdf:resource="http://purl.org/dc/dcmitype/StillImage" />
      </cc:Work>
    </rdf:RDF>
  </metadata>
  <defs
     id="defs18" />
  <sodipodi:namedview
     pagecolor="#ffffff"
     bordercolor="#666666"
     borderopacity="1"
     objecttolerance="10"
     gridtolerance="10"
     guidetolerance="10"
     inkscape:pageopacity="0"
     inkscape:pageshadow="2"
     inkscape:window-width="1920"
     inkscape:window-height="1017"
     id="namedview16"
     showgrid="false"
     inkscape:zoom="5.6568543"
     inkscape:cx="41.676943"
     inkscape:cy="59.870261"
     inkscape:window-x="-8"
     inkscape:window-y="-8"
     inkscape:window-maximized="1"
     inkscape:current-layer="svg14" />
  <path
     d="m 210.3,59.434892 c -0.30513,0.04769 -0.61517,-0.04827 -0.84,-0.26 -0.32,-0.46 0.32,-1 0.85,-1.18 3.36375,-1.221515 6.8622,-2.034016 10.42,-2.42 l 1.65,-0.17 c 0.73,-3.27 -0.13,-7.3 -0.91,-10.75 -3.18,-14.21 -1.35,-29 0.51,-43.4400002 C 212.09,0.94489177 202.2,0.68489177 192.3,0.55489177 188.7,1.6548918 184.7,2.1448918 181.94,4.6448918 c -0.51633,0.566608 -1.12078,1.046114 -1.79,1.42 -0.83405,0.279987 -1.72651,0.338566 -2.59,0.17 l -4.18,-0.5 c -11.53,13.4700002 -24.14073,7.7009832 -38.74073,17.9809832 -2.39,1.68 -20.20076,6.788904 -23.05076,7.388904 -3.17,0.7 -6.45,0 -9.62,-0.74 C 71.221844,23.338113 53.673333,28.734892 23.18,20.734892 c -7.38,-2 -14.81,-4 -22.3,-5.47 0.08,1.33 0.16,2.67 0.23,4 2.6666667,-0.106667 5.3333333,-0.133333 8,-0.08 -0.330093,2.08964 -1.419694,3.983979 -3.06,5.32 -1.23,1 -2.74,1.65 -3.77,2.85 -0.31,0.36 -0.57,0.77 -0.88,1.14 0.4133333,13.866667 0.16,27.73 -0.76,41.59 -0.12,1.78 -0.17,3.78 1,5.08 0.934666,0.830052 2.0994098,1.356628 3.34,1.51 5.503411,1.067967 11.105296,1.54401 16.71,1.42 1.673333,-2.08 3.363333,-4.14 5.07,-6.18 0.204116,-0.298353 0.493336,-0.528336 0.83,-0.66 0.69,-0.19 1.31,0.47 1.68,1.07 1.16,1.87 2.17,4.28 4.34,4.71 0.55,0.11 1.29,0.26 1.48,0.7 14,-0.43 27.95,-0.42 41.92,-0.4 l 51,0.08 h 10 c -0.52813,-1.062875 -1.16486,-2.068231 -1.9,-3 -0.95,-1.2 -2.12,-2.46 -2,-4 l 5.53,3 c 1.02743,0.586467 2.10099,1.088131 3.21,1.5 0.79,0.27 1.61,0.45 2.37,0.78 0.93203,0.427056 1.77642,1.023891 2.49,1.76 h 3.93 c 23.67,0 47.34,0.08 71,1.16 1.07626,-5.936219 1.36207,-11.988777 0.85,-18 l -3.78,-1 0.06,-0.06 c -3.13,-0.12 -6.29,-0.19 -9.47,-0.12 z"
     style="fill:#2b898c"
     id="path4"
     inkscape:connector-curvature="0"
     sodipodi:nodetypes="ccccccccccccccccccccccccccccccccccccccccsccccc" />
  <path
     d="m 68.079466,29.456521 c 3.16,0.72 50.505754,2.892388 53.675754,2.192388 2.85,-0.63 20.17663,-7.988175 22.56663,-9.648175 14.6,-10.33 28.99587,-7.113005 40.51587,-20.6130052 l -9.69817,0.3568821 c -6.25,-0.66 -8.79834,0.273764 -15.03834,-0.666236 C 157.43121,0.67837487 148.6489,1.0252569 145.9689,0.54525697 141.3164,0.99514607 134.53921,1.4248543 129.87101,1.1880098 124.98101,0.80800977 118.88,0.45489177 113.98,0.11489177 c -6.29,-0.44 -12.58,0.49 -18.86,1.00000003 -1.38,0.1066667 -2.76,0.19 -4.14,0.25 -0.92,1.38 -0.4,3.38 -1.45,4.61 -1.113303,1.00934 -2.801633,1.03926 -3.95,0.07 -1.074772,-0.958273 -1.895822,-2.1675175 -2.39,-3.52 l -0.47,-1 c -4.59,0 -9.18,-0.12 -13.78,-0.28 l -0.54,0.4 -5.13,3.75 c 0.385755,-1.5123502 0.995856,-2.9583918 1.81,-4.29 -12.52,-0.45000003 -25,-0.87000003 -37.39,1 -6.46,1 -13.23,2.5 -19.38,0.29 -2.75,-1 -6.31,-2.50000003 -8.15,-0.23 l -0.16,0.83 c 0.35,4.1 0.62,8.2000002 0.86,12.3100002 7.51,1.43 14.69,3.805 22.07,5.805 30.486667,8 13.335472,4.815496 45.149466,8.346629 z"
     style="fill:#349da1"
     id="path8"
     inkscape:connector-curvature="0"
     sodipodi:nodetypes="cccccccccccccccccccccccccc" />
  <path
     d="m 82.72,1.5248918 -0.0135,0.8858896 c 0.485612,1.3493628 1.638492,2.8435924 2.702334,3.8052764 1.053535,1.091512 2.89759,1.113074 4.121166,-0.241166 0.83,-0.94 0.923852,-2.1676507 0.995631,-3.5302886 z m -17.55,-0.42 H 65.12 C 63.763832,2.293862 62.839927,4.5386762 62.454172,6.0510268 L 67.59,2.2448918 c -0.876814,-0.2172714 -1.702432,-0.6045985 -2.43,-1.14 z"
     style="fill:#25797f"
     id="path10"
     inkscape:connector-curvature="0"
     sodipodi:nodetypes="cccccccccccc" />
</svg>
