<?xml version="1.0" encoding="UTF-8" standalone="no"?>
<!-- Generator: Adobe Illustrator 19.0.0, SVG Export Plug-In . SVG Version: 6.00 Build 0)  -->

<svg
   xmlns:dc="http://purl.org/dc/elements/1.1/"
   xmlns:cc="http://creativecommons.org/ns#"
   xmlns:rdf="http://www.w3.org/1999/02/22-rdf-syntax-ns#"
   xmlns:svg="http://www.w3.org/2000/svg"
   xmlns="http://www.w3.org/2000/svg"
   xmlns:sodipodi="http://sodipodi.sourceforge.net/DTD/sodipodi-0.dtd"
   xmlns:inkscape="http://www.inkscape.org/namespaces/inkscape"
   version="1.1"
   id="Layer_1"
   x="0px"
   y="0px"
   viewBox="0 0 511.999 511.999"
   style="enable-background:new 0 0 511.999 511.999;"
   xml:space="preserve"
   sodipodi:docname="hammer.svg"
   inkscape:version="0.92.2 (5c3e80d, 2017-08-06)"><metadata
     id="metadata61"><rdf:RDF><cc:Work
         rdf:about=""><dc:format>image/svg+xml</dc:format><dc:type
           rdf:resource="http://purl.org/dc/dcmitype/StillImage" /></cc:Work></rdf:RDF></metadata><defs
     id="defs59" /><sodipodi:namedview
     pagecolor="#ffffff"
     bordercolor="#666666"
     borderopacity="1"
     objecttolerance="10"
     gridtolerance="10"
     guidetolerance="10"
     inkscape:pageopacity="0"
     inkscape:pageshadow="2"
     inkscape:window-width="1920"
     inkscape:window-height="1017"
     id="namedview57"
     showgrid="false"
     inkscape:zoom="1.3037307"
     inkscape:cx="351.79617"
     inkscape:cy="253.56826"
     inkscape:window-x="-8"
     inkscape:window-y="-8"
     inkscape:window-maximized="1"
     inkscape:current-layer="Layer_1" /><polygon
     style="fill:#E6E6E6;"
     points="453.112,35.616 416.318,10.511 94.27,10.511 57.475,35.616 57.475,189.978 94.27,215.083   416.318,215.083 453.112,189.978 "
     id="polygon2" /><polygon
     style="fill:#999999;"
     points="94.27,10.511 57.475,35.616 57.475,189.978 94.27,215.083 "
     id="polygon4" /><polyline
     style="fill:#a57545;"
     points="295.938,215.083 295.938,455.564 214.65,455.564 214.65,215.083 "
     id="polyline6" /><rect
     x="94.272"
     y="10.508"
     style="fill:#CCCCCC;"
     width="322.046"
     height="204.575"
     id="rect10" /><g
     id="g16" /><rect
     x="203.292"
     y="455.561"
     style="fill:#329b9f;"
     width="104.019"
     height="47.707"
     id="rect18" /><path
     d="M459.239,26.779L422.447,1.674C420.849,0.584,418.959,0,417.025,0h-37.908c-5.313,0-9.618,4.306-9.618,9.618  s4.305,9.618,9.618,9.618h28.289v127.63c0,5.312,4.305,9.618,9.618,9.618c5.313,0,9.618-4.306,9.618-9.618V27.825l17.555,11.979  v144.2l-17.555,11.979v-14.493c0-5.312-4.305-9.618-9.618-9.618c-5.313,0-9.618,4.306-9.618,9.618v23.083H104.593V46.199  c0-5.312-4.305-9.618-9.618-9.618c-5.313,0-9.618,4.306-9.618,9.618v149.785L67.8,184.004v-144.2l30.144-20.568h248.537  c5.313,0,9.618-4.306,9.618-9.618S351.794,0,346.481,0H94.975c-1.934,0-3.823,0.584-5.422,1.674L52.76,26.779  c-2.626,1.792-4.196,4.766-4.196,7.945v154.362c0,3.179,1.571,6.153,4.196,7.945l36.793,25.105c1.598,1.09,3.488,1.674,5.422,1.674  h192.052v221.244h-62.053V244.325c0-5.312-4.305-9.618-9.618-9.618s-9.618,4.306-9.618,9.618v200.727h-1.743  c-5.313,0-9.618,4.306-9.618,9.618v47.709c0,5.312,4.305,9.618,9.618,9.618h104.012c5.313,0,9.618-4.306,9.618-9.618v-47.709  c0-5.312-4.305-9.618-9.618-9.618h-1.743V223.809h110.762c1.934,0,3.823-0.584,5.422-1.674l36.792-25.105  c2.626-1.792,4.196-4.766,4.196-7.945V34.723C463.437,31.544,461.866,28.57,459.239,26.779z M298.388,492.763h-84.776v-28.473  h84.776V492.763z"
     id="path22" /><path
     d="M256.001,70.225c4.789,0,9.481,0.803,13.945,2.387c5.001,1.776,10.503-0.841,12.281-5.848  c1.776-5.007-0.841-10.504-5.849-12.281c-6.535-2.319-13.39-3.495-20.378-3.495c-33.588,0-60.916,27.326-60.916,60.916  s27.328,60.916,60.916,60.916s60.916-27.326,60.916-60.916c0-8.22-1.612-16.198-4.791-23.715c-2.07-4.894-7.715-7.179-12.605-5.112  c-4.891,2.07-7.182,7.714-5.111,12.605c2.17,5.131,3.271,10.589,3.271,16.22c0,22.983-18.697,41.679-41.679,41.679  s-41.679-18.697-41.679-41.679S233.018,70.225,256.001,70.225z"
     id="path24" /><g
     id="g26" /><g
     id="g28" /><g
     id="g30" /><g
     id="g32" /><g
     id="g34" /><g
     id="g36" /><g
     id="g38" /><g
     id="g40" /><g
     id="g42" /><g
     id="g44" /><g
     id="g46" /><g
     id="g48" /><g
     id="g50" /><g
     id="g52" /><g
     id="g54" /></svg>