<?xml version="1.0" encoding="UTF-8" standalone="no"?>
<!-- Generator: Adobe Illustrator 19.0.0, SVG Export Plug-In . SVG Version: 6.00 Build 0)  -->

<svg
   xmlns:dc="http://purl.org/dc/elements/1.1/"
   xmlns:cc="http://creativecommons.org/ns#"
   xmlns:rdf="http://www.w3.org/1999/02/22-rdf-syntax-ns#"
   xmlns:svg="http://www.w3.org/2000/svg"
   xmlns="http://www.w3.org/2000/svg"
   xmlns:sodipodi="http://sodipodi.sourceforge.net/DTD/sodipodi-0.dtd"
   xmlns:inkscape="http://www.inkscape.org/namespaces/inkscape"
   version="1.1"
   id="Layer_1"
   x="0px"
   y="0px"
   viewBox="0 0 512 512"
   style="enable-background:new 0 0 512 512;"
   xml:space="preserve"
   sodipodi:docname="horn.svg"
   inkscape:version="0.92.2 (5c3e80d, 2017-08-06)"><metadata
     id="metadata57"><rdf:RDF><cc:Work
         rdf:about=""><dc:format>image/svg+xml</dc:format><dc:type
           rdf:resource="http://purl.org/dc/dcmitype/StillImage" /><dc:title></dc:title></cc:Work></rdf:RDF></metadata><defs
     id="defs55" /><sodipodi:namedview
     pagecolor="#ffffff"
     bordercolor="#666666"
     borderopacity="1"
     objecttolerance="10"
     gridtolerance="10"
     guidetolerance="10"
     inkscape:pageopacity="0"
     inkscape:pageshadow="2"
     inkscape:window-width="1920"
     inkscape:window-height="1017"
     id="namedview53"
     showgrid="false"
     inkscape:zoom="1.3037281"
     inkscape:cx="200.07048"
     inkscape:cy="262.70449"
     inkscape:window-x="-8"
     inkscape:window-y="-8"
     inkscape:window-maximized="1"
     inkscape:current-layer="Layer_1" /><polygon
     style="fill:#a57545;"
     points="368.277,171.097 503.221,321.754 454.499,365.394 443.878,353.53 325.422,221.268   319.556,214.726 "
     id="polygon4" /><path
     style="fill:#F5F2DC;"
     d="M443.878,353.53c-85.59,68.917-198.724,92.634-303.593,66.005  c-7.252-1.832-14.459-3.915-21.624-6.237l2.77-94.03c7.339-0.861,14.634-1.952,21.907-3.271  c67.314-12.246,131.171-44.283,182.084-94.728L443.878,353.53z"
     id="path6" /><polygon
     style="fill:#329b9f;"
     points="121.758,308.319 121.431,319.267 118.661,413.297 118.378,422.85 82.502,421.792   83.156,399.569 85.457,321.623 85.882,307.262 "
     id="polygon8" /><path
     style="fill:#a57545;"
     d="M85.457,321.623l-2.301,77.946c-22.736-10.261-44.709-23.15-65.504-38.711  c-0.262-0.196-0.502-0.382-0.752-0.567c-19.225-14.47-6.455-44.938,17.393-41.732C51.304,320.849,68.391,321.852,85.457,321.623z"
     id="path12" /><path
     style="fill:#454445;"
     d="M509.913,315.538L374.969,164.881c-3.013-3.363-8.184-3.649-11.548-0.636l-26.523,23.751l-153.955-71.872  c0.449-2.23,0.688-4.535,0.688-6.896c0-19.199-15.62-34.818-34.818-34.818s-34.818,15.62-34.818,34.818  c0,10.201,4.41,19.393,11.425,25.766L30.136,309.444c-12.189,0.54-22.915,7.931-27.717,19.631  c-5.502,13.408-1.418,28.273,10.222,37.034l0.712,0.538c12.204,9.133,25.067,17.542,38.231,24.995  c1.273,0.721,2.657,1.063,4.022,1.063c2.85,0,5.619-1.493,7.124-4.15c2.226-3.93,0.843-8.921-3.087-11.147  c-12.563-7.113-24.839-15.14-36.477-23.848l-0.748-0.564c-6.836-5.146-6.997-12.523-4.868-17.712  c2.175-5.299,7.586-10.547,16.251-9.38c14.419,1.941,29.123,2.983,43.833,3.136l-2.708,91.751c-0.133,4.514,3.419,8.282,7.933,8.415  l35.876,1.058c0.083,0.002,0.164,0.003,0.245,0.003c4.021,0,7.39-2.922,8.049-6.803c32.251,9.38,65.795,14.126,99.424,14.126  c21.434,0,42.905-1.922,64.084-5.787c55.655-10.155,108.368-33.574,152.957-67.868l5.51,6.152c1.447,1.616,3.476,2.591,5.643,2.711  c0.152,0.008,0.3,0.012,0.45,0.012c2.009,0,3.953-0.739,5.457-2.087l48.721-43.64C512.643,324.073,512.927,318.902,509.913,315.538z   M378.026,266.316l51.027-7.342l-11.134,51.886L378.026,266.316z M332.115,215.053c-0.001-0.001-0.002-0.002-0.003-0.003  l-0.403-0.45l27.399-24.534l-4.011,50.647L332.115,215.053z M375.519,190.01l47.718,53.275l-52.536,7.559L375.519,190.01z   M444.141,266.624l42.71,47.682l-53.98,4.839L444.141,266.624z M148.813,90.767c10.179,0,18.461,8.282,18.461,18.461  s-8.282,18.461-18.461,18.461s-18.461-8.282-18.461-18.461S138.633,90.767,148.813,90.767z M287.603,415.713  c-53.177,9.704-108.24,6.567-159.672-9.033l0.875-11.022c0.358-4.503-3.003-8.442-7.506-8.8c-4.498-0.363-8.442,3.003-8.8,7.506  l-1.454,19.31l-19.528-0.576l2.897-98.181l19.525,0.576l-1.462,54.514c-0.12,4.516,3.443,8.273,7.958,8.393  c4.501,0.098,8.273-3.443,8.393-7.958l1.192-44.717c52.557-7.234,103.412-26.296,147.495-55.357  c3.771-2.486,4.813-7.559,2.327-11.33c-2.485-3.772-7.558-4.812-11.33-2.327c-41.298,27.225-88.831,45.256-138.019,52.431l0.04-1.34  c0.065-2.169-0.735-4.273-2.222-5.854c-1.488-1.579-3.543-2.501-5.711-2.566l-35.876-1.058c-4.522-0.159-8.282,3.419-8.416,7.933  l-0.19,6.432c-10.115-0.095-20.226-0.631-30.236-1.617l91.885-168.228c2.886,0.777,5.917,1.198,9.046,1.198  c10.994,0,20.807-5.127,27.193-13.109l147.642,68.924l-8.947,8.012c-1.616,1.448-2.592,3.479-2.71,5.645  c-0.119,2.167,0.628,4.292,2.076,5.907l0.606,0.677c-7.377,6.979-15.095,13.66-23.029,19.915c-3.547,2.796-4.157,7.939-1.361,11.486  c1.614,2.048,4.01,3.117,6.429,3.117c1.772,0,3.558-0.574,5.058-1.756c8.203-6.465,16.186-13.366,23.822-20.571l106.962,119.425  C390.227,384.023,340.299,406.098,287.603,415.713z M455.737,353.085l-16.222-18.112l40.495-3.63L455.737,353.085z"
     id="path20" /><g
     id="g22" /><g
     id="g24" /><g
     id="g26" /><g
     id="g28" /><g
     id="g30" /><g
     id="g32" /><g
     id="g34" /><g
     id="g36" /><g
     id="g38" /><g
     id="g40" /><g
     id="g42" /><g
     id="g44" /><g
     id="g46" /><g
     id="g48" /><g
     id="g50" /></svg>