<?xml version="1.0" encoding="UTF-8" standalone="no"?>
<!-- Generator: Adobe Illustrator 19.1.0, SVG Export Plug-In . SVG Version: 6.00 Build 0)  -->

<svg
   xmlns:dc="http://purl.org/dc/elements/1.1/"
   xmlns:cc="http://creativecommons.org/ns#"
   xmlns:rdf="http://www.w3.org/1999/02/22-rdf-syntax-ns#"
   xmlns:svg="http://www.w3.org/2000/svg"
   xmlns="http://www.w3.org/2000/svg"
   xmlns:sodipodi="http://sodipodi.sourceforge.net/DTD/sodipodi-0.dtd"
   xmlns:inkscape="http://www.inkscape.org/namespaces/inkscape"
   version="1.1"
   id="Capa_1"
   x="0px"
   y="0px"
   viewBox="0 0 482.05 482.05"
   style="enable-background:new 0 0 482.05 482.05;"
   xml:space="preserve"
   sodipodi:docname="lantern.svg"
   inkscape:version="0.92.2 (5c3e80d, 2017-08-06)"><metadata
     id="metadata109"><rdf:RDF><cc:Work
         rdf:about=""><dc:format>image/svg+xml</dc:format><dc:type
           rdf:resource="http://purl.org/dc/dcmitype/StillImage" /></cc:Work></rdf:RDF></metadata><defs
     id="defs107" /><sodipodi:namedview
     pagecolor="#ffffff"
     bordercolor="#666666"
     borderopacity="1"
     objecttolerance="10"
     gridtolerance="10"
     guidetolerance="10"
     inkscape:pageopacity="0"
     inkscape:pageshadow="2"
     inkscape:window-width="1920"
     inkscape:window-height="1017"
     id="namedview105"
     showgrid="false"
     inkscape:zoom="1.9583032"
     inkscape:cx="243.36431"
     inkscape:cy="141.3452"
     inkscape:window-x="-8"
     inkscape:window-y="-8"
     inkscape:window-maximized="1"
     inkscape:current-layer="Capa_1" /><line
     style="fill:none;stroke:#ffffff;stroke-width:19.67768669;stroke-linecap:round;stroke-linejoin:round;stroke-miterlimit:10"
     x1="136.41508"
     y1="344.48947"
     x2="186.588"
     y2="318.98947"
     id="line62-2" /><line
     style="fill:none;stroke:#ffffff;stroke-width:20;stroke-linecap:round;stroke-linejoin:round;stroke-miterlimit:10"
     x1="296.88675"
     y1="360.47772"
     x2="348.72675"
     y2="334.97772"
     id="line56" /><path
     style="fill:#a57545;"
     d="M272.79,60.36v46.57c-10.11-3.19-20.8-4.88-31.77-4.88s-21.66,1.7-31.77,4.89V60.36H272.79z"
     id="path4" /><path
     style="fill:#329b9f;"
     d="M336.77,162.9H145.28c12.71-27.11,36.13-47.19,63.97-55.96c10.11-3.19,20.8-4.89,31.77-4.89  s21.66,1.69,31.77,4.88c9.87,3.1,19.2,7.65,27.68,13.42C315.9,130.84,328.57,145.4,336.77,162.9z"
     id="path6" /><polygon
     style="fill:#a57545;"
     points="218.02,436.1 264.02,436.1 294.48,436.1 346.32,436.1 364.14,436.1 364.14,472.05   117.9,472.05 117.9,436.1 135.73,436.1 187.56,436.1 "
     id="polygon8" /><polygon
     style="fill:#a57545;"
     points="364.14,162.9 364.14,198.85 346.32,198.85 294.48,198.85 187.56,198.85 135.73,198.85   117.9,198.85 117.9,162.9 145.28,162.9 336.77,162.9 "
     id="polygon10" /><rect
     x="218.02"
     y="389.6"
     style="fill:#eeccc3;"
     width="46"
     height="46.5"
     id="rect24" /><polygon
     style="fill:none;stroke:#000000;stroke-width:20;stroke-linejoin:round;stroke-miterlimit:10;"
     points="346.32,436.1   364.14,436.1 364.14,472.05 117.9,472.05 117.9,436.1 135.73,436.1 187.56,436.1 218.02,436.1 264.02,436.1 294.48,436.1 "
     id="polygon30" /><polygon
     style="fill:none;stroke:#000000;stroke-width:20;stroke-linejoin:round;stroke-miterlimit:10;"
     points="336.77,162.9   364.14,162.9 364.14,198.85 346.32,198.85 294.48,198.85 187.56,198.85 135.73,198.85 117.9,198.85 117.9,162.9 145.28,162.9 "
     id="polygon32" /><polyline
     style="fill:none;stroke:#000000;stroke-width:20;stroke-linejoin:round;stroke-miterlimit:10;"
     points="209.25,106.94   209.25,60.36 272.79,60.36 272.79,106.93 "
     id="polyline34" /><polyline
     style="fill:none;stroke:#000000;stroke-width:20;stroke-linejoin:round;stroke-miterlimit:10;"
     points="218.02,436.18   218.02,436.1 218.02,389.6 264.02,389.6 264.02,436.1 264.02,436.17 "
     id="polyline36" /><path
     style="fill:none;stroke:#000000;stroke-width:20;stroke-linejoin:round;stroke-miterlimit:10;"
     d="M145.28,162.9  c12.71-27.11,36.13-47.19,63.97-55.96c10.11-3.19,20.8-4.89,31.77-4.89s21.66,1.69,31.77,4.88c9.87,3.1,19.2,7.65,27.68,13.42  c15.43,10.49,28.1,25.05,36.3,42.55"
     id="path38" /><path
     style="fill:none;stroke:#000000;stroke-width:20;stroke-linejoin:round;stroke-miterlimit:10;"
     d="M261.02,30  c0-11.04-8.95-20-20-20c-11.04,0-20,8.96-20,20c0,11.05,8.96,20,20,20C252.07,50,261.02,41.05,261.02,30z"
     id="path40" /><line
     style="fill:none;stroke:#FFFFFF;stroke-width:20;stroke-linecap:round;stroke-linejoin:round;stroke-miterlimit:10;"
     x1="294.48"
     y1="392.14"
     x2="346.32"
     y2="366.64"
     id="line58" /><line
     style="fill:none;stroke:#FFFFFF;stroke-width:20;stroke-linecap:round;stroke-linejoin:round;stroke-miterlimit:10;"
     x1="135.73"
     y1="296.39"
     x2="187.56"
     y2="270.89"
     id="line62" /><line
     style="fill:none;stroke:#FFFFFF;stroke-width:20;stroke-linecap:round;stroke-linejoin:round;stroke-miterlimit:10;"
     x1="294.48"
     y1="270.06"
     x2="346.32"
     y2="244.56"
     id="line64" /><polyline
     style="fill:none;stroke:#000000;stroke-width:20;stroke-linejoin:round;stroke-miterlimit:10;"
     points="346.32,436.1   346.32,366.64 346.32,336.64 346.32,244.56 346.32,198.85 "
     id="polyline66" /><polyline
     style="fill:none;stroke:#000000;stroke-width:20;stroke-linejoin:round;stroke-miterlimit:10;"
     points="135.73,436.1   135.73,296.39 135.73,254.23 135.73,198.85 "
     id="polyline68" /><polyline
     style="fill:none;stroke:#000000;stroke-width:20;stroke-linejoin:round;stroke-miterlimit:10;"
     points="294.48,436.1   294.48,392.14 294.48,362.14 294.48,270.06 294.48,198.85 "
     id="polyline70" /><polyline
     style="fill:none;stroke:#000000;stroke-width:20;stroke-linejoin:round;stroke-miterlimit:10;"
     points="187.56,436.1   187.56,270.89 187.56,228.74 187.56,198.85 "
     id="polyline72" /><g
     id="g74" /><g
     id="g76" /><g
     id="g78" /><g
     id="g80" /><g
     id="g82" /><g
     id="g84" /><g
     id="g86" /><g
     id="g88" /><g
     id="g90" /><g
     id="g92" /><g
     id="g94" /><g
     id="g96" /><g
     id="g98" /><g
     id="g100" /><g
     id="g102" /><path
     style="fill:#ff9811;stroke-width:1.29125118"
     d="m 241.11986,252.72108 c 20.235,16.73205 30.3453,38.65397 30.3453,60.58762 0,21.93367 -10.1103,43.85559 -30.3453,60.58764 -40.45569,-33.46411 -40.45569,-87.71116 0,-121.17526 z"
     id="path26"
     inkscape:connector-curvature="0" /><path
     inkscape:connector-curvature="0"
     id="path38-7-1-5"
     style="fill:none;stroke:#000000;stroke-width:12.32693386;stroke-linejoin:round;stroke-miterlimit:10"
     d="m 244.47893,250.59829 c -16.19019,8.08488 -28.18203,22.98242 -33.41953,40.69155 -1.90508,6.43099 -2.92033,13.23095 -2.92033,20.20901 0,6.97805 1.00928,13.77798 2.91436,20.20901 1.85134,6.27831 4.5686,12.21316 8.01449,17.60733 6.26467,9.81506 14.95995,17.87451 25.41101,23.09054 M 238.9735,250.57162 c 16.02038,8.07533 27.88645,22.95528 33.06902,40.64349 1.8851,6.4234 2.8897,13.21533 2.8897,20.18515 0,6.96981 -0.9987,13.76171 -2.8838,20.18514 -1.83192,6.2709 -4.52068,12.19874 -7.93043,17.58654 -6.19896,9.80347 -14.80304,17.8534 -25.14449,23.06327 m 4.14636,-115.51413 c -12.94687,7.41014 -22.53643,21.0644 -26.72472,37.29559 -1.52344,5.89429 -2.33531,12.12676 -2.33531,18.52246 0,6.39569 0.8071,12.62813 2.33054,18.52244 1.48047,5.75436 3.65339,11.19391 6.40898,16.1379 5.00968,8.99593 11.96307,16.38277 20.32051,21.16349 m -2.99921,-111.70305 c 12.94687,7.41014 22.53643,21.0644 26.72472,37.29559 1.52344,5.89429 2.33531,12.12676 2.33531,18.52246 0,6.39569 -0.8071,12.62813 -2.33054,18.52244 -1.48047,5.75436 -3.65339,11.19391 -6.40898,16.1379 -5.00968,8.99594 -11.96307,16.38278 -20.32051,21.1635" /></svg>