<?xml version="1.0" encoding="UTF-8" standalone="no"?>
<!-- Generator: Adobe Illustrator 19.0.0, SVG Export Plug-In . SVG Version: 6.00 Build 0)  -->

<svg
   xmlns:dc="http://purl.org/dc/elements/1.1/"
   xmlns:cc="http://creativecommons.org/ns#"
   xmlns:rdf="http://www.w3.org/1999/02/22-rdf-syntax-ns#"
   xmlns:svg="http://www.w3.org/2000/svg"
   xmlns="http://www.w3.org/2000/svg"
   xmlns:sodipodi="http://sodipodi.sourceforge.net/DTD/sodipodi-0.dtd"
   xmlns:inkscape="http://www.inkscape.org/namespaces/inkscape"
   version="1.1"
   id="Capa_1"
   x="0px"
   y="0px"
   viewBox="0 0 470.001 470.001"
   style="enable-background:new 0 0 470.001 470.001;"
   xml:space="preserve"
   sodipodi:docname="map.svg"
   inkscape:version="0.92.2 (5c3e80d, 2017-08-06)"><metadata
     id="metadata61"><rdf:RDF><cc:Work
         rdf:about=""><dc:format>image/svg+xml</dc:format><dc:type
           rdf:resource="http://purl.org/dc/dcmitype/StillImage" /></cc:Work></rdf:RDF></metadata><defs
     id="defs59" /><sodipodi:namedview
     pagecolor="#ffffff"
     bordercolor="#666666"
     borderopacity="1"
     objecttolerance="10"
     gridtolerance="10"
     guidetolerance="10"
     inkscape:pageopacity="0"
     inkscape:pageshadow="2"
     inkscape:window-width="1920"
     inkscape:window-height="1017"
     id="namedview57"
     showgrid="false"
     inkscape:zoom="0.50212658"
     inkscape:cx="-12.944943"
     inkscape:cy="235.0005"
     inkscape:window-x="-8"
     inkscape:window-y="-8"
     inkscape:window-maximized="1"
     inkscape:current-layer="Capa_1" /><g
     id="g24"
     transform="matrix(-1,0,0,1,470,0)"><path
       style="fill:#c7c4b9"
       d="m 434.325,297.801 c -0.472,0.089 -0.941,0.133 -1.405,0.133 -3.532,0 -6.678,-2.507 -7.36,-6.104 -0.771,-4.07 1.902,-7.994 5.973,-8.766 L 455,278.615 v -26.123 l -12.009,2.276 c -0.472,0.089 -0.941,0.133 -1.405,0.133 -3.532,0 -6.678,-2.507 -7.36,-6.104 -0.771,-4.07 1.902,-7.994 5.973,-8.766 L 455,237.225 v -14.733 l -212.5,40.284 v 190.669 l 47.438,-8.993 v -17.951 c 0,-4.142 3.357,-7.5 7.5,-7.5 4.143,0 7.5,3.358 7.5,7.5 v 15.108 L 455,413.161 v -119.28 z m -30.821,68.866 c -4.411,0 -8,-3.589 -8,-8 0,-4.411 3.589,-8 8,-8 4.411,0 8,3.589 8,8 0,4.411 -3.589,8 -8,8 z"
       id="path2"
       inkscape:connector-curvature="0" /><path
       style="fill:#f0ede4"
       d="m 242.5,110.628 c 0,4.142 -3.357,7.5 -7.5,7.5 v 15 c 4.143,0 7.5,3.358 7.5,7.5 v 106.88 L 455,207.225 V 83.084 l -8.556,-9.625 c -2.526,-2.842 -2.526,-7.124 0,-9.965 L 455,53.868 V 16.556 L 242.5,56.84 Z m 116.698,-10.22 c 2.93,-2.929 7.678,-2.929 10.607,0 l 5.87,5.87 5.87,-5.87 c 2.93,-2.929 7.678,-2.929 10.607,0 2.929,2.929 2.929,7.678 0,10.606 l -5.871,5.871 5.871,5.871 c 2.929,2.929 2.929,7.678 0,10.606 -1.465,1.464 -3.385,2.197 -5.304,2.197 -1.919,0 -3.839,-0.732 -5.304,-2.197 l -5.87,-5.87 -5.87,5.87 c -1.465,1.464 -3.385,2.197 -5.304,2.197 -1.919,0 -3.839,-0.732 -5.304,-2.197 -2.929,-2.929 -2.929,-7.678 0,-10.606 l 5.871,-5.871 -5.871,-5.871 c -2.927,-2.928 -2.927,-7.677 0.002,-10.606 z"
       id="path4"
       inkscape:connector-curvature="0" /><path
       style="fill:#f0ede4"
       d="M 227.5,262.776 15,222.492 v 119.361 l 12.819,14.421 c 2.526,2.842 2.526,7.124 0,9.966 L 15,380.661 v 32.5 l 212.5,40.284 z m -50.114,112.088 -21.213,21.213 c -1.407,1.407 -3.314,2.197 -5.304,2.197 -1.99,0 -3.896,-0.79 -5.304,-2.197 L 116.608,367.119 87.65,396.077 c -1.465,1.464 -3.385,2.197 -5.304,2.197 -1.92,0 -3.839,-0.732 -5.304,-2.197 L 55.83,374.864 c -1.406,-1.406 -2.196,-3.314 -2.196,-5.303 0,-1.989 0.79,-3.897 2.196,-5.303 L 84.789,335.3 55.83,306.342 c -1.406,-1.406 -2.196,-3.314 -2.196,-5.303 0,-1.989 0.79,-3.897 2.196,-5.303 l 21.213,-21.213 c 2.929,-2.928 7.677,-2.93 10.607,0 l 28.958,28.958 28.957,-28.958 c 1.407,-1.407 3.314,-2.197 5.304,-2.197 1.99,0 3.896,0.79 5.304,2.197 l 21.213,21.213 c 2.929,2.929 2.929,7.678 0,10.606 l -28.958,28.958 28.958,28.958 c 2.929,2.928 2.929,7.677 0,10.606 z"
       id="path6"
       inkscape:connector-curvature="0" /><path
       style="fill:#c7c4b9"
       d="m 235,118.128 c -4.143,0 -7.5,-3.358 -7.5,-7.5 V 56.84 L 92.355,31.22 v 35.614 c 0,4.142 -3.357,7.5 -7.5,7.5 -4.143,0 -7.5,-3.358 -7.5,-7.5 V 28.377 L 52.691,23.701 v 7.8 c 0,4.142 -3.357,7.5 -7.5,7.5 -4.143,0 -7.5,-3.358 -7.5,-7.5 V 20.857 L 15,16.556 v 190.669 l 212.5,40.284 v -106.88 c 0,-4.142 3.357,-7.5 7.5,-7.5 z M 93.504,116.667 c -4.411,0 -8,-3.589 -8,-8 0,-4.411 3.589,-8 8,-8 4.411,0 8,3.589 8,8 0,4.411 -3.589,8 -8,8 z m 30,-20 c -4.411,0 -8,-3.589 -8,-8 0,-4.411 3.589,-8 8,-8 4.411,0 8,3.589 8,8 0,4.411 -3.589,8 -8,8 z"
       id="path8"
       inkscape:connector-curvature="0" /><path
       style="fill:#34150c"
       d="M 470,56.719 V 7.501 C 470,5.267 469.004,3.15 467.284,1.725 465.563,0.3 463.296,-0.285 461.103,0.132 L 235,42.995 8.897,0.132 C 6.705,-0.284 4.437,0.3 2.716,1.725 0.996,3.149 0,5.267 0,7.501 v 337.204 c 0,1.837 0.674,3.61 1.895,4.983 L 12.179,361.257 1.895,372.826 C 0.674,374.199 0,375.972 0,377.809 v 41.563 c 0,3.604 2.563,6.698 6.104,7.369 l 227.5,43.128 c 0.461,0.087 0.929,0.131 1.396,0.131 0.467,0 0.936,-0.044 1.396,-0.131 l 227.5,-43.128 C 467.437,426.07 470,422.976 470,419.372 V 80.232 c 0,-1.837 -0.674,-3.61 -1.895,-4.983 l -6.021,-6.773 6.021,-6.774 C 469.326,60.329 470,58.556 470,56.719 Z M 15,380.661 27.82,366.24 c 2.526,-2.842 2.526,-7.124 0,-9.966 L 15,341.853 V 222.492 l 212.5,40.284 V 453.445 L 15,413.161 Z m 289.939,60.947 V 426.5 c 0,-4.142 -3.357,-7.5 -7.5,-7.5 -4.143,0 -7.5,3.358 -7.5,7.5 v 17.951 l -47.438,8.993 V 262.776 L 455,222.492 v 14.733 l -14.802,2.806 c -4.07,0.771 -6.744,4.696 -5.973,8.766 0.683,3.598 3.828,6.104 7.36,6.104 0.464,0 0.934,-0.043 1.405,-0.133 L 455,252.492 v 26.123 l -23.468,4.449 c -4.07,0.771 -6.744,4.696 -5.973,8.766 0.683,3.598 3.828,6.104 7.36,6.104 0.464,0 0.934,-0.043 1.405,-0.133 L 455,293.881 V 413.16 Z M 455,53.868 l -8.556,9.626 c -2.526,2.841 -2.526,7.124 0,9.965 L 455,83.084 v 124.141 l -212.5,40.284 v -106.88 c 0,-4.142 -3.357,-7.5 -7.5,-7.5 -4.143,0 -7.5,3.358 -7.5,7.5 v 106.88 L 15,207.225 V 16.556 l 22.69,4.301 v 10.644 c 0,4.142 3.357,7.5 7.5,7.5 4.143,0 7.5,-3.358 7.5,-7.5 v -7.8 l 24.664,4.676 v 38.458 c 0,4.142 3.357,7.5 7.5,7.5 4.143,0 7.5,-3.358 7.5,-7.5 V 31.22 L 227.5,56.84 v 53.789 c 0,4.142 3.357,7.5 7.5,7.5 4.143,0 7.5,-3.358 7.5,-7.5 V 56.84 L 455,16.556 Z"
       id="path10"
       inkscape:connector-curvature="0" /><path
       style="fill:#329b9f"
       d="m 111.305,351.209 c 1.407,-1.407 3.314,-2.197 5.304,-2.197 1.99,0 3.896,0.79 5.304,2.197 l 28.957,28.958 10.606,-10.606 -28.958,-28.958 c -2.929,-2.929 -2.929,-7.678 0,-10.606 l 28.958,-28.958 -10.606,-10.606 -28.957,28.958 c -1.407,1.407 -3.314,2.197 -5.304,2.197 -1.99,0 -3.896,-0.79 -5.304,-2.197 L 82.347,290.433 71.741,301.039 100.7,329.997 c 1.406,1.406 2.196,3.314 2.196,5.303 0,1.989 -0.79,3.897 -2.196,5.303 l -28.959,28.958 10.606,10.606 z"
       id="path12"
       inkscape:connector-curvature="0" /><path
       style="fill:#34150c"
       d="m 148.428,335.299 28.958,-28.958 c 2.929,-2.929 2.929,-7.678 0,-10.606 l -21.213,-21.213 c -1.407,-1.407 -3.314,-2.197 -5.304,-2.197 -1.99,0 -3.896,0.79 -5.304,2.197 L 116.608,303.48 87.65,274.522 c -2.931,-2.93 -7.679,-2.928 -10.607,0 L 55.83,295.735 c -1.406,1.406 -2.196,3.314 -2.196,5.303 0,1.989 0.79,3.897 2.196,5.303 l 28.959,28.958 -28.959,28.958 c -1.406,1.406 -2.196,3.314 -2.196,5.303 0,1.989 0.79,3.897 2.196,5.303 l 21.213,21.213 c 1.465,1.465 3.384,2.197 5.304,2.197 1.919,0 3.839,-0.732 5.304,-2.197 l 28.958,-28.958 28.957,28.958 c 1.407,1.407 3.314,2.197 5.304,2.197 1.99,0 3.896,-0.79 5.304,-2.197 l 21.213,-21.213 c 2.929,-2.929 2.929,-7.678 0,-10.606 z m -47.729,5.304 c 1.406,-1.406 2.196,-3.314 2.196,-5.303 0,-1.989 -0.79,-3.897 -2.196,-5.303 l -28.959,-28.958 10.606,-10.606 28.958,28.958 c 1.407,1.407 3.314,2.197 5.304,2.197 1.99,0 3.896,-0.79 5.304,-2.197 l 28.957,-28.958 10.606,10.606 -28.958,28.958 c -2.929,2.929 -2.929,7.678 0,10.606 l 28.958,28.958 -10.606,10.606 -28.957,-28.958 c -1.407,-1.407 -3.314,-2.197 -5.304,-2.197 -1.99,0 -3.896,0.79 -5.304,2.197 L 82.346,380.167 71.74,369.561 Z"
       id="path14"
       inkscape:connector-curvature="0" /><path
       style="fill:#34150c"
       d="m 403.504,350.667 c -4.411,0 -8,3.589 -8,8 0,4.411 3.589,8 8,8 4.411,0 8,-3.589 8,-8 0,-4.411 -3.589,-8 -8,-8 z"
       id="path16"
       inkscape:connector-curvature="0" /><path
       style="fill:#34150c"
       d="m 93.504,100.667 c -4.411,0 -8,3.589 -8,8 0,4.411 3.589,8 8,8 4.411,0 8,-3.589 8,-8 0,-4.411 -3.589,-8 -8,-8 z"
       id="path18"
       inkscape:connector-curvature="0" /><path
       style="fill:#34150c"
       d="m 123.504,80.667 c -4.411,0 -8,3.589 -8,8 0,4.411 3.589,8 8,8 4.411,0 8,-3.589 8,-8 0,-4.411 -3.589,-8 -8,-8 z"
       id="path20"
       inkscape:connector-curvature="0" /><path
       style="fill:#34150c"
       d="m 365.068,116.885 -5.871,5.871 c -2.929,2.929 -2.929,7.678 0,10.606 1.465,1.464 3.385,2.197 5.304,2.197 1.919,0 3.839,-0.732 5.304,-2.197 l 5.87,-5.87 5.87,5.87 c 1.465,1.464 3.385,2.197 5.304,2.197 1.919,0 3.839,-0.732 5.304,-2.197 2.929,-2.929 2.929,-7.678 0,-10.606 l -5.871,-5.871 5.871,-5.871 c 2.929,-2.929 2.929,-7.678 0,-10.606 -2.93,-2.929 -7.678,-2.929 -10.607,0 l -5.87,5.87 -5.87,-5.87 c -2.93,-2.929 -7.678,-2.929 -10.607,0 -2.929,2.929 -2.929,7.678 0,10.606 z"
       id="path22"
       inkscape:connector-curvature="0" /></g><g
     id="g26"
     transform="matrix(-1,0,0,1,470,0)" /><g
     id="g28"
     transform="matrix(-1,0,0,1,470,0)" /><g
     id="g30"
     transform="matrix(-1,0,0,1,470,0)" /><g
     id="g32"
     transform="matrix(-1,0,0,1,470,0)" /><g
     id="g34"
     transform="matrix(-1,0,0,1,470,0)" /><g
     id="g36"
     transform="matrix(-1,0,0,1,470,0)" /><g
     id="g38"
     transform="matrix(-1,0,0,1,470,0)" /><g
     id="g40"
     transform="matrix(-1,0,0,1,470,0)" /><g
     id="g42"
     transform="matrix(-1,0,0,1,470,0)" /><g
     id="g44"
     transform="matrix(-1,0,0,1,470,0)" /><g
     id="g46"
     transform="matrix(-1,0,0,1,470,0)" /><g
     id="g48"
     transform="matrix(-1,0,0,1,470,0)" /><g
     id="g50"
     transform="matrix(-1,0,0,1,470,0)" /><g
     id="g52"
     transform="matrix(-1,0,0,1,470,0)" /><g
     id="g54"
     transform="matrix(-1,0,0,1,470,0)" /></svg>