<?xml version="1.0" encoding="iso-8859-1"?>
<!-- Generator: Adobe Illustrator 19.0.0, SVG Export Plug-In . SVG Version: 6.00 Build 0)  -->
<svg version="1.1" id="Capa_1" xmlns="http://www.w3.org/2000/svg" xmlns:xlink="http://www.w3.org/1999/xlink" x="0px" y="0px"
	 viewBox="0 0 512 512" style="enable-background:new 0 0 512 512;" xml:space="preserve">
<g>
	<path style="fill:#FC3A4D;" d="M379.638,32.098h-75.272c-2.765,0-5.007,2.242-5.007,5.007v40.831c0,2.765,2.242,5.007,5.007,5.007
		h74.931c4.682,0,6.802-5.854,3.206-8.852l-14.837-12.37c-2.375-1.981-2.405-5.619-0.062-7.638l15.302-13.184
		C386.423,37.868,384.28,32.098,379.638,32.098z"/>
	<path style="fill:#FC3A4D;" d="M323.696,57.52h-66.378V7.51h66.378c2.765,0,5.007,2.242,5.007,5.007v39.997
		C328.703,55.279,326.461,57.52,323.696,57.52z"/>
</g>
<path style="fill:#A6E6FD;" d="M122.167,87.298c0-0.008,0.001-0.016,0.001-0.024c0-14.706-11.922-26.628-26.628-26.628
	S68.913,72.568,68.913,87.274c0,0.008,0.001,0.016,0.001,0.024C55.495,87.799,44.67,98.925,44.67,112.462l0,0
	c0,13.853,11.335,25.188,25.188,25.188h51.366c13.853,0,25.188-11.335,25.188-25.188l0,0
	C146.411,98.924,135.587,87.799,122.167,87.298z"/>
<path style="fill:#8DD0E2;" d="M146.409,112.46c0,13.858-11.335,25.193-25.183,25.193H69.859c-6.929,0-13.227-2.834-17.793-7.4
	c-3.635-3.635-6.168-8.371-7.049-13.648c2.243,0.671,4.606,1.021,7.059,1.021h51.367c13.858,0,25.193-11.335,25.193-25.193
	c0-1.412-0.12-2.794-0.35-4.135c4.246,1.242,8.03,3.585,11.034,6.689C143.706,99.523,146.409,105.691,146.409,112.46z"/>
<path style="fill:#A6E6FD;" d="M443.086,164.3c0-0.008,0.001-0.016,0.001-0.024c0-14.706-11.922-26.627-26.627-26.627
	c-14.705,0-26.628,11.922-26.628,26.627c0,0.008,0.001,0.016,0.001,0.024c-13.419,0.502-24.245,11.627-24.245,25.164l0,0
	c0,13.853,11.335,25.188,25.188,25.188h51.366c13.853,0,25.188-11.335,25.188-25.188l0,0
	C467.329,175.927,456.505,164.802,443.086,164.3z"/>
<path style="fill:#8DD0E2;" d="M467.327,189.46c0,13.858-11.335,25.193-25.183,25.193h-51.367c-6.929,0-13.227-2.834-17.793-7.4
	c-3.635-3.635-6.168-8.371-7.049-13.648c2.243,0.671,4.606,1.021,7.059,1.021h51.367c13.858,0,25.193-11.335,25.193-25.193
	c0-1.412-0.12-2.794-0.35-4.135c4.246,1.242,8.03,3.585,11.034,6.689C464.624,176.523,467.327,182.691,467.327,189.46z"/>
<path style="fill:#8BCE34;" d="M464.397,496.627L257.035,104.115L46.77,496.6c-1.912,3.571,0.674,7.891,4.724,7.891h408.164
	C463.696,504.49,466.284,500.197,464.397,496.627z"/>
<path style="fill:#CA8B69;" d="M464.397,496.627L261.431,112.435c-1.873-3.546-6.946-3.561-8.84-0.025L46.77,496.6
	c-1.912,3.571,0.674,7.891,4.724,7.891h408.164C463.696,504.49,466.284,500.197,464.397,496.627z"/>
<path style="fill:#B27157;" d="M459.656,504.49h-28.475L238.223,139.243l14.057-26.253c2.021-3.775,7.454-3.764,9.463,0.032
	l202.656,383.6C466.281,500.195,463.698,504.49,459.656,504.49z"/>
<path style="fill:#DFEAED;" d="M359.29,297.68l-4.427,6.625l-39.85,45.438c-2.159,2.462-6.003,2.429-8.12-0.07l-69.179-81.67
	c-2.104-2.483-5.918-2.534-8.087-0.107l-36.594,40.949c-2.243,2.51-6.217,2.355-8.259-0.321l-21.878-28.692l89.694-167.418
	c1.893-3.535,6.967-3.52,8.84,0.026L359.29,297.68z"/>
<path style="fill:#CDD7D9;" d="M359.291,297.677l-22.702,26.583l-97.548-184.654c-0.159-0.308-0.35-0.596-0.564-0.851l13.802-25.754
	c2.031-3.785,7.454-3.775,9.463,0.021L359.291,297.677z"/>
<path d="M330.071,496.98H55.51l36.218-67.607c1.959-3.656,0.582-8.208-3.074-10.165c-3.652-1.958-8.206-0.583-10.165,3.073
	l-37.914,70.772c-2.157,4.026-2.044,8.769,0.303,12.689c2.346,3.919,6.473,6.258,11.041,6.258h278.153c4.147,0,7.51-3.362,7.51-7.51
	C337.581,500.343,334.219,496.98,330.071,496.98z"/>
<path d="M69.857,145.159h51.366c18.029,0,32.698-14.668,32.698-32.698c0-15.39-10.499-28.266-24.877-31.757
	c-3.071-15.691-16.926-27.568-33.504-27.568S65.108,65.013,62.037,80.704C47.659,84.196,37.16,97.071,37.16,112.462
	C37.16,130.491,51.828,145.159,69.857,145.159z M69.194,94.802c4.035-0.15,7.229-3.466,7.229-7.505c0-0.024,0-0.05,0-0.077
	c0.028-10.518,8.593-19.065,19.117-19.065c10.525,0,19.09,8.548,19.118,19.066c-0.001,0.026-0.001,0.051-0.001,0.075
	c0,4.038,3.194,7.354,7.229,7.505c9.382,0.35,17.014,8.273,17.014,17.659c0,9.748-7.93,17.678-17.678,17.678H69.857
	c-9.748,0-17.678-7.93-17.678-17.678C52.179,103.074,59.812,95.153,69.194,94.802z"/>
<path d="M358.079,189.464c0,18.029,14.668,32.698,32.698,32.698h51.366c18.03,0,32.698-14.668,32.698-32.698
	c0-15.39-10.499-28.266-24.877-31.757c-3.071-15.691-16.926-27.568-33.504-27.568c-16.578,0-30.432,11.875-33.503,27.568
	C368.577,161.199,358.079,174.075,358.079,189.464z M397.342,164.3c0-0.024,0-0.05-0.001-0.077
	c0.028-10.518,8.593-19.065,19.117-19.065c10.524,0,19.089,8.547,19.118,19.065c-0.001,0.026-0.001,0.052-0.001,0.077
	c0,4.038,3.194,7.354,7.229,7.505c9.382,0.35,17.014,8.273,17.014,17.659c0,9.748-7.93,17.678-17.678,17.678h-51.366
	c-9.748,0-17.678-7.93-17.678-17.678c0-9.387,7.633-17.309,17.014-17.659C394.148,171.655,397.342,168.339,397.342,164.3z"/>
<path d="M264.827,101.987V65.03h27.022v12.906c0,6.902,5.614,12.516,12.516,12.516h74.931c5.333,0,9.952-3.239,11.768-8.254
	c1.816-5.014,0.343-10.461-3.753-13.875l-12.568-10.48l13.064-11.256c4.005-3.451,5.404-8.884,3.564-13.84
	c-1.84-4.956-6.446-8.16-11.733-8.16h-43.426V12.516C336.212,5.614,330.598,0,323.696,0h-66.379c-4.147,0-7.51,3.362-7.51,7.51
	v50.01v44.973l-88.108,164.465l-4.998,9.327c0,0.001-0.001,0.002-0.001,0.002L99.817,382.471c-1.959,3.656-0.583,8.207,3.073,10.165
	c3.655,1.959,8.207,0.583,10.165-3.073l51.373-95.895l14.799,19.408c2.336,3.064,5.884,4.906,9.735,5.057
	c3.842,0.148,7.529-1.413,10.095-4.285l34.947-39.107l67.582,79.785c2.423,2.86,5.963,4.519,9.711,4.55c0.037,0,0.073,0,0.11,0
	c3.708,0,7.228-1.594,9.676-4.384c0.025-0.028,0.05-0.057,0.074-0.086l37.097-43.621l98.26,185.993h-81.841
	c-4.147,0-7.51,3.362-7.51,7.51s3.362,7.51,7.51,7.51h85.408c4.552,0,8.673-2.328,11.022-6.227c2.35-3.899,2.483-8.629,0.356-12.655
	L264.827,101.987z M336.212,52.513V39.609h36.685l-10.195,8.783c-2.792,2.405-4.377,5.898-4.347,9.582
	c0.029,3.685,1.67,7.152,4.501,9.512l9.528,7.945h-65.515V65.03h16.827C330.598,65.03,336.212,59.415,336.212,52.513z
	 M264.827,15.02h56.366V50.01h-56.366V15.02z M311.409,342.886l-67.542-79.737c-2.407-2.843-5.925-4.501-9.65-4.55
	c-0.057-0.001-0.114-0.001-0.171-0.001c-3.662,0-7.151,1.559-9.594,4.294L189.592,301.9l-17.37-22.78l85.191-159.013l93.284,176.582
	L311.409,342.886z"/>
<g>
</g>
<g>
</g>
<g>
</g>
<g>
</g>
<g>
</g>
<g>
</g>
<g>
</g>
<g>
</g>
<g>
</g>
<g>
</g>
<g>
</g>
<g>
</g>
<g>
</g>
<g>
</g>
<g>
</g>
</svg>
