<?xml version="1.0" encoding="UTF-8" standalone="no"?>
<svg
   xmlns:dc="http://purl.org/dc/elements/1.1/"
   xmlns:cc="http://creativecommons.org/ns#"
   xmlns:rdf="http://www.w3.org/1999/02/22-rdf-syntax-ns#"
   xmlns:svg="http://www.w3.org/2000/svg"
   xmlns="http://www.w3.org/2000/svg"
   xmlns:sodipodi="http://sodipodi.sourceforge.net/DTD/sodipodi-0.dtd"
   xmlns:inkscape="http://www.inkscape.org/namespaces/inkscape"
   viewBox="0 0 4796.6802 92.89857"
   version="1.1"
   id="svg4"
   sodipodi:docname="navbar.svg"
   width="4796.6802"
   height="92.898567"
   inkscape:version="0.92.2 (5c3e80d, 2017-08-06)">
  <metadata
     id="metadata10">
    <rdf:RDF>
      <cc:Work
         rdf:about="">
        <dc:format>image/svg+xml</dc:format>
        <dc:type
           rdf:resource="http://purl.org/dc/dcmitype/StillImage" />
        <dc:title></dc:title>
      </cc:Work>
    </rdf:RDF>
  </metadata>
  <defs
     id="defs8" />
  <sodipodi:namedview
     pagecolor="#ffffff"
     bordercolor="#666666"
     borderopacity="1"
     objecttolerance="10"
     gridtolerance="10"
     guidetolerance="10"
     inkscape:pageopacity="0"
     inkscape:pageshadow="2"
     inkscape:window-width="1920"
     inkscape:window-height="1017"
     id="namedview6"
     showgrid="false"
     inkscape:zoom="0.41989994"
     inkscape:cx="1459.552"
     inkscape:cy="576.64042"
     inkscape:window-x="-8"
     inkscape:window-y="-8"
     inkscape:window-maximized="1"
     inkscape:current-layer="svg4" />
  <path
     style="fill:#f1eee5"
     d="m 0,0 v 88.349609 c 4.69,0 9.080937,1.14961 13.710938,1.59961 5.478278,0.387021 10.980266,0.280472 16.439453,-0.31836 10.23,-0.85 20.7,-1.310468 31,-1.480468 2.89,0 5.748672,-0.119532 8.638671,-0.269532 1.77,-0.09 5.000547,0.459141 6.310547,-0.880859 1.52,-1.54 0.460313,-5.150703 3.320313,-4.720703 2.08,0.31 4.189375,3.000312 5.609375,4.320312 2,1.87 3.860703,1.470078 6.470703,1.330079 2.33,-0.120002 6.07,0.510468 8.25,-0.269532 2,-0.72 1.82094,-3.999609 2.21094,-6.099609 0.48666,-2.566667 0.96303,-5.137604 1.42968,-7.710938 0.27,0 1.27922,7.329454 1.44922,8.189453 0.25,1.260002 0.40946,3.59086 1.18946,4.63086 0.78,1.04 2.11125,0.840078 3.53125,0.830078 6.52,-0.06 12.99953,-1.909297 19.51953,-2.779297 1.69,-0.23 5.50922,-2.000859 6.69922,-1.380859 0.82,0.45 1.21015,2.079922 2.16015,2.669922 1.25,0.77 2.99969,0.730312 4.42969,0.820312 2.9,0.17 5.60172,0.130547 8.51172,0.560547 3.3,0.49 3.3793,-0.460937 4.5293,-3.460937 2.33,2.34 4.36914,4.799375 7.86914,5.359374 1.88,0.3 3.79117,-0.308984 5.70117,-0.208984 1.91,0.1 3.52984,0.290781 5.33984,0.300781 4.45,0 8.91938,-0.180781 13.35938,-0.550781 4,-0.34 8.12008,-0.889687 12.08008,-0.179687 0.41724,0.110913 0.84758,0.164789 1.27929,0.160156 v 0.109375 h 1 c 5,-0.06 11.37016,-0.999219 17.16016,-1.199219 7.09,-0.21 14.11141,0.479766 21.1914,0.759766 13,0.52 26.21954,-0.69 39.26954,-1 3.25,-0.08 5.70906,0.288906 8.28906,-1.621094 2.58,-1.91 4.6407,-1.45 7.7207,-1.5 2.61,0 5.22985,7.8e-5 7.83985,-0.169922 1.12,-0.06 2.85945,-0.558594 3.93945,-0.308594 2.16,0.49 0.89148,0.44 1.77148,2 0.46,0.82 -0.33164,0.999844 0.56836,1.589844 0.74,0.52 3.25133,0.08008 4.11133,0.08008 2.72,0 5.45969,-4.69e-4 8.17969,-0.230469 2.72,-0.23 4.90031,-3.12e-4 6.57031,-2.070312 1.93,-2.34 3.27945,-5.999922 4.93945,-8.669922 1.46,-2.32 1.99946,-3.520078 3.18946,-0.580078 0.88726,2.563253 1.45215,5.226943 1.68164,7.929688 0.36,2.599998 -2.4e-4,2.770937 2.25976,3.460937 3.14,1 7.86969,0.140234 11.17969,0.240234 12.32,0.39 24.64,0.169688 37,1.179688 3.12,0.25 6.28016,0.150391 9.41016,0.150391 4,0 4.32,-0.0012 6,-3.701172 0.6,-1.3 1.85023,-4.89 3.74023,-5 1.61,-0.1 3.45,4.240703 5,5.220703 3.61,2.29 9.65961,1.479297 13.84961,1.779297 7.14,0.51 14.33024,-5.47e-4 21.49023,0.439453 5.82,0.36 11.18001,1 17,1 3,0 6.62891,-0.869531 8.62891,-0.769531 v -0.169922 c 6,-0.4 10.46086,-1.398985 15.63086,-1.708985 6.85,-0.41 13.83922,-0.74 20.69922,-1 3.69,-0.14 7.43133,-0.211172 11.11133,-0.201172 2.41,0 5.54961,0.809532 7.84961,0.519532 2.78,-0.34 4.52898,-3.928205 7.20898,-4.908203 3.17,-1.16 4.37141,0.859999 6.44141,3 2.47,2.59 3.09929,3.528359 6.52929,3.318359 3.43,-0.21 6.84024,0.45164 10.24024,0.681641 7.09,0.48 14.22984,0.179687 21.33984,0.179687 14.75,0 29.40039,1.13 44.15039,1 h 21.12891 c 1.14,0 3.83961,0.47 4.84961,0 1.82,-0.84 1.61,-1.850312 2,-3.820313 0.3,-1.659998 0.56094,-7.940234 2.21094,-8.740234 2.15,1.45 1.82953,6.15 3.51953,8 1.69,1.85 2.56945,1.370703 5.18945,0.470703 3,-1 3,-2.480234 6,-0.740234 1.32662,0.891251 2.73303,1.657552 4.20117,2.289062 1.61,0.59 4.04946,0.18 5.43946,1 2.69,1.52 1.47062,2.589844 4.89062,2.589844 3.26,0 6.44898,1.000469 9.70899,1.230469 6.78998,0.42 13.4314,-0.520625 20.1914,-0.890625 5.82,-0.32 11.64922,-0.559219 17.44922,-1.199219 6.46,-0.71 12.81953,-0.201016 19.26953,-0.541016 3.27,-0.17 4.55078,-0.998125 7.05078,-2.828124 2.24,-1.66 4.68039,-2.130469 7.40039,-2.480469 3.25672,-0.452391 6.56277,-0.415526 9.8086,0.109375 1.57278,0.333216 3.16731,0.553827 4.77148,0.660156 1.24,0 3.37945,-0.77 4.43945,0 2,1.37 1.00063,3.91 3.64063,4.75 2.64,0.84 6.30937,-0.309062 9.10937,-0.289062 6.89,0 13.34961,2.998359 20.34961,2.568359 6,-0.38 11.56985,-0.829531 17.58985,-0.269531 0.61,0.06 0.67969,0.16 1.67969,0.25 v 0.339843 c 2,-0.07 4.13976,0.05039 6.25976,0.150391 2.12,0.1 5.2818,1.089609 7.3418,0.599609 3.66,-0.87 4.50969,-8.390234 6.67968,-11.240234 1.15,2.06 1.7,4.641016 3,6.541016 1.76,2.51 3.99969,2.260234 6.67969,2.240234 7.07,-0.07 13.95,-1.31 21,-1.5 13.45,-0.37 26.80906,-1.121016 40.28907,-0.791016 13.13999,0.33 26.58039,-0.279531 39.65039,1.230469 3.26146,0.231855 6.50294,0.68933 9.70117,1.369141 2.69,0.7 4.10945,2.45 5.18945,-0.75 0.79,-2.36 0.8,-5.519688 2.75,-7.179688 1.26,-1.08 5.22047,-3.079922 6.48047,-1.419922 1.26,1.66 0.39937,7.310547 2.85937,8.310547 1,0.42 3.23914,-0.709609 4.36915,-0.849609 1.96522,-0.17501 3.94082,-0.201779 5.91012,-0.08008 3.71,0.12 5.9102,1.288984 7.1602,-2.791016 0.91,-3 1.491,-6.318906 3.541,-8.628906 0.96,2.766667 1.8767,5.54651 2.75,8.339844 1,3 0.9994,3.28914 4.1094,3.36914 5.94,0.15 12.2101,0.391405 18.0801,-0.558593 13.16,-2.120002 25.81,-0.371719 39,0.488281 5.76,0.37 11.519,0.880625 17.289,1.140625 6.17,0.27 12.93,1.470312 18.75,-0.679688 2.3786,-0.717981 4.8379,-1.134648 7.3203,-1.240234 1.4088,-0.21803 2.8368,-0.284816 4.2598,-0.199219 0.91,0.11 2.4098,0.99961 3.2598,0.849609 2.23,-0.469999 3.92,-5.300781 6,-5.300781 1.87,0 4.3207,4.480783 5.7207,5.800781 3.94,3.700002 12.0898,2.610625 17.0898,2.890626 6.54,0.37 13.0909,0.609999 19.6309,1 5.57,0.34 10.7896,-5.47e-4 16.3496,0.189453 1.2036,0.07738 2.402,0.220828 3.5898,0.429687 4.69,0 15.0802,0.773864 13.711,-2.880859 5.5838,2.228372 10.6115,-0.667554 14.4921,1.83789 10.23,-0.85 28.2254,0.216879 38.5254,0.04687 2.89,0 0.1725,-3.803125 3.0625,-3.953125 1.77,-0.09 3.9459,4.300938 5.2559,2.960938 1.52,-1.54 3.4603,-1.519844 6.3203,-1.089844 2.08,0.31 6.5585,0.158516 7.9785,1.478516 2,1.87 -0.4557,-3.160781 2.1543,-3.300781 2.33,-0.120002 6.07,4.379609 8.25,3.599609 2,-0.72 1.0768,-3.851172 1.4668,-5.951172 4.3082,-0.629316 -0.6793,-5.994404 4.8145,-2.943359 0.25,1.26 -0.1863,7.311562 0.5937,8.351562 0.78,1.04 8.8085,-1.540781 10.2285,-1.550781 6.52,-0.06 2.8785,2.852422 9.3985,1.982422 1.69,-0.23 6.9994,-0.661011 8.1894,-0.04102 0.82,0.45 5.5246,-0.896639 6.4746,-0.306641 1.25,0.77 5.6794,-0.757968 7.1094,-0.667968 2.9,0.17 5.1545,-1.357735 8.0645,-0.927735 2.5557,-2.18921 -3.7655,1.771752 -1.127,-7.033203 2.33,2.34 4.8164,6.287656 8.3164,6.847656 1.88,0.3 3.7912,-0.308984 5.7012,-0.208984 1.91,0.1 3.5298,0.290781 5.3398,0.300781 4.45,0 8.9194,-0.180781 13.3594,-0.550781 4,-0.34 8.1201,-0.889687 12.0801,-0.179687 0.4175,0.110924 0.8493,0.164904 1.2812,0.160156 v 0.109375 h 1 c 5,-0.06 15.9835,2.422656 21.7735,2.222656 7.09,-0.21 31.6739,0.03446 38.7539,0.314453 13,0.52 14.7586,-0.541562 27.8086,-0.851562 3.25,-0.08 -5.4804,-5.739042 -2.4278,-4.746094 5.1104,1.66228 4.9381,-3.534083 7.125,0.732422 2.61,0 -0.4264,4.615312 2.1836,4.445312 1.12,-0.06 9.1114,-7.40625 10.1914,-7.15625 2.16,0.49 0.8915,0.44 1.7715,2 0.46,0.82 -0.3297,0.999844 0.5703,1.589844 0.74,0.52 3.2494,0.08008 4.1094,0.08008 2.72,0 5.0124,2.976094 7.7324,2.746094 2.72,-0.23 5.0488,2.232109 6.7188,0.162109 1.93,-2.34 3.5783,-11.208906 5.2383,-13.878906 1.46,-2.32 1.9994,-3.520078 3.1894,-0.580078 0.8867,2.563425 -1.5258,9.842141 -1.2969,12.544922 0.36,2.6 6.1033,0.833437 8.3633,1.523437 3.14,1 21.1061,0.13012 16.9844,-0.355468 12.32,0.39 15.7103,-1.912344 28.0703,-0.902344 3.12,0.25 6.2802,0.150391 9.4102,0.150391 4,0 5.5094,4.614062 7.1894,0.914062 0.6,-1.3 1.7018,-16.501328 3.5918,-16.611328 1.61,-0.1 0.325,14.361797 1.875,15.341797 3.61,2.29 8.4682,1.778125 12.6582,2.078125 7.14,0.51 17.6056,-3.424375 24.7656,-2.984375 5.82,0.36 3.7367,3.53125 9.5567,3.53125 3,0 14.2207,0.171484 16.2207,0.271484 l 15.0351,-0.466797 c 6,-0.4 -3.9785,-7.057187 1.1915,-7.367187 6.85,-0.41 13.095,6.851797 19.955,6.591797 3.69,-0.14 12.6403,0.831797 16.3203,0.841796 2.41,0 4.6571,-3.059609 6.9571,-3.349609 2.78,-0.34 0.2126,-6.311016 2.8926,-7.291015 3.17,-1.16 4.3714,0.859999 6.4414,3 2.47,2.59 3.0993,3.528359 6.5293,3.318359 3.43,-0.21 20.3851,3.277812 23.7851,3.507812 7.09,0.48 0.6849,-2.646484 7.7949,-2.646484 14.75,0 20.2563,6.768999 44.1504,1 h 21.1289 c 1.14,0 3.8396,0.47 4.8496,0 1.82,-0.84 1.61,-1.850313 2,-3.820313 0.3,-1.659998 0.561,-7.940234 2.211,-8.740234 2.15,1.45 1.8295,6.15 3.5195,8 1.69,1.85 2.5695,1.370703 5.1895,0.470703 3,-1 3,-2.480234 6,-0.740234 1.3262,0.891511 2.7333,1.657188 4.2011,2.289062 1.61,0.59 4.0495,0.18 5.4395,1 2.69,1.52 1.4706,2.589844 4.8906,2.589844 3.26,0 6.449,1.000469 9.709,1.230469 6.79,0.42 13.4314,-0.520625 20.1914,-0.890625 5.82,-0.32 11.6492,-0.559219 17.4492,-1.199219 6.46,-0.71 12.8196,-0.201016 19.2696,-0.541016 3.27,-0.17 4.5507,-0.998126 7.0507,-2.828124 2.24,-1.66 4.6804,-2.130469 7.4004,-2.480469 3.2572,-0.452325 6.5623,-0.415873 9.8086,0.109375 1.5723,0.333093 3.1678,0.553809 4.7715,0.660156 1.24,0 3.3795,-0.77 4.4395,0 2,1.37 1.0006,3.91 3.6406,4.75 2.64,0.84 6.3094,-0.309062 9.1094,-0.289062 6.89,0 13.3496,2.998359 20.3496,2.568359 6,-0.38 11.5698,-0.829531 17.5898,-0.269531 0.61,0.06 0.6797,0.16 1.6797,0.25 v 0.339843 c 2,-0.07 4.1398,0.05039 6.2598,0.150391 2.12,0.1 5.2818,1.089609 7.3418,0.599609 3.66,-0.87 7.9335,-7.495703 10.1035,-10.345703 1.15,2.06 -3.2121,5.383203 -1.9121,7.283203 1.76,2.51 5.7848,1.96336 8.4648,1.94336 7.07,-0.07 13.6531,-2.649844 20.7031,-2.839844 13.45,-0.37 28.5962,1.855547 42.0762,2.185547 3.9483,2.808683 0.2148,3.371828 37.8633,-1.746094 3.2611,0.232192 6.5034,0.689095 9.7012,1.369141 0.7622,0.198365 1.4127,0.474613 1.9921,0.705078 -0.5903,0.508893 -0.9466,0.84333 -0.3046,0.296875 0.098,-0.08392 0.2372,-0.18056 0.3652,-0.273438 1.4303,0.564774 2.3737,0.782159 3.1367,-1.478515 0.01,-0.02395 0.01,-0.03435 0.012,-0.05664 1.2098,-0.349738 2.3813,-0.382744 2.9668,0.388672 1.26,1.66 6.6514,-1.621094 9.1114,-0.621094 1,0.42 3.2391,-0.709609 4.3691,-0.849609 1.9652,-0.174978 3.941,-0.201799 5.9102,-0.08008 3.71,0.12 5.9101,1.288984 7.1601,-2.791016 0.91,-3 11.4637,-9.295469 13.5137,-11.605469 0.96,2.766667 -8.096,8.523074 -7.2227,11.316407 1,3 0.9994,3.28914 4.1094,3.36914 5.94,0.15 13.1027,1.58086 18.9727,0.63086 9.6922,4.500332 24.9251,2.850204 38.5546,2.871093 5.76,0.37 11.0718,-2.69164 16.8418,-2.43164 6.17,0.27 12.93,1.470312 18.75,-0.679688 2.3785,-0.717877 4.2424,3.330145 6.7247,3.22461 1.4087,-0.218306 -1.6282,-4.749416 -0.2051,-4.664063 0.91,0.11 10.5972,4.86875 11.4472,4.71875 2.23,-0.47 6.5997,-9.318359 8.6797,-9.318359 1.87,0 -2.6773,6.265937 -1.2773,7.585937 3.94,3.7 13.2812,0.973905 18.2812,1.253907 6.54,0.37 13.0909,0.609999 19.6309,1 5.57,0.34 10.7896,-5.47e-4 16.3496,0.189453 1.2036,0.07748 2.4019,0.220716 3.5898,0.429687 1.1879,-0.20897 2.3863,-0.352187 3.5899,-0.429687 5.56,-0.19 10.7796,0.150547 16.3496,-0.189453 6.54,-0.39 13.0909,-0.63 19.6309,-1 5,-0.28 14.3412,2.446093 18.2812,-1.253907 13.3371,-16.354045 3.9524,0.32968 7.4024,1.732422 0.85,0.15 10.5372,-4.60875 11.4472,-4.71875 0.7826,6.61124 14.4336,2.644366 25.2695,2.119141 5.77,-0.26 11.0818,2.80164 16.8418,2.43164 13.6295,-0.02089 28.8625,1.629237 38.5547,-2.871093 5.87,0.95 13.0327,-0.48086 18.9727,-0.63086 3.11,-0.08 3.1094,-0.36914 4.1094,-3.36914 0.8733,-2.79334 -0.4428,-1.702868 0.5172,-4.469538 2.05,2.31 4.8638,1.7586 5.7738,4.7586 1.25,4.08 3.4501,2.911016 7.1601,2.791016 1.9692,-0.1217 3.945,-0.0949 5.9102,0.08008 1.13,0.14 3.3691,1.269609 4.3691,0.849609 2.46,-1 7.8514,2.281094 9.1114,0.621094 0.5855,-0.77142 1.757,-0.738412 2.9668,-0.388672 0,0.0223 0,0.03274 0.012,0.05664 0.763,2.26067 1.7064,2.043295 3.1367,1.478515 0.128,0.09288 0.2672,0.189538 0.3652,0.273438 0.642,0.54645 0.2856,0.212025 -0.3047,-0.296875 0.5794,-0.23046 1.23,-0.506718 1.9922,-0.705078 3.1978,-0.68005 6.4401,-1.136951 9.7012,-1.369141 37.6485,5.11792 33.915,4.554774 37.8633,1.746094 44.4398,-1.22307 16.7186,8.756672 26.5963,-21.237705 -2.4761,31.149757 12.4424,20.333552 36.183,21.892002 2.68,0.02 6.7048,0.56664 8.4648,-1.94336 0.027,-13.331479 -1.4645,0.235078 8.1914,3.0625 2.06,0.49 5.2218,-0.499609 7.3418,-0.599609 2.12,-0.09999 4.2598,-0.220391 6.2598,-0.150391 v -0.339843 c 1,-0.09 1.0697,-0.19 1.6797,-0.25 6.02,-0.56 11.5898,-0.110469 17.5898,0.269531 7,0.43 13.4596,-2.568359 20.3496,-2.568359 2.8,-0.02 6.4694,1.129062 9.1094,0.289062 2.64,-0.84 1.6406,-3.38 3.6406,-4.75 3.0502,-0.255178 6.3547,-0.06318 9.211,-0.660156 3.2463,-0.52525 3.8722,5.689784 7.1294,6.142114 2.72,0.35 5.1604,0.820469 7.4004,2.480469 2.5,1.829989 6.4599,-3.593365 9.7299,-3.423365 6.45,0.340001 12.8096,-0.168984 19.2696,0.541016 5.8,0.64 11.6292,0.879219 17.4492,1.199219 6.76,0.37 13.4014,1.310625 20.1914,0.890625 5.6357,-3.424842 25.9488,-0.990561 27.2171,-1.453266 3,-1.74 0.023,-5.915875 3.0231,-4.915875 2.62,0.9 3.4995,1.379297 5.1895,-0.470703 1.69,-1.85 1.3695,-6.55 3.5195,-8 1.65,0.8 1.9109,7.080235 2.2109,8.740234 0.39,1.970001 0.18,2.980313 2,3.820313 1.01,0.47 3.7097,0 4.8497,0 h 21.1289 c 23.8941,5.769 29.4004,-1 44.1504,-1 7.11,0 0.7049,3.126484 7.7949,2.646484 3.4,-0.23 20.3551,-3.717812 23.7851,-3.507812 3.43,0.21 7.6316,5.22544 10.1016,2.63544 6.6658,-15.521584 -0.3032,-2.930891 5.7617,-1.662784 2.3,0.29 4.547,3.349609 6.957,3.349609 3.68,-0.01 12.6304,-0.981796 16.3204,-0.841796 6.86,0.26 4.472,-2.238757 11.322,-1.828757 5.17,0.31 3.8244,2.204147 9.8244,2.604147 l 15.0352,0.466797 c 9.4563,2.747621 23.1024,-3.580716 25.7773,-3.802734 7.16,-0.44 17.6257,3.494375 24.7657,2.984375 4.19,-0.3 7.8574,-1.574265 12.6582,-0.291985 10.4807,-11.101459 -34.5647,-10.381068 -0.2088,-13.257967 1.89,0.11 5.0756,11.441358 5.6756,12.741358 1.68,3.7 3.1894,-0.914062 7.1894,-0.914062 3.13,-10e-7 6.2902,0.09961 9.4102,-0.150391 12.36,-1.01 15.7503,1.292344 28.0703,0.902344 -4.1217,0.48559 13.8444,1.355468 16.9844,0.355468 2.26,-0.69 8.0032,1.076563 8.3632,-1.523437 0.3529,-16.32101 4.2808,1.269252 13.8497,1.751953 2.72,0.23 5.0124,-2.746094 7.7324,-2.746094 0.86,0 3.3694,0.439922 4.1094,-0.08008 0.9,-0.59 0.1103,-0.769844 0.5703,-1.589844 0.88,-1.56 -0.3886,-1.51 1.7714,-2 1.08,-0.25 9.0715,7.09625 10.1915,7.15625 2.61,0.17 -0.4265,-4.445312 2.1835,-4.445312 2.1869,-4.2665 2.0146,0.929858 7.125,-0.732422 3.0526,-0.99295 -5.6777,4.666094 -2.4277,4.746094 13.05,0.31 14.8086,1.371562 27.8086,0.851562 7.08,-0.27996 31.6639,-0.524453 38.7539,-0.314453 5.79,0.2 16.7735,-2.282656 21.7735,-2.222656 h 1 v -0.109375 c 0.4319,0.0048 0.8637,-0.04924 1.2812,-0.160156 3.96,-0.71 8.0801,-0.160313 12.0801,0.179687 4.44,0.37 8.9094,0.550781 13.3594,0.550781 1.81,-0.01 3.4298,-0.200781 5.3398,-0.300781 1.91,-0.1 3.8212,0.508984 5.7012,0.208984 3.5,-0.559999 5.9864,-4.507656 8.3164,-6.847656 2.6385,8.80496 -3.6827,4.843993 -1.127,7.033203 2.91,-0.43 5.1645,1.097735 8.0645,0.927735 1.43,-0.09 5.8594,1.437968 7.1094,0.667968 0.9499,-0.589999 5.6546,0.756641 6.4746,0.306641 1.19,-0.62001 6.4994,-0.188984 8.1894,0.04102 6.52,0.87 2.8785,-2.042422 9.3984,-1.982422 1.42,0.01 9.4486,2.590781 10.2286,1.550781 2.0332,-12.235307 2.0381,-6.080198 5.4082,-5.408203 0.39,2.1 -0.5332,5.231172 1.4668,5.951172 2.18,0.78 5.92,-3.71961 8.25,-3.599609 2.61,0.14 0.1543,5.170781 2.1543,3.300781 1.42,-1.32 5.8985,-1.168516 7.9785,-1.478516 2.86,-0.43 4.8003,-0.450156 6.3203,1.089844 1.31,1.34 3.4859,-3.050938 5.2559,-2.960938 2.8899,0.15 0.1725,3.953125 3.0624,3.953125 10.3,0.16998 5.3733,-5.362225 15.6033,-4.512225 3.8806,-2.50544 31.8305,4.85584 37.4143,2.62746 -1.3692,3.65473 9.021,2.880859 13.711,2.880859 1.1878,-0.208859 2.3862,-0.352304 3.5898,-0.429687 5.56,-0.19 10.7796,0.150547 16.3496,-0.189453 6.54,-0.390001 13.0909,-0.63 19.6309,-1 5,-0.28 13.1498,0.809375 17.0898,-2.890626 1.4,-1.319999 3.8507,-5.800781 5.7207,-5.800781 2.08,0 3.77,4.830782 6,5.300781 0.85,0.15 2.3498,-0.739609 3.2598,-0.849609 1.423,-0.0856 2.851,-0.01881 4.2598,0.199219 2.4824,0.105586 4.9417,0.522253 7.3203,1.240234 5.82,2.15 12.58,0.949688 18.75,0.679688 5.77,-0.26 11.529,-0.770625 17.289,-1.140625 13.19,-0.86 28.2215,2.750137 39,-0.488281 23.3888,5.497789 14.9519,3.350808 28.4805,-2.521485 1.25,4.08 3.4502,2.911016 7.1602,2.791016 15.496,-6.270697 23.7014,2.888268 27.5586,1.96875 3.1982,-0.679808 6.4397,-1.137283 9.7011,-1.369141 13.07,-1.51 26.5104,-0.900469 39.6504,-1.230469 13.48,-0.33 26.8391,0.421016 40.2891,0.791016 7.05,0.19 13.93,1.43 21,1.5 2.68,0.02 4.9197,0.269766 6.6797,-2.240234 1.3,-1.9 16.4368,-7.755606 17.5868,-9.815606 2.17,2.85 -11.5671,13.644824 -7.9071,14.514824 2.0599,0.49 5.2217,-0.499609 7.3417,-0.599609 2.12,-0.09999 4.2598,-0.220391 6.2598,-0.150391 v -0.339843 c 1,-0.09 1.0697,-0.19 1.6797,-0.25 6.02,-0.56 11.5898,-0.110469 17.5898,0.269531 7,0.43 13.4597,-2.568359 20.3497,-2.568359 2.8,-0.02 6.4693,1.129062 9.1093,0.289062 2.64,-0.84 1.6407,-3.38 3.6407,-4.75 1.06,-0.77 3.1994,0 4.4394,0 1.6042,-0.106328 3.1987,-0.32694 4.7715,-0.660156 3.2458,-0.524901 6.5519,-0.561766 9.8086,-0.109375 2.72,0.35 5.1604,0.820469 7.4004,2.480469 2.5,1.83 3.7808,2.658124 7.0508,2.828124 6.45,0.34 12.8095,-0.168984 19.2695,0.541016 5.8,0.64 11.6292,0.879219 17.4492,1.199219 6.76,0.37 13.4014,1.310625 20.1914,0.890625 3.26,-0.23 6.449,-1.230469 9.709,-1.230469 3.42,0 2.2006,-1.069844 4.8906,-2.589844 1.39,-0.82 3.8295,-0.41 5.4395,-1 1.4681,-0.631513 2.8745,-1.397815 4.2011,-2.289062 3,-1.74 3,-0.259766 6,0.740234 2.62,0.9 3.4995,1.379297 5.1895,-0.470703 1.69,-1.85 1.3695,-6.55 3.5195,-8 1.65,0.8 1.911,7.080235 2.211,8.740234 0.39,1.97 0.18,2.980313 2,3.820313 1.01,0.47 3.7096,0 4.8496,0 h 21.1289 c 14.75,0.13 29.4004,-1 44.1504,-1 7.11,0 14.2498,0.300313 21.3398,-0.179687 3.4,-0.230001 6.8103,-0.891641 10.2403,-0.681641 3.43,0.21 4.0592,-0.728359 6.5293,-3.318359 2.0699,-2.140001 4.4622,5.961459 7.6322,7.121459 2.68,0.979999 3.2381,-5.553256 6.0181,-5.213256 2.3,0.29 5.4397,-0.519532 7.8497,-0.519532 3.6799,-0.01 7.4213,0.06117 11.1113,0.201172 6.86,0.26 13.8492,0.59 20.6992,1 5.17,0.31 9.6309,1.308985 15.6309,1.708985 v 0.169922 c 2,-0.100001 5.6289,0.769531 8.6289,0.769531 5.82,0 11.18,-0.64 17,-1 7.16,-0.44 14.3502,0.07055 21.4902,-0.439453 4.19,-0.3 5.1789,-7.526926 8.7889,-9.816926 1.55,-0.98 7.2599,11.349935 8.8699,11.449935 1.89,0.11 4.9264,-9.696049 5.5264,-8.396049 1.68,3.70017 1.4046,8.464212 5.4046,8.464212 3.13,0 6.2902,0.09961 9.4102,-0.150391 12.36,-1.01 24.68,-0.789688 37,-1.179688 3.31,-0.1 8.0397,0.759766 11.1797,-0.240234 2.26,-0.69 1.8998,-0.860938 2.2598,-3.460937 0.2295,-2.702743 5.5574,-2.389533 6.4446,-4.952788 57.9804,-2.116178 2.3637,1.81892 4.259,4.18927 -12.9634,4.224455 2.3618,6.007972 5.0818,6.237972 2.72,0.23 6.0551,-1.853361 8.7751,-1.853361 0.86,0 3.3713,0.439922 4.1113,-0.08008 0.9,-0.59 0.1084,-0.769844 0.5684,-1.589844 0.88,-1.56 -0.3885,-1.51 1.7715,-2 1.08,-0.25 2.8194,0.248594 3.9394,0.308594 2.61,0.17 5.2299,0.169922 7.8399,0.169922 3.08,0.05 5.1407,-0.41 7.7207,1.5 2.58,1.91 5.039,1.541094 8.289,1.621094 13.05,0.31 26.2696,1.52 39.2696,1 7.08,-0.28 14.1014,-0.969766 21.1914,-0.759766 5.79,0.2 12.1601,1.139219 17.1601,1.199219 h 1 V 88.81054 c 0.4317,0.0046 0.8621,-0.04924 1.2793,-0.160156 3.96,-0.71 8.0801,-0.160313 12.0801,0.179687 4.44,0.37 8.9094,0.550781 13.3594,0.550781 1.81,-0.01 3.4298,-0.200781 5.3398,-0.300781 1.91,-0.1 3.8212,0.508984 5.7012,0.208984 3.5,-0.56 5.5391,-3.019374 7.8691,-5.359374 1.15,2.999999 1.2293,3.950937 4.5293,3.460937 2.91,-0.43 5.6117,-0.390547 8.5117,-0.560547 1.43,-0.09 3.1797,-0.05031 4.4297,-0.820312 0.9499,-0.59 1.3402,-2.219922 2.1602,-2.669922 1.19,-0.62 5.0091,1.150859 6.6992,1.380859 6.5199,0.87 12.9995,2.719297 19.5195,2.779297 1.42,0.01 2.7513,0.209922 3.5313,-0.830078 0.78,-1.04 0.9394,-3.370859 1.1894,-4.63086 8.3835,0.247438 2.0102,4.317353 5.0899,5.621094 2.18,0.78 5.92,0.149531 8.25,0.269532 2.61,0.14 4.4707,0.539921 6.4707,-1.330079 8.9224,-8.247267 5.5836,-3.370382 8.9297,0.400391 1.31,1.34 4.5405,0.790859 6.3105,0.880859 2.89,0.15 5.7487,0.269532 8.6387,0.269532 10.3001,0.17 20.77,0.630468 31,1.480468 5.4592,0.598834 10.9612,0.705384 16.4395,0.31836 4.63,-0.45 9.0209,-1.59961 13.7109,-1.59961 V 0 h -837 -362.1699 -837 -362.17 -362.1699 -837 H 837 Z"
     id="path2"
     inkscape:connector-curvature="0"
     sodipodi:nodetypes="ccccccccccccccsccccccccscccccccccscccccsscccccccscccccsccccccccscscscccsccccscccccccccscccccsccccccccccsccccccccccccccsccccccccccccccccsccccccccscccccccccccccccsscccccccscccccsccccccccscscscccsccccscccccccccscccccsccccccccccccccccccccccccccccsccccccccccccccccccccccccccccccccccccccccsccccccccccscccscscsccccccccccccscccccscccccccccccccccsccccccccccccccccccccccccscccccccccccccccccccccccscccccccccsccccscccscscsccccccccscccccsccccccsscccccscccccccccsccccccccsccccccccccccccccccc" />
</svg>
