<svg
  xmlns="http://www.w3.org/2000/svg"
  viewBox="0 0 155.3689 78.974091"
  height="100%"
  width="100%"
  preserveAspectRatio="none">
  <g transform="translate(-27.244127,-109.09673)">
  <path
  d="m 27.416153,146.96181 c -0.0265,-0.97773 1.23388,-1.89079 1.24182,-2.38556 0.0291,-2.28071 0.28872,-2.05654 -1.36134,-4.38959 1.12755,-1.79166 1.62988,-2.81692 1.95282,-4.27945 -0.59841,-1.46564 -0.41738,-3.12569 -0.71438,-4.51909 -0.73998,-2.69925 -0.73659,-3.64513 -0.87048,-6.32618 -0.045,-0.62178 -0.0826,-1.70808 -0.0826,-2.33779 -0.002,-1.56115 0.0232,-2.64842 0.21753,-4.19743 0.17462,-1.38906 0.46302,-2.75431 0.0952,-4.13544 -0.17041,-0.6918 -0.22318,-1.40735 -0.1561,-2.11666 0.0291,-0.66411 0.53824,-1.04889 0.32128,-1.68389 0.36115,-0.83268 0,0 1.08365,-1.20007 1.25113,0.0741 2.50538,0.0794 3.75709,0.0159 0.88371,-0.0265 2.20927,-0.28575 3.05858,-0.15875 1.51077,0.22754 1.8759,2.19075 2.77283,2.93423 0.47625,-0.52917 0.70909,-1.21179 1.25942,-1.70656 0.7276,-0.65617 1.64306,-0.59002 2.7596,-0.58473 2.91042,0.0185 5.76263,0.34131 8.66246,0.39158 12.63889,4.24058 10.8029,1.83049 16.637,0.20638 5.42396,-0.0847 10.97756,0.0714 16.37242,-0.32015 1.32292,-0.0952 2.71463,-0.14288 4.0058,-0.35719 1.11125,-0.18256 1.69862,-0.63764 2.14312,0.19579 0.32808,0.61648 -2.54242,1.63979 -1.74073,2.0737 0.52916,0.28311 3.96307,0.52648 4.479,0.10315 0.51594,-0.42333 1.23313,-1.83818 2.24913,-2.10012 0.42333,-0.10848 1.33614,0.18786 1.80181,0.22225 0.79375,0.0608 1.63512,0.037 2.4421,0.0185 1.034857,2.38096 2.493887,0.64012 3.345937,1.15122 1.92945,0.36278 2.4555,-1.20506 3.91158,-1.23324 2.45534,-0.0397 4.70959,-1.13997 7.13582,-0.89391 5.43719,0.55298 10.99079,1.13463 16.42269,0.91243 2.38125,-0.0979 3.10885,2.79363 5.4901,2.72748 2.54794,-0.0741 6.99029,-3.40746 9.39535,-2.84919 0.99224,0.19064 1.99832,0.30036 3.00832,0.32809 0.58463,0.0573 1.17246,0.075 1.75948,0.0529 0.37306,-0.0291 0.99483,-0.26459 1.34673,-0.22225 0.9181,0.12435 1.6166,1.38112 2.4765,1.38112 0.77258,0 1.78329,-1.16681 2.36273,-1.51077 1.63777,-0.97367 5.01914,-0.67998 7.06966,-0.75671 2.69875,-0.0979 5.40544,-0.15875 8.10419,-0.26458 2.29923,-0.0873 4.50321,-0.005 6.79715,-0.0503 0.85195,-0.0159 1.82281,0.94938 2.57423,1.20073 0.83608,0.2884 1.57179,0.10895 1.57972,0.78364 0.0212,1.67481 -0.41804,3.34698 -0.49212,5.02708 -0.0873,1.94204 -1.34101,5.23102 -1.22459,7.17306 0.20902,3.5613 1.10666,2.78397 0.99024,6.35849 -0.0317,0.889 0.25816,4.64004 -0.51707,5.34912 0.12346,1.04411 0.38445,1.05677 0.36593,1.89815 -0.0159,0.71437 -0.25271,1.11802 -0.31092,1.8324 -0.0238,0.30691 -0.96253,1.32829 -0.86464,1.61668 0.20109,0.59002 0.17728,0.24342 0.81228,0.48419 0.33337,0.127 0.38893,-0.09 0.64558,0.15875 0.21167,0.20373 0.0344,0.889 0.0318,1.12448 0.0153,0.74732 -0.0156,1.49487 -0.0926,2.23837 -0.0952,0.72232 -0.0159,1.34144 -0.84138,1.79917 -0.9525,0.52917 -2.55026,1.3673 -3.62447,1.82239 -0.94457,0.39952 -2.8038,3.43572 0.80019,2.00902 1.06019,0.25028 1.20487,-1.19663 2.29247,-1.13531 1.05833,0.10055 1.12448,0 1.40758,0.62177 0.39423,0.8599 0.0556,2.15371 0.0979,3.06123 0.15875,3.37609 -1.34333,6.93851 -0.93586,10.30931 0.0713,0.85704 1.50992,1.52853 1.48091,2.38805 -0.16537,1.10983 -0.71013,1.15907 -1.14848,2.17988 0.0347,1.08434 1.36608,0.88938 -0.27234,1.86295 0.41162,1.45285 0.60325,2.64054 0.72496,3.79942 0.20638,1.95527 0,3.92377 0.17992,5.88698 0.14552,1.5875 0.38629,3.175 0.39423,4.7625 0,0.87577 0.0847,1.74889 0.127,2.62202 0.045,1.01071 -0.38629,0.86254 -1.77536,0.84931 -2.60614,-0.0238 -9.12018,-0.13721 -11.72104,-0.24569 -2.83633,-0.11465 -0.57263,-2.7586 -3.41426,-2.82915 -1.52576,-0.0388 -2.29469,2.11607 -3.81869,2.11777 -0.99748,0 -4.17324,0.31939 -5.12838,0.24001 -1.15358,-0.0952 -1.86796,-1.09802 -2.97656,-1.37054 -1.32292,-0.32544 -1.80446,0.23813 -2.66171,0.84402 -1.02129,0.72231 -1.28059,0.98425 -2.69875,0.92604 -1.41817,-0.0582 -2.83104,0.12436 -4.23334,0.1905 -2.93422,0.13494 -9.80288,-0.94355 -11.80835,-1.31986 -2.52652,-0.47408 -9.19427,1.68502 -15.29292,1.6612 -2.9157,-0.0106 -5.83053,-0.0106 -8.74448,0 -0.47096,0 -1.5875,0.1323 -2.00819,0 l -2.40048,-0.70023 c -0.84618,-0.005 -1.46545,0.39936 -2.55554,0.14801 -1.24618,-0.2884 -1.723947,-0.40708 -2.935737,0.0771 -0.56318,0.25522 -1.0969,0.0912 -1.69107,0.26231 -0.66675,0.16669 -1.63021,-0.42217 -2.20435,-0.20788 -1.11125,0.42597 -0.60854,0.72495 -2.02407,0.72495 -1.34937,0 -2.667,0.28311 -4.01902,0.34132 -2.81252,0.11906 -5.55625,-0.14552 -8.35818,-0.24871 -2.40771,-0.09 -4.82071,-0.15611 -7.22048,-0.33338 -2.67494,-0.19843 -5.3049,-0.0582 -7.97455,-0.15081 -1.35202,-0.0476 -1.88383,-0.26458 -2.91041,-0.79375 -0.92869,-0.46302 -2.19926,-0.21733 -3.32374,-0.31258 -2.83788,0.85651 -4.20123,0.76999 -6.54314,1.41916 -2.4578,-0.12663 -5.15762,-0.36613 -6.3415,-0.34186 -2.85221,0 -5.5245,0.84137 -8.42433,0.71702 -2.48444,-0.10584 -5.0938,-0.34831 -7.58617,-0.19222 -1.83791,-0.241 -1.13185,-0.64539 -2.57024,-0.39158 -0.0134,-0.98822 0.16253,-3.30862 0.21015,-4.1738 -0.0412,-4.14016 0.2816,-3.06161 1.28493,-3.75255 -1.18589,-1.10974 -0.71193,2.05884 -1.3505,-5.90172 0.43127,-3.58246 0.69056,-7.19667 0.76993,-10.82146 0.0265,-1.01071 0.0635,-2.01348 0.13759,-3.02154 0.045,-0.61648 -0.24077,-1.74625 0.45508,-2.20663 0.79375,-0.52916 4.35414,0.28963 4.13189,-0.7105 -0.9298,-0.27659 -3.87237,-0.98137 -4.56293,-1.47614 -0.96838,-0.69585 -0.80946,-0.98188 -0.73803,-1.89204 0.0635,-0.81492 0.0695,-1.96633 0.0374,-3.08176 0.0585,-1.59644 -0.0497,-1.23233 -0.20412,-3.41198 z"
  style="fill:#f1eee5;stroke-width:0.26458332"
  />
  </g>
</svg>
