<?xml version="1.0" encoding="UTF-8" standalone="no"?>
<!-- Generator: Adobe Illustrator 19.0.0, SVG Export Plug-In . SVG Version: 6.00 Build 0)  -->

<svg
   xmlns:dc="http://purl.org/dc/elements/1.1/"
   xmlns:cc="http://creativecommons.org/ns#"
   xmlns:rdf="http://www.w3.org/1999/02/22-rdf-syntax-ns#"
   xmlns:svg="http://www.w3.org/2000/svg"
   xmlns="http://www.w3.org/2000/svg"
   xmlns:sodipodi="http://sodipodi.sourceforge.net/DTD/sodipodi-0.dtd"
   xmlns:inkscape="http://www.inkscape.org/namespaces/inkscape"
   version="1.1"
   id="Capa_1"
   x="0px"
   y="0px"
   viewBox="0 0 512 512"
   style="enable-background:new 0 0 512 512;"
   xml:space="preserve"
   sodipodi:docname="scroll.svg"
   inkscape:version="0.92.2 (5c3e80d, 2017-08-06)"><metadata
     id="metadata97"><rdf:RDF><cc:Work
         rdf:about=""><dc:format>image/svg+xml</dc:format><dc:type
           rdf:resource="http://purl.org/dc/dcmitype/StillImage" /></cc:Work></rdf:RDF></metadata><defs
     id="defs95" /><sodipodi:namedview
     pagecolor="#ffffff"
     bordercolor="#666666"
     borderopacity="1"
     objecttolerance="10"
     gridtolerance="10"
     guidetolerance="10"
     inkscape:pageopacity="0"
     inkscape:pageshadow="2"
     inkscape:window-width="1920"
     inkscape:window-height="1017"
     id="namedview93"
     showgrid="false"
     inkscape:zoom="0.92187498"
     inkscape:cx="144.67987"
     inkscape:cy="284.61133"
     inkscape:window-x="-8"
     inkscape:window-y="-8"
     inkscape:window-maximized="1"
     inkscape:current-layer="Capa_1" /><path
     inkscape:connector-curvature="0"
     style="fill:#c7c4b9;stroke-width:0.12006559"
     d="m 375.79758,139.28724 c -2.0936,0 -3.79071,4.53833 -3.79071,10.13648 0,5.59815 1.69719,10.13647 3.79071,10.13647 h 17.4837 v -20.27295 z"
     id="path16-7" /><g
     id="g6"><path
       style="fill:#a57545;"
       d="M124.947,85.387c-11.302,0-20.464,9.162-20.464,20.464s9.162,20.464,20.464,20.464h48.622V85.387   H124.947z"
       id="path2" /><path
       style="fill:#a57545;"
       d="M27.964,385.686c-11.302,0-20.464,9.162-20.464,20.464s9.162,20.464,20.464,20.464h48.622v-40.927   L27.964,385.686L27.964,385.686z"
       id="path4" /></g><path
     style="fill:#c7c4b9;"
     d="M186.958,54.222c-28.514,0-51.628,23.115-51.628,51.628v300.3h238.121v-300.3l51.628-51.628  C425.079,54.222,186.958,54.222,186.958,54.222z"
     id="path10" /><circle
     style="fill:#a57545;"
     cx="425.08"
     cy="105.85"
     r="51.628"
     id="circle14" /><path
     style="fill:#F5F2DC;"
     d="M83.701,354.522c-28.514,0-51.628,23.115-51.628,51.628s23.115,51.628,51.628,51.628h238.121V354.522  H83.701z"
     id="path16" /><circle
     style="fill:#a57545;"
     cx="321.82"
     cy="406.15"
     r="51.628"
     id="circle20" /><path
     style="fill:#a57545;"
     d="M435.414,85.387c-11.302,0-20.464,9.162-20.464,20.464s9.162,20.464,20.464,20.464h48.622V85.387  H435.414z"
     id="path28" /><circle
     style="fill:#a57545;"
     cx="484.04"
     cy="105.85"
     r="20.464"
     id="circle30" /><path
     style="fill:#a57545;"
     d="M332.158,385.686c-11.302,0-20.464,9.162-20.464,20.464s9.162,20.464,20.464,20.464h48.622v-40.927  L332.158,385.686L332.158,385.686z"
     id="path32" /><circle
     style="fill:#a57545;"
     cx="380.78"
     cy="406.15"
     r="20.464"
     id="circle34" /><path
     style="fill:#454445;"
     d="M171.02,139.254h49.334c4.143,0,7.5-3.358,7.5-7.5c0-4.142-3.357-7.5-7.5-7.5H171.02c-4.143,0-7.5,3.358-7.5,7.5  C163.52,135.896,166.877,139.254,171.02,139.254z"
     id="path36" /><path
     style="fill:#454445;"
     d="M275.985,139.254h49.334c4.143,0,7.5-3.358,7.5-7.5c0-4.142-3.357-7.5-7.5-7.5h-49.334c-4.143,0-7.5,3.358-7.5,7.5  C268.485,135.896,271.843,139.254,275.985,139.254z"
     id="path38" /><path
     style="fill:#454445;"
     d="M275.985,176.588h49.334c4.143,0,7.5-3.358,7.5-7.5s-3.357-7.5-7.5-7.5h-49.334c-4.143,0-7.5,3.358-7.5,7.5  S271.843,176.588,275.985,176.588z"
     id="path42" /><path
     style="fill:#454445;"
     d="M171.02,213.922h49.334c4.143,0,7.5-3.358,7.5-7.5s-3.357-7.5-7.5-7.5H171.02c-4.143,0-7.5,3.358-7.5,7.5  S166.877,213.922,171.02,213.922z"
     id="path44" /><path
     style="fill:#454445;"
     d="M171.02,251.256h49.334c4.143,0,7.5-3.358,7.5-7.5s-3.357-7.5-7.5-7.5H171.02c-4.143,0-7.5,3.358-7.5,7.5  S166.877,251.256,171.02,251.256z"
     id="path48" /><path
     style="fill:#454445;"
     d="M275.985,251.256h49.334c4.143,0,7.5-3.358,7.5-7.5s-3.357-7.5-7.5-7.5h-49.334c-4.143,0-7.5,3.358-7.5,7.5  S271.843,251.256,275.985,251.256z"
     id="path50" /><path
     style="fill:#454445;"
     d="M275.985,288.59h49.334c4.143,0,7.5-3.358,7.5-7.5s-3.357-7.5-7.5-7.5h-49.334c-4.143,0-7.5,3.358-7.5,7.5  S271.843,288.59,275.985,288.59z"
     id="path54" /><path
     style="fill:#454445;"
     d="M171.02,325.924h49.334c4.143,0,7.5-3.358,7.5-7.5s-3.357-7.5-7.5-7.5H171.02c-4.143,0-7.5,3.358-7.5,7.5  S166.877,325.924,171.02,325.924z"
     id="path56" /><path
     style="fill:#454445;"
     d="M275.985,325.924h49.334c4.143,0,7.5-3.358,7.5-7.5s-3.357-7.5-7.5-7.5h-49.334c-4.143,0-7.5,3.358-7.5,7.5  S271.843,325.924,275.985,325.924z"
     id="path58" /><path
     style="fill:#454445;"
     d="M484.036,77.887h-6.854c-10.24-19.083-30.175-31.165-52.103-31.165c-0.006,0-0.013,0-0.019,0H186.958  c-22.494,0-42.09,12.628-52.082,31.165h-9.928c-15.419,0-27.964,12.544-27.964,27.963s12.545,27.964,27.964,27.964h2.883v76.52  c0,4.142,3.357,7.5,7.5,7.5s7.5-3.358,7.5-7.5V105.85c0-24.332,19.796-44.128,44.128-44.128H385.78  c-12.156,10.837-19.829,26.6-19.829,44.128v260.935c-11.03-12.362-26.968-19.764-44.129-19.764H142.83V243.756  c0-4.142-3.357-7.5-7.5-7.5s-7.5,3.358-7.5,7.5v103.265H83.701c-22.494,0-42.09,12.628-52.082,31.165h-3.655  C12.545,378.187,0,390.731,0,406.15s12.545,27.963,27.964,27.963h3.655c9.993,18.537,29.589,31.165,52.082,31.165h128.966  c4.143,0,7.5-3.358,7.5-7.5s-3.357-7.5-7.5-7.5H83.701c-24.332,0-44.128-19.796-44.128-44.128s19.796-44.128,44.128-44.128h198.823  c-12.156,10.837-19.829,26.6-19.829,44.128s7.674,33.291,19.829,44.128H242c-4.143,0-7.5,3.358-7.5,7.5s3.357,7.5,7.5,7.5h79.822  c21.972,0,41.867-12.071,52.103-31.165h6.855c15.419,0,27.963-12.544,27.963-27.963c0-15.362-12.452-27.866-27.792-27.959V164.979  h44.128c21.973,0,41.867-12.071,52.102-31.165h6.855c15.419,0,27.964-12.544,27.964-27.964  C512,90.431,499.455,77.887,484.036,77.887z M124.947,118.814c-7.148,0-12.964-5.815-12.964-12.964  c0-7.148,5.815-12.963,12.964-12.963h4.332c-0.938,4.175-1.449,8.509-1.449,12.963v12.964H124.947z M15,406.15  c0-6.473,4.774-11.837,10.984-12.796c-0.914,4.123-1.41,8.402-1.41,12.796s0.497,8.672,1.41,12.796  C19.774,417.987,15,412.623,15,406.15z M459.271,118.814h-23.857c-7.147,0-12.963-5.815-12.963-12.964  c0-7.148,5.815-12.963,12.963-12.963h23.857c-2.038,3.878-3.198,8.287-3.198,12.963  C456.073,110.527,457.233,114.936,459.271,118.814z M356.015,419.113h-23.857c-7.147,0-12.963-5.815-12.963-12.963  s5.815-12.964,12.963-12.964l23.33,1.052c-1.71,3.616-2.671,7.654-2.671,11.912C352.816,410.827,353.976,415.235,356.015,419.113z   M321.822,450.278c-24.332,0-44.128-19.796-44.128-44.128s19.796-44.128,44.128-44.128c13.449,0,25.892,6.092,34.144,16.165h-23.809  c-15.419,0-27.963,12.544-27.963,27.964c0,15.419,12.544,27.963,27.963,27.963h23.819  C347.732,444.192,335.301,450.278,321.822,450.278z M393.743,406.15c0,7.148-5.815,12.963-12.963,12.963  s-12.964-5.815-12.964-12.963s5.815-12.963,12.964-12.963C387.928,393.187,393.743,399.002,393.743,406.15z M380.951,149.979v-4.829  c1.516,1.701,3.128,3.313,4.829,4.829H380.951z M425.079,149.979c-24.332,0-44.128-19.796-44.128-44.128  c0-24.326,19.786-44.117,44.109-44.128h0.019c0.002,0,0.005,0,0.007,0c13.446,0.002,25.886,6.093,34.137,16.165h-23.809  c-15.419,0-27.963,12.544-27.963,27.963s12.544,27.964,27.963,27.964h23.818C450.988,143.892,438.557,149.979,425.079,149.979z   M484.036,118.814c-7.147,0-12.963-5.815-12.963-12.964c0-7.148,5.815-12.963,12.963-12.963S497,98.702,497,105.85  C497,112.999,491.185,118.814,484.036,118.814z"
     id="path60" /><g
     id="g62" /><g
     id="g64" /><g
     id="g66" /><g
     id="g68" /><g
     id="g70" /><g
     id="g72" /><g
     id="g74" /><g
     id="g76" /><g
     id="g78" /><g
     id="g80" /><g
     id="g82" /><g
     id="g84" /><g
     id="g86" /><g
     id="g88" /><g
     id="g90" /></svg>