<?xml version="1.0" encoding="UTF-8" standalone="no"?>
<!-- Generator: Adobe Illustrator 19.0.0, SVG Export Plug-In . SVG Version: 6.00 Build 0)  -->

<svg
   xmlns:dc="http://purl.org/dc/elements/1.1/"
   xmlns:cc="http://creativecommons.org/ns#"
   xmlns:rdf="http://www.w3.org/1999/02/22-rdf-syntax-ns#"
   xmlns:svg="http://www.w3.org/2000/svg"
   xmlns="http://www.w3.org/2000/svg"
   xmlns:sodipodi="http://sodipodi.sourceforge.net/DTD/sodipodi-0.dtd"
   xmlns:inkscape="http://www.inkscape.org/namespaces/inkscape"
   version="1.1"
   id="Capa_1"
   x="0px"
   y="0px"
   viewBox="0 0 511.999 511.999"
   style="enable-background:new 0 0 511.999 511.999;"
   xml:space="preserve"
   sodipodi:docname="torch.svg"
   inkscape:version="0.92.2 (5c3e80d, 2017-08-06)"><metadata
     id="metadata73"><rdf:RDF><cc:Work
         rdf:about=""><dc:format>image/svg+xml</dc:format><dc:type
           rdf:resource="http://purl.org/dc/dcmitype/StillImage" /></cc:Work></rdf:RDF></metadata><defs
     id="defs71" /><sodipodi:namedview
     pagecolor="#ffffff"
     bordercolor="#666666"
     borderopacity="1"
     objecttolerance="10"
     gridtolerance="10"
     guidetolerance="10"
     inkscape:pageopacity="0"
     inkscape:pageshadow="2"
     inkscape:window-width="1920"
     inkscape:window-height="1017"
     id="namedview69"
     showgrid="false"
     inkscape:zoom="1.3037307"
     inkscape:cx="232.39805"
     inkscape:cy="306.83892"
     inkscape:window-x="-8"
     inkscape:window-y="-8"
     inkscape:window-maximized="1"
     inkscape:current-layer="Capa_1" /><path
     style="fill:#FF9811;"
     d="M199.445,168.518c0,0-12.407-71.52,62.033-104.361c34.825-15.364,46.489-34.401,49.042-50.313  c1.166-7.267,11.043-8.707,14.378-2.146c16.841,33.133,31.419,91.507-13.795,164.011c-0.728,1.567-2.007,110.399-2.007,110.399  H198.669L199.445,168.518z"
     id="path2" /><path
     style="fill:#c7c4b9;"
     d="M264.687,496.859l23.267-180.681h-63.907l23.268,180.681  C248.627,507.045,263.375,507.045,264.687,496.859z"
     id="path6" /><rect
     x="191.961"
     y="203.379"
     style="fill:#F5F2DC;"
     width="128.08"
     height="20.874"
     id="rect18" /><path
     style="fill:#F5F2DC;"
     d="M255.996,284.466h0.009c6.021,0,10.947-4.926,10.947-10.947V135.586  c0-6.021-4.926-10.947-10.947-10.947h-0.009c-6.021,0-10.947,4.926-10.947,10.947v137.933  C245.049,279.54,249.975,284.466,255.996,284.466z"
     id="path20" /><path
     style="fill:#F5F2DC;"
     d="M202.906,286.108c-6.046,0-10.947-4.901-10.947-10.947l0.004-71.778  c0.276-11.24-2.592-43.818-18.845-45.801c-6.002-0.732-10.273-6.19-9.541-12.191c0.731-6.001,6.197-10.278,12.191-9.541  c11.957,1.458,27.694,9.254,34.76,38.115c3.509,14.333,3.361,28.056,3.324,29.842v71.354  C213.853,281.207,208.952,286.108,202.906,286.108z"
     id="path24" /><path
     style="fill:#F5F2DC;"
     d="M309.096,286.108c6.046,0,10.947-4.901,10.947-10.947l-0.004-71.778  c-0.276-11.24,2.592-43.818,18.845-45.801c6.002-0.732,10.273-6.19,9.541-12.191c-0.731-6.001-6.197-10.278-12.191-9.541  c-11.957,1.458-27.694,9.254-34.76,38.115c-3.509,14.333-3.361,28.056-3.324,29.842v71.354  C298.149,281.207,303.05,286.108,309.096,286.108z"
     id="path28" /><path
     style="fill:#329b9f;"
     d="M191.961,275.415v4.303c0,35.222,28.818,64.04,64.04,64.04l0,0c35.222,0,64.04-28.818,64.04-64.04  v-4.303c0-6.65-5.391-12.042-12.042-12.042H204.002C197.352,263.373,191.961,268.765,191.961,275.415z"
     id="path32" /><path
     style="fill:#454445;"
     d="M355.869,144.484c-0.597-4.894-3.065-9.263-6.951-12.301c-2.307-1.804-4.953-2.994-7.74-3.55  c6.3-20.553,8.7-41.135,7.12-61.317c-0.323-4.129-3.926-7.213-8.063-6.892c-4.129,0.323-7.215,3.933-6.892,8.063  c1.609,20.559-1.365,41.652-8.815,62.729c-11.089,4.52-24.074,15.375-30.34,40.965c-2.213,9.039-3.062,17.738-3.377,23.817h-16.359  v-60.412c0-10.171-8.275-18.447-18.457-18.447c-10.171,0-18.447,8.275-18.447,18.447v60.296h-16.365  c-0.319-6.074-1.172-14.72-3.371-23.702c-2.69-10.985-6.62-19.251-11.104-25.471c2.53-24.204,14.683-56.67,57.796-75.691  c31.696-13.983,49.664-32.793,53.43-56.003c0.08-0.022,0.182-0.032,0.209-0.027c0,0,0.027,0.028,0.067,0.108  c4.016,7.9,7.313,16.17,9.799,24.583c1.174,3.973,5.347,6.239,9.318,5.066c3.972-1.174,6.241-5.346,5.066-9.318  c-2.745-9.288-6.383-18.415-10.812-27.128c-2.988-5.877-9.384-9.139-15.92-8.112c-6.573,1.031-11.499,5.925-12.549,12.469  c-2.856,17.806-17.884,32.824-44.664,44.639c-44.799,19.764-60.001,53.148-64.961,76.964c-6.151-3.762-12.194-5.291-16.806-5.853  c-4.89-0.606-9.717,0.74-13.6,3.776c-3.886,3.039-6.354,7.407-6.951,12.301c-1.23,10.096,5.982,19.312,16.079,20.543  c8.028,0.979,12.62,23.262,12.254,38.171c-0.001,0.061-0.002,0.123-0.002,0.184v7.551c0,4.142,3.357,7.5,7.5,7.5l0,0  c4.142,0,7.5-3.357,7.5-7.5v-7.503c0.039-2.908,0.242-50.162-25.437-53.293c-1.886-0.23-3.234-1.952-3.004-3.839  c0.15-1.233,1.354-3.3,3.839-3.003c13.983,1.668,23.528,12.623,28.383,32.453c3.299,13.479,3.14,26.47,3.11,27.907  c-0.001,0.051-0.001,0.101-0.001,0.152v52.067h-2.35c-1.566,0-3.082,0.205-4.543,0.555l0.001-13.679c0-4.142-3.357-7.5-7.5-7.5l0,0  c-4.142,0-7.5,3.357-7.5,7.5v36.97c0,26.214,14.181,49.166,35.265,61.625l4.154,32.257c-3.074,3.641-4.936,8.337-4.936,13.464  c0,7.045,3.513,13.275,8.868,17.065l12.065,93.688c1.075,8.35,7.706,14.181,16.125,14.181c8.418,0,15.049-5.831,16.124-14.181  l3.651-28.35c0.529-4.108-2.373-7.868-6.48-8.396c-4.109-0.534-7.868,2.373-8.396,6.48l-3.651,28.35  c-0.06,0.463-0.141,1.097-1.247,1.097c-1.106,0-1.188-0.634-1.248-1.097l-11.323-87.927h25.141l-3.707,28.79  c-0.529,4.108,2.373,7.868,6.48,8.396c0.325,0.042,7.156,1.337,8.396-6.48l4.449-34.551c5.355-3.79,8.868-10.02,8.868-17.065  c0-5.127-1.862-9.823-4.936-13.464l4.154-32.257c21.085-12.459,35.266-35.411,35.266-61.625l-0.002-76.336  c0-0.061-0.001-0.123-0.002-0.184c-0.366-14.91,4.226-37.192,12.254-38.171C349.887,163.796,357.1,154.58,355.869,144.484z   M274.452,255.873v-24.116h16.196v24.116H274.452z M290.649,210.998v5.759h-16.196v-5.759H290.649z M256.006,132.139  c1.868,0,3.447,1.579,3.447,3.447v120.287h-6.903V135.586C252.549,133.718,254.128,132.139,256.006,132.139z M237.549,216.757  h-16.196v-5.875h16.196V216.757z M221.353,231.757h16.196v24.116h-16.196V231.757z M278.058,387.064c0,3.259-2.651,5.91-5.91,5.91  h-32.294c-3.259,0-5.91-2.651-5.91-5.91s2.651-5.91,5.91-5.91h32.294C275.406,381.154,278.058,383.805,278.058,387.064z   M273.945,366.245c-0.594-0.051-35.295-0.051-35.889,0l-2.308-17.925c6.426,1.9,13.219,2.938,20.252,2.938  c7.034,0,13.827-1.037,20.252-2.938L273.945,366.245z M312.541,279.718c0,31.176-25.364,56.54-56.54,56.54  s-56.54-25.364-56.54-56.54v-4.303c0-2.504,2.038-4.542,4.542-4.542h103.996c2.504,0,4.542,2.037,4.542,4.542L312.541,279.718  L312.541,279.718z M337.975,150.138c-25.679,3.131-25.476,50.385-25.437,53.293l0.003,52.998c-1.461-0.35-2.977-0.555-4.543-0.555  h-2.35v-52.067c0-0.051,0-0.101-0.001-0.152c-0.029-1.437-0.189-14.428,3.11-27.906c4.855-19.831,14.36-31.17,28.391-32.454  c3.228-0.295,3.681,1.771,3.832,3.004C341.21,148.185,339.862,149.908,337.975,150.138z"
     id="path36" /><g
     id="g38" /><g
     id="g40" /><g
     id="g42" /><g
     id="g44" /><g
     id="g46" /><g
     id="g48" /><g
     id="g50" /><g
     id="g52" /><g
     id="g54" /><g
     id="g56" /><g
     id="g58" /><g
     id="g60" /><g
     id="g62" /><g
     id="g64" /><g
     id="g66" /></svg>