<?xml version="1.0" encoding="UTF-8" standalone="no"?>
<!-- Generator: Adobe Illustrator 19.0.0, SVG Export Plug-In . SVG Version: 6.00 Build 0)  -->

<svg
   xmlns:dc="http://purl.org/dc/elements/1.1/"
   xmlns:cc="http://creativecommons.org/ns#"
   xmlns:rdf="http://www.w3.org/1999/02/22-rdf-syntax-ns#"
   xmlns:svg="http://www.w3.org/2000/svg"
   xmlns="http://www.w3.org/2000/svg"
   xmlns:sodipodi="http://sodipodi.sourceforge.net/DTD/sodipodi-0.dtd"
   xmlns:inkscape="http://www.inkscape.org/namespaces/inkscape"
   version="1.1"
   id="Layer_1"
   x="0px"
   y="0px"
   viewBox="0 0 512 512"
   style="enable-background:new 0 0 512 512;"
   xml:space="preserve"
   sodipodi:docname="tower.svg"
   inkscape:version="0.92.2 (5c3e80d, 2017-08-06)"><metadata
     id="metadata69"><rdf:RDF><cc:Work
         rdf:about=""><dc:format>image/svg+xml</dc:format><dc:type
           rdf:resource="http://purl.org/dc/dcmitype/StillImage" /></cc:Work></rdf:RDF></metadata><defs
     id="defs67" /><sodipodi:namedview
     pagecolor="#ffffff"
     bordercolor="#666666"
     borderopacity="1"
     objecttolerance="10"
     gridtolerance="10"
     guidetolerance="10"
     inkscape:pageopacity="0"
     inkscape:pageshadow="2"
     inkscape:window-width="1920"
     inkscape:window-height="1017"
     id="namedview65"
     showgrid="false"
     inkscape:zoom="0.921875"
     inkscape:cx="116.40094"
     inkscape:cy="317.43666"
     inkscape:window-x="-8"
     inkscape:window-y="-8"
     inkscape:window-maximized="1"
     inkscape:current-layer="Layer_1" /><polygon
     style="fill:#c7c4b9;"
     points="329.208,9.712 329.208,66.703 287.586,66.703 287.586,9.712 223.108,9.712 223.108,66.703   181.487,66.703 181.487,9.712 122.933,9.712 108.162,200.007 402.533,200.007 387.762,9.712 "
     id="polygon2" /><g
     id="g8"
     transform="matrix(1,0,0,0.60053633,0,201.30332)"><rect
       x="137.149"
       y="-10.745167"
       style="fill:#c7c4b9;stroke-width:1.30130363"
       width="236.39"
       height="514.67914"
       id="rect6" /></g><g
     id="g22"><path
       style="fill:#3E3D42;"
       d="M189.585,104.918L189.585,104.918c-16.196,0-29.327,13.13-29.327,29.327v28.438h58.654v-28.438   C218.911,118.047,205.782,104.918,189.585,104.918z"
       id="path18" /><path
       style="fill:#3E3D42;"
       d="M321.11,104.918L321.11,104.918c-16.196,0-29.327,13.13-29.327,29.327v28.438h58.654v-28.438   C350.437,118.047,337.307,104.918,321.11,104.918z"
       id="path20" /></g><path
       style="fill:#454445;"
     d="M412.046,198.495L397.275,8.2c-0.359-4.629-4.219-8.2-8.86-8.2h-58.553c-4.908,0-8.887,3.979-8.887,8.887v48.104h-23.848  V8.887c0-4.908-3.979-8.887-8.887-8.887H223.76c-4.908,0-8.887,3.979-8.887,8.887v48.104h-23.848V8.887  c0-4.908-3.979-8.887-8.887-8.887h-58.553c-4.642,0-8.501,3.572-8.861,8.2l-4.767,61.411c-0.379,4.894,3.28,9.168,8.173,9.549  c4.882,0.383,9.168-3.279,9.549-8.173l4.132-53.212h41.442v48.104c0,4.908,3.979,8.887,8.887,8.887h41.622  c4.908,0,8.887-3.979,8.887-8.887V17.775h46.705v48.104c0,4.908,3.979,8.887,8.887,8.887h41.622c4.908,0,8.887-3.979,8.887-8.887  V17.775h41.442l13.391,172.52H118.418l6.673-85.962c0.379-4.894-3.28-9.168-8.173-9.549c-4.887-0.38-9.169,3.279-9.549,8.173  l-7.416,95.537c-0.192,2.469,0.655,4.906,2.338,6.724s4.047,2.851,6.523,2.851h20.103v295.043c0,4.908,3.979,8.887,8.887,8.887  h236.39c4.908,0,8.887-3.979,8.887-8.887V272.589c0-4.908-3.979-8.887-8.887-8.887c-4.908,0-8.887,3.979-8.887,8.887v221.636  H146.693V208.07h218.616v31.34c0,4.908,3.979,8.887,8.887,8.887c4.908,0,8.887-3.979,8.887-8.887v-31.34h20.103  c2.477,0,4.841-1.033,6.523-2.851C411.39,203.401,412.237,200.963,412.046,198.495z"
     id="path24" /><path
     style="fill:#454445;"
     d="M219.564,170.744c4.908,0,8.887-3.979,8.887-8.887v-28.438c0-21.071-17.143-38.214-38.214-38.214  c-21.071,0-38.214,17.143-38.214,38.214v28.438c0,4.908,3.979,8.887,8.887,8.887H219.564z M169.799,133.42  c0-11.27,9.169-20.44,20.44-20.44s20.44,9.169,20.44,20.44v19.551h-40.879L169.799,133.42L169.799,133.42z"
     id="path28" /><path
     style="fill:#454445;"
     d="M351.089,170.744c4.908,0,8.887-3.979,8.887-8.887v-28.438c0-21.071-17.143-38.214-38.214-38.214  c-21.071,0-38.214,17.143-38.214,38.214v28.438c0,4.908,3.979,8.887,8.887,8.887H351.089z M301.324,133.42  c0-11.27,9.169-20.44,20.44-20.44c11.27,0,20.44,9.169,20.44,20.44v19.551h-40.879V133.42z"
     id="path30" /><path
     style="fill:#454445;"
     d="m 196.317,268.523 c -4.908,0 -8.887,3.979 -8.887,8.887 0,4.908 3.979,8.887 8.887,8.887 h 59.249 c 4.908,0 8.887,-3.979 8.887,-8.887 0,-4.908 -3.979,-8.887 -8.887,-8.887 h -31.402 v -19.169 h 19.552 c 4.908,0 8.887,-3.979 8.887,-8.887 0,-4.908 -3.979,-8.887 -8.887,-8.887 h -59.249 c -4.908,0 -8.887,3.979 -8.887,8.887 0,4.908 3.979,8.887 8.887,8.887 h 21.922 v 19.169 z"
     id="path32"
     inkscape:connector-curvature="0" /><g
     id="g34" /><g
     id="g36" /><g
     id="g38" /><g
     id="g40" /><g
     id="g42" /><g
     id="g44" /><g
     id="g46" /><g
     id="g48" /><g
     id="g50" /><g
     id="g52" /><g
     id="g54" /><g
     id="g56" /><g
     id="g58" /><g
     id="g60" /><g
     id="g62" /><g
     transform="translate(-3.73779,0.21299)"
     id="g927"><path
       style="fill:#a37343;stroke-width:0.30526376"
       d="m 201.23376,459.5702 c 6.86457,-46.76952 1.10411,-51.55137 1.5863,-54.75379 2.2278,-14.79602 7.35713,-25.60016 13.06055,-37.17638 4.88735,-9.91987 13.83787,-18.3974 21.69548,-26.01427 11.96272,-11.59621 11.68484,-9.43331 25.93195,-9.40335 15.91421,0.0335 22.22952,-0.0749 35.66993,14.98127 5.18003,5.80274 8.14993,5.661 8.15468,8.62526 0.004,2.27033 3.15099,6.28831 1.57675,7.48904 l -1.01731,0.77594 1.24736,2.19612 c 1.51293,2.66368 4.35273,8.86933 5.70208,12.46044 l 0.98924,2.63274 2.33973,-0.0233 c 1.75159,-0.0174 0.58256,4.92985 1.63137,5.40393 1.55389,0.70239 1.65103,2.18549 2.36554,3.5672 0.62161,1.20206 3.04202,4.81245 3.99084,9.96195 1.71577,9.31198 -5.0541,7.30695 -0.0239,61.40725 l 4.60219,49.49667 -68.34839,-5.17746 -68.7319,5.17746 z"
       id="path931"
       inkscape:connector-curvature="0"
       sodipodi:nodetypes="sccscscsccccccssscccs" /><path
       style="fill:#454445;stroke-width:0.30526376"
       d="m 194.05479,458.31001 0.0897,-52.88695 0.8348,-4.88422 c 4.26448,-24.9503 14.37779,-45.75642 29.20306,-60.07948 9.40609,-9.08746 17.7326,-13.81608 28.40667,-16.13216 2.79311,-0.60605 4.0492,-0.69388 9.76844,-0.68299 7.33845,0.014 9.70619,0.3765 15.81964,2.42218 9.03805,3.02432 18.99154,10.28055 27.20758,19.83469 6.1158,7.11185 7.15607,9.48258 5.94718,13.55337 -0.55551,1.87061 -2.37107,4.01499 -4.23954,5.0074 -0.96296,0.51146 -1.77236,0.65699 -3.67689,0.66111 -3.59057,0.008 -4.95287,-0.82897 -8.16836,-5.01709 -1.35961,-1.77086 -4.1303,-4.88113 -6.1571,-6.9117 -6.5088,-6.52093 -12.31464,-10.23247 -18.66481,-11.932 -2.68063,-0.71743 -3.61287,-0.81317 -8.0677,-0.82848 -5.59861,-0.0192 -8.13726,0.43725 -12.50722,2.24903 -5.65037,2.34264 -12.61103,7.83229 -18.00939,14.20341 -10.0158,11.82061 -16.58561,26.74872 -20.08466,45.63693 l -0.81998,4.42632 -0.0922,43.72904 -0.0922,43.72903 h 3.66213 3.66213 l 0.10227,-43.27114 0.10228,-43.27113 0.80304,-4.29063 c 3.10947,-16.61393 8.81326,-29.98913 17.24584,-40.44095 4.09923,-5.08083 10.31962,-10.41412 14.78774,-12.67886 7.25366,-3.67662 16.6584,-3.36007 23.75593,0.79959 4.5302,2.65502 10.8804,8.66137 14.93275,14.12417 7.60827,10.25636 12.53282,22.42619 15.64828,38.67088 0.67128,3.50022 0.67356,3.63804 0.77619,46.9343 l 0.10293,43.42377 h 3.65418 3.65417 v -42.41603 c 0,-35.81238 -0.0708,-42.95599 -0.45465,-45.88425 -0.46811,-3.57102 -1.46144,-8.71567 -2.60014,-13.46672 -0.71866,-2.99851 -0.64188,-4.39866 0.35747,-6.51858 0.77542,-1.6449 3.19561,-3.82976 4.76218,-4.29911 4.04266,-1.21121 8.37578,0.48886 10.18272,3.99511 0.65747,1.27576 2.41192,8.29604 3.15268,12.61514 1.42703,8.32046 1.38925,6.65536 1.38925,61.23128 v 51.53267 h -68.23313 -68.23313 z m 95.39779,-6.2579 -0.0898,-42.35535 -0.69732,-3.51054 c -2.3489,-11.82507 -5.84251,-20.9947 -10.87307,-28.53837 -4.21289,-6.31752 -10.29199,-11.92372 -13.77462,-12.70311 -3.41629,-0.76453 -6.01563,0.35642 -10.53996,4.54525 -9.15742,8.47837 -15.81616,23.06341 -18.11711,39.68305 -0.41286,2.98206 -0.47691,8.93726 -0.47691,44.33956 v 40.89485 h 27.32933 27.32933 z"
       id="path929"
       inkscape:connector-curvature="0" /></g></svg>